G04 #@! TF.FileFunction,Copper,L1,Top,Signal*
%FSLAX46Y46*%
G04 Gerber Fmt 4.6, Leading zero omitted, Abs format (unit mm)*
G04 Created by KiCad (PCBNEW 4.0.0-rc2-stable) date 2016-03-30 14:05:51*
%MOMM*%
G01*
G04 APERTURE LIST*
%ADD10C,0.150000*%
%ADD11C,0.225000*%
%ADD12C,3.606800*%
%ADD13R,0.750000X0.900000*%
%ADD14R,0.900000X0.750000*%
%ADD15R,1.270000X2.540000*%
%ADD16R,2.540000X1.270000*%
%ADD17C,1.600200*%
%ADD18R,0.800100X0.299720*%
%ADD19R,4.000000X5.000000*%
%ADD20C,1.998980*%
%ADD21R,1.397000X0.889000*%
%ADD22R,1.300480X0.599440*%
%ADD23C,1.450000*%
%ADD24R,0.400000X1.350000*%
%ADD25O,1.200000X1.900000*%
%ADD26R,0.700000X1.500000*%
%ADD27R,1.500000X2.000000*%
%ADD28R,1.800000X1.400000*%
%ADD29C,0.640080*%
%ADD30C,0.381000*%
%ADD31C,0.508000*%
%ADD32C,0.254000*%
%ADD33C,0.635000*%
%ADD34C,0.304800*%
%ADD35C,1.016000*%
%ADD36C,0.354000*%
G04 APERTURE END LIST*
D10*
D11*
X114960001Y-92139729D02*
X115388572Y-92139729D01*
X114874286Y-92425661D02*
X115174286Y-91424901D01*
X115474286Y-92425661D01*
X115774287Y-92330350D02*
X115817144Y-92378006D01*
X115774287Y-92425661D01*
X115731430Y-92378006D01*
X115774287Y-92330350D01*
X115774287Y-92425661D01*
X116202858Y-92425661D02*
X116202858Y-91424901D01*
X116545715Y-91424901D01*
X116631429Y-91472556D01*
X116674286Y-91520211D01*
X116717143Y-91615522D01*
X116717143Y-91758487D01*
X116674286Y-91853798D01*
X116631429Y-91901453D01*
X116545715Y-91949108D01*
X116202858Y-91949108D01*
X117102858Y-92330350D02*
X117145715Y-92378006D01*
X117102858Y-92425661D01*
X117060001Y-92378006D01*
X117102858Y-92330350D01*
X117102858Y-92425661D01*
X118174286Y-91520211D02*
X118217143Y-91472556D01*
X118302857Y-91424901D01*
X118517143Y-91424901D01*
X118602857Y-91472556D01*
X118645714Y-91520211D01*
X118688571Y-91615522D01*
X118688571Y-91710832D01*
X118645714Y-91853798D01*
X118131428Y-92425661D01*
X118688571Y-92425661D01*
X119245714Y-91424901D02*
X119331429Y-91424901D01*
X119417143Y-91472556D01*
X119460000Y-91520211D01*
X119502857Y-91615522D01*
X119545714Y-91806143D01*
X119545714Y-92044419D01*
X119502857Y-92235040D01*
X119460000Y-92330350D01*
X119417143Y-92378006D01*
X119331429Y-92425661D01*
X119245714Y-92425661D01*
X119160000Y-92378006D01*
X119117143Y-92330350D01*
X119074286Y-92235040D01*
X119031429Y-92044419D01*
X119031429Y-91806143D01*
X119074286Y-91615522D01*
X119117143Y-91520211D01*
X119160000Y-91472556D01*
X119245714Y-91424901D01*
X120402857Y-92425661D02*
X119888572Y-92425661D01*
X120145714Y-92425661D02*
X120145714Y-91424901D01*
X120060000Y-91567866D01*
X119974286Y-91663177D01*
X119888572Y-91710832D01*
X121174286Y-91424901D02*
X121002857Y-91424901D01*
X120917143Y-91472556D01*
X120874286Y-91520211D01*
X120788572Y-91663177D01*
X120745715Y-91853798D01*
X120745715Y-92235040D01*
X120788572Y-92330350D01*
X120831429Y-92378006D01*
X120917143Y-92425661D01*
X121088572Y-92425661D01*
X121174286Y-92378006D01*
X121217143Y-92330350D01*
X121260000Y-92235040D01*
X121260000Y-91996764D01*
X121217143Y-91901453D01*
X121174286Y-91853798D01*
X121088572Y-91806143D01*
X120917143Y-91806143D01*
X120831429Y-91853798D01*
X120788572Y-91901453D01*
X120745715Y-91996764D01*
X114360000Y-93765793D02*
X114788571Y-93765793D01*
X114274285Y-94051725D02*
X114574285Y-93050965D01*
X114874285Y-94051725D01*
X115688571Y-94051725D02*
X115388571Y-93575172D01*
X115174286Y-94051725D02*
X115174286Y-93050965D01*
X115517143Y-93050965D01*
X115602857Y-93098620D01*
X115645714Y-93146275D01*
X115688571Y-93241586D01*
X115688571Y-93384551D01*
X115645714Y-93479862D01*
X115602857Y-93527517D01*
X115517143Y-93575172D01*
X115174286Y-93575172D01*
X116074286Y-93527517D02*
X116374286Y-93527517D01*
X116502857Y-94051725D02*
X116074286Y-94051725D01*
X116074286Y-93050965D01*
X116502857Y-93050965D01*
X117402857Y-93956414D02*
X117360000Y-94004070D01*
X117231429Y-94051725D01*
X117145715Y-94051725D01*
X117017143Y-94004070D01*
X116931429Y-93908759D01*
X116888572Y-93813449D01*
X116845715Y-93622828D01*
X116845715Y-93479862D01*
X116888572Y-93289241D01*
X116931429Y-93193930D01*
X117017143Y-93098620D01*
X117145715Y-93050965D01*
X117231429Y-93050965D01*
X117360000Y-93098620D01*
X117402857Y-93146275D01*
X117960000Y-93050965D02*
X118131429Y-93050965D01*
X118217143Y-93098620D01*
X118302857Y-93193930D01*
X118345715Y-93384551D01*
X118345715Y-93718138D01*
X118302857Y-93908759D01*
X118217143Y-94004070D01*
X118131429Y-94051725D01*
X117960000Y-94051725D01*
X117874286Y-94004070D01*
X117788572Y-93908759D01*
X117745715Y-93718138D01*
X117745715Y-93384551D01*
X117788572Y-93193930D01*
X117874286Y-93098620D01*
X117960000Y-93050965D01*
X119245714Y-94051725D02*
X118945714Y-93575172D01*
X118731429Y-94051725D02*
X118731429Y-93050965D01*
X119074286Y-93050965D01*
X119160000Y-93098620D01*
X119202857Y-93146275D01*
X119245714Y-93241586D01*
X119245714Y-93384551D01*
X119202857Y-93479862D01*
X119160000Y-93527517D01*
X119074286Y-93575172D01*
X118731429Y-93575172D01*
X119631429Y-94051725D02*
X119631429Y-93050965D01*
X119845714Y-93050965D01*
X119974286Y-93098620D01*
X120060000Y-93193930D01*
X120102857Y-93289241D01*
X120145714Y-93479862D01*
X120145714Y-93622828D01*
X120102857Y-93813449D01*
X120060000Y-93908759D01*
X119974286Y-94004070D01*
X119845714Y-94051725D01*
X119631429Y-94051725D01*
X120531429Y-93527517D02*
X120831429Y-93527517D01*
X120960000Y-94051725D02*
X120531429Y-94051725D01*
X120531429Y-93050965D01*
X120960000Y-93050965D01*
X121860000Y-94051725D02*
X121560000Y-93575172D01*
X121345715Y-94051725D02*
X121345715Y-93050965D01*
X121688572Y-93050965D01*
X121774286Y-93098620D01*
X121817143Y-93146275D01*
X121860000Y-93241586D01*
X121860000Y-93384551D01*
X121817143Y-93479862D01*
X121774286Y-93527517D01*
X121688572Y-93575172D01*
X121345715Y-93575172D01*
X116824286Y-95010615D02*
X117038572Y-95677789D01*
X117252858Y-95010615D01*
X117552858Y-94772339D02*
X117595715Y-94724684D01*
X117681429Y-94677029D01*
X117895715Y-94677029D01*
X117981429Y-94724684D01*
X118024286Y-94772339D01*
X118067143Y-94867650D01*
X118067143Y-94962960D01*
X118024286Y-95105926D01*
X117510000Y-95677789D01*
X118067143Y-95677789D01*
X118452858Y-95582478D02*
X118495715Y-95630134D01*
X118452858Y-95677789D01*
X118410001Y-95630134D01*
X118452858Y-95582478D01*
X118452858Y-95677789D01*
X118838572Y-94772339D02*
X118881429Y-94724684D01*
X118967143Y-94677029D01*
X119181429Y-94677029D01*
X119267143Y-94724684D01*
X119310000Y-94772339D01*
X119352857Y-94867650D01*
X119352857Y-94962960D01*
X119310000Y-95105926D01*
X118795714Y-95677789D01*
X119352857Y-95677789D01*
D12*
X110261400Y-74930000D03*
X110261400Y-93929200D03*
X178282600Y-74930000D03*
X178282600Y-93929200D03*
D13*
X154102500Y-90883000D03*
X152502500Y-90883000D03*
X137602500Y-79033000D03*
X136002500Y-79033000D03*
X137602500Y-77283000D03*
X136002500Y-77283000D03*
D14*
X160147000Y-92367000D03*
X160147000Y-90767000D03*
D15*
X169926000Y-82867500D03*
X172974000Y-82867500D03*
D16*
X125002500Y-85009000D03*
X125002500Y-88057000D03*
X132652500Y-84959000D03*
X132652500Y-88007000D03*
X140252500Y-84959000D03*
X140252500Y-88007000D03*
D17*
X159132500Y-95683000D03*
X156592500Y-95683000D03*
X154052500Y-95683000D03*
X151512500Y-95683000D03*
X148972500Y-95683000D03*
X167392500Y-95683000D03*
X164852500Y-95683000D03*
X162312500Y-95683000D03*
X125197500Y-93133000D03*
X129007500Y-93133000D03*
X132797500Y-93133000D03*
X136607500Y-93133000D03*
X140447500Y-93133000D03*
X144257500Y-93133000D03*
D14*
X143954500Y-74193500D03*
X143954500Y-75793500D03*
D13*
X140252500Y-75183000D03*
X141852500Y-75183000D03*
X167424000Y-82867500D03*
X165824000Y-82867500D03*
D18*
X164289740Y-91757500D03*
X164289740Y-91107260D03*
X164289740Y-92407740D03*
X166291260Y-92407740D03*
X166291260Y-91107260D03*
D19*
X117802500Y-87683000D03*
X117802500Y-79383000D03*
D20*
X132562500Y-78408000D03*
X124942500Y-78408000D03*
D17*
X169902500Y-93113000D03*
X169902500Y-95653000D03*
X172452500Y-93113000D03*
X172452500Y-95653000D03*
X108802500Y-83663000D03*
X108802500Y-86203000D03*
D21*
X146113500Y-78105000D03*
X146113500Y-80010000D03*
D22*
X139453620Y-81157520D03*
X139453620Y-79907840D03*
X139453620Y-78658160D03*
X139453620Y-77408480D03*
X141851380Y-77408480D03*
X141851380Y-78658160D03*
X141851380Y-79907840D03*
X141851380Y-81157520D03*
D17*
X134874000Y-73342500D03*
X137414000Y-73342500D03*
D23*
X171005500Y-76962000D03*
X166005500Y-76962000D03*
D24*
X169805500Y-76962000D03*
X169155500Y-76962000D03*
X168505500Y-76962000D03*
X167855500Y-76962000D03*
X167205500Y-76962000D03*
D25*
X172005500Y-74262000D03*
X165005500Y-74262000D03*
D26*
X153132000Y-76603000D03*
X154232000Y-76603000D03*
X155332000Y-76603000D03*
X156432000Y-76603000D03*
X157532000Y-76603000D03*
X158632000Y-76603000D03*
X159732000Y-76603000D03*
X160832000Y-76603000D03*
D27*
X161713000Y-73953000D03*
X148313000Y-72964000D03*
D28*
X160002000Y-87414000D03*
X157152000Y-87414000D03*
X154302000Y-87414000D03*
X151452000Y-87414000D03*
D29*
X122110500Y-78803500D03*
X155765500Y-90043000D03*
X174498000Y-81534000D03*
X166116000Y-81280000D03*
X156711000Y-81033000D03*
X145478500Y-74104500D03*
X123825000Y-73279000D03*
X114052500Y-76983000D03*
X122252500Y-75033000D03*
X175577500Y-87503000D03*
X163852500Y-84783000D03*
X173418500Y-77025500D03*
X163258500Y-82931000D03*
X131000500Y-77089000D03*
X126428500Y-77089000D03*
X132016500Y-74358500D03*
X134874000Y-77279500D03*
X123317000Y-78803500D03*
X143252500Y-79733000D03*
X154305000Y-88519000D03*
X157099000Y-74739500D03*
X163830000Y-77724000D03*
X149225000Y-76771500D03*
X122555000Y-76962000D03*
X122477500Y-73783000D03*
X134777500Y-80633000D03*
X147802500Y-94283000D03*
X174652500Y-84983380D03*
X173799500Y-90741500D03*
X154402500Y-92433000D03*
X157902500Y-94583000D03*
X145452500Y-76783000D03*
X137352500Y-83833000D03*
X129802500Y-83483000D03*
X128352500Y-82533000D03*
X145102500Y-84283000D03*
X110902500Y-86583000D03*
X112952500Y-89433000D03*
X108852500Y-88333000D03*
X110702500Y-88383000D03*
X145852500Y-87933000D03*
X138502500Y-88083000D03*
X130952500Y-88183000D03*
X138552500Y-89083000D03*
X131002500Y-89133000D03*
X146252500Y-88783000D03*
X156083000Y-82931000D03*
X151952500Y-82833000D03*
X177165000Y-87566500D03*
X165452500Y-84783000D03*
X178252500Y-87533000D03*
X170751500Y-80264000D03*
X147202500Y-86433000D03*
X125877500Y-83758000D03*
X146452500Y-85633000D03*
X133527500Y-83633000D03*
X146102500Y-84583000D03*
X142502500Y-84433000D03*
X149152500Y-88683000D03*
X150622000Y-85979000D03*
X145478500Y-74993500D03*
X169735500Y-80264000D03*
X178052500Y-80583000D03*
X145478500Y-75882500D03*
X151828500Y-77851000D03*
X153543000Y-79756000D03*
X155384500Y-78041500D03*
X154368500Y-79057500D03*
X152019000Y-85280500D03*
X158902500Y-78483000D03*
X156781500Y-79946500D03*
X133223000Y-74358500D03*
X140398500Y-72453500D03*
X169799000Y-74803000D03*
X162977500Y-87208000D03*
D30*
X166116000Y-81280000D02*
X156958000Y-81280000D01*
X156958000Y-81280000D02*
X156711000Y-81033000D01*
X173990000Y-81026000D02*
X169164000Y-81026000D01*
X168910000Y-81280000D02*
X166116000Y-81280000D01*
X169164000Y-81026000D02*
X168910000Y-81280000D01*
D31*
X130429000Y-75946000D02*
X124968000Y-75946000D01*
X124968000Y-75946000D02*
X122110500Y-78803500D01*
X138937000Y-75946000D02*
X139700000Y-75183000D01*
X130429000Y-75946000D02*
X138937000Y-75946000D01*
X142113000Y-74168000D02*
X140589000Y-74168000D01*
X140252500Y-74504500D02*
X140252500Y-75183000D01*
X140589000Y-74168000D02*
X140252500Y-74504500D01*
X140252500Y-75183000D02*
X139700000Y-75183000D01*
X143954500Y-74193500D02*
X145389500Y-74193500D01*
X145389500Y-74193500D02*
X145478500Y-74104500D01*
X141795500Y-74168000D02*
X142113000Y-74168000D01*
X142113000Y-74168000D02*
X143929000Y-74168000D01*
X143929000Y-74168000D02*
X143954500Y-74193500D01*
D30*
X140252500Y-75183000D02*
X140252500Y-75838000D01*
X139453620Y-76636880D02*
X139453620Y-77408480D01*
X140252500Y-75838000D02*
X139453620Y-76636880D01*
X157670500Y-93472000D02*
X157226000Y-93472000D01*
X157226000Y-93472000D02*
X156592500Y-94105500D01*
X157734000Y-93472000D02*
X157670500Y-93472000D01*
X157670500Y-93472000D02*
X157241500Y-93472000D01*
X157241500Y-93472000D02*
X156592500Y-92823000D01*
D32*
X166291260Y-92407740D02*
X166291260Y-92852240D01*
D30*
X156592500Y-93472000D02*
X156592500Y-93483000D01*
D32*
X165671500Y-93472000D02*
X157734000Y-93472000D01*
D30*
X157734000Y-93472000D02*
X156592500Y-93472000D01*
D32*
X166291260Y-92852240D02*
X165671500Y-93472000D01*
D30*
X154102500Y-90883000D02*
X154925500Y-90883000D01*
X154925500Y-90883000D02*
X155765500Y-90043000D01*
X173990000Y-81026000D02*
X174498000Y-81534000D01*
X143891500Y-74130500D02*
X143954500Y-74193500D01*
X154064500Y-90883000D02*
X154652500Y-90883000D01*
X154652500Y-90883000D02*
X156592500Y-92823000D01*
X156592500Y-92823000D02*
X156592500Y-93218000D01*
X156592500Y-93218000D02*
X156592500Y-93483000D01*
X156592500Y-93483000D02*
X156592500Y-93733760D01*
X156592500Y-94105500D02*
X156592500Y-93724500D01*
X156592500Y-93733760D02*
X156592500Y-93733000D01*
X156592500Y-93724500D02*
X156592500Y-93733000D01*
X156592500Y-94143000D02*
X156592500Y-94105500D01*
X156592500Y-95683000D02*
X156592500Y-94143000D01*
X139453620Y-77408480D02*
X140427980Y-77408480D01*
X140427980Y-77408480D02*
X140652500Y-77633000D01*
X140652500Y-77633000D02*
X140652500Y-80833000D01*
X140652500Y-80833000D02*
X140327980Y-81157520D01*
X140327980Y-81157520D02*
X139453620Y-81157520D01*
X139453620Y-77408480D02*
X138427980Y-77408480D01*
X138252500Y-77233000D02*
X137564500Y-77233000D01*
X138427980Y-77408480D02*
X138252500Y-77233000D01*
X140302500Y-75145000D02*
X140290500Y-75133000D01*
X140302500Y-75145000D02*
X140290500Y-75133000D01*
X117802500Y-74729500D02*
X117802500Y-79383000D01*
X119697500Y-72834500D02*
X117802500Y-74729500D01*
X123380500Y-72834500D02*
X119697500Y-72834500D01*
X123825000Y-73279000D02*
X123380500Y-72834500D01*
D33*
X114052500Y-76983000D02*
X116702500Y-76983000D01*
D31*
X117102500Y-77383000D02*
X117102500Y-80033000D01*
X116702500Y-76983000D02*
X117102500Y-77383000D01*
D30*
X156432000Y-76603000D02*
X156432000Y-75660000D01*
X156432000Y-75660000D02*
X156178250Y-75406250D01*
X130175000Y-75247500D02*
X122467000Y-75247500D01*
X122467000Y-75247500D02*
X122252500Y-75033000D01*
X138557000Y-75247500D02*
X138811000Y-74993500D01*
X130175000Y-75247500D02*
X138557000Y-75247500D01*
X142303500Y-73342500D02*
X140462000Y-73342500D01*
X145796000Y-73342500D02*
X142494000Y-73342500D01*
X146302500Y-73849000D02*
X145796000Y-73342500D01*
X146302500Y-75311000D02*
X146302500Y-77916000D01*
X146302500Y-75311000D02*
X146302500Y-75057000D01*
X146302500Y-75057000D02*
X146302500Y-73849000D01*
X142494000Y-73342500D02*
X142303500Y-73342500D01*
X140462000Y-73342500D02*
X138811000Y-74993500D01*
X146113500Y-78105000D02*
X149098000Y-78105000D01*
X149098000Y-78105000D02*
X151796750Y-75406250D01*
X146302500Y-77916000D02*
X146113500Y-78105000D01*
X156178250Y-75406250D02*
X151796750Y-75406250D01*
X156178250Y-75406250D02*
X156432000Y-75660000D01*
X146013500Y-78005000D02*
X146113500Y-78105000D01*
X175577500Y-87503000D02*
X166572500Y-87503000D01*
X166572500Y-87503000D02*
X163852500Y-84783000D01*
X161713000Y-73953000D02*
X160362000Y-73953000D01*
X160362000Y-73953000D02*
X159575500Y-74739500D01*
X158632000Y-75193000D02*
X158632000Y-76603000D01*
X160147000Y-90767000D02*
X160147000Y-87559000D01*
X160147000Y-87559000D02*
X160002000Y-87414000D01*
X157152000Y-87414000D02*
X160002000Y-87414000D01*
X154302000Y-87414000D02*
X157152000Y-87414000D01*
X151452000Y-88265000D02*
X151452000Y-87414000D01*
X151452000Y-86487000D02*
X151452000Y-87414000D01*
X154302000Y-86550500D02*
X154302000Y-87414000D01*
X163830000Y-77724000D02*
X163830000Y-75184000D01*
X163830000Y-75184000D02*
X162599000Y-73953000D01*
X165544500Y-78422500D02*
X164528500Y-78422500D01*
X164528500Y-78422500D02*
X163830000Y-77724000D01*
X167205500Y-76962000D02*
X167205500Y-77841000D01*
X156083000Y-82931000D02*
X163258500Y-82931000D01*
X161602000Y-73953000D02*
X162599000Y-73953000D01*
X167205500Y-77841000D02*
X166624000Y-78422500D01*
X166624000Y-78422500D02*
X165544500Y-78422500D01*
X126428500Y-77089000D02*
X131000500Y-77089000D01*
X134874000Y-77279500D02*
X134877500Y-77283000D01*
X134877500Y-77283000D02*
X136002500Y-77283000D01*
X135942500Y-77343000D02*
X136002500Y-77283000D01*
X127046500Y-82533000D02*
X128352500Y-82533000D01*
X123317000Y-78803500D02*
X127046500Y-82533000D01*
X143529500Y-80010000D02*
X143252500Y-79733000D01*
X144208500Y-80010000D02*
X143529500Y-80010000D01*
X154302000Y-87203000D02*
X154302000Y-86550500D01*
X154302000Y-86550500D02*
X154302000Y-86230000D01*
X154302000Y-86230000D02*
X152463500Y-84391500D01*
X152463500Y-84391500D02*
X151553750Y-83481750D01*
X151452000Y-87203000D02*
X151452000Y-86487000D01*
X151452000Y-86487000D02*
X151452000Y-85729500D01*
X150558500Y-84836000D02*
X150199500Y-84836000D01*
X151452000Y-85729500D02*
X150558500Y-84836000D01*
D32*
X164289740Y-91107260D02*
X161655760Y-91107260D01*
X161315500Y-90767000D02*
X160147000Y-90767000D01*
X161655760Y-91107260D02*
X161315500Y-90767000D01*
D30*
X160147000Y-90767000D02*
X160147000Y-87348000D01*
D34*
X160147000Y-87348000D02*
X160002000Y-87203000D01*
D30*
X174652500Y-84983380D02*
X174652500Y-83530000D01*
X173990000Y-82867500D02*
X172974000Y-82867500D01*
X174652500Y-83530000D02*
X173990000Y-82867500D01*
X172974000Y-82867500D02*
X173545500Y-82867500D01*
X144716500Y-79375000D02*
X144716500Y-79502000D01*
X144716500Y-79502000D02*
X144208500Y-80010000D01*
X144716500Y-79375000D02*
X144716500Y-79438500D01*
X144716500Y-79438500D02*
X145288000Y-80010000D01*
X149987000Y-82833000D02*
X148174500Y-82833000D01*
X146113500Y-80772000D02*
X146113500Y-80010000D01*
X148174500Y-82833000D02*
X146113500Y-80772000D01*
X144716500Y-78740000D02*
X144716500Y-79375000D01*
X144716500Y-79375000D02*
X144716500Y-80010000D01*
X146113500Y-80010000D02*
X145288000Y-80010000D01*
X145288000Y-80010000D02*
X144716500Y-80010000D01*
X144716500Y-80010000D02*
X144208500Y-80010000D01*
X145452500Y-76783000D02*
X144716500Y-77519000D01*
X144716500Y-77519000D02*
X144716500Y-78740000D01*
D32*
X166291260Y-91107260D02*
X164289740Y-91107260D01*
D30*
X154305000Y-88519000D02*
X154305000Y-87206000D01*
D32*
X154305000Y-87206000D02*
X154302000Y-87203000D01*
D30*
X146252500Y-88783000D02*
X150199500Y-84836000D01*
X150199500Y-84836000D02*
X151363250Y-83672250D01*
X151363250Y-83672250D02*
X151553750Y-83481750D01*
X151553750Y-83481750D02*
X151952500Y-83083000D01*
X151952500Y-83083000D02*
X151952500Y-82833000D01*
X152502500Y-90883000D02*
X152502500Y-89320000D01*
X151452000Y-88269500D02*
X151452000Y-88265000D01*
X151452000Y-88265000D02*
X151452000Y-87203000D01*
X152502500Y-89320000D02*
X151452000Y-88269500D01*
X160782000Y-94433000D02*
X161425500Y-94433000D01*
X160327500Y-94433000D02*
X160782000Y-94433000D01*
X161425500Y-94433000D02*
X162312500Y-95320000D01*
X162312500Y-95320000D02*
X162312500Y-95683000D01*
X158632000Y-75311000D02*
X158632000Y-75193000D01*
X158632000Y-75193000D02*
X158178500Y-74739500D01*
X158632000Y-75374500D02*
X158632000Y-75311000D01*
X158632000Y-75311000D02*
X158632000Y-75238500D01*
X158632000Y-75238500D02*
X159131000Y-74739500D01*
X158632000Y-76603000D02*
X158632000Y-75374500D01*
X158632000Y-75374500D02*
X158632000Y-74739500D01*
X158623000Y-74866500D02*
X158623000Y-74739500D01*
X158623000Y-74748500D02*
X158623000Y-74866500D01*
X158632000Y-74739500D02*
X158623000Y-74748500D01*
X157099000Y-74739500D02*
X151257000Y-74739500D01*
X156210000Y-74739500D02*
X158178500Y-74739500D01*
X151257000Y-74739500D02*
X156210000Y-74739500D01*
X158178500Y-74739500D02*
X158623000Y-74739500D01*
X158623000Y-74739500D02*
X159131000Y-74739500D01*
X159131000Y-74739500D02*
X159575500Y-74739500D01*
X159575500Y-74739500D02*
X160362000Y-73953000D01*
X160362000Y-73953000D02*
X161602000Y-73953000D01*
X150526750Y-75469750D02*
X151257000Y-74739500D01*
X158632000Y-76603000D02*
X158632000Y-75683000D01*
X158632000Y-76603000D02*
X158632000Y-75701000D01*
X149225000Y-76771500D02*
X150363500Y-75633000D01*
X150558500Y-75438000D02*
X150526750Y-75469750D01*
X150526750Y-75469750D02*
X150363500Y-75633000D01*
X122555000Y-76962000D02*
X122302500Y-76983000D01*
X122302500Y-76983000D02*
X120902500Y-76983000D01*
X122427500Y-73783000D02*
X120902500Y-75308000D01*
X120902500Y-75308000D02*
X120902500Y-76983000D01*
X122477500Y-73783000D02*
X122427500Y-73783000D01*
X160258760Y-90916760D02*
X160147000Y-90805000D01*
X136040500Y-80533000D02*
X136602500Y-80533000D01*
X134877500Y-80533000D02*
X136040500Y-80533000D01*
X134777500Y-80633000D02*
X134877500Y-80533000D01*
X151952500Y-82833000D02*
X149987000Y-82833000D01*
X174652500Y-84983380D02*
X174652500Y-84983000D01*
X173799500Y-90741500D02*
X173787500Y-90729500D01*
X154052500Y-95683000D02*
X154052500Y-92783000D01*
X154052500Y-92783000D02*
X154402500Y-92433000D01*
X166902500Y-94133000D02*
X163862500Y-94133000D01*
X163862500Y-94133000D02*
X162312500Y-95683000D01*
X158902500Y-94433000D02*
X160327500Y-94433000D01*
X158052500Y-94433000D02*
X158902500Y-94433000D01*
X157902500Y-94583000D02*
X158052500Y-94433000D01*
D33*
X136902500Y-88007000D02*
X140252500Y-88007000D01*
X129752500Y-88057000D02*
X132602500Y-88057000D01*
X132602500Y-88057000D02*
X132652500Y-88007000D01*
D35*
X117802500Y-87683000D02*
X121152500Y-87683000D01*
X121152500Y-87683000D02*
X121526500Y-88057000D01*
X117802500Y-87683000D02*
X111402500Y-87683000D01*
X111402500Y-87683000D02*
X110702500Y-88383000D01*
D30*
X141852500Y-82533000D02*
X143352500Y-82533000D01*
X143352500Y-82533000D02*
X145102500Y-84283000D01*
X137352500Y-83383000D02*
X137352500Y-82983000D01*
X137352500Y-82983000D02*
X136902500Y-82533000D01*
X137352500Y-83383000D02*
X137352500Y-83083000D01*
X137352500Y-83083000D02*
X137902500Y-82533000D01*
X143052500Y-82533000D02*
X141852500Y-82533000D01*
X137902500Y-82533000D02*
X137352500Y-82533000D01*
X137352500Y-83833000D02*
X137352500Y-83383000D01*
X137352500Y-83383000D02*
X137352500Y-82533000D01*
X136040500Y-81883000D02*
X136040500Y-82071000D01*
X136040500Y-82071000D02*
X136502500Y-82533000D01*
X136040500Y-81883000D02*
X136040500Y-82095000D01*
X136040500Y-82095000D02*
X135602500Y-82533000D01*
X136602500Y-80533000D02*
X136452500Y-80533000D01*
X136452500Y-80533000D02*
X136040500Y-80945000D01*
X136452500Y-80533000D02*
X136040500Y-80121000D01*
X137402500Y-80533000D02*
X136602500Y-80533000D01*
X139453620Y-79907840D02*
X138477660Y-79907840D01*
X138477660Y-79907840D02*
X137852500Y-80533000D01*
X137852500Y-80533000D02*
X137402500Y-80533000D01*
X129802500Y-83133000D02*
X129802500Y-83033000D01*
X129802500Y-83033000D02*
X130302500Y-82533000D01*
X129802500Y-83133000D02*
X129802500Y-82933000D01*
X129802500Y-82933000D02*
X129402500Y-82533000D01*
X129802500Y-83483000D02*
X129802500Y-83133000D01*
X129802500Y-83133000D02*
X129802500Y-82533000D01*
X136040500Y-79033000D02*
X136040500Y-80121000D01*
X136040500Y-80121000D02*
X136040500Y-80483000D01*
X136040500Y-82533000D02*
X136052500Y-82533000D01*
X136040500Y-80483000D02*
X136040500Y-80945000D01*
X136040500Y-80945000D02*
X136040500Y-81883000D01*
X136040500Y-81883000D02*
X136040500Y-82533000D01*
X128352500Y-82533000D02*
X129402500Y-82533000D01*
X129402500Y-82533000D02*
X129802500Y-82533000D01*
X129802500Y-82533000D02*
X130302500Y-82533000D01*
X130302500Y-82533000D02*
X135602500Y-82533000D01*
X135602500Y-82533000D02*
X136052500Y-82533000D01*
X136052500Y-82533000D02*
X136502500Y-82533000D01*
X136502500Y-82533000D02*
X136902500Y-82533000D01*
X136902500Y-82533000D02*
X137352500Y-82533000D01*
X137352500Y-82533000D02*
X143052500Y-82533000D01*
X152540500Y-90883000D02*
X152540500Y-94171000D01*
X152540500Y-94171000D02*
X154052500Y-95683000D01*
D31*
X120902500Y-87433000D02*
X120902500Y-87483000D01*
X120902500Y-87483000D02*
X120328500Y-88057000D01*
X120902500Y-87433000D02*
X121526500Y-88057000D01*
X120902500Y-88057000D02*
X120902500Y-87433000D01*
X120902500Y-87433000D02*
X120902500Y-76983000D01*
D30*
X169902500Y-95653000D02*
X168382500Y-94133000D01*
X163862500Y-94133000D02*
X163132500Y-94863000D01*
X163132500Y-94863000D02*
X162312500Y-95683000D01*
X168382500Y-94133000D02*
X167152500Y-94133000D01*
X167152500Y-94133000D02*
X166902500Y-94133000D01*
X166902500Y-94133000D02*
X163862500Y-94133000D01*
D32*
X164289740Y-91757500D02*
X164289740Y-91107260D01*
D30*
X138477660Y-79907840D02*
X137852500Y-80533000D01*
X137852500Y-80533000D02*
X137402500Y-80533000D01*
X136040500Y-79033000D02*
X136040500Y-77233000D01*
D31*
X108852500Y-86253000D02*
X108852500Y-86533000D01*
X108852500Y-86533000D02*
X110702500Y-88383000D01*
X108852500Y-86253000D02*
X108852500Y-88333000D01*
D30*
X108852500Y-86253000D02*
X108872500Y-86253000D01*
X108872500Y-86253000D02*
X110702500Y-88383000D01*
X108852500Y-86253000D02*
X108852500Y-88333000D01*
D31*
X121552500Y-88057000D02*
X121526500Y-88057000D01*
D33*
X125002500Y-88057000D02*
X121552500Y-88057000D01*
D31*
X121526500Y-88057000D02*
X120902500Y-88057000D01*
X120902500Y-88057000D02*
X120328500Y-88057000D01*
X120328500Y-88057000D02*
X117378500Y-88057000D01*
X117378500Y-88057000D02*
X117102500Y-88333000D01*
X117102500Y-88333000D02*
X110752500Y-88333000D01*
X110752500Y-88333000D02*
X110702500Y-88383000D01*
D30*
X138502500Y-88083000D02*
X138552500Y-88083000D01*
D33*
X138552500Y-88083000D02*
X138552500Y-88007000D01*
D30*
X130952500Y-88183000D02*
X130777500Y-88358000D01*
X130777500Y-88358000D02*
X130739500Y-88320000D01*
D33*
X145476500Y-88007000D02*
X140252500Y-88007000D01*
D31*
X138552500Y-88683000D02*
X138552500Y-88533000D01*
D34*
X138552500Y-88533000D02*
X139078500Y-88007000D01*
X139078500Y-88007000D02*
X140252500Y-88007000D01*
X138552500Y-88533000D02*
X138026500Y-88007000D01*
D31*
X138552500Y-89083000D02*
X138552500Y-88683000D01*
D33*
X138552500Y-88683000D02*
X138552500Y-88007000D01*
D34*
X131002500Y-88633000D02*
X131002500Y-88533000D01*
X131478500Y-88057000D02*
X132652500Y-88007000D01*
D31*
X131002500Y-88533000D02*
X131478500Y-88057000D01*
X131002500Y-88633000D02*
X131002500Y-88583000D01*
X131002500Y-88583000D02*
X130739500Y-88320000D01*
X130739500Y-88320000D02*
X130476500Y-88057000D01*
D34*
X131002500Y-88433000D02*
X131002500Y-88057000D01*
D31*
X131002500Y-89133000D02*
X131002500Y-88633000D01*
X131002500Y-88633000D02*
X131002500Y-88433000D01*
D33*
X132652500Y-88007000D02*
X136902500Y-88007000D01*
X136902500Y-88007000D02*
X138026500Y-88007000D01*
X138026500Y-88007000D02*
X138552500Y-88007000D01*
X138552500Y-88007000D02*
X140252500Y-88007000D01*
X125002500Y-88057000D02*
X129752500Y-88057000D01*
X129752500Y-88057000D02*
X130476500Y-88057000D01*
X130476500Y-88057000D02*
X131002500Y-88057000D01*
X131002500Y-88057000D02*
X132602500Y-88057000D01*
D31*
X132602500Y-88057000D02*
X132652500Y-88007000D01*
X117778500Y-87657000D02*
X117102500Y-88333000D01*
D33*
X146252500Y-88783000D02*
X145476500Y-88007000D01*
D30*
X156083000Y-82931000D02*
X152502500Y-82933000D01*
X152502500Y-82933000D02*
X152052500Y-82933000D01*
X152052500Y-82933000D02*
X151952500Y-82833000D01*
X174180500Y-86741000D02*
X176339500Y-86741000D01*
X176339500Y-86741000D02*
X177165000Y-87566500D01*
X167410500Y-86741000D02*
X174180500Y-86741000D01*
X165452500Y-84783000D02*
X167410500Y-86741000D01*
X178252500Y-87533000D02*
X178252500Y-84082000D01*
X178252500Y-84082000D02*
X174307500Y-80137000D01*
X174307500Y-80137000D02*
X170751500Y-80264000D01*
X140802500Y-86833000D02*
X144552500Y-86833000D01*
X145602500Y-86833000D02*
X146802500Y-86833000D01*
X146802500Y-86833000D02*
X147202500Y-86433000D01*
X144552500Y-86833000D02*
X145602500Y-86833000D01*
X140802500Y-86833000D02*
X141352500Y-86833000D01*
X125002500Y-85009000D02*
X125002500Y-86333000D01*
X125002500Y-86333000D02*
X125502500Y-86833000D01*
X125002500Y-84233000D02*
X125002500Y-85009000D01*
X125477500Y-83758000D02*
X125002500Y-84233000D01*
X125877500Y-83758000D02*
X125477500Y-83758000D01*
X125502500Y-86833000D02*
X140802500Y-86833000D01*
X145902500Y-86183000D02*
X145102500Y-86183000D01*
X145902500Y-86183000D02*
X146452500Y-85633000D01*
X133227500Y-83633000D02*
X132652500Y-84208000D01*
X133527500Y-83633000D02*
X133227500Y-83633000D01*
X132652500Y-84959000D02*
X132652500Y-85947998D01*
X132887502Y-86183000D02*
X145102500Y-86183000D01*
X132652500Y-85947998D02*
X132887502Y-86183000D01*
X132652500Y-84208000D02*
X132652500Y-84959000D01*
X146102500Y-84583000D02*
X146102500Y-84783000D01*
X146102500Y-84783000D02*
X145452500Y-85433000D01*
X145452500Y-85433000D02*
X143502500Y-85433000D01*
X143502500Y-85433000D02*
X142502500Y-84433000D01*
X140252500Y-84959000D02*
X141976500Y-84959000D01*
X141976500Y-84959000D02*
X142502500Y-84433000D01*
X149152500Y-88683000D02*
X148972500Y-88863000D01*
X148972500Y-88863000D02*
X148972500Y-95683000D01*
X149923500Y-94094000D02*
X149923500Y-86677500D01*
X149923500Y-86677500D02*
X150622000Y-85979000D01*
X151512500Y-95683000D02*
X149923500Y-94094000D01*
X145478500Y-74993500D02*
X143063500Y-74993500D01*
X142874000Y-75183000D02*
X141852500Y-75183000D01*
X143063500Y-74993500D02*
X142874000Y-75183000D01*
X141814500Y-75183000D02*
X141814500Y-77371600D01*
X141814500Y-77371600D02*
X141851380Y-77408480D01*
X172974000Y-79375000D02*
X170624500Y-79375000D01*
X170624500Y-79375000D02*
X169735500Y-80264000D01*
X172974000Y-79375000D02*
X176844500Y-79375000D01*
X176844500Y-79375000D02*
X178052500Y-80583000D01*
X143883000Y-77652500D02*
X143954500Y-77581000D01*
X143954500Y-77581000D02*
X143954500Y-75793500D01*
X143954500Y-75793500D02*
X145389500Y-75793500D01*
X145389500Y-75793500D02*
X145478500Y-75882500D01*
X142877340Y-78658160D02*
X143883000Y-77652500D01*
X141851380Y-78658160D02*
X142877340Y-78658160D01*
X154232000Y-77660500D02*
X154232000Y-76603000D01*
X151828500Y-77851000D02*
X152400000Y-78422500D01*
X154232000Y-78178000D02*
X154232000Y-77660500D01*
X154232000Y-77660500D02*
X154232000Y-77203000D01*
X153987500Y-78422500D02*
X154232000Y-78178000D01*
X152400000Y-78422500D02*
X153987500Y-78422500D01*
D34*
X159732000Y-76603000D02*
X159732000Y-77504000D01*
X159732000Y-77504000D02*
X159448500Y-77787500D01*
X158496000Y-77787500D02*
X159067500Y-77787500D01*
D30*
X153606500Y-79819500D02*
X154686000Y-79819500D01*
X153543000Y-79756000D02*
X153606500Y-79819500D01*
X155829000Y-79819500D02*
X156464000Y-79184500D01*
X156464000Y-79184500D02*
X157099000Y-79184500D01*
X157099000Y-79184500D02*
X158496000Y-77787500D01*
X154686000Y-79819500D02*
X155829000Y-79819500D01*
D34*
X159067500Y-77787500D02*
X159448500Y-77787500D01*
X159766000Y-76637000D02*
X159732000Y-76603000D01*
X159732000Y-76803000D02*
X159732000Y-77123000D01*
D30*
X155332000Y-76603000D02*
X155332000Y-77989000D01*
X155332000Y-77989000D02*
X155384500Y-78041500D01*
X155332000Y-77989000D02*
X155384500Y-78041500D01*
X155332000Y-76803000D02*
X155332000Y-77989000D01*
X157532000Y-77862500D02*
X157532000Y-76603000D01*
X154368500Y-79057500D02*
X155702000Y-79057500D01*
X156845000Y-78549500D02*
X157532000Y-77862500D01*
X156210000Y-78549500D02*
X156845000Y-78549500D01*
X155702000Y-79057500D02*
X156210000Y-78549500D01*
X157532000Y-77862500D02*
X157532000Y-76803000D01*
X157532000Y-77862500D02*
X157532000Y-76803000D01*
X160147000Y-92367000D02*
X159169000Y-92367000D01*
X152844500Y-88392000D02*
X152844500Y-87376000D01*
X153733500Y-89281000D02*
X152844500Y-88392000D01*
X156083000Y-89281000D02*
X153733500Y-89281000D01*
X159169000Y-92367000D02*
X156083000Y-89281000D01*
X152844500Y-86741000D02*
X152844500Y-86106000D01*
X152844500Y-87376000D02*
X152844500Y-86741000D01*
X152844500Y-86106000D02*
X152019000Y-85280500D01*
D32*
X160147000Y-92367000D02*
X160187740Y-92407740D01*
X160187740Y-92407740D02*
X164289740Y-92407740D01*
D30*
X160169760Y-92344240D02*
X160147000Y-92367000D01*
X160258760Y-92217240D02*
X160147000Y-92329000D01*
X168505500Y-76962000D02*
X168505500Y-78509500D01*
X168505500Y-78509500D02*
X167957500Y-79057500D01*
X159477000Y-79057500D02*
X158902500Y-78483000D01*
X167957500Y-79057500D02*
X159477000Y-79057500D01*
X169155500Y-76962000D02*
X169155500Y-78748500D01*
X169155500Y-78748500D02*
X167957500Y-79946500D01*
X167957500Y-79946500D02*
X156781500Y-79946500D01*
X139453620Y-78658160D02*
X138577340Y-78658160D01*
X138202500Y-79033000D02*
X137564500Y-79033000D01*
X138577340Y-78658160D02*
X138202500Y-79033000D01*
X167424000Y-82867500D02*
X169926000Y-82867500D01*
X169826000Y-82767500D02*
X169926000Y-82867500D01*
X135763000Y-74612500D02*
X133477000Y-74612500D01*
X133477000Y-74612500D02*
X133223000Y-74358500D01*
X135763000Y-74612500D02*
X138239500Y-74612500D01*
X138239500Y-74612500D02*
X140398500Y-72453500D01*
X169805500Y-76962000D02*
X169805500Y-74809500D01*
X169805500Y-74809500D02*
X169799000Y-74803000D01*
X165824000Y-82867500D02*
X164719000Y-82867500D01*
X162977500Y-84609000D02*
X162977500Y-87208000D01*
X164719000Y-82867500D02*
X162977500Y-84609000D01*
X165874000Y-82855500D02*
X165862000Y-82867500D01*
D36*
G36*
X133389158Y-73045799D02*
X133388890Y-73353605D01*
X133023962Y-73353286D01*
X132654434Y-73505972D01*
X132371465Y-73788447D01*
X132218135Y-74157708D01*
X132217948Y-74372000D01*
X123012755Y-74372000D01*
X122822553Y-74181465D01*
X122453292Y-74028135D01*
X122053462Y-74027786D01*
X121683934Y-74180472D01*
X121400965Y-74462947D01*
X121247635Y-74832208D01*
X121247286Y-75232038D01*
X121399972Y-75601566D01*
X121682447Y-75884535D01*
X122051708Y-76037865D01*
X122104354Y-76037911D01*
X122131960Y-76056357D01*
X122467000Y-76123000D01*
X123463054Y-76123000D01*
X121700671Y-77885383D01*
X121541934Y-77950972D01*
X121258965Y-78233447D01*
X121105635Y-78602708D01*
X121105286Y-79002538D01*
X121257972Y-79372066D01*
X121540447Y-79655035D01*
X121909708Y-79808365D01*
X122309538Y-79808714D01*
X122679066Y-79656028D01*
X122962035Y-79373553D01*
X123028529Y-79213417D01*
X123328659Y-78913287D01*
X123513626Y-79360940D01*
X123987067Y-79835208D01*
X124605964Y-80092197D01*
X125276096Y-80092782D01*
X125895440Y-79836874D01*
X126369708Y-79363433D01*
X126626697Y-78744536D01*
X126627282Y-78074404D01*
X126371374Y-77455060D01*
X125897933Y-76980792D01*
X125667241Y-76885000D01*
X131837362Y-76885000D01*
X131609560Y-76979126D01*
X131135292Y-77452567D01*
X130878303Y-78071464D01*
X130877718Y-78741596D01*
X131133626Y-79360940D01*
X131607067Y-79835208D01*
X132225964Y-80092197D01*
X132896096Y-80092782D01*
X133515440Y-79836874D01*
X133989708Y-79363433D01*
X134023833Y-79281250D01*
X134942500Y-79281250D01*
X134942500Y-79619255D01*
X135046785Y-79871021D01*
X135239479Y-80063715D01*
X135491245Y-80168000D01*
X135754250Y-80168000D01*
X135925500Y-79996750D01*
X135925500Y-79110000D01*
X135113750Y-79110000D01*
X134942500Y-79281250D01*
X134023833Y-79281250D01*
X134246697Y-78744536D01*
X134247282Y-78074404D01*
X134022856Y-77531250D01*
X134942500Y-77531250D01*
X134942500Y-77869255D01*
X135046785Y-78121021D01*
X135083764Y-78158000D01*
X135046785Y-78194979D01*
X134942500Y-78446745D01*
X134942500Y-78784750D01*
X135113750Y-78956000D01*
X135925500Y-78956000D01*
X135925500Y-77360000D01*
X135113750Y-77360000D01*
X134942500Y-77531250D01*
X134022856Y-77531250D01*
X133991374Y-77455060D01*
X133517933Y-76980792D01*
X133287241Y-76885000D01*
X134942500Y-76885000D01*
X134942500Y-77034750D01*
X135113750Y-77206000D01*
X135925500Y-77206000D01*
X135925500Y-77186000D01*
X136079500Y-77186000D01*
X136079500Y-77206000D01*
X136099500Y-77206000D01*
X136099500Y-77360000D01*
X136079500Y-77360000D01*
X136079500Y-78956000D01*
X136099500Y-78956000D01*
X136099500Y-79110000D01*
X136079500Y-79110000D01*
X136079500Y-79996750D01*
X136250750Y-80168000D01*
X136513755Y-80168000D01*
X136765521Y-80063715D01*
X136805513Y-80023723D01*
X136955776Y-80126393D01*
X137227500Y-80181419D01*
X137977500Y-80181419D01*
X138119832Y-80154638D01*
X138118380Y-80156090D01*
X138118380Y-80343815D01*
X138196558Y-80532553D01*
X138159987Y-80586076D01*
X138104961Y-80857800D01*
X138104961Y-81457240D01*
X138152725Y-81711086D01*
X138302748Y-81944227D01*
X138531656Y-82100633D01*
X138803380Y-82155659D01*
X140103860Y-82155659D01*
X140357706Y-82107895D01*
X140539425Y-81990961D01*
X140663020Y-81966377D01*
X140699204Y-81942200D01*
X140700508Y-81944227D01*
X140929416Y-82100633D01*
X141201140Y-82155659D01*
X142501620Y-82155659D01*
X142755466Y-82107895D01*
X142988607Y-81957872D01*
X143145013Y-81728964D01*
X143200039Y-81457240D01*
X143200039Y-80857800D01*
X143152275Y-80603954D01*
X143107438Y-80534276D01*
X143145013Y-80479284D01*
X143189773Y-80258250D01*
X144730000Y-80258250D01*
X144730000Y-80590755D01*
X144834285Y-80842521D01*
X145026979Y-81035215D01*
X145278745Y-81139500D01*
X145865250Y-81139500D01*
X146036500Y-80968250D01*
X146036500Y-80087000D01*
X146190500Y-80087000D01*
X146190500Y-80968250D01*
X146361750Y-81139500D01*
X146948255Y-81139500D01*
X147200021Y-81035215D01*
X147392715Y-80842521D01*
X147497000Y-80590755D01*
X147497000Y-80258250D01*
X147325750Y-80087000D01*
X146190500Y-80087000D01*
X146036500Y-80087000D01*
X144901250Y-80087000D01*
X144730000Y-80258250D01*
X143189773Y-80258250D01*
X143200039Y-80207560D01*
X143200039Y-79608120D01*
X143174892Y-79474474D01*
X143212380Y-79467017D01*
X143496412Y-79277232D01*
X144573572Y-78200072D01*
X144626392Y-78121021D01*
X144716581Y-77986044D01*
X144716581Y-78549500D01*
X144764345Y-78803346D01*
X144914368Y-79036487D01*
X144950553Y-79061211D01*
X144834285Y-79177479D01*
X144730000Y-79429245D01*
X144730000Y-79761750D01*
X144901250Y-79933000D01*
X146036500Y-79933000D01*
X146036500Y-79913000D01*
X146190500Y-79913000D01*
X146190500Y-79933000D01*
X147325750Y-79933000D01*
X147497000Y-79761750D01*
X147497000Y-79429245D01*
X147392715Y-79177479D01*
X147278531Y-79063295D01*
X147298987Y-79050132D01*
X147346564Y-78980500D01*
X149098000Y-78980500D01*
X149433040Y-78913857D01*
X149717072Y-78724072D01*
X150846854Y-77594290D01*
X150823635Y-77650208D01*
X150823286Y-78050038D01*
X150975972Y-78419566D01*
X151258447Y-78702535D01*
X151572152Y-78832796D01*
X151780928Y-79041572D01*
X152064960Y-79231357D01*
X152400000Y-79298000D01*
X152644937Y-79298000D01*
X152538135Y-79555208D01*
X152537786Y-79955038D01*
X152690472Y-80324566D01*
X152972947Y-80607535D01*
X153342208Y-80760865D01*
X153742038Y-80761214D01*
X153902288Y-80695000D01*
X155763109Y-80695000D01*
X155706135Y-80832208D01*
X155705786Y-81232038D01*
X155858472Y-81601566D01*
X156140947Y-81884535D01*
X156510208Y-82037865D01*
X156546693Y-82037897D01*
X156622960Y-82088857D01*
X156958000Y-82155500D01*
X164239004Y-82155500D01*
X164099928Y-82248428D01*
X162358428Y-83989928D01*
X162168643Y-84273960D01*
X162145576Y-84389928D01*
X162102000Y-84609000D01*
X162102000Y-86695661D01*
X161972635Y-87007208D01*
X161972286Y-87407038D01*
X162124972Y-87776566D01*
X162407447Y-88059535D01*
X162475999Y-88088000D01*
X161587000Y-88088000D01*
X161587000Y-87662250D01*
X161415750Y-87491000D01*
X160079000Y-87491000D01*
X160079000Y-87511000D01*
X159925000Y-87511000D01*
X159925000Y-87491000D01*
X158588250Y-87491000D01*
X158577000Y-87502250D01*
X158565750Y-87491000D01*
X157229000Y-87491000D01*
X157229000Y-88627750D01*
X157400250Y-88799000D01*
X158188255Y-88799000D01*
X158440021Y-88694715D01*
X158577000Y-88557736D01*
X158713979Y-88694715D01*
X158965745Y-88799000D01*
X159753750Y-88799000D01*
X159906500Y-88646250D01*
X159906500Y-89714750D01*
X159898750Y-89707000D01*
X159560745Y-89707000D01*
X159308979Y-89811285D01*
X159116285Y-90003979D01*
X159012000Y-90255745D01*
X159012000Y-90518750D01*
X159183250Y-90690000D01*
X159906500Y-90690000D01*
X159906500Y-90844000D01*
X159183250Y-90844000D01*
X159033697Y-90993553D01*
X156839144Y-88799000D01*
X156903750Y-88799000D01*
X157075000Y-88627750D01*
X157075000Y-87491000D01*
X155738250Y-87491000D01*
X155727000Y-87502250D01*
X155715750Y-87491000D01*
X154379000Y-87491000D01*
X154379000Y-87511000D01*
X154225000Y-87511000D01*
X154225000Y-87491000D01*
X154205000Y-87491000D01*
X154205000Y-87337000D01*
X154225000Y-87337000D01*
X154225000Y-86200250D01*
X154379000Y-86200250D01*
X154379000Y-87337000D01*
X155715750Y-87337000D01*
X155727000Y-87325750D01*
X155738250Y-87337000D01*
X157075000Y-87337000D01*
X157075000Y-86200250D01*
X157229000Y-86200250D01*
X157229000Y-87337000D01*
X158565750Y-87337000D01*
X158577000Y-87325750D01*
X158588250Y-87337000D01*
X159925000Y-87337000D01*
X159925000Y-86200250D01*
X160079000Y-86200250D01*
X160079000Y-87337000D01*
X161415750Y-87337000D01*
X161587000Y-87165750D01*
X161587000Y-86577745D01*
X161482715Y-86325979D01*
X161290021Y-86133285D01*
X161038255Y-86029000D01*
X160250250Y-86029000D01*
X160079000Y-86200250D01*
X159925000Y-86200250D01*
X159753750Y-86029000D01*
X158965745Y-86029000D01*
X158713979Y-86133285D01*
X158577000Y-86270264D01*
X158440021Y-86133285D01*
X158188255Y-86029000D01*
X157400250Y-86029000D01*
X157229000Y-86200250D01*
X157075000Y-86200250D01*
X156903750Y-86029000D01*
X156115745Y-86029000D01*
X155863979Y-86133285D01*
X155727000Y-86270264D01*
X155590021Y-86133285D01*
X155338255Y-86029000D01*
X154550250Y-86029000D01*
X154379000Y-86200250D01*
X154225000Y-86200250D01*
X154053750Y-86029000D01*
X153704684Y-86029000D01*
X153653357Y-85770961D01*
X153463572Y-85486928D01*
X153000349Y-85023705D01*
X152871528Y-84711934D01*
X152589053Y-84428965D01*
X152219792Y-84275635D01*
X151819962Y-84275286D01*
X151450434Y-84427972D01*
X151167465Y-84710447D01*
X151023386Y-85057429D01*
X150822792Y-84974135D01*
X150422962Y-84973786D01*
X150053434Y-85126472D01*
X149770465Y-85408947D01*
X149640204Y-85722652D01*
X149304428Y-86058428D01*
X149114643Y-86342460D01*
X149071116Y-86561286D01*
X149048000Y-86677500D01*
X149048000Y-87677869D01*
X148953462Y-87677786D01*
X148583934Y-87830472D01*
X148300965Y-88112947D01*
X148147635Y-88482208D01*
X148147524Y-88608996D01*
X148097000Y-88863000D01*
X148097000Y-94458554D01*
X147714227Y-94840660D01*
X147487658Y-95386299D01*
X147487143Y-95977109D01*
X147540176Y-96105460D01*
X122828929Y-96105460D01*
X122828929Y-93427109D01*
X123712143Y-93427109D01*
X123937759Y-93973143D01*
X124355160Y-94391273D01*
X124900799Y-94617842D01*
X125491609Y-94618357D01*
X126037643Y-94392741D01*
X126455773Y-93975340D01*
X126682342Y-93429701D01*
X126682344Y-93427109D01*
X127522143Y-93427109D01*
X127747759Y-93973143D01*
X128165160Y-94391273D01*
X128710799Y-94617842D01*
X129301609Y-94618357D01*
X129847643Y-94392741D01*
X130265773Y-93975340D01*
X130492342Y-93429701D01*
X130492344Y-93427109D01*
X131312143Y-93427109D01*
X131537759Y-93973143D01*
X131955160Y-94391273D01*
X132500799Y-94617842D01*
X133091609Y-94618357D01*
X133637643Y-94392741D01*
X134055773Y-93975340D01*
X134282342Y-93429701D01*
X134282344Y-93427109D01*
X135122143Y-93427109D01*
X135347759Y-93973143D01*
X135765160Y-94391273D01*
X136310799Y-94617842D01*
X136901609Y-94618357D01*
X137447643Y-94392741D01*
X137865773Y-93975340D01*
X138092342Y-93429701D01*
X138092344Y-93427109D01*
X138962143Y-93427109D01*
X139187759Y-93973143D01*
X139605160Y-94391273D01*
X140150799Y-94617842D01*
X140741609Y-94618357D01*
X141287643Y-94392741D01*
X141705773Y-93975340D01*
X141932342Y-93429701D01*
X141932344Y-93427109D01*
X142772143Y-93427109D01*
X142997759Y-93973143D01*
X143415160Y-94391273D01*
X143960799Y-94617842D01*
X144551609Y-94618357D01*
X145097643Y-94392741D01*
X145515773Y-93975340D01*
X145742342Y-93429701D01*
X145742857Y-92838891D01*
X145517241Y-92292857D01*
X145099840Y-91874727D01*
X144554201Y-91648158D01*
X143963391Y-91647643D01*
X143417357Y-91873259D01*
X142999227Y-92290660D01*
X142772658Y-92836299D01*
X142772143Y-93427109D01*
X141932344Y-93427109D01*
X141932857Y-92838891D01*
X141707241Y-92292857D01*
X141289840Y-91874727D01*
X140744201Y-91648158D01*
X140153391Y-91647643D01*
X139607357Y-91873259D01*
X139189227Y-92290660D01*
X138962658Y-92836299D01*
X138962143Y-93427109D01*
X138092344Y-93427109D01*
X138092857Y-92838891D01*
X137867241Y-92292857D01*
X137449840Y-91874727D01*
X136904201Y-91648158D01*
X136313391Y-91647643D01*
X135767357Y-91873259D01*
X135349227Y-92290660D01*
X135122658Y-92836299D01*
X135122143Y-93427109D01*
X134282344Y-93427109D01*
X134282857Y-92838891D01*
X134057241Y-92292857D01*
X133639840Y-91874727D01*
X133094201Y-91648158D01*
X132503391Y-91647643D01*
X131957357Y-91873259D01*
X131539227Y-92290660D01*
X131312658Y-92836299D01*
X131312143Y-93427109D01*
X130492344Y-93427109D01*
X130492857Y-92838891D01*
X130267241Y-92292857D01*
X129849840Y-91874727D01*
X129304201Y-91648158D01*
X128713391Y-91647643D01*
X128167357Y-91873259D01*
X127749227Y-92290660D01*
X127522658Y-92836299D01*
X127522143Y-93427109D01*
X126682344Y-93427109D01*
X126682857Y-92838891D01*
X126457241Y-92292857D01*
X126039840Y-91874727D01*
X125494201Y-91648158D01*
X124903391Y-91647643D01*
X124357357Y-91873259D01*
X123939227Y-92290660D01*
X123712658Y-92836299D01*
X123712143Y-93427109D01*
X122828929Y-93427109D01*
X122828929Y-90249904D01*
X120487500Y-90249904D01*
X120487500Y-88305250D01*
X123047500Y-88305250D01*
X123047500Y-88828255D01*
X123151785Y-89080021D01*
X123344479Y-89272715D01*
X123596245Y-89377000D01*
X124754250Y-89377000D01*
X124925500Y-89205750D01*
X124925500Y-88134000D01*
X125079500Y-88134000D01*
X125079500Y-89205750D01*
X125250750Y-89377000D01*
X126408755Y-89377000D01*
X126660521Y-89272715D01*
X126853215Y-89080021D01*
X126957500Y-88828255D01*
X126957500Y-88305250D01*
X126907500Y-88255250D01*
X130697500Y-88255250D01*
X130697500Y-88778255D01*
X130801785Y-89030021D01*
X130994479Y-89222715D01*
X131246245Y-89327000D01*
X132404250Y-89327000D01*
X132575500Y-89155750D01*
X132575500Y-88084000D01*
X132729500Y-88084000D01*
X132729500Y-89155750D01*
X132900750Y-89327000D01*
X134058755Y-89327000D01*
X134310521Y-89222715D01*
X134503215Y-89030021D01*
X134607500Y-88778255D01*
X134607500Y-88255250D01*
X138297500Y-88255250D01*
X138297500Y-88778255D01*
X138401785Y-89030021D01*
X138594479Y-89222715D01*
X138846245Y-89327000D01*
X140004250Y-89327000D01*
X140175500Y-89155750D01*
X140175500Y-88084000D01*
X140329500Y-88084000D01*
X140329500Y-89155750D01*
X140500750Y-89327000D01*
X141658755Y-89327000D01*
X141910521Y-89222715D01*
X142103215Y-89030021D01*
X142207500Y-88778255D01*
X142207500Y-88255250D01*
X142036250Y-88084000D01*
X140329500Y-88084000D01*
X140175500Y-88084000D01*
X138468750Y-88084000D01*
X138297500Y-88255250D01*
X134607500Y-88255250D01*
X134436250Y-88084000D01*
X132729500Y-88084000D01*
X132575500Y-88084000D01*
X130868750Y-88084000D01*
X130697500Y-88255250D01*
X126907500Y-88255250D01*
X126786250Y-88134000D01*
X125079500Y-88134000D01*
X124925500Y-88134000D01*
X123218750Y-88134000D01*
X123047500Y-88305250D01*
X120487500Y-88305250D01*
X120487500Y-87931250D01*
X120316250Y-87760000D01*
X117879500Y-87760000D01*
X117879500Y-87780000D01*
X117725500Y-87780000D01*
X117725500Y-87760000D01*
X115288750Y-87760000D01*
X115117500Y-87931250D01*
X115117500Y-90249904D01*
X113391071Y-90249904D01*
X113391071Y-90828304D01*
X113375917Y-90806125D01*
X113316832Y-90768105D01*
X113252500Y-90756000D01*
X108124600Y-90756000D01*
X108124600Y-87531255D01*
X108524348Y-87691427D01*
X109115118Y-87684571D01*
X109629075Y-87471684D01*
X109696096Y-87205491D01*
X108802500Y-86311894D01*
X108788358Y-86326037D01*
X108679463Y-86217142D01*
X108693606Y-86203000D01*
X108911394Y-86203000D01*
X109804991Y-87096596D01*
X110071184Y-87029575D01*
X110290927Y-86481152D01*
X110284071Y-85890382D01*
X110071184Y-85376425D01*
X109804991Y-85309404D01*
X108911394Y-86203000D01*
X108693606Y-86203000D01*
X108679463Y-86188858D01*
X108788358Y-86079963D01*
X108802500Y-86094106D01*
X109696096Y-85200509D01*
X109657382Y-85046745D01*
X115117500Y-85046745D01*
X115117500Y-87434750D01*
X115288750Y-87606000D01*
X117725500Y-87606000D01*
X117725500Y-84669250D01*
X117879500Y-84669250D01*
X117879500Y-87606000D01*
X120316250Y-87606000D01*
X120487500Y-87434750D01*
X120487500Y-85046745D01*
X120383215Y-84794979D01*
X120190521Y-84602285D01*
X119938755Y-84498000D01*
X118050750Y-84498000D01*
X117879500Y-84669250D01*
X117725500Y-84669250D01*
X117554250Y-84498000D01*
X115666245Y-84498000D01*
X115414479Y-84602285D01*
X115221785Y-84794979D01*
X115117500Y-85046745D01*
X109657382Y-85046745D01*
X109629075Y-84934316D01*
X109621741Y-84931377D01*
X109642643Y-84922741D01*
X110060773Y-84505340D01*
X110115310Y-84374000D01*
X123034081Y-84374000D01*
X123034081Y-85644000D01*
X123081845Y-85897846D01*
X123231868Y-86130987D01*
X123460776Y-86287393D01*
X123732500Y-86342419D01*
X124128874Y-86342419D01*
X124193643Y-86668040D01*
X124239721Y-86737000D01*
X123596245Y-86737000D01*
X123344479Y-86841285D01*
X123151785Y-87033979D01*
X123047500Y-87285745D01*
X123047500Y-87808750D01*
X123218750Y-87980000D01*
X124925500Y-87980000D01*
X124925500Y-87960000D01*
X125079500Y-87960000D01*
X125079500Y-87980000D01*
X126786250Y-87980000D01*
X126957500Y-87808750D01*
X126957500Y-87708500D01*
X130697500Y-87708500D01*
X130697500Y-87758750D01*
X130868750Y-87930000D01*
X132575500Y-87930000D01*
X132575500Y-87910000D01*
X132729500Y-87910000D01*
X132729500Y-87930000D01*
X134436250Y-87930000D01*
X134607500Y-87758750D01*
X134607500Y-87708500D01*
X138297500Y-87708500D01*
X138297500Y-87758750D01*
X138468750Y-87930000D01*
X140175500Y-87930000D01*
X140175500Y-87910000D01*
X140329500Y-87910000D01*
X140329500Y-87930000D01*
X142036250Y-87930000D01*
X142207500Y-87758750D01*
X142207500Y-87708500D01*
X146802500Y-87708500D01*
X147137540Y-87641857D01*
X147421572Y-87452072D01*
X147459295Y-87414349D01*
X147771066Y-87285528D01*
X148054035Y-87003053D01*
X148207365Y-86633792D01*
X148207714Y-86233962D01*
X148055028Y-85864434D01*
X147772553Y-85581465D01*
X147457699Y-85450727D01*
X147457714Y-85433962D01*
X147305028Y-85064434D01*
X147083133Y-84842150D01*
X147107365Y-84783792D01*
X147107714Y-84383962D01*
X146955028Y-84014434D01*
X146672553Y-83731465D01*
X146303292Y-83578135D01*
X145903462Y-83577786D01*
X145533934Y-83730472D01*
X145250965Y-84012947D01*
X145097635Y-84382208D01*
X145097489Y-84549867D01*
X145089856Y-84557500D01*
X143865144Y-84557500D01*
X143483849Y-84176205D01*
X143355028Y-83864434D01*
X143072553Y-83581465D01*
X142703292Y-83428135D01*
X142303462Y-83427786D01*
X141933934Y-83580472D01*
X141817614Y-83696589D01*
X141794224Y-83680607D01*
X141522500Y-83625581D01*
X138982500Y-83625581D01*
X138728654Y-83673345D01*
X138495513Y-83823368D01*
X138339107Y-84052276D01*
X138284081Y-84324000D01*
X138284081Y-85307500D01*
X134620919Y-85307500D01*
X134620919Y-84324000D01*
X134573155Y-84070154D01*
X134488710Y-83938924D01*
X134532365Y-83833792D01*
X134532714Y-83433962D01*
X134380028Y-83064434D01*
X134097553Y-82781465D01*
X133728292Y-82628135D01*
X133328462Y-82627786D01*
X132958934Y-82780472D01*
X132920842Y-82818498D01*
X132892460Y-82824143D01*
X132608428Y-83013928D01*
X132033428Y-83588928D01*
X132008937Y-83625581D01*
X131382500Y-83625581D01*
X131128654Y-83673345D01*
X130895513Y-83823368D01*
X130739107Y-84052276D01*
X130684081Y-84324000D01*
X130684081Y-85594000D01*
X130731845Y-85847846D01*
X130802406Y-85957500D01*
X126887349Y-85957500D01*
X126915893Y-85915724D01*
X126970919Y-85644000D01*
X126970919Y-84374000D01*
X126923155Y-84120154D01*
X126857639Y-84018340D01*
X126882365Y-83958792D01*
X126882714Y-83558962D01*
X126730028Y-83189434D01*
X126447553Y-82906465D01*
X126078292Y-82753135D01*
X125678462Y-82752786D01*
X125308934Y-82905472D01*
X125295726Y-82918657D01*
X125142461Y-82949143D01*
X124893116Y-83115750D01*
X124858428Y-83138928D01*
X124383428Y-83613928D01*
X124342233Y-83675581D01*
X123732500Y-83675581D01*
X123478654Y-83723345D01*
X123245513Y-83873368D01*
X123089107Y-84102276D01*
X123034081Y-84374000D01*
X110115310Y-84374000D01*
X110266456Y-84010000D01*
X120502500Y-84010000D01*
X120571363Y-83996055D01*
X120629375Y-83956417D01*
X120667395Y-83897332D01*
X120679500Y-83833000D01*
X120679500Y-73710000D01*
X122915631Y-73710000D01*
X122972472Y-73847566D01*
X123254947Y-74130535D01*
X123624208Y-74283865D01*
X124024038Y-74284214D01*
X124393566Y-74131528D01*
X124676535Y-73849053D01*
X124829865Y-73479792D01*
X124830214Y-73079962D01*
X124703776Y-72773960D01*
X133502035Y-72773960D01*
X133389158Y-73045799D01*
X133389158Y-73045799D01*
G37*
X133389158Y-73045799D02*
X133388890Y-73353605D01*
X133023962Y-73353286D01*
X132654434Y-73505972D01*
X132371465Y-73788447D01*
X132218135Y-74157708D01*
X132217948Y-74372000D01*
X123012755Y-74372000D01*
X122822553Y-74181465D01*
X122453292Y-74028135D01*
X122053462Y-74027786D01*
X121683934Y-74180472D01*
X121400965Y-74462947D01*
X121247635Y-74832208D01*
X121247286Y-75232038D01*
X121399972Y-75601566D01*
X121682447Y-75884535D01*
X122051708Y-76037865D01*
X122104354Y-76037911D01*
X122131960Y-76056357D01*
X122467000Y-76123000D01*
X123463054Y-76123000D01*
X121700671Y-77885383D01*
X121541934Y-77950972D01*
X121258965Y-78233447D01*
X121105635Y-78602708D01*
X121105286Y-79002538D01*
X121257972Y-79372066D01*
X121540447Y-79655035D01*
X121909708Y-79808365D01*
X122309538Y-79808714D01*
X122679066Y-79656028D01*
X122962035Y-79373553D01*
X123028529Y-79213417D01*
X123328659Y-78913287D01*
X123513626Y-79360940D01*
X123987067Y-79835208D01*
X124605964Y-80092197D01*
X125276096Y-80092782D01*
X125895440Y-79836874D01*
X126369708Y-79363433D01*
X126626697Y-78744536D01*
X126627282Y-78074404D01*
X126371374Y-77455060D01*
X125897933Y-76980792D01*
X125667241Y-76885000D01*
X131837362Y-76885000D01*
X131609560Y-76979126D01*
X131135292Y-77452567D01*
X130878303Y-78071464D01*
X130877718Y-78741596D01*
X131133626Y-79360940D01*
X131607067Y-79835208D01*
X132225964Y-80092197D01*
X132896096Y-80092782D01*
X133515440Y-79836874D01*
X133989708Y-79363433D01*
X134023833Y-79281250D01*
X134942500Y-79281250D01*
X134942500Y-79619255D01*
X135046785Y-79871021D01*
X135239479Y-80063715D01*
X135491245Y-80168000D01*
X135754250Y-80168000D01*
X135925500Y-79996750D01*
X135925500Y-79110000D01*
X135113750Y-79110000D01*
X134942500Y-79281250D01*
X134023833Y-79281250D01*
X134246697Y-78744536D01*
X134247282Y-78074404D01*
X134022856Y-77531250D01*
X134942500Y-77531250D01*
X134942500Y-77869255D01*
X135046785Y-78121021D01*
X135083764Y-78158000D01*
X135046785Y-78194979D01*
X134942500Y-78446745D01*
X134942500Y-78784750D01*
X135113750Y-78956000D01*
X135925500Y-78956000D01*
X135925500Y-77360000D01*
X135113750Y-77360000D01*
X134942500Y-77531250D01*
X134022856Y-77531250D01*
X133991374Y-77455060D01*
X133517933Y-76980792D01*
X133287241Y-76885000D01*
X134942500Y-76885000D01*
X134942500Y-77034750D01*
X135113750Y-77206000D01*
X135925500Y-77206000D01*
X135925500Y-77186000D01*
X136079500Y-77186000D01*
X136079500Y-77206000D01*
X136099500Y-77206000D01*
X136099500Y-77360000D01*
X136079500Y-77360000D01*
X136079500Y-78956000D01*
X136099500Y-78956000D01*
X136099500Y-79110000D01*
X136079500Y-79110000D01*
X136079500Y-79996750D01*
X136250750Y-80168000D01*
X136513755Y-80168000D01*
X136765521Y-80063715D01*
X136805513Y-80023723D01*
X136955776Y-80126393D01*
X137227500Y-80181419D01*
X137977500Y-80181419D01*
X138119832Y-80154638D01*
X138118380Y-80156090D01*
X138118380Y-80343815D01*
X138196558Y-80532553D01*
X138159987Y-80586076D01*
X138104961Y-80857800D01*
X138104961Y-81457240D01*
X138152725Y-81711086D01*
X138302748Y-81944227D01*
X138531656Y-82100633D01*
X138803380Y-82155659D01*
X140103860Y-82155659D01*
X140357706Y-82107895D01*
X140539425Y-81990961D01*
X140663020Y-81966377D01*
X140699204Y-81942200D01*
X140700508Y-81944227D01*
X140929416Y-82100633D01*
X141201140Y-82155659D01*
X142501620Y-82155659D01*
X142755466Y-82107895D01*
X142988607Y-81957872D01*
X143145013Y-81728964D01*
X143200039Y-81457240D01*
X143200039Y-80857800D01*
X143152275Y-80603954D01*
X143107438Y-80534276D01*
X143145013Y-80479284D01*
X143189773Y-80258250D01*
X144730000Y-80258250D01*
X144730000Y-80590755D01*
X144834285Y-80842521D01*
X145026979Y-81035215D01*
X145278745Y-81139500D01*
X145865250Y-81139500D01*
X146036500Y-80968250D01*
X146036500Y-80087000D01*
X146190500Y-80087000D01*
X146190500Y-80968250D01*
X146361750Y-81139500D01*
X146948255Y-81139500D01*
X147200021Y-81035215D01*
X147392715Y-80842521D01*
X147497000Y-80590755D01*
X147497000Y-80258250D01*
X147325750Y-80087000D01*
X146190500Y-80087000D01*
X146036500Y-80087000D01*
X144901250Y-80087000D01*
X144730000Y-80258250D01*
X143189773Y-80258250D01*
X143200039Y-80207560D01*
X143200039Y-79608120D01*
X143174892Y-79474474D01*
X143212380Y-79467017D01*
X143496412Y-79277232D01*
X144573572Y-78200072D01*
X144626392Y-78121021D01*
X144716581Y-77986044D01*
X144716581Y-78549500D01*
X144764345Y-78803346D01*
X144914368Y-79036487D01*
X144950553Y-79061211D01*
X144834285Y-79177479D01*
X144730000Y-79429245D01*
X144730000Y-79761750D01*
X144901250Y-79933000D01*
X146036500Y-79933000D01*
X146036500Y-79913000D01*
X146190500Y-79913000D01*
X146190500Y-79933000D01*
X147325750Y-79933000D01*
X147497000Y-79761750D01*
X147497000Y-79429245D01*
X147392715Y-79177479D01*
X147278531Y-79063295D01*
X147298987Y-79050132D01*
X147346564Y-78980500D01*
X149098000Y-78980500D01*
X149433040Y-78913857D01*
X149717072Y-78724072D01*
X150846854Y-77594290D01*
X150823635Y-77650208D01*
X150823286Y-78050038D01*
X150975972Y-78419566D01*
X151258447Y-78702535D01*
X151572152Y-78832796D01*
X151780928Y-79041572D01*
X152064960Y-79231357D01*
X152400000Y-79298000D01*
X152644937Y-79298000D01*
X152538135Y-79555208D01*
X152537786Y-79955038D01*
X152690472Y-80324566D01*
X152972947Y-80607535D01*
X153342208Y-80760865D01*
X153742038Y-80761214D01*
X153902288Y-80695000D01*
X155763109Y-80695000D01*
X155706135Y-80832208D01*
X155705786Y-81232038D01*
X155858472Y-81601566D01*
X156140947Y-81884535D01*
X156510208Y-82037865D01*
X156546693Y-82037897D01*
X156622960Y-82088857D01*
X156958000Y-82155500D01*
X164239004Y-82155500D01*
X164099928Y-82248428D01*
X162358428Y-83989928D01*
X162168643Y-84273960D01*
X162145576Y-84389928D01*
X162102000Y-84609000D01*
X162102000Y-86695661D01*
X161972635Y-87007208D01*
X161972286Y-87407038D01*
X162124972Y-87776566D01*
X162407447Y-88059535D01*
X162475999Y-88088000D01*
X161587000Y-88088000D01*
X161587000Y-87662250D01*
X161415750Y-87491000D01*
X160079000Y-87491000D01*
X160079000Y-87511000D01*
X159925000Y-87511000D01*
X159925000Y-87491000D01*
X158588250Y-87491000D01*
X158577000Y-87502250D01*
X158565750Y-87491000D01*
X157229000Y-87491000D01*
X157229000Y-88627750D01*
X157400250Y-88799000D01*
X158188255Y-88799000D01*
X158440021Y-88694715D01*
X158577000Y-88557736D01*
X158713979Y-88694715D01*
X158965745Y-88799000D01*
X159753750Y-88799000D01*
X159906500Y-88646250D01*
X159906500Y-89714750D01*
X159898750Y-89707000D01*
X159560745Y-89707000D01*
X159308979Y-89811285D01*
X159116285Y-90003979D01*
X159012000Y-90255745D01*
X159012000Y-90518750D01*
X159183250Y-90690000D01*
X159906500Y-90690000D01*
X159906500Y-90844000D01*
X159183250Y-90844000D01*
X159033697Y-90993553D01*
X156839144Y-88799000D01*
X156903750Y-88799000D01*
X157075000Y-88627750D01*
X157075000Y-87491000D01*
X155738250Y-87491000D01*
X155727000Y-87502250D01*
X155715750Y-87491000D01*
X154379000Y-87491000D01*
X154379000Y-87511000D01*
X154225000Y-87511000D01*
X154225000Y-87491000D01*
X154205000Y-87491000D01*
X154205000Y-87337000D01*
X154225000Y-87337000D01*
X154225000Y-86200250D01*
X154379000Y-86200250D01*
X154379000Y-87337000D01*
X155715750Y-87337000D01*
X155727000Y-87325750D01*
X155738250Y-87337000D01*
X157075000Y-87337000D01*
X157075000Y-86200250D01*
X157229000Y-86200250D01*
X157229000Y-87337000D01*
X158565750Y-87337000D01*
X158577000Y-87325750D01*
X158588250Y-87337000D01*
X159925000Y-87337000D01*
X159925000Y-86200250D01*
X160079000Y-86200250D01*
X160079000Y-87337000D01*
X161415750Y-87337000D01*
X161587000Y-87165750D01*
X161587000Y-86577745D01*
X161482715Y-86325979D01*
X161290021Y-86133285D01*
X161038255Y-86029000D01*
X160250250Y-86029000D01*
X160079000Y-86200250D01*
X159925000Y-86200250D01*
X159753750Y-86029000D01*
X158965745Y-86029000D01*
X158713979Y-86133285D01*
X158577000Y-86270264D01*
X158440021Y-86133285D01*
X158188255Y-86029000D01*
X157400250Y-86029000D01*
X157229000Y-86200250D01*
X157075000Y-86200250D01*
X156903750Y-86029000D01*
X156115745Y-86029000D01*
X155863979Y-86133285D01*
X155727000Y-86270264D01*
X155590021Y-86133285D01*
X155338255Y-86029000D01*
X154550250Y-86029000D01*
X154379000Y-86200250D01*
X154225000Y-86200250D01*
X154053750Y-86029000D01*
X153704684Y-86029000D01*
X153653357Y-85770961D01*
X153463572Y-85486928D01*
X153000349Y-85023705D01*
X152871528Y-84711934D01*
X152589053Y-84428965D01*
X152219792Y-84275635D01*
X151819962Y-84275286D01*
X151450434Y-84427972D01*
X151167465Y-84710447D01*
X151023386Y-85057429D01*
X150822792Y-84974135D01*
X150422962Y-84973786D01*
X150053434Y-85126472D01*
X149770465Y-85408947D01*
X149640204Y-85722652D01*
X149304428Y-86058428D01*
X149114643Y-86342460D01*
X149071116Y-86561286D01*
X149048000Y-86677500D01*
X149048000Y-87677869D01*
X148953462Y-87677786D01*
X148583934Y-87830472D01*
X148300965Y-88112947D01*
X148147635Y-88482208D01*
X148147524Y-88608996D01*
X148097000Y-88863000D01*
X148097000Y-94458554D01*
X147714227Y-94840660D01*
X147487658Y-95386299D01*
X147487143Y-95977109D01*
X147540176Y-96105460D01*
X122828929Y-96105460D01*
X122828929Y-93427109D01*
X123712143Y-93427109D01*
X123937759Y-93973143D01*
X124355160Y-94391273D01*
X124900799Y-94617842D01*
X125491609Y-94618357D01*
X126037643Y-94392741D01*
X126455773Y-93975340D01*
X126682342Y-93429701D01*
X126682344Y-93427109D01*
X127522143Y-93427109D01*
X127747759Y-93973143D01*
X128165160Y-94391273D01*
X128710799Y-94617842D01*
X129301609Y-94618357D01*
X129847643Y-94392741D01*
X130265773Y-93975340D01*
X130492342Y-93429701D01*
X130492344Y-93427109D01*
X131312143Y-93427109D01*
X131537759Y-93973143D01*
X131955160Y-94391273D01*
X132500799Y-94617842D01*
X133091609Y-94618357D01*
X133637643Y-94392741D01*
X134055773Y-93975340D01*
X134282342Y-93429701D01*
X134282344Y-93427109D01*
X135122143Y-93427109D01*
X135347759Y-93973143D01*
X135765160Y-94391273D01*
X136310799Y-94617842D01*
X136901609Y-94618357D01*
X137447643Y-94392741D01*
X137865773Y-93975340D01*
X138092342Y-93429701D01*
X138092344Y-93427109D01*
X138962143Y-93427109D01*
X139187759Y-93973143D01*
X139605160Y-94391273D01*
X140150799Y-94617842D01*
X140741609Y-94618357D01*
X141287643Y-94392741D01*
X141705773Y-93975340D01*
X141932342Y-93429701D01*
X141932344Y-93427109D01*
X142772143Y-93427109D01*
X142997759Y-93973143D01*
X143415160Y-94391273D01*
X143960799Y-94617842D01*
X144551609Y-94618357D01*
X145097643Y-94392741D01*
X145515773Y-93975340D01*
X145742342Y-93429701D01*
X145742857Y-92838891D01*
X145517241Y-92292857D01*
X145099840Y-91874727D01*
X144554201Y-91648158D01*
X143963391Y-91647643D01*
X143417357Y-91873259D01*
X142999227Y-92290660D01*
X142772658Y-92836299D01*
X142772143Y-93427109D01*
X141932344Y-93427109D01*
X141932857Y-92838891D01*
X141707241Y-92292857D01*
X141289840Y-91874727D01*
X140744201Y-91648158D01*
X140153391Y-91647643D01*
X139607357Y-91873259D01*
X139189227Y-92290660D01*
X138962658Y-92836299D01*
X138962143Y-93427109D01*
X138092344Y-93427109D01*
X138092857Y-92838891D01*
X137867241Y-92292857D01*
X137449840Y-91874727D01*
X136904201Y-91648158D01*
X136313391Y-91647643D01*
X135767357Y-91873259D01*
X135349227Y-92290660D01*
X135122658Y-92836299D01*
X135122143Y-93427109D01*
X134282344Y-93427109D01*
X134282857Y-92838891D01*
X134057241Y-92292857D01*
X133639840Y-91874727D01*
X133094201Y-91648158D01*
X132503391Y-91647643D01*
X131957357Y-91873259D01*
X131539227Y-92290660D01*
X131312658Y-92836299D01*
X131312143Y-93427109D01*
X130492344Y-93427109D01*
X130492857Y-92838891D01*
X130267241Y-92292857D01*
X129849840Y-91874727D01*
X129304201Y-91648158D01*
X128713391Y-91647643D01*
X128167357Y-91873259D01*
X127749227Y-92290660D01*
X127522658Y-92836299D01*
X127522143Y-93427109D01*
X126682344Y-93427109D01*
X126682857Y-92838891D01*
X126457241Y-92292857D01*
X126039840Y-91874727D01*
X125494201Y-91648158D01*
X124903391Y-91647643D01*
X124357357Y-91873259D01*
X123939227Y-92290660D01*
X123712658Y-92836299D01*
X123712143Y-93427109D01*
X122828929Y-93427109D01*
X122828929Y-90249904D01*
X120487500Y-90249904D01*
X120487500Y-88305250D01*
X123047500Y-88305250D01*
X123047500Y-88828255D01*
X123151785Y-89080021D01*
X123344479Y-89272715D01*
X123596245Y-89377000D01*
X124754250Y-89377000D01*
X124925500Y-89205750D01*
X124925500Y-88134000D01*
X125079500Y-88134000D01*
X125079500Y-89205750D01*
X125250750Y-89377000D01*
X126408755Y-89377000D01*
X126660521Y-89272715D01*
X126853215Y-89080021D01*
X126957500Y-88828255D01*
X126957500Y-88305250D01*
X126907500Y-88255250D01*
X130697500Y-88255250D01*
X130697500Y-88778255D01*
X130801785Y-89030021D01*
X130994479Y-89222715D01*
X131246245Y-89327000D01*
X132404250Y-89327000D01*
X132575500Y-89155750D01*
X132575500Y-88084000D01*
X132729500Y-88084000D01*
X132729500Y-89155750D01*
X132900750Y-89327000D01*
X134058755Y-89327000D01*
X134310521Y-89222715D01*
X134503215Y-89030021D01*
X134607500Y-88778255D01*
X134607500Y-88255250D01*
X138297500Y-88255250D01*
X138297500Y-88778255D01*
X138401785Y-89030021D01*
X138594479Y-89222715D01*
X138846245Y-89327000D01*
X140004250Y-89327000D01*
X140175500Y-89155750D01*
X140175500Y-88084000D01*
X140329500Y-88084000D01*
X140329500Y-89155750D01*
X140500750Y-89327000D01*
X141658755Y-89327000D01*
X141910521Y-89222715D01*
X142103215Y-89030021D01*
X142207500Y-88778255D01*
X142207500Y-88255250D01*
X142036250Y-88084000D01*
X140329500Y-88084000D01*
X140175500Y-88084000D01*
X138468750Y-88084000D01*
X138297500Y-88255250D01*
X134607500Y-88255250D01*
X134436250Y-88084000D01*
X132729500Y-88084000D01*
X132575500Y-88084000D01*
X130868750Y-88084000D01*
X130697500Y-88255250D01*
X126907500Y-88255250D01*
X126786250Y-88134000D01*
X125079500Y-88134000D01*
X124925500Y-88134000D01*
X123218750Y-88134000D01*
X123047500Y-88305250D01*
X120487500Y-88305250D01*
X120487500Y-87931250D01*
X120316250Y-87760000D01*
X117879500Y-87760000D01*
X117879500Y-87780000D01*
X117725500Y-87780000D01*
X117725500Y-87760000D01*
X115288750Y-87760000D01*
X115117500Y-87931250D01*
X115117500Y-90249904D01*
X113391071Y-90249904D01*
X113391071Y-90828304D01*
X113375917Y-90806125D01*
X113316832Y-90768105D01*
X113252500Y-90756000D01*
X108124600Y-90756000D01*
X108124600Y-87531255D01*
X108524348Y-87691427D01*
X109115118Y-87684571D01*
X109629075Y-87471684D01*
X109696096Y-87205491D01*
X108802500Y-86311894D01*
X108788358Y-86326037D01*
X108679463Y-86217142D01*
X108693606Y-86203000D01*
X108911394Y-86203000D01*
X109804991Y-87096596D01*
X110071184Y-87029575D01*
X110290927Y-86481152D01*
X110284071Y-85890382D01*
X110071184Y-85376425D01*
X109804991Y-85309404D01*
X108911394Y-86203000D01*
X108693606Y-86203000D01*
X108679463Y-86188858D01*
X108788358Y-86079963D01*
X108802500Y-86094106D01*
X109696096Y-85200509D01*
X109657382Y-85046745D01*
X115117500Y-85046745D01*
X115117500Y-87434750D01*
X115288750Y-87606000D01*
X117725500Y-87606000D01*
X117725500Y-84669250D01*
X117879500Y-84669250D01*
X117879500Y-87606000D01*
X120316250Y-87606000D01*
X120487500Y-87434750D01*
X120487500Y-85046745D01*
X120383215Y-84794979D01*
X120190521Y-84602285D01*
X119938755Y-84498000D01*
X118050750Y-84498000D01*
X117879500Y-84669250D01*
X117725500Y-84669250D01*
X117554250Y-84498000D01*
X115666245Y-84498000D01*
X115414479Y-84602285D01*
X115221785Y-84794979D01*
X115117500Y-85046745D01*
X109657382Y-85046745D01*
X109629075Y-84934316D01*
X109621741Y-84931377D01*
X109642643Y-84922741D01*
X110060773Y-84505340D01*
X110115310Y-84374000D01*
X123034081Y-84374000D01*
X123034081Y-85644000D01*
X123081845Y-85897846D01*
X123231868Y-86130987D01*
X123460776Y-86287393D01*
X123732500Y-86342419D01*
X124128874Y-86342419D01*
X124193643Y-86668040D01*
X124239721Y-86737000D01*
X123596245Y-86737000D01*
X123344479Y-86841285D01*
X123151785Y-87033979D01*
X123047500Y-87285745D01*
X123047500Y-87808750D01*
X123218750Y-87980000D01*
X124925500Y-87980000D01*
X124925500Y-87960000D01*
X125079500Y-87960000D01*
X125079500Y-87980000D01*
X126786250Y-87980000D01*
X126957500Y-87808750D01*
X126957500Y-87708500D01*
X130697500Y-87708500D01*
X130697500Y-87758750D01*
X130868750Y-87930000D01*
X132575500Y-87930000D01*
X132575500Y-87910000D01*
X132729500Y-87910000D01*
X132729500Y-87930000D01*
X134436250Y-87930000D01*
X134607500Y-87758750D01*
X134607500Y-87708500D01*
X138297500Y-87708500D01*
X138297500Y-87758750D01*
X138468750Y-87930000D01*
X140175500Y-87930000D01*
X140175500Y-87910000D01*
X140329500Y-87910000D01*
X140329500Y-87930000D01*
X142036250Y-87930000D01*
X142207500Y-87758750D01*
X142207500Y-87708500D01*
X146802500Y-87708500D01*
X147137540Y-87641857D01*
X147421572Y-87452072D01*
X147459295Y-87414349D01*
X147771066Y-87285528D01*
X148054035Y-87003053D01*
X148207365Y-86633792D01*
X148207714Y-86233962D01*
X148055028Y-85864434D01*
X147772553Y-85581465D01*
X147457699Y-85450727D01*
X147457714Y-85433962D01*
X147305028Y-85064434D01*
X147083133Y-84842150D01*
X147107365Y-84783792D01*
X147107714Y-84383962D01*
X146955028Y-84014434D01*
X146672553Y-83731465D01*
X146303292Y-83578135D01*
X145903462Y-83577786D01*
X145533934Y-83730472D01*
X145250965Y-84012947D01*
X145097635Y-84382208D01*
X145097489Y-84549867D01*
X145089856Y-84557500D01*
X143865144Y-84557500D01*
X143483849Y-84176205D01*
X143355028Y-83864434D01*
X143072553Y-83581465D01*
X142703292Y-83428135D01*
X142303462Y-83427786D01*
X141933934Y-83580472D01*
X141817614Y-83696589D01*
X141794224Y-83680607D01*
X141522500Y-83625581D01*
X138982500Y-83625581D01*
X138728654Y-83673345D01*
X138495513Y-83823368D01*
X138339107Y-84052276D01*
X138284081Y-84324000D01*
X138284081Y-85307500D01*
X134620919Y-85307500D01*
X134620919Y-84324000D01*
X134573155Y-84070154D01*
X134488710Y-83938924D01*
X134532365Y-83833792D01*
X134532714Y-83433962D01*
X134380028Y-83064434D01*
X134097553Y-82781465D01*
X133728292Y-82628135D01*
X133328462Y-82627786D01*
X132958934Y-82780472D01*
X132920842Y-82818498D01*
X132892460Y-82824143D01*
X132608428Y-83013928D01*
X132033428Y-83588928D01*
X132008937Y-83625581D01*
X131382500Y-83625581D01*
X131128654Y-83673345D01*
X130895513Y-83823368D01*
X130739107Y-84052276D01*
X130684081Y-84324000D01*
X130684081Y-85594000D01*
X130731845Y-85847846D01*
X130802406Y-85957500D01*
X126887349Y-85957500D01*
X126915893Y-85915724D01*
X126970919Y-85644000D01*
X126970919Y-84374000D01*
X126923155Y-84120154D01*
X126857639Y-84018340D01*
X126882365Y-83958792D01*
X126882714Y-83558962D01*
X126730028Y-83189434D01*
X126447553Y-82906465D01*
X126078292Y-82753135D01*
X125678462Y-82752786D01*
X125308934Y-82905472D01*
X125295726Y-82918657D01*
X125142461Y-82949143D01*
X124893116Y-83115750D01*
X124858428Y-83138928D01*
X124383428Y-83613928D01*
X124342233Y-83675581D01*
X123732500Y-83675581D01*
X123478654Y-83723345D01*
X123245513Y-83873368D01*
X123089107Y-84102276D01*
X123034081Y-84374000D01*
X110115310Y-84374000D01*
X110266456Y-84010000D01*
X120502500Y-84010000D01*
X120571363Y-83996055D01*
X120629375Y-83956417D01*
X120667395Y-83897332D01*
X120679500Y-83833000D01*
X120679500Y-73710000D01*
X122915631Y-73710000D01*
X122972472Y-73847566D01*
X123254947Y-74130535D01*
X123624208Y-74283865D01*
X124024038Y-74284214D01*
X124393566Y-74131528D01*
X124676535Y-73849053D01*
X124829865Y-73479792D01*
X124830214Y-73079962D01*
X124703776Y-72773960D01*
X133502035Y-72773960D01*
X133389158Y-73045799D01*
G36*
X175125500Y-77933000D02*
X175139445Y-78001863D01*
X175179083Y-78059875D01*
X175238168Y-78097895D01*
X175302500Y-78110000D01*
X180455240Y-78110000D01*
X180455240Y-90756000D01*
X175302500Y-90756000D01*
X175233637Y-90769945D01*
X175175625Y-90809583D01*
X175137605Y-90868668D01*
X175125500Y-90933000D01*
X175125500Y-96105460D01*
X173871085Y-96105460D01*
X173940927Y-95931152D01*
X173934071Y-95340382D01*
X173721184Y-94826425D01*
X173454991Y-94759404D01*
X172561394Y-95653000D01*
X172575537Y-95667142D01*
X172466643Y-95776037D01*
X172452500Y-95761894D01*
X172438358Y-95776037D01*
X172329463Y-95667142D01*
X172343606Y-95653000D01*
X171450009Y-94759404D01*
X171183816Y-94826425D01*
X171177605Y-94841926D01*
X171171184Y-94826425D01*
X170904991Y-94759404D01*
X170011394Y-95653000D01*
X170025537Y-95667142D01*
X169916643Y-95776037D01*
X169902500Y-95761894D01*
X169888358Y-95776037D01*
X169779463Y-95667142D01*
X169793606Y-95653000D01*
X169779463Y-95638858D01*
X169888358Y-95529963D01*
X169902500Y-95544106D01*
X170796096Y-94650509D01*
X170729075Y-94384316D01*
X170721741Y-94381377D01*
X170742643Y-94372741D01*
X171160773Y-93955340D01*
X171177261Y-93915634D01*
X171192759Y-93953143D01*
X171610160Y-94371273D01*
X171633758Y-94381072D01*
X171625925Y-94384316D01*
X171558904Y-94650509D01*
X172452500Y-95544106D01*
X173346096Y-94650509D01*
X173279075Y-94384316D01*
X173271741Y-94381377D01*
X173292643Y-94372741D01*
X173710773Y-93955340D01*
X173937342Y-93409701D01*
X173937857Y-92818891D01*
X173712241Y-92272857D01*
X173294840Y-91854727D01*
X172749201Y-91628158D01*
X172158391Y-91627643D01*
X171612357Y-91853259D01*
X171194227Y-92270660D01*
X171177739Y-92310366D01*
X171162241Y-92272857D01*
X170744840Y-91854727D01*
X170199201Y-91628158D01*
X169608391Y-91627643D01*
X169277500Y-91764364D01*
X169277500Y-88378500D01*
X175065161Y-88378500D01*
X175376708Y-88507865D01*
X175776538Y-88508214D01*
X176146066Y-88355528D01*
X176339645Y-88162287D01*
X176594947Y-88418035D01*
X176964208Y-88571365D01*
X177364038Y-88571714D01*
X177733566Y-88419028D01*
X177742952Y-88409659D01*
X178051708Y-88537865D01*
X178451538Y-88538214D01*
X178821066Y-88385528D01*
X179104035Y-88103053D01*
X179257365Y-87733792D01*
X179257714Y-87333962D01*
X179128000Y-87020030D01*
X179128000Y-84082000D01*
X179104514Y-83963928D01*
X179061357Y-83746960D01*
X178871572Y-83462928D01*
X175659144Y-80250500D01*
X176481856Y-80250500D01*
X177071151Y-80839795D01*
X177199972Y-81151566D01*
X177482447Y-81434535D01*
X177851708Y-81587865D01*
X178251538Y-81588214D01*
X178621066Y-81435528D01*
X178904035Y-81153053D01*
X179057365Y-80783792D01*
X179057714Y-80383962D01*
X178905028Y-80014434D01*
X178622553Y-79731465D01*
X178308848Y-79601204D01*
X177463572Y-78755928D01*
X177179540Y-78566143D01*
X176844500Y-78499500D01*
X170624500Y-78499500D01*
X170289460Y-78566143D01*
X170031000Y-78738841D01*
X170031000Y-78330621D01*
X170259346Y-78287655D01*
X170362073Y-78221552D01*
X170723803Y-78371755D01*
X171284736Y-78372245D01*
X171803158Y-78158037D01*
X172200143Y-77761744D01*
X172415255Y-77243697D01*
X172415745Y-76682764D01*
X172201537Y-76164342D01*
X171957008Y-75919386D01*
X172005500Y-75929032D01*
X172497248Y-75831217D01*
X172914132Y-75552664D01*
X173192685Y-75135780D01*
X173290500Y-74644032D01*
X173290500Y-73879968D01*
X173192685Y-73388220D01*
X172914132Y-72971336D01*
X172618738Y-72773960D01*
X175125500Y-72773960D01*
X175125500Y-77933000D01*
X175125500Y-77933000D01*
G37*
X175125500Y-77933000D02*
X175139445Y-78001863D01*
X175179083Y-78059875D01*
X175238168Y-78097895D01*
X175302500Y-78110000D01*
X180455240Y-78110000D01*
X180455240Y-90756000D01*
X175302500Y-90756000D01*
X175233637Y-90769945D01*
X175175625Y-90809583D01*
X175137605Y-90868668D01*
X175125500Y-90933000D01*
X175125500Y-96105460D01*
X173871085Y-96105460D01*
X173940927Y-95931152D01*
X173934071Y-95340382D01*
X173721184Y-94826425D01*
X173454991Y-94759404D01*
X172561394Y-95653000D01*
X172575537Y-95667142D01*
X172466643Y-95776037D01*
X172452500Y-95761894D01*
X172438358Y-95776037D01*
X172329463Y-95667142D01*
X172343606Y-95653000D01*
X171450009Y-94759404D01*
X171183816Y-94826425D01*
X171177605Y-94841926D01*
X171171184Y-94826425D01*
X170904991Y-94759404D01*
X170011394Y-95653000D01*
X170025537Y-95667142D01*
X169916643Y-95776037D01*
X169902500Y-95761894D01*
X169888358Y-95776037D01*
X169779463Y-95667142D01*
X169793606Y-95653000D01*
X169779463Y-95638858D01*
X169888358Y-95529963D01*
X169902500Y-95544106D01*
X170796096Y-94650509D01*
X170729075Y-94384316D01*
X170721741Y-94381377D01*
X170742643Y-94372741D01*
X171160773Y-93955340D01*
X171177261Y-93915634D01*
X171192759Y-93953143D01*
X171610160Y-94371273D01*
X171633758Y-94381072D01*
X171625925Y-94384316D01*
X171558904Y-94650509D01*
X172452500Y-95544106D01*
X173346096Y-94650509D01*
X173279075Y-94384316D01*
X173271741Y-94381377D01*
X173292643Y-94372741D01*
X173710773Y-93955340D01*
X173937342Y-93409701D01*
X173937857Y-92818891D01*
X173712241Y-92272857D01*
X173294840Y-91854727D01*
X172749201Y-91628158D01*
X172158391Y-91627643D01*
X171612357Y-91853259D01*
X171194227Y-92270660D01*
X171177739Y-92310366D01*
X171162241Y-92272857D01*
X170744840Y-91854727D01*
X170199201Y-91628158D01*
X169608391Y-91627643D01*
X169277500Y-91764364D01*
X169277500Y-88378500D01*
X175065161Y-88378500D01*
X175376708Y-88507865D01*
X175776538Y-88508214D01*
X176146066Y-88355528D01*
X176339645Y-88162287D01*
X176594947Y-88418035D01*
X176964208Y-88571365D01*
X177364038Y-88571714D01*
X177733566Y-88419028D01*
X177742952Y-88409659D01*
X178051708Y-88537865D01*
X178451538Y-88538214D01*
X178821066Y-88385528D01*
X179104035Y-88103053D01*
X179257365Y-87733792D01*
X179257714Y-87333962D01*
X179128000Y-87020030D01*
X179128000Y-84082000D01*
X179104514Y-83963928D01*
X179061357Y-83746960D01*
X178871572Y-83462928D01*
X175659144Y-80250500D01*
X176481856Y-80250500D01*
X177071151Y-80839795D01*
X177199972Y-81151566D01*
X177482447Y-81434535D01*
X177851708Y-81587865D01*
X178251538Y-81588214D01*
X178621066Y-81435528D01*
X178904035Y-81153053D01*
X179057365Y-80783792D01*
X179057714Y-80383962D01*
X178905028Y-80014434D01*
X178622553Y-79731465D01*
X178308848Y-79601204D01*
X177463572Y-78755928D01*
X177179540Y-78566143D01*
X176844500Y-78499500D01*
X170624500Y-78499500D01*
X170289460Y-78566143D01*
X170031000Y-78738841D01*
X170031000Y-78330621D01*
X170259346Y-78287655D01*
X170362073Y-78221552D01*
X170723803Y-78371755D01*
X171284736Y-78372245D01*
X171803158Y-78158037D01*
X172200143Y-77761744D01*
X172415255Y-77243697D01*
X172415745Y-76682764D01*
X172201537Y-76164342D01*
X171957008Y-75919386D01*
X172005500Y-75929032D01*
X172497248Y-75831217D01*
X172914132Y-75552664D01*
X173192685Y-75135780D01*
X173290500Y-74644032D01*
X173290500Y-73879968D01*
X173192685Y-73388220D01*
X172914132Y-72971336D01*
X172618738Y-72773960D01*
X175125500Y-72773960D01*
X175125500Y-77933000D01*
G36*
X151529000Y-87337000D02*
X151549000Y-87337000D01*
X151549000Y-87491000D01*
X151529000Y-87491000D01*
X151529000Y-88627750D01*
X151700250Y-88799000D01*
X152083725Y-88799000D01*
X152225428Y-89011072D01*
X152962356Y-89748000D01*
X152750750Y-89748000D01*
X152579500Y-89919250D01*
X152579500Y-90806000D01*
X152599500Y-90806000D01*
X152599500Y-90960000D01*
X152579500Y-90960000D01*
X152579500Y-91846750D01*
X152750750Y-92018000D01*
X153013755Y-92018000D01*
X153265521Y-91913715D01*
X153305513Y-91873723D01*
X153455776Y-91976393D01*
X153727500Y-92031419D01*
X154477500Y-92031419D01*
X154549271Y-92017915D01*
X155717000Y-93185644D01*
X155717000Y-94458554D01*
X155334227Y-94840660D01*
X155324428Y-94864258D01*
X155321184Y-94856425D01*
X155054991Y-94789404D01*
X154161394Y-95683000D01*
X154175537Y-95697143D01*
X154066643Y-95806037D01*
X154052500Y-95791894D01*
X154038358Y-95806037D01*
X153929464Y-95697143D01*
X153943606Y-95683000D01*
X153050009Y-94789404D01*
X152783816Y-94856425D01*
X152780877Y-94863759D01*
X152772241Y-94842857D01*
X152610177Y-94680509D01*
X153158904Y-94680509D01*
X154052500Y-95574106D01*
X154946096Y-94680509D01*
X154879075Y-94414316D01*
X154330652Y-94194573D01*
X153739882Y-94201429D01*
X153225925Y-94414316D01*
X153158904Y-94680509D01*
X152610177Y-94680509D01*
X152354840Y-94424727D01*
X151809201Y-94198158D01*
X151265328Y-94197684D01*
X150799000Y-93731356D01*
X150799000Y-91131250D01*
X151442500Y-91131250D01*
X151442500Y-91469255D01*
X151546785Y-91721021D01*
X151739479Y-91913715D01*
X151991245Y-92018000D01*
X152254250Y-92018000D01*
X152425500Y-91846750D01*
X152425500Y-90960000D01*
X151613750Y-90960000D01*
X151442500Y-91131250D01*
X150799000Y-91131250D01*
X150799000Y-90296745D01*
X151442500Y-90296745D01*
X151442500Y-90634750D01*
X151613750Y-90806000D01*
X152425500Y-90806000D01*
X152425500Y-89919250D01*
X152254250Y-89748000D01*
X151991245Y-89748000D01*
X151739479Y-89852285D01*
X151546785Y-90044979D01*
X151442500Y-90296745D01*
X150799000Y-90296745D01*
X150799000Y-88799000D01*
X151203750Y-88799000D01*
X151375000Y-88627750D01*
X151375000Y-87491000D01*
X151355000Y-87491000D01*
X151355000Y-87337000D01*
X151375000Y-87337000D01*
X151375000Y-87317000D01*
X151529000Y-87317000D01*
X151529000Y-87337000D01*
X151529000Y-87337000D01*
G37*
X151529000Y-87337000D02*
X151549000Y-87337000D01*
X151549000Y-87491000D01*
X151529000Y-87491000D01*
X151529000Y-88627750D01*
X151700250Y-88799000D01*
X152083725Y-88799000D01*
X152225428Y-89011072D01*
X152962356Y-89748000D01*
X152750750Y-89748000D01*
X152579500Y-89919250D01*
X152579500Y-90806000D01*
X152599500Y-90806000D01*
X152599500Y-90960000D01*
X152579500Y-90960000D01*
X152579500Y-91846750D01*
X152750750Y-92018000D01*
X153013755Y-92018000D01*
X153265521Y-91913715D01*
X153305513Y-91873723D01*
X153455776Y-91976393D01*
X153727500Y-92031419D01*
X154477500Y-92031419D01*
X154549271Y-92017915D01*
X155717000Y-93185644D01*
X155717000Y-94458554D01*
X155334227Y-94840660D01*
X155324428Y-94864258D01*
X155321184Y-94856425D01*
X155054991Y-94789404D01*
X154161394Y-95683000D01*
X154175537Y-95697143D01*
X154066643Y-95806037D01*
X154052500Y-95791894D01*
X154038358Y-95806037D01*
X153929464Y-95697143D01*
X153943606Y-95683000D01*
X153050009Y-94789404D01*
X152783816Y-94856425D01*
X152780877Y-94863759D01*
X152772241Y-94842857D01*
X152610177Y-94680509D01*
X153158904Y-94680509D01*
X154052500Y-95574106D01*
X154946096Y-94680509D01*
X154879075Y-94414316D01*
X154330652Y-94194573D01*
X153739882Y-94201429D01*
X153225925Y-94414316D01*
X153158904Y-94680509D01*
X152610177Y-94680509D01*
X152354840Y-94424727D01*
X151809201Y-94198158D01*
X151265328Y-94197684D01*
X150799000Y-93731356D01*
X150799000Y-91131250D01*
X151442500Y-91131250D01*
X151442500Y-91469255D01*
X151546785Y-91721021D01*
X151739479Y-91913715D01*
X151991245Y-92018000D01*
X152254250Y-92018000D01*
X152425500Y-91846750D01*
X152425500Y-90960000D01*
X151613750Y-90960000D01*
X151442500Y-91131250D01*
X150799000Y-91131250D01*
X150799000Y-90296745D01*
X151442500Y-90296745D01*
X151442500Y-90634750D01*
X151613750Y-90806000D01*
X152425500Y-90806000D01*
X152425500Y-89919250D01*
X152254250Y-89748000D01*
X151991245Y-89748000D01*
X151739479Y-89852285D01*
X151546785Y-90044979D01*
X151442500Y-90296745D01*
X150799000Y-90296745D01*
X150799000Y-88799000D01*
X151203750Y-88799000D01*
X151375000Y-88627750D01*
X151375000Y-87491000D01*
X151355000Y-87491000D01*
X151355000Y-87337000D01*
X151375000Y-87337000D01*
X151375000Y-87317000D01*
X151529000Y-87317000D01*
X151529000Y-87337000D01*
G36*
X158292357Y-94423259D02*
X157874227Y-94840660D01*
X157862752Y-94868295D01*
X157852241Y-94842857D01*
X157473095Y-94463049D01*
X157588644Y-94347500D01*
X157734000Y-94347500D01*
X158053238Y-94284000D01*
X158629390Y-94284000D01*
X158292357Y-94423259D01*
X158292357Y-94423259D01*
G37*
X158292357Y-94423259D02*
X157874227Y-94840660D01*
X157862752Y-94868295D01*
X157852241Y-94842857D01*
X157473095Y-94463049D01*
X157588644Y-94347500D01*
X157734000Y-94347500D01*
X158053238Y-94284000D01*
X158629390Y-94284000D01*
X158292357Y-94423259D01*
G36*
X171654000Y-82619250D02*
X171825250Y-82790500D01*
X172897000Y-82790500D01*
X172897000Y-82770500D01*
X173051000Y-82770500D01*
X173051000Y-82790500D01*
X174122750Y-82790500D01*
X174294000Y-82619250D01*
X174294000Y-82537533D01*
X174297208Y-82538865D01*
X174697038Y-82539214D01*
X175066566Y-82386528D01*
X175192835Y-82260479D01*
X177377000Y-84444644D01*
X177377000Y-86540356D01*
X176958572Y-86121928D01*
X176674540Y-85932143D01*
X176339500Y-85865500D01*
X167773144Y-85865500D01*
X166433849Y-84526205D01*
X166305028Y-84214434D01*
X166106860Y-84015919D01*
X166199000Y-84015919D01*
X166452846Y-83968155D01*
X166625399Y-83857120D01*
X166777276Y-83960893D01*
X167049000Y-84015919D01*
X167799000Y-84015919D01*
X168052846Y-83968155D01*
X168285987Y-83818132D01*
X168337322Y-83743000D01*
X168592581Y-83743000D01*
X168592581Y-84137500D01*
X168640345Y-84391346D01*
X168790368Y-84624487D01*
X169019276Y-84780893D01*
X169291000Y-84835919D01*
X170561000Y-84835919D01*
X170814846Y-84788155D01*
X171047987Y-84638132D01*
X171204393Y-84409224D01*
X171259419Y-84137500D01*
X171259419Y-83115750D01*
X171654000Y-83115750D01*
X171654000Y-84273755D01*
X171758285Y-84525521D01*
X171950979Y-84718215D01*
X172202745Y-84822500D01*
X172725750Y-84822500D01*
X172897000Y-84651250D01*
X172897000Y-82944500D01*
X173051000Y-82944500D01*
X173051000Y-84651250D01*
X173222250Y-84822500D01*
X173745255Y-84822500D01*
X173997021Y-84718215D01*
X174189715Y-84525521D01*
X174294000Y-84273755D01*
X174294000Y-83115750D01*
X174122750Y-82944500D01*
X173051000Y-82944500D01*
X172897000Y-82944500D01*
X171825250Y-82944500D01*
X171654000Y-83115750D01*
X171259419Y-83115750D01*
X171259419Y-81901500D01*
X171654000Y-81901500D01*
X171654000Y-82619250D01*
X171654000Y-82619250D01*
G37*
X171654000Y-82619250D02*
X171825250Y-82790500D01*
X172897000Y-82790500D01*
X172897000Y-82770500D01*
X173051000Y-82770500D01*
X173051000Y-82790500D01*
X174122750Y-82790500D01*
X174294000Y-82619250D01*
X174294000Y-82537533D01*
X174297208Y-82538865D01*
X174697038Y-82539214D01*
X175066566Y-82386528D01*
X175192835Y-82260479D01*
X177377000Y-84444644D01*
X177377000Y-86540356D01*
X176958572Y-86121928D01*
X176674540Y-85932143D01*
X176339500Y-85865500D01*
X167773144Y-85865500D01*
X166433849Y-84526205D01*
X166305028Y-84214434D01*
X166106860Y-84015919D01*
X166199000Y-84015919D01*
X166452846Y-83968155D01*
X166625399Y-83857120D01*
X166777276Y-83960893D01*
X167049000Y-84015919D01*
X167799000Y-84015919D01*
X168052846Y-83968155D01*
X168285987Y-83818132D01*
X168337322Y-83743000D01*
X168592581Y-83743000D01*
X168592581Y-84137500D01*
X168640345Y-84391346D01*
X168790368Y-84624487D01*
X169019276Y-84780893D01*
X169291000Y-84835919D01*
X170561000Y-84835919D01*
X170814846Y-84788155D01*
X171047987Y-84638132D01*
X171204393Y-84409224D01*
X171259419Y-84137500D01*
X171259419Y-83115750D01*
X171654000Y-83115750D01*
X171654000Y-84273755D01*
X171758285Y-84525521D01*
X171950979Y-84718215D01*
X172202745Y-84822500D01*
X172725750Y-84822500D01*
X172897000Y-84651250D01*
X172897000Y-82944500D01*
X173051000Y-82944500D01*
X173051000Y-84651250D01*
X173222250Y-84822500D01*
X173745255Y-84822500D01*
X173997021Y-84718215D01*
X174189715Y-84525521D01*
X174294000Y-84273755D01*
X174294000Y-83115750D01*
X174122750Y-82944500D01*
X173051000Y-82944500D01*
X172897000Y-82944500D01*
X171825250Y-82944500D01*
X171654000Y-83115750D01*
X171259419Y-83115750D01*
X171259419Y-81901500D01*
X171654000Y-81901500D01*
X171654000Y-82619250D01*
G36*
X139530620Y-79830840D02*
X139550620Y-79830840D01*
X139550620Y-79984840D01*
X139530620Y-79984840D01*
X139530620Y-80004840D01*
X139376620Y-80004840D01*
X139376620Y-79984840D01*
X139356620Y-79984840D01*
X139356620Y-79830840D01*
X139376620Y-79830840D01*
X139376620Y-79810840D01*
X139530620Y-79810840D01*
X139530620Y-79830840D01*
X139530620Y-79830840D01*
G37*
X139530620Y-79830840D02*
X139550620Y-79830840D01*
X139550620Y-79984840D01*
X139530620Y-79984840D01*
X139530620Y-80004840D01*
X139376620Y-80004840D01*
X139376620Y-79984840D01*
X139356620Y-79984840D01*
X139356620Y-79830840D01*
X139376620Y-79830840D01*
X139376620Y-79810840D01*
X139530620Y-79810840D01*
X139530620Y-79830840D01*
G36*
X147049250Y-72887000D02*
X148236000Y-72887000D01*
X148236000Y-72867000D01*
X148390000Y-72867000D01*
X148390000Y-72887000D01*
X149576750Y-72887000D01*
X149689790Y-72773960D01*
X160295722Y-72773960D01*
X160278000Y-72816745D01*
X160278000Y-73704750D01*
X160449250Y-73876000D01*
X161636000Y-73876000D01*
X161636000Y-73856000D01*
X161790000Y-73856000D01*
X161790000Y-73876000D01*
X162976750Y-73876000D01*
X163148000Y-73704750D01*
X163148000Y-72816745D01*
X163130278Y-72773960D01*
X164392262Y-72773960D01*
X164096868Y-72971336D01*
X163818315Y-73388220D01*
X163720500Y-73879968D01*
X163720500Y-74644032D01*
X163818315Y-75135780D01*
X164096868Y-75552664D01*
X164513752Y-75831217D01*
X165005500Y-75929032D01*
X165054190Y-75919347D01*
X164810857Y-76162256D01*
X164595745Y-76680303D01*
X164595255Y-77241236D01*
X164809463Y-77759658D01*
X165205756Y-78156643D01*
X165266822Y-78182000D01*
X160238263Y-78182000D01*
X160324132Y-78096131D01*
X160369262Y-78028589D01*
X160482000Y-78051419D01*
X161182000Y-78051419D01*
X161435846Y-78003655D01*
X161668987Y-77853632D01*
X161825393Y-77624724D01*
X161880419Y-77353000D01*
X161880419Y-75853000D01*
X161832655Y-75599154D01*
X161790002Y-75532870D01*
X161790002Y-75466752D01*
X161961250Y-75638000D01*
X162599255Y-75638000D01*
X162851021Y-75533715D01*
X163043715Y-75341021D01*
X163148000Y-75089255D01*
X163148000Y-74201250D01*
X162976750Y-74030000D01*
X161790000Y-74030000D01*
X161790000Y-74050000D01*
X161636000Y-74050000D01*
X161636000Y-74030000D01*
X160449250Y-74030000D01*
X160278000Y-74201250D01*
X160278000Y-75089255D01*
X160317852Y-75185467D01*
X160274656Y-75193595D01*
X160082000Y-75154581D01*
X159382000Y-75154581D01*
X159178363Y-75192898D01*
X159118255Y-75168000D01*
X158880250Y-75168000D01*
X158709000Y-75339250D01*
X158709000Y-75727478D01*
X158683581Y-75853000D01*
X158683581Y-76700000D01*
X158580419Y-76700000D01*
X158580419Y-75853000D01*
X158555000Y-75717908D01*
X158555000Y-75339250D01*
X158383750Y-75168000D01*
X158145745Y-75168000D01*
X158080900Y-75194860D01*
X157882000Y-75154581D01*
X157182000Y-75154581D01*
X157133154Y-75163772D01*
X157051072Y-75040928D01*
X156797322Y-74787178D01*
X156513290Y-74597393D01*
X156178250Y-74530750D01*
X151796750Y-74530750D01*
X151461710Y-74597393D01*
X151177678Y-74787178D01*
X148735356Y-77229500D01*
X147348659Y-77229500D01*
X147312632Y-77173513D01*
X147178000Y-77081523D01*
X147178000Y-74545966D01*
X147426745Y-74649000D01*
X148064750Y-74649000D01*
X148236000Y-74477750D01*
X148236000Y-73041000D01*
X148390000Y-73041000D01*
X148390000Y-74477750D01*
X148561250Y-74649000D01*
X149199255Y-74649000D01*
X149451021Y-74544715D01*
X149643715Y-74352021D01*
X149748000Y-74100255D01*
X149748000Y-73212250D01*
X149576750Y-73041000D01*
X148390000Y-73041000D01*
X148236000Y-73041000D01*
X147049250Y-73041000D01*
X146890947Y-73199303D01*
X146465604Y-72773960D01*
X146936210Y-72773960D01*
X147049250Y-72887000D01*
X147049250Y-72887000D01*
G37*
X147049250Y-72887000D02*
X148236000Y-72887000D01*
X148236000Y-72867000D01*
X148390000Y-72867000D01*
X148390000Y-72887000D01*
X149576750Y-72887000D01*
X149689790Y-72773960D01*
X160295722Y-72773960D01*
X160278000Y-72816745D01*
X160278000Y-73704750D01*
X160449250Y-73876000D01*
X161636000Y-73876000D01*
X161636000Y-73856000D01*
X161790000Y-73856000D01*
X161790000Y-73876000D01*
X162976750Y-73876000D01*
X163148000Y-73704750D01*
X163148000Y-72816745D01*
X163130278Y-72773960D01*
X164392262Y-72773960D01*
X164096868Y-72971336D01*
X163818315Y-73388220D01*
X163720500Y-73879968D01*
X163720500Y-74644032D01*
X163818315Y-75135780D01*
X164096868Y-75552664D01*
X164513752Y-75831217D01*
X165005500Y-75929032D01*
X165054190Y-75919347D01*
X164810857Y-76162256D01*
X164595745Y-76680303D01*
X164595255Y-77241236D01*
X164809463Y-77759658D01*
X165205756Y-78156643D01*
X165266822Y-78182000D01*
X160238263Y-78182000D01*
X160324132Y-78096131D01*
X160369262Y-78028589D01*
X160482000Y-78051419D01*
X161182000Y-78051419D01*
X161435846Y-78003655D01*
X161668987Y-77853632D01*
X161825393Y-77624724D01*
X161880419Y-77353000D01*
X161880419Y-75853000D01*
X161832655Y-75599154D01*
X161790002Y-75532870D01*
X161790002Y-75466752D01*
X161961250Y-75638000D01*
X162599255Y-75638000D01*
X162851021Y-75533715D01*
X163043715Y-75341021D01*
X163148000Y-75089255D01*
X163148000Y-74201250D01*
X162976750Y-74030000D01*
X161790000Y-74030000D01*
X161790000Y-74050000D01*
X161636000Y-74050000D01*
X161636000Y-74030000D01*
X160449250Y-74030000D01*
X160278000Y-74201250D01*
X160278000Y-75089255D01*
X160317852Y-75185467D01*
X160274656Y-75193595D01*
X160082000Y-75154581D01*
X159382000Y-75154581D01*
X159178363Y-75192898D01*
X159118255Y-75168000D01*
X158880250Y-75168000D01*
X158709000Y-75339250D01*
X158709000Y-75727478D01*
X158683581Y-75853000D01*
X158683581Y-76700000D01*
X158580419Y-76700000D01*
X158580419Y-75853000D01*
X158555000Y-75717908D01*
X158555000Y-75339250D01*
X158383750Y-75168000D01*
X158145745Y-75168000D01*
X158080900Y-75194860D01*
X157882000Y-75154581D01*
X157182000Y-75154581D01*
X157133154Y-75163772D01*
X157051072Y-75040928D01*
X156797322Y-74787178D01*
X156513290Y-74597393D01*
X156178250Y-74530750D01*
X151796750Y-74530750D01*
X151461710Y-74597393D01*
X151177678Y-74787178D01*
X148735356Y-77229500D01*
X147348659Y-77229500D01*
X147312632Y-77173513D01*
X147178000Y-77081523D01*
X147178000Y-74545966D01*
X147426745Y-74649000D01*
X148064750Y-74649000D01*
X148236000Y-74477750D01*
X148236000Y-73041000D01*
X148390000Y-73041000D01*
X148390000Y-74477750D01*
X148561250Y-74649000D01*
X149199255Y-74649000D01*
X149451021Y-74544715D01*
X149643715Y-74352021D01*
X149748000Y-74100255D01*
X149748000Y-73212250D01*
X149576750Y-73041000D01*
X148390000Y-73041000D01*
X148236000Y-73041000D01*
X147049250Y-73041000D01*
X146890947Y-73199303D01*
X146465604Y-72773960D01*
X146936210Y-72773960D01*
X147049250Y-72887000D01*
G36*
X119775500Y-76306001D02*
X118069748Y-76306001D01*
X117925499Y-76450250D01*
X117925499Y-79260001D01*
X117945499Y-79260001D01*
X117945499Y-79505999D01*
X117925499Y-79505999D01*
X117925499Y-82315750D01*
X118069748Y-82459999D01*
X119775500Y-82459999D01*
X119775500Y-83106000D01*
X110062375Y-83106000D01*
X109970628Y-82883955D01*
X109583582Y-82496233D01*
X109077624Y-82286141D01*
X108529780Y-82285662D01*
X108023455Y-82494872D01*
X108016599Y-82501716D01*
X108016599Y-79650248D01*
X115225501Y-79650248D01*
X115225501Y-81997772D01*
X115313344Y-82209844D01*
X115475657Y-82372156D01*
X115687728Y-82459999D01*
X117535252Y-82459999D01*
X117679501Y-82315750D01*
X117679501Y-79505999D01*
X115369750Y-79505999D01*
X115225501Y-79650248D01*
X108016599Y-79650248D01*
X108016599Y-78110000D01*
X113252500Y-78110000D01*
X113321363Y-78096055D01*
X113379375Y-78056417D01*
X113417395Y-77997332D01*
X113429500Y-77933000D01*
X113429500Y-76768228D01*
X115225501Y-76768228D01*
X115225501Y-79115752D01*
X115369750Y-79260001D01*
X117679501Y-79260001D01*
X117679501Y-76450250D01*
X117535252Y-76306001D01*
X115687728Y-76306001D01*
X115475657Y-76393844D01*
X115313344Y-76556156D01*
X115225501Y-76768228D01*
X113429500Y-76768228D01*
X113429500Y-72665959D01*
X119775500Y-72665959D01*
X119775500Y-76306001D01*
X119775500Y-76306001D01*
G37*
X119775500Y-76306001D02*
X118069748Y-76306001D01*
X117925499Y-76450250D01*
X117925499Y-79260001D01*
X117945499Y-79260001D01*
X117945499Y-79505999D01*
X117925499Y-79505999D01*
X117925499Y-82315750D01*
X118069748Y-82459999D01*
X119775500Y-82459999D01*
X119775500Y-83106000D01*
X110062375Y-83106000D01*
X109970628Y-82883955D01*
X109583582Y-82496233D01*
X109077624Y-82286141D01*
X108529780Y-82285662D01*
X108023455Y-82494872D01*
X108016599Y-82501716D01*
X108016599Y-79650248D01*
X115225501Y-79650248D01*
X115225501Y-81997772D01*
X115313344Y-82209844D01*
X115475657Y-82372156D01*
X115687728Y-82459999D01*
X117535252Y-82459999D01*
X117679501Y-82315750D01*
X117679501Y-79505999D01*
X115369750Y-79505999D01*
X115225501Y-79650248D01*
X108016599Y-79650248D01*
X108016599Y-78110000D01*
X113252500Y-78110000D01*
X113321363Y-78096055D01*
X113379375Y-78056417D01*
X113417395Y-77997332D01*
X113429500Y-77933000D01*
X113429500Y-76768228D01*
X115225501Y-76768228D01*
X115225501Y-79115752D01*
X115369750Y-79260001D01*
X117679501Y-79260001D01*
X117679501Y-76450250D01*
X117535252Y-76306001D01*
X115687728Y-76306001D01*
X115475657Y-76393844D01*
X115313344Y-76556156D01*
X115225501Y-76768228D01*
X113429500Y-76768228D01*
X113429500Y-72665959D01*
X119775500Y-72665959D01*
X119775500Y-76306001D01*
M02*
