G04 #@! TF.FileFunction,Legend,Bot*
%FSLAX46Y46*%
G04 Gerber Fmt 4.6, Leading zero omitted, Abs format (unit mm)*
G04 Created by KiCad (PCBNEW 4.0.0-rc2-stable) date 2016-03-30 14:05:51*
%MOMM*%
G01*
G04 APERTURE LIST*
%ADD10C,0.150000*%
%ADD11C,0.500380*%
%ADD12C,0.500000*%
%ADD13C,0.450000*%
%ADD14C,0.274320*%
%ADD15C,0.100000*%
%ADD16C,0.127000*%
%ADD17C,0.200000*%
%ADD18C,0.099060*%
%ADD19C,0.149860*%
%ADD20C,0.200660*%
%ADD21C,0.203200*%
%ADD22C,0.109220*%
%ADD23C,0.125000*%
%ADD24C,0.190500*%
%ADD25C,0.200025*%
%ADD26C,0.274955*%
%ADD27C,4.114800*%
%ADD28R,1.408000X1.258000*%
%ADD29R,1.258000X1.408000*%
%ADD30R,2.540000X2.032000*%
%ADD31R,1.397000X1.905000*%
%ADD32C,2.108200*%
%ADD33R,1.422400X1.422400*%
%ADD34C,2.506980*%
%ADD35R,1.107440X1.706880*%
%ADD36R,1.706880X1.107440*%
%ADD37R,4.749800X4.749800*%
%ADD38R,0.739140X1.308000*%
%ADD39R,1.308000X0.739140*%
%ADD40R,2.008000X1.658000*%
%ADD41R,1.908000X1.658000*%
%ADD42R,1.905000X1.397000*%
%ADD43R,1.270000X1.016000*%
%ADD44C,1.958000*%
%ADD45O,1.708000X2.408000*%
%ADD46C,0.354000*%
G04 APERTURE END LIST*
D10*
D11*
X176685900Y-89412400D02*
G75*
G03X176685900Y-89412400I-76200J0D01*
G01*
D12*
X179811667Y-88437262D02*
X178478333Y-88437262D01*
X179811667Y-90437262D01*
X178478333Y-90437262D01*
D11*
X177809549Y-89460660D02*
G75*
G03X177809549Y-89460660I-1202389J0D01*
G01*
D13*
X166936499Y-90084643D02*
X166936499Y-90941786D01*
X167536499Y-89141786D02*
X166936499Y-90084643D01*
X166336499Y-89141786D01*
D11*
X164870460Y-90924860D02*
X165469900Y-90325420D01*
X164870460Y-90924860D02*
X164271020Y-90325420D01*
X165469900Y-90325420D02*
X165820420Y-89974900D01*
X164271020Y-90325420D02*
X163920500Y-89974900D01*
X164870460Y-90924860D02*
X164870460Y-88801420D01*
X165801700Y-93127560D02*
X163678260Y-93127560D01*
X165202260Y-93727000D02*
X164851740Y-94077520D01*
X165202260Y-92528120D02*
X164851740Y-92177600D01*
X165801700Y-93127560D02*
X165202260Y-93727000D01*
X165801700Y-93127560D02*
X165202260Y-92528120D01*
D13*
X167501520Y-92167246D02*
X166301520Y-93967246D01*
X166301520Y-92167246D02*
X167501520Y-93967246D01*
D14*
X139676786Y-80576786D02*
X139676786Y-82376786D01*
X139676786Y-80662500D02*
X139548215Y-80576786D01*
X139291072Y-80576786D01*
X139162501Y-80662500D01*
X139098215Y-80748214D01*
X139033929Y-80919643D01*
X139033929Y-81433929D01*
X139098215Y-81605357D01*
X139162501Y-81691071D01*
X139291072Y-81776786D01*
X139548215Y-81776786D01*
X139676786Y-81691071D01*
X137876786Y-81776786D02*
X137876786Y-80833929D01*
X137941072Y-80662500D01*
X138069643Y-80576786D01*
X138326786Y-80576786D01*
X138455357Y-80662500D01*
X137876786Y-81691071D02*
X138005357Y-81776786D01*
X138326786Y-81776786D01*
X138455357Y-81691071D01*
X138519643Y-81519643D01*
X138519643Y-81348214D01*
X138455357Y-81176786D01*
X138326786Y-81091071D01*
X138005357Y-81091071D01*
X137876786Y-81005357D01*
X137041071Y-81776786D02*
X137169643Y-81691071D01*
X137233928Y-81519643D01*
X137233928Y-79976786D01*
X136526785Y-81776786D02*
X136526785Y-80576786D01*
X136526785Y-79976786D02*
X136591071Y-80062500D01*
X136526785Y-80148214D01*
X136462500Y-80062500D01*
X136526785Y-79976786D01*
X136526785Y-80148214D01*
X135883928Y-80576786D02*
X135883928Y-81776786D01*
X135883928Y-80748214D02*
X135819643Y-80662500D01*
X135691071Y-80576786D01*
X135498214Y-80576786D01*
X135369643Y-80662500D01*
X135305357Y-80833929D01*
X135305357Y-81776786D01*
X134726785Y-81691071D02*
X134598214Y-81776786D01*
X134341071Y-81776786D01*
X134212499Y-81691071D01*
X134148214Y-81519643D01*
X134148214Y-81433929D01*
X134212499Y-81262500D01*
X134341071Y-81176786D01*
X134533928Y-81176786D01*
X134662499Y-81091071D01*
X134726785Y-80919643D01*
X134726785Y-80833929D01*
X134662499Y-80662500D01*
X134533928Y-80576786D01*
X134341071Y-80576786D01*
X134212499Y-80662500D01*
X133569642Y-81776786D02*
X133569642Y-79976786D01*
X133441071Y-81091071D02*
X133055357Y-81776786D01*
X133055357Y-80576786D02*
X133569642Y-81262500D01*
X132476785Y-81776786D02*
X132476785Y-80576786D01*
X132476785Y-79976786D02*
X132541071Y-80062500D01*
X132476785Y-80148214D01*
X132412500Y-80062500D01*
X132476785Y-79976786D01*
X132476785Y-80148214D01*
X131833928Y-81605357D02*
X131769643Y-81691071D01*
X131833928Y-81776786D01*
X131898214Y-81691071D01*
X131833928Y-81605357D01*
X131833928Y-81776786D01*
X130998214Y-81776786D02*
X131126786Y-81691071D01*
X131191071Y-81605357D01*
X131255357Y-81433929D01*
X131255357Y-80919643D01*
X131191071Y-80748214D01*
X131126786Y-80662500D01*
X130998214Y-80576786D01*
X130805357Y-80576786D01*
X130676786Y-80662500D01*
X130612500Y-80748214D01*
X130548214Y-80919643D01*
X130548214Y-81433929D01*
X130612500Y-81605357D01*
X130676786Y-81691071D01*
X130805357Y-81776786D01*
X130998214Y-81776786D01*
X129969642Y-81776786D02*
X129969642Y-80576786D01*
X129969642Y-80919643D02*
X129905357Y-80748214D01*
X129841071Y-80662500D01*
X129712500Y-80576786D01*
X129583928Y-80576786D01*
X128555357Y-80576786D02*
X128555357Y-82033929D01*
X128619643Y-82205357D01*
X128683928Y-82291071D01*
X128812500Y-82376786D01*
X129005357Y-82376786D01*
X129133928Y-82291071D01*
X128555357Y-81691071D02*
X128683928Y-81776786D01*
X128941071Y-81776786D01*
X129069643Y-81691071D01*
X129133928Y-81605357D01*
X129198214Y-81433929D01*
X129198214Y-80919643D01*
X129133928Y-80748214D01*
X129069643Y-80662500D01*
X128941071Y-80576786D01*
X128683928Y-80576786D01*
X128555357Y-80662500D01*
X126948214Y-79891071D02*
X128105357Y-82205357D01*
X125919642Y-81776786D02*
X125919642Y-80833929D01*
X125983928Y-80662500D01*
X126112499Y-80576786D01*
X126369642Y-80576786D01*
X126498213Y-80662500D01*
X125919642Y-81691071D02*
X126048213Y-81776786D01*
X126369642Y-81776786D01*
X126498213Y-81691071D01*
X126562499Y-81519643D01*
X126562499Y-81348214D01*
X126498213Y-81176786D01*
X126369642Y-81091071D01*
X126048213Y-81091071D01*
X125919642Y-81005357D01*
X125276784Y-81776786D02*
X125276784Y-80576786D01*
X125276784Y-80919643D02*
X125212499Y-80748214D01*
X125148213Y-80662500D01*
X125019642Y-80576786D01*
X124891070Y-80576786D01*
X123926785Y-81691071D02*
X124055356Y-81776786D01*
X124312499Y-81776786D01*
X124441070Y-81691071D01*
X124505356Y-81519643D01*
X124505356Y-80833929D01*
X124441070Y-80662500D01*
X124312499Y-80576786D01*
X124055356Y-80576786D01*
X123926785Y-80662500D01*
X123862499Y-80833929D01*
X123862499Y-81005357D01*
X124505356Y-81176786D01*
X122705356Y-81691071D02*
X122833927Y-81776786D01*
X123091070Y-81776786D01*
X123219642Y-81691071D01*
X123283927Y-81605357D01*
X123348213Y-81433929D01*
X123348213Y-80919643D01*
X123283927Y-80748214D01*
X123219642Y-80662500D01*
X123091070Y-80576786D01*
X122833927Y-80576786D01*
X122705356Y-80662500D01*
X121933927Y-81776786D02*
X122062499Y-81691071D01*
X122126784Y-81605357D01*
X122191070Y-81433929D01*
X122191070Y-80919643D01*
X122126784Y-80748214D01*
X122062499Y-80662500D01*
X121933927Y-80576786D01*
X121741070Y-80576786D01*
X121612499Y-80662500D01*
X121548213Y-80748214D01*
X121483927Y-80919643D01*
X121483927Y-81433929D01*
X121548213Y-81605357D01*
X121612499Y-81691071D01*
X121741070Y-81776786D01*
X121933927Y-81776786D01*
X120905355Y-81776786D02*
X120905355Y-80576786D01*
X120905355Y-80919643D02*
X120841070Y-80748214D01*
X120776784Y-80662500D01*
X120648213Y-80576786D01*
X120519641Y-80576786D01*
X119491070Y-81776786D02*
X119491070Y-79976786D01*
X119491070Y-81691071D02*
X119619641Y-81776786D01*
X119876784Y-81776786D01*
X120005356Y-81691071D01*
X120069641Y-81605357D01*
X120133927Y-81433929D01*
X120133927Y-80919643D01*
X120069641Y-80748214D01*
X120005356Y-80662500D01*
X119876784Y-80576786D01*
X119619641Y-80576786D01*
X119491070Y-80662500D01*
X118333927Y-81691071D02*
X118462498Y-81776786D01*
X118719641Y-81776786D01*
X118848212Y-81691071D01*
X118912498Y-81519643D01*
X118912498Y-80833929D01*
X118848212Y-80662500D01*
X118719641Y-80576786D01*
X118462498Y-80576786D01*
X118333927Y-80662500D01*
X118269641Y-80833929D01*
X118269641Y-81005357D01*
X118912498Y-81176786D01*
X117691069Y-81776786D02*
X117691069Y-80576786D01*
X117691069Y-80919643D02*
X117626784Y-80748214D01*
X117562498Y-80662500D01*
X117433927Y-80576786D01*
X117305355Y-80576786D01*
D15*
X145181000Y-82227500D02*
X145181000Y-83053000D01*
X145181000Y-83053000D02*
X146324000Y-83053000D01*
X146324000Y-83053000D02*
X146324000Y-82227500D01*
X145181000Y-81338500D02*
X145181000Y-80513000D01*
X145181000Y-80513000D02*
X146324000Y-80513000D01*
X146324000Y-80513000D02*
X146324000Y-81338500D01*
X150447000Y-78754500D02*
X151272500Y-78754500D01*
X151272500Y-78754500D02*
X151272500Y-77611500D01*
X151272500Y-77611500D02*
X150447000Y-77611500D01*
X149558000Y-78754500D02*
X148732500Y-78754500D01*
X148732500Y-78754500D02*
X148732500Y-77611500D01*
X148732500Y-77611500D02*
X149558000Y-77611500D01*
X155448000Y-74549000D02*
X155448000Y-75374500D01*
X155448000Y-75374500D02*
X156591000Y-75374500D01*
X156591000Y-75374500D02*
X156591000Y-74549000D01*
X155448000Y-73660000D02*
X155448000Y-72834500D01*
X155448000Y-72834500D02*
X156591000Y-72834500D01*
X156591000Y-72834500D02*
X156591000Y-73660000D01*
X161544000Y-76708000D02*
X160718500Y-76708000D01*
X160718500Y-76708000D02*
X160718500Y-77851000D01*
X160718500Y-77851000D02*
X161544000Y-77851000D01*
X162433000Y-76708000D02*
X163258500Y-76708000D01*
X163258500Y-76708000D02*
X163258500Y-77851000D01*
X163258500Y-77851000D02*
X162433000Y-77851000D01*
X158750000Y-73660000D02*
X158750000Y-72834500D01*
X158750000Y-72834500D02*
X157607000Y-72834500D01*
X157607000Y-72834500D02*
X157607000Y-73660000D01*
X158750000Y-74549000D02*
X158750000Y-75374500D01*
X158750000Y-75374500D02*
X157607000Y-75374500D01*
X157607000Y-75374500D02*
X157607000Y-74549000D01*
X170174000Y-89538500D02*
X170174000Y-88713000D01*
X170174000Y-88713000D02*
X169031000Y-88713000D01*
X169031000Y-88713000D02*
X169031000Y-89538500D01*
X170174000Y-90427500D02*
X170174000Y-91253000D01*
X170174000Y-91253000D02*
X169031000Y-91253000D01*
X169031000Y-91253000D02*
X169031000Y-90427500D01*
X172474000Y-89538500D02*
X172474000Y-88713000D01*
X172474000Y-88713000D02*
X171331000Y-88713000D01*
X171331000Y-88713000D02*
X171331000Y-89538500D01*
X172474000Y-90427500D02*
X172474000Y-91253000D01*
X172474000Y-91253000D02*
X171331000Y-91253000D01*
X171331000Y-91253000D02*
X171331000Y-90427500D01*
X164211000Y-82550000D02*
X164211000Y-83375500D01*
X164211000Y-83375500D02*
X165354000Y-83375500D01*
X165354000Y-83375500D02*
X165354000Y-82550000D01*
X164211000Y-81661000D02*
X164211000Y-80835500D01*
X164211000Y-80835500D02*
X165354000Y-80835500D01*
X165354000Y-80835500D02*
X165354000Y-81661000D01*
X176466500Y-80772000D02*
X177292000Y-80772000D01*
X177292000Y-80772000D02*
X177292000Y-79629000D01*
X177292000Y-79629000D02*
X176466500Y-79629000D01*
X175577500Y-80772000D02*
X174752000Y-80772000D01*
X174752000Y-80772000D02*
X174752000Y-79629000D01*
X174752000Y-79629000D02*
X175577500Y-79629000D01*
D16*
X112359500Y-83173000D02*
X112359500Y-83427000D01*
X112359500Y-83427000D02*
X114645500Y-83427000D01*
X114645500Y-83427000D02*
X114645500Y-83173000D01*
D17*
X112867500Y-80887000D02*
X114137500Y-80887000D01*
X112867500Y-80061500D02*
X114137500Y-80061500D01*
X114137500Y-80061500D02*
X113502500Y-80887000D01*
X113502500Y-80887000D02*
X112867500Y-80061500D01*
D16*
X114645500Y-83173000D02*
X112359500Y-83173000D01*
X112359500Y-83173000D02*
X112359500Y-81522000D01*
X114645500Y-79744000D02*
X114645500Y-78093000D01*
X114645500Y-78093000D02*
X112359500Y-78093000D01*
X112359500Y-78093000D02*
X112359500Y-79744000D01*
X114645500Y-81522000D02*
X114645500Y-83173000D01*
D15*
X127063500Y-79184500D02*
X127063500Y-77660500D01*
X127063500Y-77660500D02*
X127254000Y-77660500D01*
X127254000Y-79184500D02*
X127063500Y-79184500D01*
D18*
X128270000Y-77660500D02*
X127254000Y-77660500D01*
X127254000Y-77660500D02*
X127254000Y-79184500D01*
X127254000Y-79184500D02*
X128270000Y-79184500D01*
X129286000Y-79184500D02*
X130302000Y-79184500D01*
X130302000Y-79184500D02*
X130302000Y-77660500D01*
X130302000Y-77660500D02*
X129286000Y-77660500D01*
D15*
X125095000Y-74041000D02*
X125095000Y-72517000D01*
X125095000Y-72517000D02*
X125285500Y-72517000D01*
X125285500Y-74041000D02*
X125095000Y-74041000D01*
D18*
X126301500Y-72517000D02*
X125285500Y-72517000D01*
X125285500Y-72517000D02*
X125285500Y-74041000D01*
X125285500Y-74041000D02*
X126301500Y-74041000D01*
X127317500Y-74041000D02*
X128333500Y-74041000D01*
X128333500Y-74041000D02*
X128333500Y-72517000D01*
X128333500Y-72517000D02*
X127317500Y-72517000D01*
D16*
X126526500Y-85852000D02*
X123478500Y-85852000D01*
X123478500Y-85852000D02*
X123478500Y-86614000D01*
X123478500Y-86614000D02*
X126526500Y-86614000D01*
X126526500Y-86614000D02*
X126526500Y-85852000D01*
X134176500Y-85902000D02*
X131128500Y-85902000D01*
X131128500Y-85902000D02*
X131128500Y-86664000D01*
X131128500Y-86664000D02*
X134176500Y-86664000D01*
X134176500Y-86664000D02*
X134176500Y-85902000D01*
X130526500Y-89202000D02*
X127478500Y-89202000D01*
X127478500Y-89202000D02*
X127478500Y-89964000D01*
X127478500Y-89964000D02*
X130526500Y-89964000D01*
X130526500Y-89964000D02*
X130526500Y-89202000D01*
X138126500Y-89202000D02*
X135078500Y-89202000D01*
X135078500Y-89202000D02*
X135078500Y-89964000D01*
X135078500Y-89964000D02*
X138126500Y-89964000D01*
X138126500Y-89964000D02*
X138126500Y-89202000D01*
X145826500Y-89202000D02*
X142778500Y-89202000D01*
X142778500Y-89202000D02*
X142778500Y-89964000D01*
X142778500Y-89964000D02*
X145826500Y-89964000D01*
X145826500Y-89964000D02*
X145826500Y-89202000D01*
X141776500Y-85902000D02*
X138728500Y-85902000D01*
X138728500Y-85902000D02*
X138728500Y-86664000D01*
X138728500Y-86664000D02*
X141776500Y-86664000D01*
X141776500Y-86664000D02*
X141776500Y-85902000D01*
X138303000Y-80264000D02*
X138303000Y-77216000D01*
X138303000Y-77216000D02*
X137541000Y-77216000D01*
X137541000Y-77216000D02*
X137541000Y-80264000D01*
X137541000Y-80264000D02*
X138303000Y-80264000D01*
D15*
X158369000Y-92265500D02*
X157543500Y-92265500D01*
X157543500Y-92265500D02*
X157543500Y-93408500D01*
X157543500Y-93408500D02*
X158369000Y-93408500D01*
X159258000Y-92265500D02*
X160083500Y-92265500D01*
X160083500Y-92265500D02*
X160083500Y-93408500D01*
X160083500Y-93408500D02*
X159258000Y-93408500D01*
X155257500Y-73660000D02*
X155257500Y-72834500D01*
X155257500Y-72834500D02*
X154114500Y-72834500D01*
X154114500Y-72834500D02*
X154114500Y-73660000D01*
X155257500Y-74549000D02*
X155257500Y-75374500D01*
X155257500Y-75374500D02*
X154114500Y-75374500D01*
X154114500Y-75374500D02*
X154114500Y-74549000D01*
X153924000Y-73660000D02*
X153924000Y-72834500D01*
X153924000Y-72834500D02*
X152781000Y-72834500D01*
X152781000Y-72834500D02*
X152781000Y-73660000D01*
X153924000Y-74549000D02*
X153924000Y-75374500D01*
X153924000Y-75374500D02*
X152781000Y-75374500D01*
X152781000Y-75374500D02*
X152781000Y-74549000D01*
X127581000Y-86677500D02*
X127581000Y-87503000D01*
X127581000Y-87503000D02*
X128724000Y-87503000D01*
X128724000Y-87503000D02*
X128724000Y-86677500D01*
X127581000Y-85788500D02*
X127581000Y-84963000D01*
X127581000Y-84963000D02*
X128724000Y-84963000D01*
X128724000Y-84963000D02*
X128724000Y-85788500D01*
X129231000Y-86677500D02*
X129231000Y-87503000D01*
X129231000Y-87503000D02*
X130374000Y-87503000D01*
X130374000Y-87503000D02*
X130374000Y-86677500D01*
X129231000Y-85788500D02*
X129231000Y-84963000D01*
X129231000Y-84963000D02*
X130374000Y-84963000D01*
X130374000Y-84963000D02*
X130374000Y-85788500D01*
X124431000Y-90277500D02*
X124431000Y-91103000D01*
X124431000Y-91103000D02*
X125574000Y-91103000D01*
X125574000Y-91103000D02*
X125574000Y-90277500D01*
X124431000Y-89388500D02*
X124431000Y-88563000D01*
X124431000Y-88563000D02*
X125574000Y-88563000D01*
X125574000Y-88563000D02*
X125574000Y-89388500D01*
X125857000Y-82169000D02*
X125031500Y-82169000D01*
X125031500Y-82169000D02*
X125031500Y-83312000D01*
X125031500Y-83312000D02*
X125857000Y-83312000D01*
X126746000Y-82169000D02*
X127571500Y-82169000D01*
X127571500Y-82169000D02*
X127571500Y-83312000D01*
X127571500Y-83312000D02*
X126746000Y-83312000D01*
X135181000Y-86677500D02*
X135181000Y-87503000D01*
X135181000Y-87503000D02*
X136324000Y-87503000D01*
X136324000Y-87503000D02*
X136324000Y-86677500D01*
X135181000Y-85788500D02*
X135181000Y-84963000D01*
X135181000Y-84963000D02*
X136324000Y-84963000D01*
X136324000Y-84963000D02*
X136324000Y-85788500D01*
X136781000Y-86677500D02*
X136781000Y-87503000D01*
X136781000Y-87503000D02*
X137924000Y-87503000D01*
X137924000Y-87503000D02*
X137924000Y-86677500D01*
X136781000Y-85788500D02*
X136781000Y-84963000D01*
X136781000Y-84963000D02*
X137924000Y-84963000D01*
X137924000Y-84963000D02*
X137924000Y-85788500D01*
X132081000Y-90277500D02*
X132081000Y-91103000D01*
X132081000Y-91103000D02*
X133224000Y-91103000D01*
X133224000Y-91103000D02*
X133224000Y-90277500D01*
X132081000Y-89388500D02*
X132081000Y-88563000D01*
X132081000Y-88563000D02*
X133224000Y-88563000D01*
X133224000Y-88563000D02*
X133224000Y-89388500D01*
X131997000Y-83554500D02*
X132822500Y-83554500D01*
X132822500Y-83554500D02*
X132822500Y-82411500D01*
X132822500Y-82411500D02*
X131997000Y-82411500D01*
X131108000Y-83554500D02*
X130282500Y-83554500D01*
X130282500Y-83554500D02*
X130282500Y-82411500D01*
X130282500Y-82411500D02*
X131108000Y-82411500D01*
X142831000Y-86677500D02*
X142831000Y-87503000D01*
X142831000Y-87503000D02*
X143974000Y-87503000D01*
X143974000Y-87503000D02*
X143974000Y-86677500D01*
X142831000Y-85788500D02*
X142831000Y-84963000D01*
X142831000Y-84963000D02*
X143974000Y-84963000D01*
X143974000Y-84963000D02*
X143974000Y-85788500D01*
X144531000Y-86677500D02*
X144531000Y-87503000D01*
X144531000Y-87503000D02*
X145674000Y-87503000D01*
X145674000Y-87503000D02*
X145674000Y-86677500D01*
X144531000Y-85788500D02*
X144531000Y-84963000D01*
X144531000Y-84963000D02*
X145674000Y-84963000D01*
X145674000Y-84963000D02*
X145674000Y-85788500D01*
X139681000Y-90277500D02*
X139681000Y-91103000D01*
X139681000Y-91103000D02*
X140824000Y-91103000D01*
X140824000Y-91103000D02*
X140824000Y-90277500D01*
X139681000Y-89388500D02*
X139681000Y-88563000D01*
X139681000Y-88563000D02*
X140824000Y-88563000D01*
X140824000Y-88563000D02*
X140824000Y-89388500D01*
X139747000Y-84004500D02*
X140572500Y-84004500D01*
X140572500Y-84004500D02*
X140572500Y-82861500D01*
X140572500Y-82861500D02*
X139747000Y-82861500D01*
X138858000Y-84004500D02*
X138032500Y-84004500D01*
X138032500Y-84004500D02*
X138032500Y-82861500D01*
X138032500Y-82861500D02*
X138858000Y-82861500D01*
X147858000Y-89411500D02*
X147032500Y-89411500D01*
X147032500Y-89411500D02*
X147032500Y-90554500D01*
X147032500Y-90554500D02*
X147858000Y-90554500D01*
X148747000Y-89411500D02*
X149572500Y-89411500D01*
X149572500Y-89411500D02*
X149572500Y-90554500D01*
X149572500Y-90554500D02*
X148747000Y-90554500D01*
X140843000Y-77406500D02*
X140017500Y-77406500D01*
X140017500Y-77406500D02*
X140017500Y-78549500D01*
X140017500Y-78549500D02*
X140843000Y-78549500D01*
X141732000Y-77406500D02*
X142557500Y-77406500D01*
X142557500Y-77406500D02*
X142557500Y-78549500D01*
X142557500Y-78549500D02*
X141732000Y-78549500D01*
X147108000Y-91361500D02*
X146282500Y-91361500D01*
X146282500Y-91361500D02*
X146282500Y-92504500D01*
X146282500Y-92504500D02*
X147108000Y-92504500D01*
X147997000Y-91361500D02*
X148822500Y-91361500D01*
X148822500Y-91361500D02*
X148822500Y-92504500D01*
X148822500Y-92504500D02*
X147997000Y-92504500D01*
X149658000Y-91361500D02*
X148832500Y-91361500D01*
X148832500Y-91361500D02*
X148832500Y-92504500D01*
X148832500Y-92504500D02*
X149658000Y-92504500D01*
X150547000Y-91361500D02*
X151372500Y-91361500D01*
X151372500Y-91361500D02*
X151372500Y-92504500D01*
X151372500Y-92504500D02*
X150547000Y-92504500D01*
X141732000Y-79883000D02*
X142557500Y-79883000D01*
X142557500Y-79883000D02*
X142557500Y-78740000D01*
X142557500Y-78740000D02*
X141732000Y-78740000D01*
X140843000Y-79883000D02*
X140017500Y-79883000D01*
X140017500Y-79883000D02*
X140017500Y-78740000D01*
X140017500Y-78740000D02*
X140843000Y-78740000D01*
X129667000Y-72707500D02*
X128841500Y-72707500D01*
X128841500Y-72707500D02*
X128841500Y-73850500D01*
X128841500Y-73850500D02*
X129667000Y-73850500D01*
X130556000Y-72707500D02*
X131381500Y-72707500D01*
X131381500Y-72707500D02*
X131381500Y-73850500D01*
X131381500Y-73850500D02*
X130556000Y-73850500D01*
D19*
X173975269Y-87830720D02*
G75*
G03X173975269Y-87830720I-321709J0D01*
G01*
D20*
X173252240Y-81483260D02*
X167252760Y-81483260D01*
X167252760Y-81483260D02*
X167252760Y-87482740D01*
X167252760Y-87482740D02*
X173252240Y-87482740D01*
X173252240Y-87482740D02*
X173252240Y-81483260D01*
D19*
X179505386Y-82532280D02*
G75*
G03X179505386Y-82532280I-352026J0D01*
G01*
D18*
X175828500Y-84483000D02*
X175828500Y-82959000D01*
X175828500Y-82959000D02*
X178876500Y-82959000D01*
X178876500Y-82959000D02*
X178876500Y-86007000D01*
X178876500Y-86007000D02*
X175828500Y-86007000D01*
X175828500Y-86007000D02*
X175828500Y-84483000D01*
D15*
X163053500Y-73072000D02*
X163053500Y-75772000D01*
X163053500Y-75772000D02*
X159653500Y-75772000D01*
X159653500Y-75772000D02*
X159653500Y-73072000D01*
X159653500Y-73072000D02*
X163053500Y-73072000D01*
D18*
X120090500Y-78391000D02*
X120090500Y-79407000D01*
X120090500Y-79407000D02*
X121614500Y-79407000D01*
X121614500Y-79407000D02*
X121614500Y-78391000D01*
X121614500Y-77375000D02*
X121614500Y-76359000D01*
X121614500Y-76359000D02*
X120090500Y-76359000D01*
X120090500Y-76359000D02*
X120090500Y-77375000D01*
X120140500Y-74591000D02*
X120140500Y-75607000D01*
X120140500Y-75607000D02*
X121664500Y-75607000D01*
X121664500Y-75607000D02*
X121664500Y-74591000D01*
X121664500Y-73575000D02*
X121664500Y-72559000D01*
X121664500Y-72559000D02*
X120140500Y-72559000D01*
X120140500Y-72559000D02*
X120140500Y-73575000D01*
X162115500Y-91440000D02*
X162115500Y-90424000D01*
X162115500Y-90424000D02*
X160591500Y-90424000D01*
X160591500Y-90424000D02*
X160591500Y-91440000D01*
X160591500Y-92456000D02*
X160591500Y-93472000D01*
X160591500Y-93472000D02*
X162115500Y-93472000D01*
X162115500Y-93472000D02*
X162115500Y-92456000D01*
D16*
X118241500Y-72559000D02*
X116463500Y-72559000D01*
X116463500Y-72559000D02*
X116463500Y-75607000D01*
X116463500Y-75607000D02*
X118241500Y-75607000D01*
X118241500Y-75607000D02*
X118241500Y-72559000D01*
X118241500Y-76359000D02*
X116463500Y-76359000D01*
X116463500Y-76359000D02*
X116463500Y-79407000D01*
X116463500Y-79407000D02*
X118241500Y-79407000D01*
X118241500Y-79407000D02*
X118241500Y-76359000D01*
D15*
X133667500Y-76390500D02*
X133667500Y-74866500D01*
X133667500Y-74866500D02*
X133858000Y-74866500D01*
X133858000Y-76390500D02*
X133667500Y-76390500D01*
D18*
X134874000Y-74866500D02*
X133858000Y-74866500D01*
X133858000Y-74866500D02*
X133858000Y-76390500D01*
X133858000Y-76390500D02*
X134874000Y-76390500D01*
X135890000Y-76390500D02*
X136906000Y-76390500D01*
X136906000Y-76390500D02*
X136906000Y-74866500D01*
X136906000Y-74866500D02*
X135890000Y-74866500D01*
D16*
X139763500Y-77025500D02*
X139763500Y-73977500D01*
X139763500Y-73977500D02*
X139001500Y-73977500D01*
X139001500Y-73977500D02*
X139001500Y-77025500D01*
X139001500Y-77025500D02*
X139763500Y-77025500D01*
D15*
X162123568Y-84433000D02*
X155052500Y-77361932D01*
X155052500Y-77361932D02*
X147981432Y-84433000D01*
X147981432Y-84433000D02*
X155052500Y-91504068D01*
X155052500Y-91504068D02*
X162123568Y-84433000D01*
D21*
X155433500Y-90065417D02*
G75*
G03X155433500Y-90065417I-381000J0D01*
G01*
D22*
X146883707Y-81699604D02*
X146907535Y-81675776D01*
X146931362Y-81604293D01*
X146931362Y-81556638D01*
X146907535Y-81485155D01*
X146859880Y-81437500D01*
X146812224Y-81413672D01*
X146716914Y-81389844D01*
X146645431Y-81389844D01*
X146550120Y-81413672D01*
X146502465Y-81437500D01*
X146454810Y-81485155D01*
X146430982Y-81556638D01*
X146430982Y-81604293D01*
X146454810Y-81675776D01*
X146478638Y-81699604D01*
X146478638Y-81890224D02*
X146454810Y-81914052D01*
X146430982Y-81961707D01*
X146430982Y-82080845D01*
X146454810Y-82128501D01*
X146478638Y-82152328D01*
X146526293Y-82176156D01*
X146573948Y-82176156D01*
X146645431Y-82152328D01*
X146931362Y-81866397D01*
X146931362Y-82176156D01*
X150085896Y-77409207D02*
X150109724Y-77433035D01*
X150181207Y-77456862D01*
X150228862Y-77456862D01*
X150300345Y-77433035D01*
X150348000Y-77385380D01*
X150371828Y-77337724D01*
X150395656Y-77242414D01*
X150395656Y-77170931D01*
X150371828Y-77075620D01*
X150348000Y-77027965D01*
X150300345Y-76980310D01*
X150228862Y-76956482D01*
X150181207Y-76956482D01*
X150109724Y-76980310D01*
X150085896Y-77004138D01*
X149919103Y-76956482D02*
X149609344Y-76956482D01*
X149776137Y-77147103D01*
X149704655Y-77147103D01*
X149656999Y-77170931D01*
X149633172Y-77194759D01*
X149609344Y-77242414D01*
X149609344Y-77361552D01*
X149633172Y-77409207D01*
X149656999Y-77433035D01*
X149704655Y-77456862D01*
X149847620Y-77456862D01*
X149895276Y-77433035D01*
X149919103Y-77409207D01*
X156166396Y-76124707D02*
X156190224Y-76148535D01*
X156261707Y-76172362D01*
X156309362Y-76172362D01*
X156380845Y-76148535D01*
X156428500Y-76100880D01*
X156452328Y-76053224D01*
X156476156Y-75957914D01*
X156476156Y-75886431D01*
X156452328Y-75791120D01*
X156428500Y-75743465D01*
X156380845Y-75695810D01*
X156309362Y-75671982D01*
X156261707Y-75671982D01*
X156190224Y-75695810D01*
X156166396Y-75719638D01*
X155737499Y-75838776D02*
X155737499Y-76172362D01*
X155856637Y-75648155D02*
X155975776Y-76005569D01*
X155666016Y-76005569D01*
X162198896Y-78855207D02*
X162222724Y-78879035D01*
X162294207Y-78902862D01*
X162341862Y-78902862D01*
X162413345Y-78879035D01*
X162461000Y-78831380D01*
X162484828Y-78783724D01*
X162508656Y-78688414D01*
X162508656Y-78616931D01*
X162484828Y-78521620D01*
X162461000Y-78473965D01*
X162413345Y-78426310D01*
X162341862Y-78402482D01*
X162294207Y-78402482D01*
X162222724Y-78426310D01*
X162198896Y-78450138D01*
X162032103Y-78402482D02*
X161698516Y-78402482D01*
X161912965Y-78902862D01*
X158261896Y-76188207D02*
X158285724Y-76212035D01*
X158357207Y-76235862D01*
X158404862Y-76235862D01*
X158476345Y-76212035D01*
X158524000Y-76164380D01*
X158547828Y-76116724D01*
X158571656Y-76021414D01*
X158571656Y-75949931D01*
X158547828Y-75854620D01*
X158524000Y-75806965D01*
X158476345Y-75759310D01*
X158404862Y-75735482D01*
X158357207Y-75735482D01*
X158285724Y-75759310D01*
X158261896Y-75783138D01*
X157975965Y-75949931D02*
X158023620Y-75926103D01*
X158047448Y-75902276D01*
X158071276Y-75854620D01*
X158071276Y-75830793D01*
X158047448Y-75783138D01*
X158023620Y-75759310D01*
X157975965Y-75735482D01*
X157880655Y-75735482D01*
X157832999Y-75759310D01*
X157809172Y-75783138D01*
X157785344Y-75830793D01*
X157785344Y-75854620D01*
X157809172Y-75902276D01*
X157832999Y-75926103D01*
X157880655Y-75949931D01*
X157975965Y-75949931D01*
X158023620Y-75973759D01*
X158047448Y-75997586D01*
X158071276Y-76045241D01*
X158071276Y-76140552D01*
X158047448Y-76188207D01*
X158023620Y-76212035D01*
X157975965Y-76235862D01*
X157880655Y-76235862D01*
X157832999Y-76212035D01*
X157809172Y-76188207D01*
X157785344Y-76140552D01*
X157785344Y-76045241D01*
X157809172Y-75997586D01*
X157832999Y-75973759D01*
X157880655Y-75949931D01*
X168828707Y-89899604D02*
X168852535Y-89875776D01*
X168876362Y-89804293D01*
X168876362Y-89756638D01*
X168852535Y-89685155D01*
X168804880Y-89637500D01*
X168757224Y-89613672D01*
X168661914Y-89589844D01*
X168590431Y-89589844D01*
X168495120Y-89613672D01*
X168447465Y-89637500D01*
X168399810Y-89685155D01*
X168375982Y-89756638D01*
X168375982Y-89804293D01*
X168399810Y-89875776D01*
X168423638Y-89899604D01*
X168876362Y-90137880D02*
X168876362Y-90233190D01*
X168852535Y-90280845D01*
X168828707Y-90304673D01*
X168757224Y-90352328D01*
X168661914Y-90376156D01*
X168471293Y-90376156D01*
X168423638Y-90352328D01*
X168399810Y-90328501D01*
X168375982Y-90280845D01*
X168375982Y-90185535D01*
X168399810Y-90137880D01*
X168423638Y-90114052D01*
X168471293Y-90090224D01*
X168590431Y-90090224D01*
X168638086Y-90114052D01*
X168661914Y-90137880D01*
X168685741Y-90185535D01*
X168685741Y-90280845D01*
X168661914Y-90328501D01*
X168638086Y-90352328D01*
X168590431Y-90376156D01*
X173216207Y-89721328D02*
X173240035Y-89697500D01*
X173263862Y-89626017D01*
X173263862Y-89578362D01*
X173240035Y-89506879D01*
X173192380Y-89459224D01*
X173144724Y-89435396D01*
X173049414Y-89411568D01*
X172977931Y-89411568D01*
X172882620Y-89435396D01*
X172834965Y-89459224D01*
X172787310Y-89506879D01*
X172763482Y-89578362D01*
X172763482Y-89626017D01*
X172787310Y-89697500D01*
X172811138Y-89721328D01*
X173263862Y-90197880D02*
X173263862Y-89911948D01*
X173263862Y-90054914D02*
X172763482Y-90054914D01*
X172834965Y-90007259D01*
X172882620Y-89959604D01*
X172906448Y-89911948D01*
X172763482Y-90507639D02*
X172763482Y-90555294D01*
X172787310Y-90602949D01*
X172811138Y-90626777D01*
X172858793Y-90650604D01*
X172954103Y-90674432D01*
X173073241Y-90674432D01*
X173168552Y-90650604D01*
X173216207Y-90626777D01*
X173240035Y-90602949D01*
X173263862Y-90555294D01*
X173263862Y-90507639D01*
X173240035Y-90459983D01*
X173216207Y-90436156D01*
X173168552Y-90412328D01*
X173073241Y-90388500D01*
X172954103Y-90388500D01*
X172858793Y-90412328D01*
X172811138Y-90436156D01*
X172787310Y-90459983D01*
X172763482Y-90507639D01*
X165147672Y-80411207D02*
X165171500Y-80435035D01*
X165242983Y-80458862D01*
X165290638Y-80458862D01*
X165362121Y-80435035D01*
X165409776Y-80387380D01*
X165433604Y-80339724D01*
X165457432Y-80244414D01*
X165457432Y-80172931D01*
X165433604Y-80077620D01*
X165409776Y-80029965D01*
X165362121Y-79982310D01*
X165290638Y-79958482D01*
X165242983Y-79958482D01*
X165171500Y-79982310D01*
X165147672Y-80006138D01*
X164671120Y-80458862D02*
X164957052Y-80458862D01*
X164814086Y-80458862D02*
X164814086Y-79958482D01*
X164861741Y-80029965D01*
X164909396Y-80077620D01*
X164957052Y-80101448D01*
X164194568Y-80458862D02*
X164480500Y-80458862D01*
X164337534Y-80458862D02*
X164337534Y-79958482D01*
X164385189Y-80029965D01*
X164432844Y-80077620D01*
X164480500Y-80101448D01*
X176280172Y-79236207D02*
X176304000Y-79260035D01*
X176375483Y-79283862D01*
X176423138Y-79283862D01*
X176494621Y-79260035D01*
X176542276Y-79212380D01*
X176566104Y-79164724D01*
X176589932Y-79069414D01*
X176589932Y-78997931D01*
X176566104Y-78902620D01*
X176542276Y-78854965D01*
X176494621Y-78807310D01*
X176423138Y-78783482D01*
X176375483Y-78783482D01*
X176304000Y-78807310D01*
X176280172Y-78831138D01*
X175803620Y-79283862D02*
X176089552Y-79283862D01*
X175946586Y-79283862D02*
X175946586Y-78783482D01*
X175994241Y-78854965D01*
X176041896Y-78902620D01*
X176089552Y-78926448D01*
X175374723Y-78950276D02*
X175374723Y-79283862D01*
X175493861Y-78759655D02*
X175613000Y-79117069D01*
X175303240Y-79117069D01*
D23*
X115669190Y-80593453D02*
X115169190Y-80593453D01*
X115169190Y-80712500D01*
X115193000Y-80783929D01*
X115240619Y-80831548D01*
X115288238Y-80855357D01*
X115383476Y-80879167D01*
X115454905Y-80879167D01*
X115550143Y-80855357D01*
X115597762Y-80831548D01*
X115645381Y-80783929D01*
X115669190Y-80712500D01*
X115669190Y-80593453D01*
X115169190Y-81307738D02*
X115169190Y-81212500D01*
X115193000Y-81164881D01*
X115216810Y-81141072D01*
X115288238Y-81093453D01*
X115383476Y-81069643D01*
X115573952Y-81069643D01*
X115621571Y-81093453D01*
X115645381Y-81117262D01*
X115669190Y-81164881D01*
X115669190Y-81260119D01*
X115645381Y-81307738D01*
X115621571Y-81331548D01*
X115573952Y-81355357D01*
X115454905Y-81355357D01*
X115407286Y-81331548D01*
X115383476Y-81307738D01*
X115359667Y-81260119D01*
X115359667Y-81164881D01*
X115383476Y-81117262D01*
X115407286Y-81093453D01*
X115454905Y-81069643D01*
D22*
X129147328Y-77251862D02*
X129147328Y-76751482D01*
X129028190Y-76751482D01*
X128956707Y-76775310D01*
X128909052Y-76822965D01*
X128885224Y-76870620D01*
X128861396Y-76965931D01*
X128861396Y-77037414D01*
X128885224Y-77132724D01*
X128909052Y-77180380D01*
X128956707Y-77228035D01*
X129028190Y-77251862D01*
X129147328Y-77251862D01*
X128694603Y-76751482D02*
X128361016Y-76751482D01*
X128575465Y-77251862D01*
X127115328Y-75029362D02*
X127115328Y-74528982D01*
X126996190Y-74528982D01*
X126924707Y-74552810D01*
X126877052Y-74600465D01*
X126853224Y-74648120D01*
X126829396Y-74743431D01*
X126829396Y-74814914D01*
X126853224Y-74910224D01*
X126877052Y-74957880D01*
X126924707Y-75005535D01*
X126996190Y-75029362D01*
X127115328Y-75029362D01*
X126543465Y-74743431D02*
X126591120Y-74719603D01*
X126614948Y-74695776D01*
X126638776Y-74648120D01*
X126638776Y-74624293D01*
X126614948Y-74576638D01*
X126591120Y-74552810D01*
X126543465Y-74528982D01*
X126448155Y-74528982D01*
X126400499Y-74552810D01*
X126376672Y-74576638D01*
X126352844Y-74624293D01*
X126352844Y-74648120D01*
X126376672Y-74695776D01*
X126400499Y-74719603D01*
X126448155Y-74743431D01*
X126543465Y-74743431D01*
X126591120Y-74767259D01*
X126614948Y-74791086D01*
X126638776Y-74838741D01*
X126638776Y-74934052D01*
X126614948Y-74981707D01*
X126591120Y-75005535D01*
X126543465Y-75029362D01*
X126448155Y-75029362D01*
X126400499Y-75005535D01*
X126376672Y-74981707D01*
X126352844Y-74934052D01*
X126352844Y-74838741D01*
X126376672Y-74791086D01*
X126400499Y-74767259D01*
X126448155Y-74743431D01*
D24*
X124278571Y-84173786D02*
X124351143Y-84137500D01*
X124423714Y-84064929D01*
X124532571Y-83956071D01*
X124605143Y-83919786D01*
X124677714Y-83919786D01*
X124641429Y-84101214D02*
X124714000Y-84064929D01*
X124786571Y-83992357D01*
X124822857Y-83847214D01*
X124822857Y-83593214D01*
X124786571Y-83448071D01*
X124714000Y-83375500D01*
X124641429Y-83339214D01*
X124496286Y-83339214D01*
X124423714Y-83375500D01*
X124351143Y-83448071D01*
X124314857Y-83593214D01*
X124314857Y-83847214D01*
X124351143Y-83992357D01*
X124423714Y-84064929D01*
X124496286Y-84101214D01*
X124641429Y-84101214D01*
X123589143Y-84101214D02*
X124024571Y-84101214D01*
X123806857Y-84101214D02*
X123806857Y-83339214D01*
X123879428Y-83448071D01*
X123952000Y-83520643D01*
X124024571Y-83556929D01*
X134311571Y-83284786D02*
X134384143Y-83248500D01*
X134456714Y-83175929D01*
X134565571Y-83067071D01*
X134638143Y-83030786D01*
X134710714Y-83030786D01*
X134674429Y-83212214D02*
X134747000Y-83175929D01*
X134819571Y-83103357D01*
X134855857Y-82958214D01*
X134855857Y-82704214D01*
X134819571Y-82559071D01*
X134747000Y-82486500D01*
X134674429Y-82450214D01*
X134529286Y-82450214D01*
X134456714Y-82486500D01*
X134384143Y-82559071D01*
X134347857Y-82704214D01*
X134347857Y-82958214D01*
X134384143Y-83103357D01*
X134456714Y-83175929D01*
X134529286Y-83212214D01*
X134674429Y-83212214D01*
X134057571Y-82522786D02*
X134021285Y-82486500D01*
X133948714Y-82450214D01*
X133767285Y-82450214D01*
X133694714Y-82486500D01*
X133658428Y-82522786D01*
X133622143Y-82595357D01*
X133622143Y-82667929D01*
X133658428Y-82776786D01*
X134093857Y-83212214D01*
X133622143Y-83212214D01*
X130819071Y-91857286D02*
X130891643Y-91821000D01*
X130964214Y-91748429D01*
X131073071Y-91639571D01*
X131145643Y-91603286D01*
X131218214Y-91603286D01*
X131181929Y-91784714D02*
X131254500Y-91748429D01*
X131327071Y-91675857D01*
X131363357Y-91530714D01*
X131363357Y-91276714D01*
X131327071Y-91131571D01*
X131254500Y-91059000D01*
X131181929Y-91022714D01*
X131036786Y-91022714D01*
X130964214Y-91059000D01*
X130891643Y-91131571D01*
X130855357Y-91276714D01*
X130855357Y-91530714D01*
X130891643Y-91675857D01*
X130964214Y-91748429D01*
X131036786Y-91784714D01*
X131181929Y-91784714D01*
X130202214Y-91276714D02*
X130202214Y-91784714D01*
X130383643Y-90986429D02*
X130565071Y-91530714D01*
X130093357Y-91530714D01*
X138502571Y-91222286D02*
X138575143Y-91186000D01*
X138647714Y-91113429D01*
X138756571Y-91004571D01*
X138829143Y-90968286D01*
X138901714Y-90968286D01*
X138865429Y-91149714D02*
X138938000Y-91113429D01*
X139010571Y-91040857D01*
X139046857Y-90895714D01*
X139046857Y-90641714D01*
X139010571Y-90496571D01*
X138938000Y-90424000D01*
X138865429Y-90387714D01*
X138720286Y-90387714D01*
X138647714Y-90424000D01*
X138575143Y-90496571D01*
X138538857Y-90641714D01*
X138538857Y-90895714D01*
X138575143Y-91040857D01*
X138647714Y-91113429D01*
X138720286Y-91149714D01*
X138865429Y-91149714D01*
X137849428Y-90387714D02*
X138212285Y-90387714D01*
X138248571Y-90750571D01*
X138212285Y-90714286D01*
X138139714Y-90678000D01*
X137958285Y-90678000D01*
X137885714Y-90714286D01*
X137849428Y-90750571D01*
X137813143Y-90823143D01*
X137813143Y-91004571D01*
X137849428Y-91077143D01*
X137885714Y-91113429D01*
X137958285Y-91149714D01*
X138139714Y-91149714D01*
X138212285Y-91113429D01*
X138248571Y-91077143D01*
X146122571Y-91031786D02*
X146195143Y-90995500D01*
X146267714Y-90922929D01*
X146376571Y-90814071D01*
X146449143Y-90777786D01*
X146521714Y-90777786D01*
X146485429Y-90959214D02*
X146558000Y-90922929D01*
X146630571Y-90850357D01*
X146666857Y-90705214D01*
X146666857Y-90451214D01*
X146630571Y-90306071D01*
X146558000Y-90233500D01*
X146485429Y-90197214D01*
X146340286Y-90197214D01*
X146267714Y-90233500D01*
X146195143Y-90306071D01*
X146158857Y-90451214D01*
X146158857Y-90705214D01*
X146195143Y-90850357D01*
X146267714Y-90922929D01*
X146340286Y-90959214D01*
X146485429Y-90959214D01*
X145505714Y-90197214D02*
X145650857Y-90197214D01*
X145723428Y-90233500D01*
X145759714Y-90269786D01*
X145832285Y-90378643D01*
X145868571Y-90523786D01*
X145868571Y-90814071D01*
X145832285Y-90886643D01*
X145796000Y-90922929D01*
X145723428Y-90959214D01*
X145578285Y-90959214D01*
X145505714Y-90922929D01*
X145469428Y-90886643D01*
X145433143Y-90814071D01*
X145433143Y-90632643D01*
X145469428Y-90560071D01*
X145505714Y-90523786D01*
X145578285Y-90487500D01*
X145723428Y-90487500D01*
X145796000Y-90523786D01*
X145832285Y-90560071D01*
X145868571Y-90632643D01*
X141741071Y-83983286D02*
X141813643Y-83947000D01*
X141886214Y-83874429D01*
X141995071Y-83765571D01*
X142067643Y-83729286D01*
X142140214Y-83729286D01*
X142103929Y-83910714D02*
X142176500Y-83874429D01*
X142249071Y-83801857D01*
X142285357Y-83656714D01*
X142285357Y-83402714D01*
X142249071Y-83257571D01*
X142176500Y-83185000D01*
X142103929Y-83148714D01*
X141958786Y-83148714D01*
X141886214Y-83185000D01*
X141813643Y-83257571D01*
X141777357Y-83402714D01*
X141777357Y-83656714D01*
X141813643Y-83801857D01*
X141886214Y-83874429D01*
X141958786Y-83910714D01*
X142103929Y-83910714D01*
X141523357Y-83148714D02*
X141015357Y-83148714D01*
X141341928Y-83910714D01*
X135391071Y-79220786D02*
X135463643Y-79184500D01*
X135536214Y-79111929D01*
X135645071Y-79003071D01*
X135717643Y-78966786D01*
X135790214Y-78966786D01*
X135753929Y-79148214D02*
X135826500Y-79111929D01*
X135899071Y-79039357D01*
X135935357Y-78894214D01*
X135935357Y-78640214D01*
X135899071Y-78495071D01*
X135826500Y-78422500D01*
X135753929Y-78386214D01*
X135608786Y-78386214D01*
X135536214Y-78422500D01*
X135463643Y-78495071D01*
X135427357Y-78640214D01*
X135427357Y-78894214D01*
X135463643Y-79039357D01*
X135536214Y-79111929D01*
X135608786Y-79148214D01*
X135753929Y-79148214D01*
X134991928Y-78712786D02*
X135064500Y-78676500D01*
X135100785Y-78640214D01*
X135137071Y-78567643D01*
X135137071Y-78531357D01*
X135100785Y-78458786D01*
X135064500Y-78422500D01*
X134991928Y-78386214D01*
X134846785Y-78386214D01*
X134774214Y-78422500D01*
X134737928Y-78458786D01*
X134701643Y-78531357D01*
X134701643Y-78567643D01*
X134737928Y-78640214D01*
X134774214Y-78676500D01*
X134846785Y-78712786D01*
X134991928Y-78712786D01*
X135064500Y-78749071D01*
X135100785Y-78785357D01*
X135137071Y-78857929D01*
X135137071Y-79003071D01*
X135100785Y-79075643D01*
X135064500Y-79111929D01*
X134991928Y-79148214D01*
X134846785Y-79148214D01*
X134774214Y-79111929D01*
X134737928Y-79075643D01*
X134701643Y-79003071D01*
X134701643Y-78857929D01*
X134737928Y-78785357D01*
X134774214Y-78749071D01*
X134846785Y-78712786D01*
D22*
X158960396Y-94142862D02*
X159127190Y-93904586D01*
X159246328Y-94142862D02*
X159246328Y-93642482D01*
X159055707Y-93642482D01*
X159008052Y-93666310D01*
X158984224Y-93690138D01*
X158960396Y-93737793D01*
X158960396Y-93809276D01*
X158984224Y-93856931D01*
X159008052Y-93880759D01*
X159055707Y-93904586D01*
X159246328Y-93904586D01*
X158793603Y-93642482D02*
X158483844Y-93642482D01*
X158650637Y-93833103D01*
X158579155Y-93833103D01*
X158531499Y-93856931D01*
X158507672Y-93880759D01*
X158483844Y-93928414D01*
X158483844Y-94047552D01*
X158507672Y-94095207D01*
X158531499Y-94119035D01*
X158579155Y-94142862D01*
X158722120Y-94142862D01*
X158769776Y-94119035D01*
X158793603Y-94095207D01*
X154769396Y-76235862D02*
X154936190Y-75997586D01*
X155055328Y-76235862D02*
X155055328Y-75735482D01*
X154864707Y-75735482D01*
X154817052Y-75759310D01*
X154793224Y-75783138D01*
X154769396Y-75830793D01*
X154769396Y-75902276D01*
X154793224Y-75949931D01*
X154817052Y-75973759D01*
X154864707Y-75997586D01*
X155055328Y-75997586D01*
X154316672Y-75735482D02*
X154554948Y-75735482D01*
X154578776Y-75973759D01*
X154554948Y-75949931D01*
X154507293Y-75926103D01*
X154388155Y-75926103D01*
X154340499Y-75949931D01*
X154316672Y-75973759D01*
X154292844Y-76021414D01*
X154292844Y-76140552D01*
X154316672Y-76188207D01*
X154340499Y-76212035D01*
X154388155Y-76235862D01*
X154507293Y-76235862D01*
X154554948Y-76212035D01*
X154578776Y-76188207D01*
X153372396Y-76299362D02*
X153539190Y-76061086D01*
X153658328Y-76299362D02*
X153658328Y-75798982D01*
X153467707Y-75798982D01*
X153420052Y-75822810D01*
X153396224Y-75846638D01*
X153372396Y-75894293D01*
X153372396Y-75965776D01*
X153396224Y-76013431D01*
X153420052Y-76037259D01*
X153467707Y-76061086D01*
X153658328Y-76061086D01*
X152943499Y-75798982D02*
X153038810Y-75798982D01*
X153086465Y-75822810D01*
X153110293Y-75846638D01*
X153157948Y-75918120D01*
X153181776Y-76013431D01*
X153181776Y-76204052D01*
X153157948Y-76251707D01*
X153134120Y-76275535D01*
X153086465Y-76299362D01*
X152991155Y-76299362D01*
X152943499Y-76275535D01*
X152919672Y-76251707D01*
X152895844Y-76204052D01*
X152895844Y-76084914D01*
X152919672Y-76037259D01*
X152943499Y-76013431D01*
X152991155Y-75989603D01*
X153086465Y-75989603D01*
X153134120Y-76013431D01*
X153157948Y-76037259D01*
X153181776Y-76084914D01*
X128289896Y-84617862D02*
X128456690Y-84379586D01*
X128575828Y-84617862D02*
X128575828Y-84117482D01*
X128385207Y-84117482D01*
X128337552Y-84141310D01*
X128313724Y-84165138D01*
X128289896Y-84212793D01*
X128289896Y-84284276D01*
X128313724Y-84331931D01*
X128337552Y-84355759D01*
X128385207Y-84379586D01*
X128575828Y-84379586D01*
X128123103Y-84117482D02*
X127789516Y-84117482D01*
X128003965Y-84617862D01*
X129877396Y-84681362D02*
X130044190Y-84443086D01*
X130163328Y-84681362D02*
X130163328Y-84180982D01*
X129972707Y-84180982D01*
X129925052Y-84204810D01*
X129901224Y-84228638D01*
X129877396Y-84276293D01*
X129877396Y-84347776D01*
X129901224Y-84395431D01*
X129925052Y-84419259D01*
X129972707Y-84443086D01*
X130163328Y-84443086D01*
X129591465Y-84395431D02*
X129639120Y-84371603D01*
X129662948Y-84347776D01*
X129686776Y-84300120D01*
X129686776Y-84276293D01*
X129662948Y-84228638D01*
X129639120Y-84204810D01*
X129591465Y-84180982D01*
X129496155Y-84180982D01*
X129448499Y-84204810D01*
X129424672Y-84228638D01*
X129400844Y-84276293D01*
X129400844Y-84300120D01*
X129424672Y-84347776D01*
X129448499Y-84371603D01*
X129496155Y-84395431D01*
X129591465Y-84395431D01*
X129639120Y-84419259D01*
X129662948Y-84443086D01*
X129686776Y-84490741D01*
X129686776Y-84586052D01*
X129662948Y-84633707D01*
X129639120Y-84657535D01*
X129591465Y-84681362D01*
X129496155Y-84681362D01*
X129448499Y-84657535D01*
X129424672Y-84633707D01*
X129400844Y-84586052D01*
X129400844Y-84490741D01*
X129424672Y-84443086D01*
X129448499Y-84419259D01*
X129496155Y-84395431D01*
X126400862Y-89705604D02*
X126162586Y-89538810D01*
X126400862Y-89419672D02*
X125900482Y-89419672D01*
X125900482Y-89610293D01*
X125924310Y-89657948D01*
X125948138Y-89681776D01*
X125995793Y-89705604D01*
X126067276Y-89705604D01*
X126114931Y-89681776D01*
X126138759Y-89657948D01*
X126162586Y-89610293D01*
X126162586Y-89419672D01*
X126400862Y-89943880D02*
X126400862Y-90039190D01*
X126377035Y-90086845D01*
X126353207Y-90110673D01*
X126281724Y-90158328D01*
X126186414Y-90182156D01*
X125995793Y-90182156D01*
X125948138Y-90158328D01*
X125924310Y-90134501D01*
X125900482Y-90086845D01*
X125900482Y-89991535D01*
X125924310Y-89943880D01*
X125948138Y-89920052D01*
X125995793Y-89896224D01*
X126114931Y-89896224D01*
X126162586Y-89920052D01*
X126186414Y-89943880D01*
X126210241Y-89991535D01*
X126210241Y-90086845D01*
X126186414Y-90134501D01*
X126162586Y-90158328D01*
X126114931Y-90182156D01*
X126653172Y-84126862D02*
X126819966Y-83888586D01*
X126939104Y-84126862D02*
X126939104Y-83626482D01*
X126748483Y-83626482D01*
X126700828Y-83650310D01*
X126677000Y-83674138D01*
X126653172Y-83721793D01*
X126653172Y-83793276D01*
X126677000Y-83840931D01*
X126700828Y-83864759D01*
X126748483Y-83888586D01*
X126939104Y-83888586D01*
X126176620Y-84126862D02*
X126462552Y-84126862D01*
X126319586Y-84126862D02*
X126319586Y-83626482D01*
X126367241Y-83697965D01*
X126414896Y-83745620D01*
X126462552Y-83769448D01*
X125866861Y-83626482D02*
X125819206Y-83626482D01*
X125771551Y-83650310D01*
X125747723Y-83674138D01*
X125723896Y-83721793D01*
X125700068Y-83817103D01*
X125700068Y-83936241D01*
X125723896Y-84031552D01*
X125747723Y-84079207D01*
X125771551Y-84103035D01*
X125819206Y-84126862D01*
X125866861Y-84126862D01*
X125914517Y-84103035D01*
X125938344Y-84079207D01*
X125962172Y-84031552D01*
X125986000Y-83936241D01*
X125986000Y-83817103D01*
X125962172Y-83721793D01*
X125938344Y-83674138D01*
X125914517Y-83650310D01*
X125866861Y-83626482D01*
X136084672Y-84617862D02*
X136251466Y-84379586D01*
X136370604Y-84617862D02*
X136370604Y-84117482D01*
X136179983Y-84117482D01*
X136132328Y-84141310D01*
X136108500Y-84165138D01*
X136084672Y-84212793D01*
X136084672Y-84284276D01*
X136108500Y-84331931D01*
X136132328Y-84355759D01*
X136179983Y-84379586D01*
X136370604Y-84379586D01*
X135608120Y-84617862D02*
X135894052Y-84617862D01*
X135751086Y-84617862D02*
X135751086Y-84117482D01*
X135798741Y-84188965D01*
X135846396Y-84236620D01*
X135894052Y-84260448D01*
X135131568Y-84617862D02*
X135417500Y-84617862D01*
X135274534Y-84617862D02*
X135274534Y-84117482D01*
X135322189Y-84188965D01*
X135369844Y-84236620D01*
X135417500Y-84260448D01*
X137672172Y-84681362D02*
X137838966Y-84443086D01*
X137958104Y-84681362D02*
X137958104Y-84180982D01*
X137767483Y-84180982D01*
X137719828Y-84204810D01*
X137696000Y-84228638D01*
X137672172Y-84276293D01*
X137672172Y-84347776D01*
X137696000Y-84395431D01*
X137719828Y-84419259D01*
X137767483Y-84443086D01*
X137958104Y-84443086D01*
X137195620Y-84681362D02*
X137481552Y-84681362D01*
X137338586Y-84681362D02*
X137338586Y-84180982D01*
X137386241Y-84252465D01*
X137433896Y-84300120D01*
X137481552Y-84323948D01*
X137005000Y-84228638D02*
X136981172Y-84204810D01*
X136933517Y-84180982D01*
X136814379Y-84180982D01*
X136766723Y-84204810D01*
X136742896Y-84228638D01*
X136719068Y-84276293D01*
X136719068Y-84323948D01*
X136742896Y-84395431D01*
X137028827Y-84681362D01*
X136719068Y-84681362D01*
X133831362Y-89511328D02*
X133593086Y-89344534D01*
X133831362Y-89225396D02*
X133330982Y-89225396D01*
X133330982Y-89416017D01*
X133354810Y-89463672D01*
X133378638Y-89487500D01*
X133426293Y-89511328D01*
X133497776Y-89511328D01*
X133545431Y-89487500D01*
X133569259Y-89463672D01*
X133593086Y-89416017D01*
X133593086Y-89225396D01*
X133831362Y-89987880D02*
X133831362Y-89701948D01*
X133831362Y-89844914D02*
X133330982Y-89844914D01*
X133402465Y-89797259D01*
X133450120Y-89749604D01*
X133473948Y-89701948D01*
X133330982Y-90154673D02*
X133330982Y-90464432D01*
X133521603Y-90297639D01*
X133521603Y-90369121D01*
X133545431Y-90416777D01*
X133569259Y-90440604D01*
X133616914Y-90464432D01*
X133736052Y-90464432D01*
X133783707Y-90440604D01*
X133807535Y-90416777D01*
X133831362Y-90369121D01*
X133831362Y-90226156D01*
X133807535Y-90178500D01*
X133783707Y-90154673D01*
X131893672Y-84236862D02*
X132060466Y-83998586D01*
X132179604Y-84236862D02*
X132179604Y-83736482D01*
X131988983Y-83736482D01*
X131941328Y-83760310D01*
X131917500Y-83784138D01*
X131893672Y-83831793D01*
X131893672Y-83903276D01*
X131917500Y-83950931D01*
X131941328Y-83974759D01*
X131988983Y-83998586D01*
X132179604Y-83998586D01*
X131417120Y-84236862D02*
X131703052Y-84236862D01*
X131560086Y-84236862D02*
X131560086Y-83736482D01*
X131607741Y-83807965D01*
X131655396Y-83855620D01*
X131703052Y-83879448D01*
X130988223Y-83903276D02*
X130988223Y-84236862D01*
X131107361Y-83712655D02*
X131226500Y-84070069D01*
X130916740Y-84070069D01*
X143831672Y-84681362D02*
X143998466Y-84443086D01*
X144117604Y-84681362D02*
X144117604Y-84180982D01*
X143926983Y-84180982D01*
X143879328Y-84204810D01*
X143855500Y-84228638D01*
X143831672Y-84276293D01*
X143831672Y-84347776D01*
X143855500Y-84395431D01*
X143879328Y-84419259D01*
X143926983Y-84443086D01*
X144117604Y-84443086D01*
X143355120Y-84681362D02*
X143641052Y-84681362D01*
X143498086Y-84681362D02*
X143498086Y-84180982D01*
X143545741Y-84252465D01*
X143593396Y-84300120D01*
X143641052Y-84323948D01*
X142902396Y-84180982D02*
X143140672Y-84180982D01*
X143164500Y-84419259D01*
X143140672Y-84395431D01*
X143093017Y-84371603D01*
X142973879Y-84371603D01*
X142926223Y-84395431D01*
X142902396Y-84419259D01*
X142878568Y-84466914D01*
X142878568Y-84586052D01*
X142902396Y-84633707D01*
X142926223Y-84657535D01*
X142973879Y-84681362D01*
X143093017Y-84681362D01*
X143140672Y-84657535D01*
X143164500Y-84633707D01*
X145419172Y-83855862D02*
X145585966Y-83617586D01*
X145705104Y-83855862D02*
X145705104Y-83355482D01*
X145514483Y-83355482D01*
X145466828Y-83379310D01*
X145443000Y-83403138D01*
X145419172Y-83450793D01*
X145419172Y-83522276D01*
X145443000Y-83569931D01*
X145466828Y-83593759D01*
X145514483Y-83617586D01*
X145705104Y-83617586D01*
X144942620Y-83855862D02*
X145228552Y-83855862D01*
X145085586Y-83855862D02*
X145085586Y-83355482D01*
X145133241Y-83426965D01*
X145180896Y-83474620D01*
X145228552Y-83498448D01*
X144513723Y-83355482D02*
X144609034Y-83355482D01*
X144656689Y-83379310D01*
X144680517Y-83403138D01*
X144728172Y-83474620D01*
X144752000Y-83569931D01*
X144752000Y-83760552D01*
X144728172Y-83808207D01*
X144704344Y-83832035D01*
X144656689Y-83855862D01*
X144561379Y-83855862D01*
X144513723Y-83832035D01*
X144489896Y-83808207D01*
X144466068Y-83760552D01*
X144466068Y-83641414D01*
X144489896Y-83593759D01*
X144513723Y-83569931D01*
X144561379Y-83546103D01*
X144656689Y-83546103D01*
X144704344Y-83569931D01*
X144728172Y-83593759D01*
X144752000Y-83641414D01*
X141640862Y-89467328D02*
X141402586Y-89300534D01*
X141640862Y-89181396D02*
X141140482Y-89181396D01*
X141140482Y-89372017D01*
X141164310Y-89419672D01*
X141188138Y-89443500D01*
X141235793Y-89467328D01*
X141307276Y-89467328D01*
X141354931Y-89443500D01*
X141378759Y-89419672D01*
X141402586Y-89372017D01*
X141402586Y-89181396D01*
X141640862Y-89943880D02*
X141640862Y-89657948D01*
X141640862Y-89800914D02*
X141140482Y-89800914D01*
X141211965Y-89753259D01*
X141259620Y-89705604D01*
X141283448Y-89657948D01*
X141140482Y-90110673D02*
X141140482Y-90444260D01*
X141640862Y-90229811D01*
X141164672Y-82649362D02*
X141331466Y-82411086D01*
X141450604Y-82649362D02*
X141450604Y-82148982D01*
X141259983Y-82148982D01*
X141212328Y-82172810D01*
X141188500Y-82196638D01*
X141164672Y-82244293D01*
X141164672Y-82315776D01*
X141188500Y-82363431D01*
X141212328Y-82387259D01*
X141259983Y-82411086D01*
X141450604Y-82411086D01*
X140688120Y-82649362D02*
X140974052Y-82649362D01*
X140831086Y-82649362D02*
X140831086Y-82148982D01*
X140878741Y-82220465D01*
X140926396Y-82268120D01*
X140974052Y-82291948D01*
X140402189Y-82363431D02*
X140449844Y-82339603D01*
X140473672Y-82315776D01*
X140497500Y-82268120D01*
X140497500Y-82244293D01*
X140473672Y-82196638D01*
X140449844Y-82172810D01*
X140402189Y-82148982D01*
X140306879Y-82148982D01*
X140259223Y-82172810D01*
X140235396Y-82196638D01*
X140211568Y-82244293D01*
X140211568Y-82268120D01*
X140235396Y-82315776D01*
X140259223Y-82339603D01*
X140306879Y-82363431D01*
X140402189Y-82363431D01*
X140449844Y-82387259D01*
X140473672Y-82411086D01*
X140497500Y-82458741D01*
X140497500Y-82554052D01*
X140473672Y-82601707D01*
X140449844Y-82625535D01*
X140402189Y-82649362D01*
X140306879Y-82649362D01*
X140259223Y-82625535D01*
X140235396Y-82601707D01*
X140211568Y-82554052D01*
X140211568Y-82458741D01*
X140235396Y-82411086D01*
X140259223Y-82387259D01*
X140306879Y-82363431D01*
X148022672Y-89126362D02*
X148189466Y-88888086D01*
X148308604Y-89126362D02*
X148308604Y-88625982D01*
X148117983Y-88625982D01*
X148070328Y-88649810D01*
X148046500Y-88673638D01*
X148022672Y-88721293D01*
X148022672Y-88792776D01*
X148046500Y-88840431D01*
X148070328Y-88864259D01*
X148117983Y-88888086D01*
X148308604Y-88888086D01*
X147546120Y-89126362D02*
X147832052Y-89126362D01*
X147689086Y-89126362D02*
X147689086Y-88625982D01*
X147736741Y-88697465D01*
X147784396Y-88745120D01*
X147832052Y-88768948D01*
X147307844Y-89126362D02*
X147212534Y-89126362D01*
X147164879Y-89102535D01*
X147141051Y-89078707D01*
X147093396Y-89007224D01*
X147069568Y-88911914D01*
X147069568Y-88721293D01*
X147093396Y-88673638D01*
X147117223Y-88649810D01*
X147164879Y-88625982D01*
X147260189Y-88625982D01*
X147307844Y-88649810D01*
X147331672Y-88673638D01*
X147355500Y-88721293D01*
X147355500Y-88840431D01*
X147331672Y-88888086D01*
X147307844Y-88911914D01*
X147260189Y-88935741D01*
X147164879Y-88935741D01*
X147117223Y-88911914D01*
X147093396Y-88888086D01*
X147069568Y-88840431D01*
X143768172Y-78267862D02*
X143934966Y-78029586D01*
X144054104Y-78267862D02*
X144054104Y-77767482D01*
X143863483Y-77767482D01*
X143815828Y-77791310D01*
X143792000Y-77815138D01*
X143768172Y-77862793D01*
X143768172Y-77934276D01*
X143792000Y-77981931D01*
X143815828Y-78005759D01*
X143863483Y-78029586D01*
X144054104Y-78029586D01*
X143577552Y-77815138D02*
X143553724Y-77791310D01*
X143506069Y-77767482D01*
X143386931Y-77767482D01*
X143339275Y-77791310D01*
X143315448Y-77815138D01*
X143291620Y-77862793D01*
X143291620Y-77910448D01*
X143315448Y-77981931D01*
X143601379Y-78267862D01*
X143291620Y-78267862D01*
X142981861Y-77767482D02*
X142934206Y-77767482D01*
X142886551Y-77791310D01*
X142862723Y-77815138D01*
X142838896Y-77862793D01*
X142815068Y-77958103D01*
X142815068Y-78077241D01*
X142838896Y-78172552D01*
X142862723Y-78220207D01*
X142886551Y-78244035D01*
X142934206Y-78267862D01*
X142981861Y-78267862D01*
X143029517Y-78244035D01*
X143053344Y-78220207D01*
X143077172Y-78172552D01*
X143101000Y-78077241D01*
X143101000Y-77958103D01*
X143077172Y-77862793D01*
X143053344Y-77815138D01*
X143029517Y-77791310D01*
X142981861Y-77767482D01*
X147895672Y-93317362D02*
X148062466Y-93079086D01*
X148181604Y-93317362D02*
X148181604Y-92816982D01*
X147990983Y-92816982D01*
X147943328Y-92840810D01*
X147919500Y-92864638D01*
X147895672Y-92912293D01*
X147895672Y-92983776D01*
X147919500Y-93031431D01*
X147943328Y-93055259D01*
X147990983Y-93079086D01*
X148181604Y-93079086D01*
X147705052Y-92864638D02*
X147681224Y-92840810D01*
X147633569Y-92816982D01*
X147514431Y-92816982D01*
X147466775Y-92840810D01*
X147442948Y-92864638D01*
X147419120Y-92912293D01*
X147419120Y-92959948D01*
X147442948Y-93031431D01*
X147728879Y-93317362D01*
X147419120Y-93317362D01*
X146942568Y-93317362D02*
X147228500Y-93317362D01*
X147085534Y-93317362D02*
X147085534Y-92816982D01*
X147133189Y-92888465D01*
X147180844Y-92936120D01*
X147228500Y-92959948D01*
X150435672Y-93380862D02*
X150602466Y-93142586D01*
X150721604Y-93380862D02*
X150721604Y-92880482D01*
X150530983Y-92880482D01*
X150483328Y-92904310D01*
X150459500Y-92928138D01*
X150435672Y-92975793D01*
X150435672Y-93047276D01*
X150459500Y-93094931D01*
X150483328Y-93118759D01*
X150530983Y-93142586D01*
X150721604Y-93142586D01*
X150245052Y-92928138D02*
X150221224Y-92904310D01*
X150173569Y-92880482D01*
X150054431Y-92880482D01*
X150006775Y-92904310D01*
X149982948Y-92928138D01*
X149959120Y-92975793D01*
X149959120Y-93023448D01*
X149982948Y-93094931D01*
X150268879Y-93380862D01*
X149959120Y-93380862D01*
X149768500Y-92928138D02*
X149744672Y-92904310D01*
X149697017Y-92880482D01*
X149577879Y-92880482D01*
X149530223Y-92904310D01*
X149506396Y-92928138D01*
X149482568Y-92975793D01*
X149482568Y-93023448D01*
X149506396Y-93094931D01*
X149792327Y-93380862D01*
X149482568Y-93380862D01*
X143831672Y-79347362D02*
X143998466Y-79109086D01*
X144117604Y-79347362D02*
X144117604Y-78846982D01*
X143926983Y-78846982D01*
X143879328Y-78870810D01*
X143855500Y-78894638D01*
X143831672Y-78942293D01*
X143831672Y-79013776D01*
X143855500Y-79061431D01*
X143879328Y-79085259D01*
X143926983Y-79109086D01*
X144117604Y-79109086D01*
X143641052Y-78894638D02*
X143617224Y-78870810D01*
X143569569Y-78846982D01*
X143450431Y-78846982D01*
X143402775Y-78870810D01*
X143378948Y-78894638D01*
X143355120Y-78942293D01*
X143355120Y-78989948D01*
X143378948Y-79061431D01*
X143664879Y-79347362D01*
X143355120Y-79347362D01*
X143188327Y-78846982D02*
X142878568Y-78846982D01*
X143045361Y-79037603D01*
X142973879Y-79037603D01*
X142926223Y-79061431D01*
X142902396Y-79085259D01*
X142878568Y-79132914D01*
X142878568Y-79252052D01*
X142902396Y-79299707D01*
X142926223Y-79323535D01*
X142973879Y-79347362D01*
X143116844Y-79347362D01*
X143164500Y-79323535D01*
X143188327Y-79299707D01*
X130433172Y-74457862D02*
X130599966Y-74219586D01*
X130719104Y-74457862D02*
X130719104Y-73957482D01*
X130528483Y-73957482D01*
X130480828Y-73981310D01*
X130457000Y-74005138D01*
X130433172Y-74052793D01*
X130433172Y-74124276D01*
X130457000Y-74171931D01*
X130480828Y-74195759D01*
X130528483Y-74219586D01*
X130719104Y-74219586D01*
X130242552Y-74005138D02*
X130218724Y-73981310D01*
X130171069Y-73957482D01*
X130051931Y-73957482D01*
X130004275Y-73981310D01*
X129980448Y-74005138D01*
X129956620Y-74052793D01*
X129956620Y-74100448D01*
X129980448Y-74171931D01*
X130266379Y-74457862D01*
X129956620Y-74457862D01*
X129527723Y-74124276D02*
X129527723Y-74457862D01*
X129646861Y-73933655D02*
X129766000Y-74291069D01*
X129456240Y-74291069D01*
D25*
X165646100Y-86302850D02*
X165646100Y-86950550D01*
X165608000Y-87026750D01*
X165569900Y-87064850D01*
X165493700Y-87102950D01*
X165341300Y-87102950D01*
X165265100Y-87064850D01*
X165227000Y-87026750D01*
X165188900Y-86950550D01*
X165188900Y-86302850D01*
X164884100Y-86302850D02*
X164388800Y-86302850D01*
X164655500Y-86607650D01*
X164541200Y-86607650D01*
X164465000Y-86645750D01*
X164426900Y-86683850D01*
X164388800Y-86760050D01*
X164388800Y-86950550D01*
X164426900Y-87026750D01*
X164465000Y-87064850D01*
X164541200Y-87102950D01*
X164769800Y-87102950D01*
X164846000Y-87064850D01*
X164884100Y-87026750D01*
D20*
D25*
X176060100Y-86366350D02*
X176060100Y-87014050D01*
X176022000Y-87090250D01*
X175983900Y-87128350D01*
X175907700Y-87166450D01*
X175755300Y-87166450D01*
X175679100Y-87128350D01*
X175641000Y-87090250D01*
X175602900Y-87014050D01*
X175602900Y-86366350D01*
X174840900Y-86366350D02*
X175221900Y-86366350D01*
X175260000Y-86747350D01*
X175221900Y-86709250D01*
X175145700Y-86671150D01*
X174955200Y-86671150D01*
X174879000Y-86709250D01*
X174840900Y-86747350D01*
X174802800Y-86823550D01*
X174802800Y-87014050D01*
X174840900Y-87090250D01*
X174879000Y-87128350D01*
X174955200Y-87166450D01*
X175145700Y-87166450D01*
X175221900Y-87128350D01*
X175260000Y-87090250D01*
D20*
D17*
X159905619Y-76269905D02*
X159372286Y-77069905D01*
X159372286Y-76269905D02*
X159905619Y-77069905D01*
X158648476Y-77069905D02*
X159105619Y-77069905D01*
X158877048Y-77069905D02*
X158877048Y-76269905D01*
X158953238Y-76384190D01*
X159029429Y-76460381D01*
X159105619Y-76498476D01*
D22*
X123067172Y-78029707D02*
X123091000Y-78053535D01*
X123162483Y-78077362D01*
X123210138Y-78077362D01*
X123281621Y-78053535D01*
X123329276Y-78005880D01*
X123353104Y-77958224D01*
X123376932Y-77862914D01*
X123376932Y-77791431D01*
X123353104Y-77696120D01*
X123329276Y-77648465D01*
X123281621Y-77600810D01*
X123210138Y-77576982D01*
X123162483Y-77576982D01*
X123091000Y-77600810D01*
X123067172Y-77624638D01*
X122590620Y-78077362D02*
X122876552Y-78077362D01*
X122733586Y-78077362D02*
X122733586Y-77576982D01*
X122781241Y-77648465D01*
X122828896Y-77696120D01*
X122876552Y-77719948D01*
X122423827Y-77576982D02*
X122090240Y-77576982D01*
X122304689Y-78077362D01*
X123511672Y-74664207D02*
X123535500Y-74688035D01*
X123606983Y-74711862D01*
X123654638Y-74711862D01*
X123726121Y-74688035D01*
X123773776Y-74640380D01*
X123797604Y-74592724D01*
X123821432Y-74497414D01*
X123821432Y-74425931D01*
X123797604Y-74330620D01*
X123773776Y-74282965D01*
X123726121Y-74235310D01*
X123654638Y-74211482D01*
X123606983Y-74211482D01*
X123535500Y-74235310D01*
X123511672Y-74259138D01*
X123035120Y-74711862D02*
X123321052Y-74711862D01*
X123178086Y-74711862D02*
X123178086Y-74211482D01*
X123225741Y-74282965D01*
X123273396Y-74330620D01*
X123321052Y-74354448D01*
X122582396Y-74211482D02*
X122820672Y-74211482D01*
X122844500Y-74449759D01*
X122820672Y-74425931D01*
X122773017Y-74402103D01*
X122653879Y-74402103D01*
X122606223Y-74425931D01*
X122582396Y-74449759D01*
X122558568Y-74497414D01*
X122558568Y-74616552D01*
X122582396Y-74664207D01*
X122606223Y-74688035D01*
X122653879Y-74711862D01*
X122773017Y-74711862D01*
X122820672Y-74688035D01*
X122844500Y-74664207D01*
X163024396Y-92190207D02*
X163048224Y-92214035D01*
X163119707Y-92237862D01*
X163167362Y-92237862D01*
X163238845Y-92214035D01*
X163286500Y-92166380D01*
X163310328Y-92118724D01*
X163334156Y-92023414D01*
X163334156Y-91951931D01*
X163310328Y-91856620D01*
X163286500Y-91808965D01*
X163238845Y-91761310D01*
X163167362Y-91737482D01*
X163119707Y-91737482D01*
X163048224Y-91761310D01*
X163024396Y-91785138D01*
X162595499Y-91737482D02*
X162690810Y-91737482D01*
X162738465Y-91761310D01*
X162762293Y-91785138D01*
X162809948Y-91856620D01*
X162833776Y-91951931D01*
X162833776Y-92142552D01*
X162809948Y-92190207D01*
X162786120Y-92214035D01*
X162738465Y-92237862D01*
X162643155Y-92237862D01*
X162595499Y-92214035D01*
X162571672Y-92190207D01*
X162547844Y-92142552D01*
X162547844Y-92023414D01*
X162571672Y-91975759D01*
X162595499Y-91951931D01*
X162643155Y-91928103D01*
X162738465Y-91928103D01*
X162786120Y-91951931D01*
X162809948Y-91975759D01*
X162833776Y-92023414D01*
D17*
X115163524Y-72840905D02*
X115163524Y-73488524D01*
X115125429Y-73564714D01*
X115087333Y-73602810D01*
X115011143Y-73640905D01*
X114858762Y-73640905D01*
X114782571Y-73602810D01*
X114744476Y-73564714D01*
X114706381Y-73488524D01*
X114706381Y-72840905D01*
X114287334Y-73640905D02*
X114134953Y-73640905D01*
X114058762Y-73602810D01*
X114020667Y-73564714D01*
X113944476Y-73450429D01*
X113906381Y-73298048D01*
X113906381Y-72993286D01*
X113944476Y-72917095D01*
X113982572Y-72879000D01*
X114058762Y-72840905D01*
X114211143Y-72840905D01*
X114287334Y-72879000D01*
X114325429Y-72917095D01*
X114363524Y-72993286D01*
X114363524Y-73183762D01*
X114325429Y-73259952D01*
X114287334Y-73298048D01*
X114211143Y-73336143D01*
X114058762Y-73336143D01*
X113982572Y-73298048D01*
X113944476Y-73259952D01*
X113906381Y-73183762D01*
X115100024Y-75634905D02*
X115100024Y-76282524D01*
X115061929Y-76358714D01*
X115023833Y-76396810D01*
X114947643Y-76434905D01*
X114795262Y-76434905D01*
X114719071Y-76396810D01*
X114680976Y-76358714D01*
X114642881Y-76282524D01*
X114642881Y-75634905D01*
X114338119Y-75634905D02*
X113804786Y-75634905D01*
X114147643Y-76434905D01*
D22*
X136576828Y-77251862D02*
X136576828Y-76751482D01*
X136457690Y-76751482D01*
X136386207Y-76775310D01*
X136338552Y-76822965D01*
X136314724Y-76870620D01*
X136290896Y-76965931D01*
X136290896Y-77037414D01*
X136314724Y-77132724D01*
X136338552Y-77180380D01*
X136386207Y-77228035D01*
X136457690Y-77251862D01*
X136576828Y-77251862D01*
X135838172Y-76751482D02*
X136076448Y-76751482D01*
X136100276Y-76989759D01*
X136076448Y-76965931D01*
X136028793Y-76942103D01*
X135909655Y-76942103D01*
X135861999Y-76965931D01*
X135838172Y-76989759D01*
X135814344Y-77037414D01*
X135814344Y-77156552D01*
X135838172Y-77204207D01*
X135861999Y-77228035D01*
X135909655Y-77251862D01*
X136028793Y-77251862D01*
X136076448Y-77228035D01*
X136100276Y-77204207D01*
D24*
X139645571Y-73759786D02*
X139718143Y-73723500D01*
X139790714Y-73650929D01*
X139899571Y-73542071D01*
X139972143Y-73505786D01*
X140044714Y-73505786D01*
X140008429Y-73687214D02*
X140081000Y-73650929D01*
X140153571Y-73578357D01*
X140189857Y-73433214D01*
X140189857Y-73179214D01*
X140153571Y-73034071D01*
X140081000Y-72961500D01*
X140008429Y-72925214D01*
X139863286Y-72925214D01*
X139790714Y-72961500D01*
X139718143Y-73034071D01*
X139681857Y-73179214D01*
X139681857Y-73433214D01*
X139718143Y-73578357D01*
X139790714Y-73650929D01*
X139863286Y-73687214D01*
X140008429Y-73687214D01*
X139427857Y-72925214D02*
X138956143Y-72925214D01*
X139210143Y-73215500D01*
X139101285Y-73215500D01*
X139028714Y-73251786D01*
X138992428Y-73288071D01*
X138956143Y-73360643D01*
X138956143Y-73542071D01*
X138992428Y-73614643D01*
X139028714Y-73650929D01*
X139101285Y-73687214D01*
X139319000Y-73687214D01*
X139391571Y-73650929D01*
X139427857Y-73614643D01*
D26*
X153799402Y-93257648D02*
X153169844Y-93887206D01*
X153058746Y-93924240D01*
X152984680Y-93924239D01*
X152873581Y-93887207D01*
X152725449Y-93739075D01*
X152688417Y-93627976D01*
X152688417Y-93553911D01*
X152725450Y-93442812D01*
X153355008Y-92813254D01*
X152540286Y-92665122D02*
X152651384Y-92702156D01*
X152725450Y-92702155D01*
X152836548Y-92665122D01*
X152873581Y-92628089D01*
X152910615Y-92516991D01*
X152910615Y-92442925D01*
X152873581Y-92331827D01*
X152725449Y-92183695D01*
X152614352Y-92146662D01*
X152540286Y-92146662D01*
X152429187Y-92183695D01*
X152392154Y-92220728D01*
X152355121Y-92331826D01*
X152355121Y-92405893D01*
X152392154Y-92516991D01*
X152540286Y-92665122D01*
X152577319Y-92776221D01*
X152577318Y-92850287D01*
X152540285Y-92961385D01*
X152392154Y-93109516D01*
X152281055Y-93146550D01*
X152206990Y-93146550D01*
X152095891Y-93109517D01*
X151947759Y-92961385D01*
X151910727Y-92850287D01*
X151910727Y-92776221D01*
X151947760Y-92665122D01*
X152095891Y-92516991D01*
X152206990Y-92479958D01*
X152281056Y-92479958D01*
X152392154Y-92516991D01*
%LPC*%
D27*
X110261400Y-74930000D03*
X110261400Y-93929200D03*
X178282600Y-74930000D03*
X178282600Y-93929200D03*
D28*
X145752500Y-82583000D03*
X145752500Y-80983000D03*
D29*
X150802500Y-78183000D03*
X149202500Y-78183000D03*
D28*
X156019500Y-74904500D03*
X156019500Y-73304500D03*
D29*
X161188500Y-77279500D03*
X162788500Y-77279500D03*
D28*
X158178500Y-73304500D03*
X158178500Y-74904500D03*
X169602500Y-89183000D03*
X169602500Y-90783000D03*
X171902500Y-89183000D03*
X171902500Y-90783000D03*
X164782500Y-82905500D03*
X164782500Y-81305500D03*
D29*
X176822000Y-80200500D03*
X175222000Y-80200500D03*
D30*
X113502500Y-82284000D03*
X113502500Y-78982000D03*
D31*
X127825500Y-78422500D03*
X129730500Y-78422500D03*
X125857000Y-73279000D03*
X127762000Y-73279000D03*
D32*
X159132500Y-95683000D03*
X156592500Y-95683000D03*
X154052500Y-95683000D03*
X151512500Y-95683000D03*
X148972500Y-95683000D03*
X167392500Y-95683000D03*
X164852500Y-95683000D03*
X162312500Y-95683000D03*
X125197500Y-93133000D03*
X129007500Y-93133000D03*
X132797500Y-93133000D03*
X136607500Y-93133000D03*
X140447500Y-93133000D03*
X144257500Y-93133000D03*
D33*
X125891500Y-85217000D03*
X124113500Y-85217000D03*
X125002500Y-87249000D03*
X133541500Y-85267000D03*
X131763500Y-85267000D03*
X132652500Y-87299000D03*
X129891500Y-88567000D03*
X128113500Y-88567000D03*
X129002500Y-90599000D03*
X137491500Y-88567000D03*
X135713500Y-88567000D03*
X136602500Y-90599000D03*
X145191500Y-88567000D03*
X143413500Y-88567000D03*
X144302500Y-90599000D03*
X141141500Y-85267000D03*
X139363500Y-85267000D03*
X140252500Y-87299000D03*
X138938000Y-79629000D03*
X138938000Y-77851000D03*
X136906000Y-78740000D03*
D29*
X158013500Y-92837000D03*
X159613500Y-92837000D03*
D28*
X154686000Y-73304500D03*
X154686000Y-74904500D03*
X153352500Y-73304500D03*
X153352500Y-74904500D03*
X128152500Y-87033000D03*
X128152500Y-85433000D03*
X129802500Y-87033000D03*
X129802500Y-85433000D03*
X125002500Y-90633000D03*
X125002500Y-89033000D03*
D29*
X125501500Y-82740500D03*
X127101500Y-82740500D03*
D28*
X135752500Y-87033000D03*
X135752500Y-85433000D03*
X137352500Y-87033000D03*
X137352500Y-85433000D03*
X132652500Y-90633000D03*
X132652500Y-89033000D03*
D29*
X132352500Y-82983000D03*
X130752500Y-82983000D03*
D28*
X143402500Y-87033000D03*
X143402500Y-85433000D03*
X145102500Y-87033000D03*
X145102500Y-85433000D03*
X140252500Y-90633000D03*
X140252500Y-89033000D03*
D29*
X140102500Y-83433000D03*
X138502500Y-83433000D03*
X147502500Y-89983000D03*
X149102500Y-89983000D03*
X140487500Y-77978000D03*
X142087500Y-77978000D03*
X146752500Y-91933000D03*
X148352500Y-91933000D03*
X149302500Y-91933000D03*
X150902500Y-91933000D03*
X142087500Y-79311500D03*
X140487500Y-79311500D03*
X129311500Y-73279000D03*
X130911500Y-73279000D03*
D34*
X132562500Y-78408000D03*
X124942500Y-78408000D03*
D32*
X169902500Y-93113000D03*
X169902500Y-95653000D03*
X172452500Y-93113000D03*
X172452500Y-95653000D03*
X108802500Y-83663000D03*
X108802500Y-86203000D03*
D35*
X171756180Y-87480200D03*
X170755420Y-87480200D03*
X168753900Y-87480200D03*
X169754660Y-87480200D03*
X169754660Y-81480720D03*
X168753900Y-81480720D03*
X170755420Y-81480720D03*
X171756180Y-81480720D03*
D36*
X167250220Y-82981860D03*
X167250220Y-83982620D03*
X167250220Y-85984140D03*
X167250220Y-84983380D03*
X173252240Y-84983380D03*
X173252240Y-85984140D03*
X173252240Y-83982620D03*
X173252240Y-82981860D03*
D37*
X170252500Y-84483000D03*
D38*
X177863040Y-85902860D03*
X177352500Y-85902860D03*
X176841960Y-85902860D03*
X176841960Y-83063140D03*
X177352500Y-83063140D03*
X177863040Y-83063140D03*
D39*
X178772360Y-85493920D03*
X178772360Y-84983380D03*
X178772360Y-83482240D03*
X178772360Y-83982620D03*
X178772360Y-84483000D03*
X175932640Y-84483000D03*
X175932640Y-83982620D03*
X175932640Y-83482240D03*
X175932640Y-84983380D03*
X175932640Y-85493920D03*
D40*
X160253500Y-75222000D03*
D41*
X160253500Y-73622000D03*
X162453500Y-73622000D03*
X162453500Y-75222000D03*
D42*
X120852500Y-78835500D03*
X120852500Y-76930500D03*
X120902500Y-75035500D03*
X120902500Y-73130500D03*
X161353500Y-90995500D03*
X161353500Y-92900500D03*
D43*
X116082500Y-75035500D03*
X116082500Y-73130500D03*
X118622500Y-75035500D03*
X116082500Y-74083000D03*
X118622500Y-73130500D03*
X116082500Y-78835500D03*
X116082500Y-76930500D03*
X118622500Y-78835500D03*
X116082500Y-77883000D03*
X118622500Y-76930500D03*
D31*
X134429500Y-75628500D03*
X136334500Y-75628500D03*
D33*
X140398500Y-76390500D03*
X140398500Y-74612500D03*
X138366500Y-75501500D03*
D32*
X134874000Y-73342500D03*
X137414000Y-73342500D03*
D44*
X171005500Y-76962000D03*
X166005500Y-76962000D03*
D45*
X172005500Y-74262000D03*
X165005500Y-74262000D03*
D10*
G36*
X162105890Y-86719076D02*
X160827441Y-85440627D01*
X161363428Y-84904640D01*
X162641877Y-86183089D01*
X162105890Y-86719076D01*
X162105890Y-86719076D01*
G37*
G36*
X161752337Y-87072630D02*
X160473888Y-85794181D01*
X161009875Y-85258194D01*
X162288324Y-86536643D01*
X161752337Y-87072630D01*
X161752337Y-87072630D01*
G37*
G36*
X161398783Y-87426183D02*
X160120334Y-86147734D01*
X160656321Y-85611747D01*
X161934770Y-86890196D01*
X161398783Y-87426183D01*
X161398783Y-87426183D01*
G37*
G36*
X161045230Y-87779736D02*
X159766781Y-86501287D01*
X160302768Y-85965300D01*
X161581217Y-87243749D01*
X161045230Y-87779736D01*
X161045230Y-87779736D01*
G37*
G36*
X160691677Y-88133290D02*
X159413228Y-86854841D01*
X159949215Y-86318854D01*
X161227664Y-87597303D01*
X160691677Y-88133290D01*
X160691677Y-88133290D01*
G37*
G36*
X160338123Y-88486843D02*
X159059674Y-87208394D01*
X159595661Y-86672407D01*
X160874110Y-87950856D01*
X160338123Y-88486843D01*
X160338123Y-88486843D01*
G37*
G36*
X159984570Y-88840397D02*
X158706121Y-87561948D01*
X159242108Y-87025961D01*
X160520557Y-88304410D01*
X159984570Y-88840397D01*
X159984570Y-88840397D01*
G37*
G36*
X159631016Y-89193950D02*
X158352567Y-87915501D01*
X158888554Y-87379514D01*
X160167003Y-88657963D01*
X159631016Y-89193950D01*
X159631016Y-89193950D01*
G37*
G36*
X159277463Y-89547503D02*
X157999014Y-88269054D01*
X158535001Y-87733067D01*
X159813450Y-89011516D01*
X159277463Y-89547503D01*
X159277463Y-89547503D01*
G37*
G36*
X158923910Y-89901057D02*
X157645461Y-88622608D01*
X158181448Y-88086621D01*
X159459897Y-89365070D01*
X158923910Y-89901057D01*
X158923910Y-89901057D01*
G37*
G36*
X158570356Y-90254610D02*
X157291907Y-88976161D01*
X157827894Y-88440174D01*
X159106343Y-89718623D01*
X158570356Y-90254610D01*
X158570356Y-90254610D01*
G37*
G36*
X158216803Y-90608164D02*
X156938354Y-89329715D01*
X157474341Y-88793728D01*
X158752790Y-90072177D01*
X158216803Y-90608164D01*
X158216803Y-90608164D01*
G37*
G36*
X157863249Y-90961717D02*
X156584800Y-89683268D01*
X157120787Y-89147281D01*
X158399236Y-90425730D01*
X157863249Y-90961717D01*
X157863249Y-90961717D01*
G37*
G36*
X157509696Y-91315270D02*
X156231247Y-90036821D01*
X156767234Y-89500834D01*
X158045683Y-90779283D01*
X157509696Y-91315270D01*
X157509696Y-91315270D01*
G37*
G36*
X157156143Y-91668824D02*
X155877694Y-90390375D01*
X156413681Y-89854388D01*
X157692130Y-91132837D01*
X157156143Y-91668824D01*
X157156143Y-91668824D01*
G37*
G36*
X156802589Y-92022377D02*
X155524140Y-90743928D01*
X156060127Y-90207941D01*
X157338576Y-91486390D01*
X156802589Y-92022377D01*
X156802589Y-92022377D01*
G37*
G36*
X162641877Y-82682911D02*
X161363428Y-83961360D01*
X160827441Y-83425373D01*
X162105890Y-82146924D01*
X162641877Y-82682911D01*
X162641877Y-82682911D01*
G37*
G36*
X157338576Y-77379610D02*
X156060127Y-78658059D01*
X155524140Y-78122072D01*
X156802589Y-76843623D01*
X157338576Y-77379610D01*
X157338576Y-77379610D01*
G37*
G36*
X157692130Y-77733163D02*
X156413681Y-79011612D01*
X155877694Y-78475625D01*
X157156143Y-77197176D01*
X157692130Y-77733163D01*
X157692130Y-77733163D01*
G37*
G36*
X158045683Y-78086717D02*
X156767234Y-79365166D01*
X156231247Y-78829179D01*
X157509696Y-77550730D01*
X158045683Y-78086717D01*
X158045683Y-78086717D01*
G37*
G36*
X158399236Y-78440270D02*
X157120787Y-79718719D01*
X156584800Y-79182732D01*
X157863249Y-77904283D01*
X158399236Y-78440270D01*
X158399236Y-78440270D01*
G37*
G36*
X158752790Y-78793823D02*
X157474341Y-80072272D01*
X156938354Y-79536285D01*
X158216803Y-78257836D01*
X158752790Y-78793823D01*
X158752790Y-78793823D01*
G37*
G36*
X159106343Y-79147377D02*
X157827894Y-80425826D01*
X157291907Y-79889839D01*
X158570356Y-78611390D01*
X159106343Y-79147377D01*
X159106343Y-79147377D01*
G37*
G36*
X159459897Y-79500930D02*
X158181448Y-80779379D01*
X157645461Y-80243392D01*
X158923910Y-78964943D01*
X159459897Y-79500930D01*
X159459897Y-79500930D01*
G37*
G36*
X162288324Y-82329357D02*
X161009875Y-83607806D01*
X160473888Y-83071819D01*
X161752337Y-81793370D01*
X162288324Y-82329357D01*
X162288324Y-82329357D01*
G37*
G36*
X161934770Y-81975804D02*
X160656321Y-83254253D01*
X160120334Y-82718266D01*
X161398783Y-81439817D01*
X161934770Y-81975804D01*
X161934770Y-81975804D01*
G37*
G36*
X161581217Y-81622251D02*
X160302768Y-82900700D01*
X159766781Y-82364713D01*
X161045230Y-81086264D01*
X161581217Y-81622251D01*
X161581217Y-81622251D01*
G37*
G36*
X161227664Y-81268697D02*
X159949215Y-82547146D01*
X159413228Y-82011159D01*
X160691677Y-80732710D01*
X161227664Y-81268697D01*
X161227664Y-81268697D01*
G37*
G36*
X160874110Y-80915144D02*
X159595661Y-82193593D01*
X159059674Y-81657606D01*
X160338123Y-80379157D01*
X160874110Y-80915144D01*
X160874110Y-80915144D01*
G37*
G36*
X160520557Y-80561590D02*
X159242108Y-81840039D01*
X158706121Y-81304052D01*
X159984570Y-80025603D01*
X160520557Y-80561590D01*
X160520557Y-80561590D01*
G37*
G36*
X159813450Y-79854484D02*
X158535001Y-81132933D01*
X157999014Y-80596946D01*
X159277463Y-79318497D01*
X159813450Y-79854484D01*
X159813450Y-79854484D01*
G37*
G36*
X160167003Y-80208037D02*
X158888554Y-81486486D01*
X158352567Y-80950499D01*
X159631016Y-79672050D01*
X160167003Y-80208037D01*
X160167003Y-80208037D01*
G37*
G36*
X152105986Y-88269054D02*
X150827537Y-89547503D01*
X150291550Y-89011516D01*
X151569999Y-87733067D01*
X152105986Y-88269054D01*
X152105986Y-88269054D01*
G37*
G36*
X151752433Y-87915501D02*
X150473984Y-89193950D01*
X149937997Y-88657963D01*
X151216446Y-87379514D01*
X151752433Y-87915501D01*
X151752433Y-87915501D01*
G37*
G36*
X152459539Y-88622608D02*
X151181090Y-89901057D01*
X150645103Y-89365070D01*
X151923552Y-88086621D01*
X152459539Y-88622608D01*
X152459539Y-88622608D01*
G37*
G36*
X152813093Y-88976161D02*
X151534644Y-90254610D01*
X150998657Y-89718623D01*
X152277106Y-88440174D01*
X152813093Y-88976161D01*
X152813093Y-88976161D01*
G37*
G36*
X153166646Y-89329715D02*
X151888197Y-90608164D01*
X151352210Y-90072177D01*
X152630659Y-88793728D01*
X153166646Y-89329715D01*
X153166646Y-89329715D01*
G37*
G36*
X153520200Y-89683268D02*
X152241751Y-90961717D01*
X151705764Y-90425730D01*
X152984213Y-89147281D01*
X153520200Y-89683268D01*
X153520200Y-89683268D01*
G37*
G36*
X153873753Y-90036821D02*
X152595304Y-91315270D01*
X152059317Y-90779283D01*
X153337766Y-89500834D01*
X153873753Y-90036821D01*
X153873753Y-90036821D01*
G37*
G36*
X154227306Y-90390375D02*
X152948857Y-91668824D01*
X152412870Y-91132837D01*
X153691319Y-89854388D01*
X154227306Y-90390375D01*
X154227306Y-90390375D01*
G37*
G36*
X151398879Y-87561948D02*
X150120430Y-88840397D01*
X149584443Y-88304410D01*
X150862892Y-87025961D01*
X151398879Y-87561948D01*
X151398879Y-87561948D01*
G37*
G36*
X151045326Y-87208394D02*
X149766877Y-88486843D01*
X149230890Y-87950856D01*
X150509339Y-86672407D01*
X151045326Y-87208394D01*
X151045326Y-87208394D01*
G37*
G36*
X150691772Y-86854841D02*
X149413323Y-88133290D01*
X148877336Y-87597303D01*
X150155785Y-86318854D01*
X150691772Y-86854841D01*
X150691772Y-86854841D01*
G37*
G36*
X150338219Y-86501287D02*
X149059770Y-87779736D01*
X148523783Y-87243749D01*
X149802232Y-85965300D01*
X150338219Y-86501287D01*
X150338219Y-86501287D01*
G37*
G36*
X149984666Y-86147734D02*
X148706217Y-87426183D01*
X148170230Y-86890196D01*
X149448679Y-85611747D01*
X149984666Y-86147734D01*
X149984666Y-86147734D01*
G37*
G36*
X149631112Y-85794181D02*
X148352663Y-87072630D01*
X147816676Y-86536643D01*
X149095125Y-85258194D01*
X149631112Y-85794181D01*
X149631112Y-85794181D01*
G37*
G36*
X149277559Y-85440627D02*
X147999110Y-86719076D01*
X147463123Y-86183089D01*
X148741572Y-84904640D01*
X149277559Y-85440627D01*
X149277559Y-85440627D01*
G37*
G36*
X154580860Y-90743928D02*
X153302411Y-92022377D01*
X152766424Y-91486390D01*
X154044873Y-90207941D01*
X154580860Y-90743928D01*
X154580860Y-90743928D01*
G37*
G36*
X148741572Y-83961360D02*
X147463123Y-82682911D01*
X147999110Y-82146924D01*
X149277559Y-83425373D01*
X148741572Y-83961360D01*
X148741572Y-83961360D01*
G37*
G36*
X149095125Y-83607806D02*
X147816676Y-82329357D01*
X148352663Y-81793370D01*
X149631112Y-83071819D01*
X149095125Y-83607806D01*
X149095125Y-83607806D01*
G37*
G36*
X149448679Y-83254253D02*
X148170230Y-81975804D01*
X148706217Y-81439817D01*
X149984666Y-82718266D01*
X149448679Y-83254253D01*
X149448679Y-83254253D01*
G37*
G36*
X149802232Y-82900700D02*
X148523783Y-81622251D01*
X149059770Y-81086264D01*
X150338219Y-82364713D01*
X149802232Y-82900700D01*
X149802232Y-82900700D01*
G37*
G36*
X150155785Y-82547146D02*
X148877336Y-81268697D01*
X149413323Y-80732710D01*
X150691772Y-82011159D01*
X150155785Y-82547146D01*
X150155785Y-82547146D01*
G37*
G36*
X150509339Y-82193593D02*
X149230890Y-80915144D01*
X149766877Y-80379157D01*
X151045326Y-81657606D01*
X150509339Y-82193593D01*
X150509339Y-82193593D01*
G37*
G36*
X150862892Y-81840039D02*
X149584443Y-80561590D01*
X150120430Y-80025603D01*
X151398879Y-81304052D01*
X150862892Y-81840039D01*
X150862892Y-81840039D01*
G37*
G36*
X151216446Y-81486486D02*
X149937997Y-80208037D01*
X150473984Y-79672050D01*
X151752433Y-80950499D01*
X151216446Y-81486486D01*
X151216446Y-81486486D01*
G37*
G36*
X151569999Y-81132933D02*
X150291550Y-79854484D01*
X150827537Y-79318497D01*
X152105986Y-80596946D01*
X151569999Y-81132933D01*
X151569999Y-81132933D01*
G37*
G36*
X151923552Y-80779379D02*
X150645103Y-79500930D01*
X151181090Y-78964943D01*
X152459539Y-80243392D01*
X151923552Y-80779379D01*
X151923552Y-80779379D01*
G37*
G36*
X152277106Y-80425826D02*
X150998657Y-79147377D01*
X151534644Y-78611390D01*
X152813093Y-79889839D01*
X152277106Y-80425826D01*
X152277106Y-80425826D01*
G37*
G36*
X152630659Y-80072272D02*
X151352210Y-78793823D01*
X151888197Y-78257836D01*
X153166646Y-79536285D01*
X152630659Y-80072272D01*
X152630659Y-80072272D01*
G37*
G36*
X152984213Y-79718719D02*
X151705764Y-78440270D01*
X152241751Y-77904283D01*
X153520200Y-79182732D01*
X152984213Y-79718719D01*
X152984213Y-79718719D01*
G37*
G36*
X153337766Y-79365166D02*
X152059317Y-78086717D01*
X152595304Y-77550730D01*
X153873753Y-78829179D01*
X153337766Y-79365166D01*
X153337766Y-79365166D01*
G37*
G36*
X153691319Y-79011612D02*
X152412870Y-77733163D01*
X152948857Y-77197176D01*
X154227306Y-78475625D01*
X153691319Y-79011612D01*
X153691319Y-79011612D01*
G37*
G36*
X154044873Y-78658059D02*
X152766424Y-77379610D01*
X153302411Y-76843623D01*
X154580860Y-78122072D01*
X154044873Y-78658059D01*
X154044873Y-78658059D01*
G37*
D46*
G36*
X117275500Y-84806000D02*
X110629500Y-84806000D01*
X110629500Y-83160000D01*
X117275500Y-83160000D01*
X117275500Y-84806000D01*
X117275500Y-84806000D01*
G37*
X117275500Y-84806000D02*
X110629500Y-84806000D01*
X110629500Y-83160000D01*
X117275500Y-83160000D01*
X117275500Y-84806000D01*
G36*
X117275500Y-87606000D02*
X110629500Y-87606000D01*
X110629500Y-85960000D01*
X117275500Y-85960000D01*
X117275500Y-87606000D01*
X117275500Y-87606000D01*
G37*
X117275500Y-87606000D02*
X110629500Y-87606000D01*
X110629500Y-85960000D01*
X117275500Y-85960000D01*
X117275500Y-87606000D01*
M02*
