G04 #@! TF.FileFunction,Copper,L2,Bot,Signal*
%FSLAX46Y46*%
G04 Gerber Fmt 4.6, Leading zero omitted, Abs format (unit mm)*
G04 Created by KiCad (PCBNEW 4.0.0-rc2-stable) date 2016-03-30 14:05:51*
%MOMM*%
G01*
G04 APERTURE LIST*
%ADD10C,0.150000*%
%ADD11C,0.224790*%
%ADD12C,3.606800*%
%ADD13R,0.900000X0.750000*%
%ADD14R,0.750000X0.900000*%
%ADD15R,2.032000X1.524000*%
%ADD16R,0.889000X1.397000*%
%ADD17C,1.600200*%
%ADD18R,0.914400X0.914400*%
%ADD19C,1.998980*%
%ADD20R,0.599440X1.198880*%
%ADD21R,1.198880X0.599440*%
%ADD22R,4.241800X4.241800*%
%ADD23R,0.231140X0.800000*%
%ADD24R,0.800000X0.231140*%
%ADD25R,1.500000X1.150000*%
%ADD26R,1.400000X1.150000*%
%ADD27R,1.397000X0.889000*%
%ADD28R,0.762000X0.508000*%
%ADD29C,1.450000*%
%ADD30O,1.200000X1.900000*%
%ADD31C,0.640080*%
%ADD32C,0.381000*%
%ADD33C,0.508000*%
%ADD34C,0.254000*%
%ADD35C,0.304800*%
%ADD36C,1.016000*%
%ADD37C,0.354000*%
G04 APERTURE END LIST*
D10*
D11*
X121132999Y-92077377D02*
X120704428Y-92077377D01*
X121218714Y-92363091D02*
X120918714Y-91363091D01*
X120618714Y-92363091D01*
X120318713Y-92267853D02*
X120275856Y-92315472D01*
X120318713Y-92363091D01*
X120361570Y-92315472D01*
X120318713Y-92267853D01*
X120318713Y-92363091D01*
X119890142Y-92363091D02*
X119890142Y-91363091D01*
X119547285Y-91363091D01*
X119461571Y-91410710D01*
X119418714Y-91458329D01*
X119375857Y-91553567D01*
X119375857Y-91696424D01*
X119418714Y-91791662D01*
X119461571Y-91839281D01*
X119547285Y-91886900D01*
X119890142Y-91886900D01*
X118990142Y-92267853D02*
X118947285Y-92315472D01*
X118990142Y-92363091D01*
X119032999Y-92315472D01*
X118990142Y-92267853D01*
X118990142Y-92363091D01*
X117918714Y-91458329D02*
X117875857Y-91410710D01*
X117790143Y-91363091D01*
X117575857Y-91363091D01*
X117490143Y-91410710D01*
X117447286Y-91458329D01*
X117404429Y-91553567D01*
X117404429Y-91648805D01*
X117447286Y-91791662D01*
X117961572Y-92363091D01*
X117404429Y-92363091D01*
X116847286Y-91363091D02*
X116761571Y-91363091D01*
X116675857Y-91410710D01*
X116633000Y-91458329D01*
X116590143Y-91553567D01*
X116547286Y-91744043D01*
X116547286Y-91982139D01*
X116590143Y-92172615D01*
X116633000Y-92267853D01*
X116675857Y-92315472D01*
X116761571Y-92363091D01*
X116847286Y-92363091D01*
X116933000Y-92315472D01*
X116975857Y-92267853D01*
X117018714Y-92172615D01*
X117061571Y-91982139D01*
X117061571Y-91744043D01*
X117018714Y-91553567D01*
X116975857Y-91458329D01*
X116933000Y-91410710D01*
X116847286Y-91363091D01*
X115690143Y-92363091D02*
X116204428Y-92363091D01*
X115947286Y-92363091D02*
X115947286Y-91363091D01*
X116033000Y-91505948D01*
X116118714Y-91601186D01*
X116204428Y-91648805D01*
X114918714Y-91363091D02*
X115090143Y-91363091D01*
X115175857Y-91410710D01*
X115218714Y-91458329D01*
X115304428Y-91601186D01*
X115347285Y-91791662D01*
X115347285Y-92172615D01*
X115304428Y-92267853D01*
X115261571Y-92315472D01*
X115175857Y-92363091D01*
X115004428Y-92363091D01*
X114918714Y-92315472D01*
X114875857Y-92267853D01*
X114833000Y-92172615D01*
X114833000Y-91934520D01*
X114875857Y-91839281D01*
X114918714Y-91791662D01*
X115004428Y-91744043D01*
X115175857Y-91744043D01*
X115261571Y-91791662D01*
X115304428Y-91839281D01*
X115347285Y-91934520D01*
X121733000Y-93702167D02*
X121304429Y-93702167D01*
X121818715Y-93987881D02*
X121518715Y-92987881D01*
X121218715Y-93987881D01*
X120404429Y-93987881D02*
X120704429Y-93511690D01*
X120918714Y-93987881D02*
X120918714Y-92987881D01*
X120575857Y-92987881D01*
X120490143Y-93035500D01*
X120447286Y-93083119D01*
X120404429Y-93178357D01*
X120404429Y-93321214D01*
X120447286Y-93416452D01*
X120490143Y-93464071D01*
X120575857Y-93511690D01*
X120918714Y-93511690D01*
X120018714Y-93464071D02*
X119718714Y-93464071D01*
X119590143Y-93987881D02*
X120018714Y-93987881D01*
X120018714Y-92987881D01*
X119590143Y-92987881D01*
X118690143Y-93892643D02*
X118733000Y-93940262D01*
X118861571Y-93987881D01*
X118947285Y-93987881D01*
X119075857Y-93940262D01*
X119161571Y-93845024D01*
X119204428Y-93749786D01*
X119247285Y-93559310D01*
X119247285Y-93416452D01*
X119204428Y-93225976D01*
X119161571Y-93130738D01*
X119075857Y-93035500D01*
X118947285Y-92987881D01*
X118861571Y-92987881D01*
X118733000Y-93035500D01*
X118690143Y-93083119D01*
X118133000Y-92987881D02*
X117961571Y-92987881D01*
X117875857Y-93035500D01*
X117790143Y-93130738D01*
X117747285Y-93321214D01*
X117747285Y-93654548D01*
X117790143Y-93845024D01*
X117875857Y-93940262D01*
X117961571Y-93987881D01*
X118133000Y-93987881D01*
X118218714Y-93940262D01*
X118304428Y-93845024D01*
X118347285Y-93654548D01*
X118347285Y-93321214D01*
X118304428Y-93130738D01*
X118218714Y-93035500D01*
X118133000Y-92987881D01*
X116847286Y-93987881D02*
X117147286Y-93511690D01*
X117361571Y-93987881D02*
X117361571Y-92987881D01*
X117018714Y-92987881D01*
X116933000Y-93035500D01*
X116890143Y-93083119D01*
X116847286Y-93178357D01*
X116847286Y-93321214D01*
X116890143Y-93416452D01*
X116933000Y-93464071D01*
X117018714Y-93511690D01*
X117361571Y-93511690D01*
X116461571Y-93987881D02*
X116461571Y-92987881D01*
X116247286Y-92987881D01*
X116118714Y-93035500D01*
X116033000Y-93130738D01*
X115990143Y-93225976D01*
X115947286Y-93416452D01*
X115947286Y-93559310D01*
X115990143Y-93749786D01*
X116033000Y-93845024D01*
X116118714Y-93940262D01*
X116247286Y-93987881D01*
X116461571Y-93987881D01*
X115561571Y-93464071D02*
X115261571Y-93464071D01*
X115133000Y-93987881D02*
X115561571Y-93987881D01*
X115561571Y-92987881D01*
X115133000Y-92987881D01*
X114233000Y-93987881D02*
X114533000Y-93511690D01*
X114747285Y-93987881D02*
X114747285Y-92987881D01*
X114404428Y-92987881D01*
X114318714Y-93035500D01*
X114275857Y-93083119D01*
X114233000Y-93178357D01*
X114233000Y-93321214D01*
X114275857Y-93416452D01*
X114318714Y-93464071D01*
X114404428Y-93511690D01*
X114747285Y-93511690D01*
X119268714Y-94946004D02*
X119054428Y-95612671D01*
X118840142Y-94946004D01*
X118540142Y-94707909D02*
X118497285Y-94660290D01*
X118411571Y-94612671D01*
X118197285Y-94612671D01*
X118111571Y-94660290D01*
X118068714Y-94707909D01*
X118025857Y-94803147D01*
X118025857Y-94898385D01*
X118068714Y-95041242D01*
X118583000Y-95612671D01*
X118025857Y-95612671D01*
X117640142Y-95517433D02*
X117597285Y-95565052D01*
X117640142Y-95612671D01*
X117682999Y-95565052D01*
X117640142Y-95517433D01*
X117640142Y-95612671D01*
X117254428Y-94707909D02*
X117211571Y-94660290D01*
X117125857Y-94612671D01*
X116911571Y-94612671D01*
X116825857Y-94660290D01*
X116783000Y-94707909D01*
X116740143Y-94803147D01*
X116740143Y-94898385D01*
X116783000Y-95041242D01*
X117297286Y-95612671D01*
X116740143Y-95612671D01*
D12*
X110261400Y-74930000D03*
X110261400Y-93929200D03*
X178282600Y-74930000D03*
X178282600Y-93929200D03*
D13*
X145752500Y-82583000D03*
X145752500Y-80983000D03*
D14*
X150802500Y-78183000D03*
X149202500Y-78183000D03*
D13*
X156019500Y-74904500D03*
X156019500Y-73304500D03*
D14*
X161188500Y-77279500D03*
X162788500Y-77279500D03*
D13*
X158178500Y-73304500D03*
X158178500Y-74904500D03*
X169602500Y-89183000D03*
X169602500Y-90783000D03*
X171902500Y-89183000D03*
X171902500Y-90783000D03*
X164782500Y-82905500D03*
X164782500Y-81305500D03*
D14*
X176822000Y-80200500D03*
X175222000Y-80200500D03*
D15*
X113502500Y-82284000D03*
X113502500Y-78982000D03*
D16*
X127825500Y-78422500D03*
X129730500Y-78422500D03*
X125857000Y-73279000D03*
X127762000Y-73279000D03*
D17*
X159132500Y-95683000D03*
X156592500Y-95683000D03*
X154052500Y-95683000D03*
X151512500Y-95683000D03*
X148972500Y-95683000D03*
X167392500Y-95683000D03*
X164852500Y-95683000D03*
X162312500Y-95683000D03*
X125197500Y-93133000D03*
X129007500Y-93133000D03*
X132797500Y-93133000D03*
X136607500Y-93133000D03*
X140447500Y-93133000D03*
X144257500Y-93133000D03*
D18*
X125891500Y-85217000D03*
X124113500Y-85217000D03*
X125002500Y-87249000D03*
X133541500Y-85267000D03*
X131763500Y-85267000D03*
X132652500Y-87299000D03*
X129891500Y-88567000D03*
X128113500Y-88567000D03*
X129002500Y-90599000D03*
X137491500Y-88567000D03*
X135713500Y-88567000D03*
X136602500Y-90599000D03*
X145191500Y-88567000D03*
X143413500Y-88567000D03*
X144302500Y-90599000D03*
X141141500Y-85267000D03*
X139363500Y-85267000D03*
X140252500Y-87299000D03*
X138938000Y-79629000D03*
X138938000Y-77851000D03*
X136906000Y-78740000D03*
D14*
X158013500Y-92837000D03*
X159613500Y-92837000D03*
D13*
X154686000Y-73304500D03*
X154686000Y-74904500D03*
X153352500Y-73304500D03*
X153352500Y-74904500D03*
X128152500Y-87033000D03*
X128152500Y-85433000D03*
X129802500Y-87033000D03*
X129802500Y-85433000D03*
X125002500Y-90633000D03*
X125002500Y-89033000D03*
D14*
X125501500Y-82740500D03*
X127101500Y-82740500D03*
D13*
X135752500Y-87033000D03*
X135752500Y-85433000D03*
X137352500Y-87033000D03*
X137352500Y-85433000D03*
X132652500Y-90633000D03*
X132652500Y-89033000D03*
D14*
X132352500Y-82983000D03*
X130752500Y-82983000D03*
D13*
X143402500Y-87033000D03*
X143402500Y-85433000D03*
X145102500Y-87033000D03*
X145102500Y-85433000D03*
X140252500Y-90633000D03*
X140252500Y-89033000D03*
D14*
X140102500Y-83433000D03*
X138502500Y-83433000D03*
X147502500Y-89983000D03*
X149102500Y-89983000D03*
X140487500Y-77978000D03*
X142087500Y-77978000D03*
X146752500Y-91933000D03*
X148352500Y-91933000D03*
X149302500Y-91933000D03*
X150902500Y-91933000D03*
X142087500Y-79311500D03*
X140487500Y-79311500D03*
X129311500Y-73279000D03*
X130911500Y-73279000D03*
D19*
X132562500Y-78408000D03*
X124942500Y-78408000D03*
D17*
X169902500Y-93113000D03*
X169902500Y-95653000D03*
X172452500Y-93113000D03*
X172452500Y-95653000D03*
X108802500Y-83663000D03*
X108802500Y-86203000D03*
D20*
X171756180Y-87480200D03*
X170755420Y-87480200D03*
X168753900Y-87480200D03*
X169754660Y-87480200D03*
X169754660Y-81480720D03*
X168753900Y-81480720D03*
X170755420Y-81480720D03*
X171756180Y-81480720D03*
D21*
X167250220Y-82981860D03*
X167250220Y-83982620D03*
X167250220Y-85984140D03*
X167250220Y-84983380D03*
X173252240Y-84983380D03*
X173252240Y-85984140D03*
X173252240Y-83982620D03*
X173252240Y-82981860D03*
D22*
X170252500Y-84483000D03*
D23*
X177863040Y-85902860D03*
X177352500Y-85902860D03*
X176841960Y-85902860D03*
X176841960Y-83063140D03*
X177352500Y-83063140D03*
X177863040Y-83063140D03*
D24*
X178772360Y-85493920D03*
X178772360Y-84983380D03*
X178772360Y-83482240D03*
X178772360Y-83982620D03*
X178772360Y-84483000D03*
X175932640Y-84483000D03*
X175932640Y-83982620D03*
X175932640Y-83482240D03*
X175932640Y-84983380D03*
X175932640Y-85493920D03*
D25*
X160253500Y-75222000D03*
D26*
X160253500Y-73622000D03*
X162453500Y-73622000D03*
X162453500Y-75222000D03*
D27*
X120852500Y-78835500D03*
X120852500Y-76930500D03*
X120902500Y-75035500D03*
X120902500Y-73130500D03*
X161353500Y-90995500D03*
X161353500Y-92900500D03*
D28*
X116082500Y-75035500D03*
X116082500Y-73130500D03*
X118622500Y-75035500D03*
X116082500Y-74083000D03*
X118622500Y-73130500D03*
X116082500Y-78835500D03*
X116082500Y-76930500D03*
X118622500Y-78835500D03*
X116082500Y-77883000D03*
X118622500Y-76930500D03*
D16*
X134429500Y-75628500D03*
X136334500Y-75628500D03*
D18*
X140398500Y-76390500D03*
X140398500Y-74612500D03*
X138366500Y-75501500D03*
D17*
X134874000Y-73342500D03*
X137414000Y-73342500D03*
D29*
X171005500Y-76962000D03*
X166005500Y-76962000D03*
D30*
X172005500Y-74262000D03*
X165005500Y-74262000D03*
D10*
G36*
X162105890Y-86359866D02*
X161186651Y-85440627D01*
X161363428Y-85263850D01*
X162282667Y-86183089D01*
X162105890Y-86359866D01*
X162105890Y-86359866D01*
G37*
G36*
X161752337Y-86713420D02*
X160833098Y-85794181D01*
X161009875Y-85617404D01*
X161929114Y-86536643D01*
X161752337Y-86713420D01*
X161752337Y-86713420D01*
G37*
G36*
X161398783Y-87066973D02*
X160479544Y-86147734D01*
X160656321Y-85970957D01*
X161575560Y-86890196D01*
X161398783Y-87066973D01*
X161398783Y-87066973D01*
G37*
G36*
X161045230Y-87420526D02*
X160125991Y-86501287D01*
X160302768Y-86324510D01*
X161222007Y-87243749D01*
X161045230Y-87420526D01*
X161045230Y-87420526D01*
G37*
G36*
X160691677Y-87774080D02*
X159772438Y-86854841D01*
X159949215Y-86678064D01*
X160868454Y-87597303D01*
X160691677Y-87774080D01*
X160691677Y-87774080D01*
G37*
G36*
X160338123Y-88127633D02*
X159418884Y-87208394D01*
X159595661Y-87031617D01*
X160514900Y-87950856D01*
X160338123Y-88127633D01*
X160338123Y-88127633D01*
G37*
G36*
X159984570Y-88481187D02*
X159065331Y-87561948D01*
X159242108Y-87385171D01*
X160161347Y-88304410D01*
X159984570Y-88481187D01*
X159984570Y-88481187D01*
G37*
G36*
X159631016Y-88834740D02*
X158711777Y-87915501D01*
X158888554Y-87738724D01*
X159807793Y-88657963D01*
X159631016Y-88834740D01*
X159631016Y-88834740D01*
G37*
G36*
X159277463Y-89188293D02*
X158358224Y-88269054D01*
X158535001Y-88092277D01*
X159454240Y-89011516D01*
X159277463Y-89188293D01*
X159277463Y-89188293D01*
G37*
G36*
X158923910Y-89541847D02*
X158004671Y-88622608D01*
X158181448Y-88445831D01*
X159100687Y-89365070D01*
X158923910Y-89541847D01*
X158923910Y-89541847D01*
G37*
G36*
X158570356Y-89895400D02*
X157651117Y-88976161D01*
X157827894Y-88799384D01*
X158747133Y-89718623D01*
X158570356Y-89895400D01*
X158570356Y-89895400D01*
G37*
G36*
X158216803Y-90248954D02*
X157297564Y-89329715D01*
X157474341Y-89152938D01*
X158393580Y-90072177D01*
X158216803Y-90248954D01*
X158216803Y-90248954D01*
G37*
G36*
X157863249Y-90602507D02*
X156944010Y-89683268D01*
X157120787Y-89506491D01*
X158040026Y-90425730D01*
X157863249Y-90602507D01*
X157863249Y-90602507D01*
G37*
G36*
X157509696Y-90956060D02*
X156590457Y-90036821D01*
X156767234Y-89860044D01*
X157686473Y-90779283D01*
X157509696Y-90956060D01*
X157509696Y-90956060D01*
G37*
G36*
X157156143Y-91309614D02*
X156236904Y-90390375D01*
X156413681Y-90213598D01*
X157332920Y-91132837D01*
X157156143Y-91309614D01*
X157156143Y-91309614D01*
G37*
G36*
X156802589Y-91663167D02*
X155883350Y-90743928D01*
X156060127Y-90567151D01*
X156979366Y-91486390D01*
X156802589Y-91663167D01*
X156802589Y-91663167D01*
G37*
G36*
X162282667Y-82682911D02*
X161363428Y-83602150D01*
X161186651Y-83425373D01*
X162105890Y-82506134D01*
X162282667Y-82682911D01*
X162282667Y-82682911D01*
G37*
G36*
X156979366Y-77379610D02*
X156060127Y-78298849D01*
X155883350Y-78122072D01*
X156802589Y-77202833D01*
X156979366Y-77379610D01*
X156979366Y-77379610D01*
G37*
G36*
X157332920Y-77733163D02*
X156413681Y-78652402D01*
X156236904Y-78475625D01*
X157156143Y-77556386D01*
X157332920Y-77733163D01*
X157332920Y-77733163D01*
G37*
G36*
X157686473Y-78086717D02*
X156767234Y-79005956D01*
X156590457Y-78829179D01*
X157509696Y-77909940D01*
X157686473Y-78086717D01*
X157686473Y-78086717D01*
G37*
G36*
X158040026Y-78440270D02*
X157120787Y-79359509D01*
X156944010Y-79182732D01*
X157863249Y-78263493D01*
X158040026Y-78440270D01*
X158040026Y-78440270D01*
G37*
G36*
X158393580Y-78793823D02*
X157474341Y-79713062D01*
X157297564Y-79536285D01*
X158216803Y-78617046D01*
X158393580Y-78793823D01*
X158393580Y-78793823D01*
G37*
G36*
X158747133Y-79147377D02*
X157827894Y-80066616D01*
X157651117Y-79889839D01*
X158570356Y-78970600D01*
X158747133Y-79147377D01*
X158747133Y-79147377D01*
G37*
G36*
X159100687Y-79500930D02*
X158181448Y-80420169D01*
X158004671Y-80243392D01*
X158923910Y-79324153D01*
X159100687Y-79500930D01*
X159100687Y-79500930D01*
G37*
G36*
X161929114Y-82329357D02*
X161009875Y-83248596D01*
X160833098Y-83071819D01*
X161752337Y-82152580D01*
X161929114Y-82329357D01*
X161929114Y-82329357D01*
G37*
G36*
X161575560Y-81975804D02*
X160656321Y-82895043D01*
X160479544Y-82718266D01*
X161398783Y-81799027D01*
X161575560Y-81975804D01*
X161575560Y-81975804D01*
G37*
G36*
X161222007Y-81622251D02*
X160302768Y-82541490D01*
X160125991Y-82364713D01*
X161045230Y-81445474D01*
X161222007Y-81622251D01*
X161222007Y-81622251D01*
G37*
G36*
X160868454Y-81268697D02*
X159949215Y-82187936D01*
X159772438Y-82011159D01*
X160691677Y-81091920D01*
X160868454Y-81268697D01*
X160868454Y-81268697D01*
G37*
G36*
X160514900Y-80915144D02*
X159595661Y-81834383D01*
X159418884Y-81657606D01*
X160338123Y-80738367D01*
X160514900Y-80915144D01*
X160514900Y-80915144D01*
G37*
G36*
X160161347Y-80561590D02*
X159242108Y-81480829D01*
X159065331Y-81304052D01*
X159984570Y-80384813D01*
X160161347Y-80561590D01*
X160161347Y-80561590D01*
G37*
G36*
X159454240Y-79854484D02*
X158535001Y-80773723D01*
X158358224Y-80596946D01*
X159277463Y-79677707D01*
X159454240Y-79854484D01*
X159454240Y-79854484D01*
G37*
G36*
X159807793Y-80208037D02*
X158888554Y-81127276D01*
X158711777Y-80950499D01*
X159631016Y-80031260D01*
X159807793Y-80208037D01*
X159807793Y-80208037D01*
G37*
G36*
X151746776Y-88269054D02*
X150827537Y-89188293D01*
X150650760Y-89011516D01*
X151569999Y-88092277D01*
X151746776Y-88269054D01*
X151746776Y-88269054D01*
G37*
G36*
X151393223Y-87915501D02*
X150473984Y-88834740D01*
X150297207Y-88657963D01*
X151216446Y-87738724D01*
X151393223Y-87915501D01*
X151393223Y-87915501D01*
G37*
G36*
X152100329Y-88622608D02*
X151181090Y-89541847D01*
X151004313Y-89365070D01*
X151923552Y-88445831D01*
X152100329Y-88622608D01*
X152100329Y-88622608D01*
G37*
G36*
X152453883Y-88976161D02*
X151534644Y-89895400D01*
X151357867Y-89718623D01*
X152277106Y-88799384D01*
X152453883Y-88976161D01*
X152453883Y-88976161D01*
G37*
G36*
X152807436Y-89329715D02*
X151888197Y-90248954D01*
X151711420Y-90072177D01*
X152630659Y-89152938D01*
X152807436Y-89329715D01*
X152807436Y-89329715D01*
G37*
G36*
X153160990Y-89683268D02*
X152241751Y-90602507D01*
X152064974Y-90425730D01*
X152984213Y-89506491D01*
X153160990Y-89683268D01*
X153160990Y-89683268D01*
G37*
G36*
X153514543Y-90036821D02*
X152595304Y-90956060D01*
X152418527Y-90779283D01*
X153337766Y-89860044D01*
X153514543Y-90036821D01*
X153514543Y-90036821D01*
G37*
G36*
X153868096Y-90390375D02*
X152948857Y-91309614D01*
X152772080Y-91132837D01*
X153691319Y-90213598D01*
X153868096Y-90390375D01*
X153868096Y-90390375D01*
G37*
G36*
X151039669Y-87561948D02*
X150120430Y-88481187D01*
X149943653Y-88304410D01*
X150862892Y-87385171D01*
X151039669Y-87561948D01*
X151039669Y-87561948D01*
G37*
G36*
X150686116Y-87208394D02*
X149766877Y-88127633D01*
X149590100Y-87950856D01*
X150509339Y-87031617D01*
X150686116Y-87208394D01*
X150686116Y-87208394D01*
G37*
G36*
X150332562Y-86854841D02*
X149413323Y-87774080D01*
X149236546Y-87597303D01*
X150155785Y-86678064D01*
X150332562Y-86854841D01*
X150332562Y-86854841D01*
G37*
G36*
X149979009Y-86501287D02*
X149059770Y-87420526D01*
X148882993Y-87243749D01*
X149802232Y-86324510D01*
X149979009Y-86501287D01*
X149979009Y-86501287D01*
G37*
G36*
X149625456Y-86147734D02*
X148706217Y-87066973D01*
X148529440Y-86890196D01*
X149448679Y-85970957D01*
X149625456Y-86147734D01*
X149625456Y-86147734D01*
G37*
G36*
X149271902Y-85794181D02*
X148352663Y-86713420D01*
X148175886Y-86536643D01*
X149095125Y-85617404D01*
X149271902Y-85794181D01*
X149271902Y-85794181D01*
G37*
G36*
X148918349Y-85440627D02*
X147999110Y-86359866D01*
X147822333Y-86183089D01*
X148741572Y-85263850D01*
X148918349Y-85440627D01*
X148918349Y-85440627D01*
G37*
G36*
X154221650Y-90743928D02*
X153302411Y-91663167D01*
X153125634Y-91486390D01*
X154044873Y-90567151D01*
X154221650Y-90743928D01*
X154221650Y-90743928D01*
G37*
G36*
X148741572Y-83602150D02*
X147822333Y-82682911D01*
X147999110Y-82506134D01*
X148918349Y-83425373D01*
X148741572Y-83602150D01*
X148741572Y-83602150D01*
G37*
G36*
X149095125Y-83248596D02*
X148175886Y-82329357D01*
X148352663Y-82152580D01*
X149271902Y-83071819D01*
X149095125Y-83248596D01*
X149095125Y-83248596D01*
G37*
G36*
X149448679Y-82895043D02*
X148529440Y-81975804D01*
X148706217Y-81799027D01*
X149625456Y-82718266D01*
X149448679Y-82895043D01*
X149448679Y-82895043D01*
G37*
G36*
X149802232Y-82541490D02*
X148882993Y-81622251D01*
X149059770Y-81445474D01*
X149979009Y-82364713D01*
X149802232Y-82541490D01*
X149802232Y-82541490D01*
G37*
G36*
X150155785Y-82187936D02*
X149236546Y-81268697D01*
X149413323Y-81091920D01*
X150332562Y-82011159D01*
X150155785Y-82187936D01*
X150155785Y-82187936D01*
G37*
G36*
X150509339Y-81834383D02*
X149590100Y-80915144D01*
X149766877Y-80738367D01*
X150686116Y-81657606D01*
X150509339Y-81834383D01*
X150509339Y-81834383D01*
G37*
G36*
X150862892Y-81480829D02*
X149943653Y-80561590D01*
X150120430Y-80384813D01*
X151039669Y-81304052D01*
X150862892Y-81480829D01*
X150862892Y-81480829D01*
G37*
G36*
X151216446Y-81127276D02*
X150297207Y-80208037D01*
X150473984Y-80031260D01*
X151393223Y-80950499D01*
X151216446Y-81127276D01*
X151216446Y-81127276D01*
G37*
G36*
X151569999Y-80773723D02*
X150650760Y-79854484D01*
X150827537Y-79677707D01*
X151746776Y-80596946D01*
X151569999Y-80773723D01*
X151569999Y-80773723D01*
G37*
G36*
X151923552Y-80420169D02*
X151004313Y-79500930D01*
X151181090Y-79324153D01*
X152100329Y-80243392D01*
X151923552Y-80420169D01*
X151923552Y-80420169D01*
G37*
G36*
X152277106Y-80066616D02*
X151357867Y-79147377D01*
X151534644Y-78970600D01*
X152453883Y-79889839D01*
X152277106Y-80066616D01*
X152277106Y-80066616D01*
G37*
G36*
X152630659Y-79713062D02*
X151711420Y-78793823D01*
X151888197Y-78617046D01*
X152807436Y-79536285D01*
X152630659Y-79713062D01*
X152630659Y-79713062D01*
G37*
G36*
X152984213Y-79359509D02*
X152064974Y-78440270D01*
X152241751Y-78263493D01*
X153160990Y-79182732D01*
X152984213Y-79359509D01*
X152984213Y-79359509D01*
G37*
G36*
X153337766Y-79005956D02*
X152418527Y-78086717D01*
X152595304Y-77909940D01*
X153514543Y-78829179D01*
X153337766Y-79005956D01*
X153337766Y-79005956D01*
G37*
G36*
X153691319Y-78652402D02*
X152772080Y-77733163D01*
X152948857Y-77556386D01*
X153868096Y-78475625D01*
X153691319Y-78652402D01*
X153691319Y-78652402D01*
G37*
G36*
X154044873Y-78298849D02*
X153125634Y-77379610D01*
X153302411Y-77202833D01*
X154221650Y-78122072D01*
X154044873Y-78298849D01*
X154044873Y-78298849D01*
G37*
D31*
X122110500Y-78803500D03*
X155765500Y-90043000D03*
X174498000Y-81534000D03*
X166116000Y-81280000D03*
X156711000Y-81033000D03*
X145478500Y-74104500D03*
X123825000Y-73279000D03*
X114052500Y-76983000D03*
X122252500Y-75033000D03*
X175577500Y-87503000D03*
X163852500Y-84783000D03*
X173418500Y-77025500D03*
X163258500Y-82931000D03*
X131000500Y-77089000D03*
X126428500Y-77089000D03*
X132016500Y-74358500D03*
X134874000Y-77279500D03*
X123317000Y-78803500D03*
X143252500Y-79733000D03*
X154305000Y-88519000D03*
X157099000Y-74739500D03*
X163830000Y-77724000D03*
X149225000Y-76771500D03*
X122555000Y-76962000D03*
X122477500Y-73783000D03*
X134777500Y-80633000D03*
X147802500Y-94283000D03*
X174652500Y-84983380D03*
X173799500Y-90741500D03*
X154402500Y-92433000D03*
X157902500Y-94583000D03*
X145452500Y-76783000D03*
X137352500Y-83833000D03*
X129802500Y-83483000D03*
X128352500Y-82533000D03*
X145102500Y-84283000D03*
X110902500Y-86583000D03*
X112952500Y-89433000D03*
X108852500Y-88333000D03*
X110702500Y-88383000D03*
X145852500Y-87933000D03*
X138502500Y-88083000D03*
X130952500Y-88183000D03*
X138552500Y-89083000D03*
X131002500Y-89133000D03*
X146252500Y-88783000D03*
X156083000Y-82931000D03*
X151952500Y-82833000D03*
X177165000Y-87566500D03*
X165452500Y-84783000D03*
X178252500Y-87533000D03*
X170751500Y-80264000D03*
X147202500Y-86433000D03*
X125877500Y-83758000D03*
X146452500Y-85633000D03*
X133527500Y-83633000D03*
X146102500Y-84583000D03*
X142502500Y-84433000D03*
X149152500Y-88683000D03*
X150622000Y-85979000D03*
X145478500Y-74993500D03*
X169735500Y-80264000D03*
X178052500Y-80583000D03*
X145478500Y-75882500D03*
X151828500Y-77851000D03*
X153543000Y-79756000D03*
X155384500Y-78041500D03*
X154368500Y-79057500D03*
X152019000Y-85280500D03*
X158902500Y-78483000D03*
X156781500Y-79946500D03*
X133223000Y-74358500D03*
X140398500Y-72453500D03*
X169799000Y-74803000D03*
X162977500Y-87208000D03*
D32*
X166116000Y-81280000D02*
X168049500Y-81280000D01*
X168049500Y-81280000D02*
X168250220Y-81480720D01*
X168250220Y-81480720D02*
X168753900Y-81480720D01*
X164782500Y-81305500D02*
X165836500Y-81305500D01*
X165836500Y-81305500D02*
X166116000Y-81280000D01*
D33*
X122110500Y-78803500D02*
X120884500Y-78803500D01*
X120884500Y-78803500D02*
X120852500Y-78835500D01*
D32*
X152082500Y-84383000D02*
X152328000Y-84383000D01*
X152328000Y-84383000D02*
X152844500Y-84899500D01*
X152082500Y-84383000D02*
X152535500Y-84383000D01*
X152535500Y-84383000D02*
X152844500Y-84074000D01*
X152137170Y-86287670D02*
X152844500Y-85580340D01*
X152844500Y-85580340D02*
X152844500Y-84899500D01*
X151320500Y-84383000D02*
X152082500Y-84383000D01*
X151638000Y-84383000D02*
X151320500Y-84383000D01*
X152302500Y-84383000D02*
X151638000Y-84383000D01*
X152844500Y-81534000D02*
X152844500Y-81441000D01*
X152844500Y-81441000D02*
X153252500Y-81033000D01*
X152844500Y-86083000D02*
X152844500Y-84074000D01*
X152844500Y-84074000D02*
X152844500Y-81534000D01*
X152844500Y-81534000D02*
X152844500Y-81164340D01*
X152844500Y-81164340D02*
X152557830Y-80877670D01*
X153098500Y-86083000D02*
X156123500Y-86083000D01*
D34*
X158322974Y-88057027D02*
X157719724Y-88057027D01*
X157861000Y-88011000D02*
X157719724Y-88011000D01*
X157765751Y-88011000D02*
X157861000Y-88011000D01*
X157719724Y-88057027D02*
X157765751Y-88011000D01*
D32*
X157719724Y-87453777D02*
X157719724Y-88011000D01*
X157719724Y-88011000D02*
X157719724Y-88088776D01*
X157719724Y-88088776D02*
X157353000Y-88455500D01*
X155765500Y-90043000D02*
X157353000Y-88455500D01*
X158021947Y-87786553D02*
X158052500Y-87786553D01*
X157353000Y-88455500D02*
X158021947Y-87786553D01*
X159552763Y-89852695D02*
X159552763Y-92776263D01*
X159552763Y-92776263D02*
X159613500Y-92837000D01*
X176466500Y-81534000D02*
X176841960Y-81158540D01*
X176841960Y-81158540D02*
X176841960Y-81384460D01*
X174498000Y-81534000D02*
X176466500Y-81534000D01*
X176466500Y-81534000D02*
X176841960Y-81909460D01*
X176841960Y-82133000D02*
X176841960Y-81909460D01*
X176841960Y-81909460D02*
X176841960Y-80220460D01*
X176841960Y-80220460D02*
X176822000Y-80200500D01*
X155130500Y-80645000D02*
X155130500Y-80652000D01*
X155130500Y-80652000D02*
X154749500Y-81033000D01*
X155130500Y-80518000D02*
X155130500Y-80645000D01*
X155130500Y-80645000D02*
X154742500Y-81033000D01*
X155130500Y-80518000D02*
X155130500Y-80652000D01*
X155130500Y-80652000D02*
X155511500Y-81033000D01*
X152050750Y-74580750D02*
X151987250Y-74580750D01*
X151987250Y-74580750D02*
X151511000Y-74104500D01*
X152019000Y-74612500D02*
X152050750Y-74580750D01*
X152050750Y-74580750D02*
X152527000Y-74104500D01*
X152400000Y-74168000D02*
X152400000Y-74104500D01*
X152463500Y-74104500D02*
X152400000Y-74168000D01*
X152527000Y-74104500D02*
X152463500Y-74104500D01*
X152019000Y-74104500D02*
X152019000Y-74612500D01*
X152019000Y-74612500D02*
X152019000Y-75057000D01*
X155130500Y-78803500D02*
X155130500Y-80518000D01*
X155130500Y-80518000D02*
X155130500Y-81033000D01*
D35*
X154622500Y-78295500D02*
X155130500Y-78803500D01*
X154622500Y-77660500D02*
X154622500Y-78295500D01*
X152019000Y-75057000D02*
X154622500Y-77660500D01*
D34*
X157226000Y-80518000D02*
X157226000Y-80491733D01*
X157226000Y-80491733D02*
X158199125Y-79518608D01*
D32*
X155511500Y-81033000D02*
X156711000Y-81033000D01*
X156711000Y-81033000D02*
X157226000Y-80518000D01*
X155511500Y-81033000D02*
X155130500Y-81033000D01*
D33*
X145478500Y-74104500D02*
X151511000Y-74104500D01*
D32*
X156019500Y-74295000D02*
X156019500Y-74904500D01*
X152400000Y-74104500D02*
X155829000Y-74104500D01*
X155829000Y-74104500D02*
X156019500Y-74295000D01*
X151511000Y-74104500D02*
X152019000Y-74104500D01*
X152019000Y-74104500D02*
X152400000Y-74104500D01*
X156019500Y-74904500D02*
X156019500Y-75438000D01*
X156019500Y-75438000D02*
X156400500Y-75819000D01*
X156400500Y-75819000D02*
X156888500Y-75819000D01*
X156888500Y-75819000D02*
X157902500Y-76833000D01*
D34*
X157902500Y-77693913D02*
X157138465Y-78457948D01*
X157902500Y-77693913D02*
X157902500Y-76833000D01*
D32*
X157075724Y-86809777D02*
X156348947Y-86083000D01*
X156348947Y-86083000D02*
X156123500Y-86083000D01*
X157075724Y-86809777D02*
X157719724Y-87453777D01*
X158052500Y-87783000D02*
X158052500Y-87786553D01*
X158048947Y-87783000D02*
X158052500Y-87783000D01*
D34*
X158906232Y-88640285D02*
X158322974Y-88057027D01*
X158322974Y-88057027D02*
X158052500Y-87786553D01*
D32*
X157719724Y-87453777D02*
X158048947Y-87783000D01*
X151922170Y-86502670D02*
X152137170Y-86287670D01*
X152137170Y-86287670D02*
X152341840Y-86083000D01*
D34*
X150491661Y-87933179D02*
X151247170Y-87177670D01*
X151247170Y-87177670D02*
X151922170Y-86502670D01*
D32*
X152341840Y-86083000D02*
X152844500Y-86083000D01*
X152844500Y-86083000D02*
X153098500Y-86083000D01*
X151113413Y-84383000D02*
X150413413Y-83683000D01*
D34*
X149077448Y-82347035D02*
X150413413Y-83683000D01*
D32*
X151320500Y-84383000D02*
X151113413Y-84383000D01*
X159575500Y-92837000D02*
X159563500Y-92825000D01*
X159563500Y-92825000D02*
X159552763Y-89852695D01*
X159552763Y-89852695D02*
X159552500Y-89783000D01*
X153252500Y-81033000D02*
X152713160Y-81033000D01*
X152713160Y-81033000D02*
X152557830Y-80877670D01*
D34*
X151552321Y-79872161D02*
X152557830Y-80877670D01*
D32*
X153252500Y-81033000D02*
X153652500Y-81033000D01*
X153740500Y-81033000D02*
X153652500Y-81033000D01*
X154051000Y-81033000D02*
X153740500Y-81033000D01*
D34*
X159552500Y-89286553D02*
X159552500Y-89783000D01*
X158906232Y-88640285D02*
X159552500Y-89286553D01*
D32*
X164782500Y-81343500D02*
X164844500Y-81405500D01*
X168250220Y-81480720D02*
X168753900Y-81480720D01*
X155130500Y-81033000D02*
X154749500Y-81033000D01*
X154749500Y-81033000D02*
X154425000Y-81033000D01*
X154425000Y-81033000D02*
X154051000Y-81033000D01*
D34*
X146502500Y-81783000D02*
X146702500Y-81583000D01*
X148313413Y-81583000D02*
X148363413Y-81633000D01*
X146702500Y-81583000D02*
X148313413Y-81583000D01*
X149077448Y-82347035D02*
X148363413Y-81633000D01*
D35*
X145752500Y-82545000D02*
X145752500Y-82033000D01*
X146452500Y-81833000D02*
X146502500Y-81783000D01*
X145952500Y-81833000D02*
X146452500Y-81833000D01*
X145752500Y-82033000D02*
X145952500Y-81833000D01*
D34*
X151552321Y-79872161D02*
X150764500Y-79084340D01*
X150764500Y-79084340D02*
X150764500Y-78183000D01*
D32*
X176841960Y-82133000D02*
X176902500Y-82133000D01*
X177302500Y-81733000D02*
X177352500Y-81733000D01*
X176902500Y-82133000D02*
X177302500Y-81733000D01*
X177352500Y-82083000D02*
X177002500Y-81733000D01*
X177002500Y-81733000D02*
X176841960Y-81733000D01*
X177352500Y-82083000D02*
X177502500Y-81933000D01*
X177502500Y-81933000D02*
X177702500Y-81733000D01*
D34*
X177352500Y-83063140D02*
X177352500Y-82083000D01*
X177352500Y-82083000D02*
X177352500Y-81733000D01*
X178772360Y-83482240D02*
X178772360Y-82252860D01*
D32*
X178772360Y-82252860D02*
X178252500Y-81733000D01*
X178252500Y-81733000D02*
X177702500Y-81733000D01*
X177702500Y-81733000D02*
X177352500Y-81733000D01*
X177352500Y-81733000D02*
X176841960Y-81733000D01*
D34*
X176841960Y-83063140D02*
X176841960Y-82633000D01*
D32*
X176841960Y-81972460D02*
X176841960Y-81733000D01*
X176841960Y-82133000D02*
X176841960Y-81972460D01*
D34*
X176841960Y-82333000D02*
X176841960Y-82133000D01*
X176841960Y-82633000D02*
X176841960Y-82333000D01*
D32*
X176841960Y-81733000D02*
X176841960Y-81633000D01*
D34*
X176841960Y-81633000D02*
X176841960Y-81384460D01*
X176811460Y-80227960D02*
X176784000Y-80200500D01*
X176841960Y-81384460D02*
X176840500Y-81383000D01*
X176841960Y-81384460D02*
X176840500Y-81383000D01*
D33*
X120852500Y-78835500D02*
X118622500Y-78835500D01*
D32*
X125857000Y-73279000D02*
X123825000Y-73279000D01*
D33*
X113502500Y-78982000D02*
X113502500Y-77533000D01*
X113502500Y-77533000D02*
X114052500Y-76983000D01*
X113502500Y-78982000D02*
X113502500Y-77383000D01*
X113502500Y-77383000D02*
X114502500Y-76383000D01*
X116082500Y-78835500D02*
X113649000Y-78835500D01*
X113649000Y-78835500D02*
X113502500Y-78982000D01*
D32*
X115202500Y-78835500D02*
X115100000Y-78835500D01*
D33*
X115100000Y-78835500D02*
X114502500Y-79433000D01*
D32*
X115202500Y-78835500D02*
X115005000Y-78835500D01*
D36*
X115005000Y-78835500D02*
X114502500Y-78333000D01*
D32*
X115252500Y-76930500D02*
X115155000Y-76930500D01*
X115155000Y-76930500D02*
X114502500Y-77583000D01*
X115252500Y-76930500D02*
X115050000Y-76930500D01*
D33*
X115050000Y-76930500D02*
X114502500Y-76383000D01*
X115252500Y-75035500D02*
X115100000Y-75035500D01*
X115100000Y-75035500D02*
X114502500Y-75633000D01*
D32*
X115252500Y-75035500D02*
X114955000Y-75035500D01*
D33*
X114955000Y-75035500D02*
X114502500Y-74583000D01*
X116082500Y-75035500D02*
X115252500Y-75035500D01*
X115252500Y-75035500D02*
X114502500Y-75035500D01*
X116082500Y-76930500D02*
X115252500Y-76930500D01*
X115252500Y-76930500D02*
X114502500Y-76930500D01*
X116082500Y-78835500D02*
X115202500Y-78835500D01*
X115202500Y-78835500D02*
X114502500Y-78835500D01*
D32*
X114502500Y-78835500D02*
X114502500Y-78833000D01*
D33*
X116082500Y-73130500D02*
X115255000Y-73130500D01*
X114502500Y-73883000D02*
X114502500Y-74583000D01*
X115255000Y-73130500D02*
X114502500Y-73883000D01*
X114502500Y-74583000D02*
X114502500Y-75035500D01*
X114502500Y-75035500D02*
X114502500Y-75633000D01*
X114502500Y-75633000D02*
X114502500Y-76383000D01*
X114502500Y-76383000D02*
X114502500Y-76930500D01*
D36*
X114502500Y-76930500D02*
X114502500Y-77583000D01*
X114502500Y-77583000D02*
X114502500Y-78333000D01*
D33*
X114502500Y-78333000D02*
X114502500Y-78833000D01*
X114502500Y-78833000D02*
X114502500Y-79433000D01*
D32*
X122250000Y-75035500D02*
X122252500Y-75033000D01*
X120902500Y-75035500D02*
X122250000Y-75035500D01*
X120902500Y-75035500D02*
X118622500Y-75035500D01*
D34*
X176841960Y-85902860D02*
X176841960Y-86683040D01*
X176022000Y-87503000D02*
X175577500Y-87503000D01*
X176841960Y-86683040D02*
X176022000Y-87503000D01*
D35*
X162258009Y-83577492D02*
X163463517Y-84783000D01*
X163463517Y-84783000D02*
X163852500Y-84783000D01*
X162113517Y-83433000D02*
X162258009Y-83577492D01*
D34*
X162113517Y-83433000D02*
X161734659Y-83054142D01*
D32*
X142087500Y-77978000D02*
X142087500Y-79311500D01*
X145923000Y-78790330D02*
X143750830Y-78790330D01*
X142938500Y-77978000D02*
X142087500Y-77978000D01*
X143750830Y-78790330D02*
X142938500Y-77978000D01*
X142024000Y-79248000D02*
X142087500Y-79311500D01*
X148349170Y-78790330D02*
X145923000Y-78790330D01*
X142099500Y-78028000D02*
X142049500Y-77978000D01*
X148349170Y-78790330D02*
X148441840Y-78883000D01*
D34*
X148647170Y-79088330D02*
X148441840Y-78883000D01*
X150491661Y-80932821D02*
X148647170Y-79088330D01*
D32*
X154305000Y-88519000D02*
X153352500Y-87566500D01*
X153352500Y-87566500D02*
X151828500Y-87566500D01*
X166687500Y-78232000D02*
X164338000Y-78232000D01*
X166687500Y-78232000D02*
X170878500Y-78232000D01*
X164338000Y-78232000D02*
X163830000Y-77724000D01*
X162788500Y-77279500D02*
X163385500Y-77279500D01*
X163385500Y-77279500D02*
X163830000Y-77724000D01*
X170878500Y-78232000D02*
X172212000Y-78232000D01*
X172720000Y-77724000D02*
X173418500Y-77025500D01*
X172212000Y-78232000D02*
X173418500Y-77025500D01*
X171323000Y-78232000D02*
X173252240Y-80161240D01*
X170878500Y-78232000D02*
X171323000Y-78232000D01*
X164782500Y-82905500D02*
X163284000Y-82905500D01*
X163284000Y-82905500D02*
X163258500Y-82931000D01*
X127101500Y-82740500D02*
X128145000Y-82740500D01*
X128145000Y-82740500D02*
X128352500Y-82533000D01*
X126682500Y-74739500D02*
X126682500Y-76835000D01*
X133985000Y-77279500D02*
X134874000Y-77279500D01*
X133477000Y-76771500D02*
X133985000Y-77279500D01*
X131318000Y-76771500D02*
X133477000Y-76771500D01*
X131000500Y-77089000D02*
X131318000Y-76771500D01*
X126682500Y-76835000D02*
X126428500Y-77089000D01*
X129159000Y-74739500D02*
X131635500Y-74739500D01*
X129159000Y-74739500D02*
X130937000Y-74739500D01*
X123434000Y-74739500D02*
X126682500Y-74739500D01*
X126682500Y-74739500D02*
X129159000Y-74739500D01*
X122477500Y-73783000D02*
X123434000Y-74739500D01*
X131635500Y-74739500D02*
X132016500Y-74358500D01*
X140398500Y-76390500D02*
X139890500Y-76898500D01*
X139890500Y-76898500D02*
X135255000Y-76898500D01*
X135255000Y-76898500D02*
X134874000Y-77279500D01*
X123317000Y-78803500D02*
X122555000Y-78041500D01*
X122555000Y-78041500D02*
X122555000Y-76962000D01*
X138938000Y-79629000D02*
X139573000Y-79629000D01*
X139890500Y-79311500D02*
X140487500Y-79311500D01*
X139573000Y-79629000D02*
X139890500Y-79311500D01*
X138938000Y-79629000D02*
X138938000Y-80633000D01*
X138938000Y-80633000D02*
X138938000Y-80518000D01*
X138938000Y-80518000D02*
X138938000Y-80633000D01*
X137922000Y-80633000D02*
X138938000Y-80633000D01*
X138938000Y-80633000D02*
X142352500Y-80633000D01*
X142352500Y-80633000D02*
X143252500Y-79733000D01*
X134777500Y-80633000D02*
X137922000Y-80633000D01*
X138938000Y-80073500D02*
X138938000Y-79629000D01*
X140487500Y-79311500D02*
X140487500Y-79337000D01*
X140424000Y-79248000D02*
X140487500Y-79311500D01*
X174202500Y-82981860D02*
X174202500Y-82983000D01*
X173252240Y-82981860D02*
X174202500Y-82981860D01*
X174202500Y-82983000D02*
X174652500Y-83433000D01*
X162312500Y-95683000D02*
X161353500Y-94724000D01*
X161353500Y-94724000D02*
X161353500Y-92900500D01*
X173799500Y-89725500D02*
X173799500Y-89130000D01*
X173799500Y-89130000D02*
X173252240Y-88582740D01*
X174371000Y-89233000D02*
X174292000Y-89233000D01*
X174292000Y-89233000D02*
X173799500Y-89725500D01*
X173101000Y-90745000D02*
X173288000Y-90745000D01*
X173288000Y-90745000D02*
X173799500Y-90233500D01*
X173052500Y-90745000D02*
X173101000Y-90745000D01*
X173101000Y-90745000D02*
X173231500Y-90745000D01*
X173231500Y-90745000D02*
X173799500Y-91313000D01*
X173799500Y-90741500D02*
X173799500Y-90233500D01*
X173799500Y-90233500D02*
X173799500Y-89725500D01*
X173799500Y-89725500D02*
X173799500Y-89336000D01*
X173799500Y-89336000D02*
X173902500Y-89233000D01*
X173799500Y-91694000D02*
X173799500Y-91313000D01*
X172452500Y-95653000D02*
X173799500Y-94306000D01*
X173799500Y-94306000D02*
X173799500Y-91694000D01*
X173799500Y-91313000D02*
X173799500Y-90741500D01*
D34*
X150845215Y-88286732D02*
X151565447Y-87566500D01*
X151565447Y-87566500D02*
X151828500Y-87566500D01*
D32*
X158178500Y-74904500D02*
X157264000Y-74904500D01*
X157264000Y-74904500D02*
X157099000Y-74739500D01*
X161988053Y-77851000D02*
X161988053Y-77470447D01*
X162179000Y-77279500D02*
X162788500Y-77279500D01*
X161988053Y-77470447D02*
X162179000Y-77279500D01*
D34*
X159259785Y-80579268D02*
X161988053Y-77851000D01*
X161988053Y-77851000D02*
X161988500Y-77851000D01*
D32*
X175222000Y-80200500D02*
X173252240Y-80200500D01*
X173252240Y-80200500D02*
X173252240Y-80161240D01*
X173252240Y-80161240D02*
X173252240Y-82981860D01*
X154686000Y-73304500D02*
X156019500Y-73304500D01*
X157099000Y-74739500D02*
X157099000Y-73596500D01*
X156807000Y-73304500D02*
X156019500Y-73304500D01*
X157099000Y-73596500D02*
X156807000Y-73304500D01*
X149202500Y-78183000D02*
X149202500Y-76794000D01*
X149202500Y-76794000D02*
X149225000Y-76771500D01*
X145452500Y-76783000D02*
X149213500Y-76783000D01*
X149213500Y-76783000D02*
X149225000Y-76771500D01*
X119802500Y-75983000D02*
X120602500Y-75983000D01*
X120852500Y-76233000D02*
X120852500Y-76930500D01*
X120602500Y-75983000D02*
X120852500Y-76233000D01*
X118102500Y-75983000D02*
X117802500Y-75983000D01*
X117802500Y-75983000D02*
X117352500Y-76433000D01*
X117802500Y-75983000D02*
X117352500Y-75533000D01*
X119802500Y-75983000D02*
X118102500Y-75983000D01*
X118102500Y-75983000D02*
X117352500Y-75983000D01*
X120902500Y-73130500D02*
X121825000Y-73130500D01*
X121825000Y-73130500D02*
X122477500Y-73783000D01*
X140487500Y-79349500D02*
X140525500Y-79311500D01*
X147802500Y-94283000D02*
X152652500Y-94283000D01*
X152652500Y-94283000D02*
X154052500Y-95683000D01*
X154052500Y-94383000D02*
X157702500Y-94383000D01*
X157702500Y-94383000D02*
X157902500Y-94583000D01*
X138540500Y-83433000D02*
X137752500Y-83433000D01*
X137752500Y-83433000D02*
X137352500Y-83833000D01*
X158506053Y-81333000D02*
X156906053Y-82933000D01*
X156906053Y-82933000D02*
X156083000Y-82931000D01*
D34*
X159259785Y-80579268D02*
X158506053Y-81333000D01*
X158506053Y-81333000D02*
X158502500Y-81333000D01*
D32*
X162855000Y-95140500D02*
X162312500Y-95683000D01*
X150864500Y-91933000D02*
X151602500Y-91933000D01*
X154052500Y-94383000D02*
X154052500Y-95683000D01*
X151602500Y-91933000D02*
X154052500Y-94383000D01*
X165702500Y-85708000D02*
X165702500Y-86233000D01*
X165702500Y-86233000D02*
X165852500Y-86383000D01*
X165727500Y-85708000D02*
X165702500Y-85708000D01*
X165702500Y-85708000D02*
X165177500Y-85708000D01*
X165177500Y-85708000D02*
X165152500Y-85683000D01*
X167502500Y-87480200D02*
X166949700Y-87480200D01*
X166949700Y-87480200D02*
X165852500Y-86383000D01*
X167502500Y-87480200D02*
X168753900Y-87480200D01*
X165852500Y-86383000D02*
X165152500Y-85683000D01*
X164652500Y-85183000D02*
X164652500Y-84683000D01*
X165152500Y-85683000D02*
X164652500Y-85183000D01*
D35*
X167250220Y-83982620D02*
X166402880Y-83982620D01*
X166202500Y-85233000D02*
X165727500Y-85708000D01*
X166202500Y-84183000D02*
X166202500Y-85233000D01*
X166402880Y-83982620D02*
X166202500Y-84183000D01*
D32*
X164782500Y-82867500D02*
X164802500Y-83133000D01*
X164802500Y-83133000D02*
X164802500Y-83333000D01*
X164802500Y-83333000D02*
X164652500Y-83483000D01*
X164652500Y-83483000D02*
X164802500Y-83333000D01*
X164652500Y-84683000D02*
X164652500Y-83483000D01*
X173252240Y-85984140D02*
X173252240Y-88582740D01*
X173252240Y-88582740D02*
X173902500Y-89233000D01*
X173902500Y-89233000D02*
X174371000Y-89233000D01*
X174371000Y-89233000D02*
X174452500Y-89233000D01*
X174652500Y-84983380D02*
X174652500Y-85583000D01*
X174251360Y-85984140D02*
X173252240Y-85984140D01*
X174652500Y-85583000D02*
X174251360Y-85984140D01*
D34*
X148836510Y-81398991D02*
X148458519Y-81021000D01*
X148458519Y-81021000D02*
X148308519Y-81021000D01*
X145752500Y-81021000D02*
X148308519Y-81021000D01*
X149431001Y-81993482D02*
X148836510Y-81398991D01*
X150002500Y-78833000D02*
X150002500Y-78433000D01*
X149752500Y-78183000D02*
X149240500Y-78183000D01*
X150002500Y-78433000D02*
X149752500Y-78183000D01*
X149431001Y-81993482D02*
X150270519Y-82833000D01*
D32*
X151952500Y-82833000D02*
X150552500Y-82833000D01*
D34*
X150270519Y-82833000D02*
X150552500Y-82833000D01*
X151952500Y-81483000D02*
X151952500Y-80979447D01*
D32*
X151952500Y-82833000D02*
X151952500Y-81483000D01*
D34*
X151952500Y-80979447D02*
X151198768Y-80225715D01*
X150002500Y-78833000D02*
X150002500Y-79029447D01*
X150002500Y-79029447D02*
X151198768Y-80225715D01*
X175152500Y-84983380D02*
X174952120Y-84983380D01*
X174652500Y-85283000D02*
X174652500Y-85333000D01*
X174952120Y-84983380D02*
X174652500Y-85283000D01*
X175152500Y-84983380D02*
X175002880Y-84983380D01*
X175002880Y-84983380D02*
X174652500Y-84633000D01*
X175252500Y-83982620D02*
X175002880Y-83982620D01*
X174652500Y-84333000D02*
X174652500Y-84383000D01*
X175002880Y-83982620D02*
X174652500Y-84333000D01*
X175252500Y-83982620D02*
X175002120Y-83982620D01*
X174652500Y-83633000D02*
X174652500Y-83433000D01*
X175002120Y-83982620D02*
X174652500Y-83633000D01*
X175252500Y-83482240D02*
X174953260Y-83482240D01*
X174752500Y-83733000D02*
X174652500Y-83733000D01*
X174752500Y-83683000D02*
X174752500Y-83733000D01*
X174953260Y-83482240D02*
X174752500Y-83683000D01*
X175932640Y-84983380D02*
X175152500Y-84983380D01*
X175152500Y-84983380D02*
X174652500Y-84983380D01*
X174652500Y-84983380D02*
X174652500Y-84983000D01*
D32*
X174652500Y-85333000D02*
X174652500Y-84983000D01*
X174652500Y-84983000D02*
X174652500Y-84633000D01*
X174652500Y-84633000D02*
X174652500Y-84383000D01*
X174652500Y-84383000D02*
X174652500Y-83733000D01*
X174652500Y-83733000D02*
X174652500Y-83833000D01*
D34*
X175932640Y-83982620D02*
X175252500Y-83982620D01*
X175252500Y-83982620D02*
X174802120Y-83982620D01*
X174802120Y-83982620D02*
X174652500Y-83833000D01*
X175932640Y-83482240D02*
X175252500Y-83482240D01*
X175252500Y-83482240D02*
X174701740Y-83482240D01*
X174701740Y-83482240D02*
X174652500Y-83433000D01*
X175932640Y-83982620D02*
X177602880Y-83982620D01*
X177863040Y-83722460D02*
X177863040Y-83063140D01*
X177602880Y-83982620D02*
X177863040Y-83722460D01*
D32*
X168502500Y-88683000D02*
X168502500Y-90383000D01*
X168864500Y-90745000D02*
X169602500Y-90745000D01*
X168502500Y-90383000D02*
X168864500Y-90745000D01*
X168753900Y-87480200D02*
X168753900Y-88431600D01*
X168753900Y-88431600D02*
X168502500Y-88683000D01*
X170755420Y-89883000D02*
X170755420Y-90380080D01*
X170755420Y-90380080D02*
X170390500Y-90745000D01*
X170390500Y-90745000D02*
X169602500Y-90745000D01*
X170755420Y-90183000D02*
X170755420Y-90335920D01*
X170755420Y-90335920D02*
X171164500Y-90745000D01*
X170755420Y-87480200D02*
X170755420Y-89883000D01*
X170755420Y-89883000D02*
X170755420Y-90183000D01*
X170755420Y-90183000D02*
X170755420Y-90745000D01*
X170755420Y-90745000D02*
X170752500Y-90745000D01*
X169602500Y-90745000D02*
X170752500Y-90745000D01*
X170752500Y-90745000D02*
X171164500Y-90745000D01*
X171164500Y-90745000D02*
X171902500Y-90745000D01*
X171902500Y-90745000D02*
X173052500Y-90745000D01*
X173052500Y-90745000D02*
X173799500Y-90741500D01*
X173902500Y-89333000D02*
X174002500Y-89233000D01*
X173902500Y-89333000D02*
X174002500Y-89233000D01*
D34*
X178772360Y-85493920D02*
X178772360Y-86302860D01*
D32*
X177952500Y-89233000D02*
X179052500Y-88133000D01*
X179052500Y-88133000D02*
X179052500Y-87183000D01*
X179052500Y-87183000D02*
X179052500Y-86733000D01*
X179052500Y-86733000D02*
X179052500Y-86583000D01*
X177952500Y-89233000D02*
X174452500Y-89233000D01*
D34*
X178772360Y-86302860D02*
X179052500Y-86583000D01*
D32*
X174452500Y-89233000D02*
X174002500Y-89233000D01*
X172452500Y-95653000D02*
X169902500Y-95653000D01*
X137352500Y-83833000D02*
X137352500Y-83833000D01*
X145102500Y-85471000D02*
X145102500Y-84283000D01*
X137352500Y-85521000D02*
X137352500Y-83833000D01*
X129802500Y-83483000D02*
X129802500Y-83483000D01*
X129802500Y-83483000D02*
X130302500Y-82983000D01*
X129802500Y-85471000D02*
X129802500Y-83483000D01*
X130302500Y-82983000D02*
X130790500Y-82983000D01*
D33*
X108852500Y-86253000D02*
X110572500Y-86253000D01*
D32*
X110872500Y-86553000D02*
X110902500Y-86583000D01*
D33*
X110572500Y-86253000D02*
X110902500Y-86583000D01*
X108852500Y-86253000D02*
X112322500Y-86253000D01*
X112322500Y-86253000D02*
X112952500Y-86883000D01*
X112622500Y-86553000D02*
X112952500Y-86883000D01*
X112952500Y-89433000D02*
X112952500Y-86883000D01*
D34*
X175932640Y-83482240D02*
X175932640Y-83982620D01*
D32*
X168742500Y-87793000D02*
X168753900Y-87480200D01*
X145191500Y-88567000D02*
X145218500Y-88567000D01*
X145218500Y-88567000D02*
X145852500Y-87933000D01*
X137491500Y-88567000D02*
X138018500Y-88567000D01*
X138018500Y-88567000D02*
X138502500Y-88083000D01*
X129891500Y-88567000D02*
X130568500Y-88567000D01*
X130568500Y-88567000D02*
X130952500Y-88183000D01*
X120852500Y-76930500D02*
X122355000Y-76930500D01*
X122355000Y-76930500D02*
X122555000Y-76962000D01*
X117352500Y-74683000D02*
X117352500Y-74433000D01*
X117002500Y-74083000D02*
X116902500Y-74083000D01*
X117352500Y-74433000D02*
X117002500Y-74083000D01*
X117352500Y-74683000D02*
X117352500Y-74483000D01*
X117352500Y-74483000D02*
X117752500Y-74083000D01*
X117352500Y-75983000D02*
X117352500Y-75533000D01*
X117352500Y-75533000D02*
X117352500Y-74683000D01*
X117352500Y-74683000D02*
X117352500Y-74083000D01*
X117352500Y-77033000D02*
X117352500Y-77433000D01*
X117352500Y-77433000D02*
X116902500Y-77883000D01*
X117352500Y-77433000D02*
X117802500Y-77883000D01*
X117352500Y-77883000D02*
X117352500Y-77033000D01*
X117352500Y-77033000D02*
X117352500Y-76433000D01*
X117352500Y-76433000D02*
X117352500Y-75983000D01*
X168753900Y-87480200D02*
X168742500Y-87793000D01*
D34*
X174652500Y-83832240D02*
X174652500Y-83832240D01*
X174652500Y-83832240D02*
X174652500Y-83833000D01*
D32*
X174652500Y-83433000D02*
X174652500Y-83833000D01*
D33*
X145191500Y-88567000D02*
X146036500Y-88567000D01*
X146036500Y-88567000D02*
X146252500Y-88783000D01*
X137491500Y-88567000D02*
X138236500Y-88567000D01*
X138552500Y-88883000D02*
X138552500Y-89083000D01*
X138236500Y-88567000D02*
X138552500Y-88883000D01*
X129891500Y-88567000D02*
X130686500Y-88567000D01*
X131002500Y-88883000D02*
X131002500Y-89133000D01*
X130686500Y-88567000D02*
X131002500Y-88883000D01*
D32*
X116082500Y-77883000D02*
X116902500Y-77883000D01*
X116902500Y-77883000D02*
X117352500Y-77883000D01*
X117352500Y-77883000D02*
X117802500Y-77883000D01*
X117802500Y-77883000D02*
X119052500Y-77883000D01*
X119052500Y-77883000D02*
X120005000Y-76930500D01*
X120005000Y-76930500D02*
X120852500Y-76930500D01*
X116082500Y-74083000D02*
X116902500Y-74083000D01*
X116902500Y-74083000D02*
X117352500Y-74083000D01*
X117352500Y-74083000D02*
X117752500Y-74083000D01*
X117752500Y-74083000D02*
X119102500Y-74083000D01*
X120055000Y-73130500D02*
X120902500Y-73130500D01*
X119102500Y-74083000D02*
X120055000Y-73130500D01*
X162242500Y-78867000D02*
X161988500Y-78867000D01*
D34*
X161325830Y-79220330D02*
X161679160Y-78867000D01*
X161679160Y-78867000D02*
X161988500Y-78867000D01*
X159613339Y-80932821D02*
X161325830Y-79220330D01*
X161988500Y-78867000D02*
X162242500Y-78867000D01*
X162242500Y-78867000D02*
X162266000Y-78867000D01*
D32*
X171756180Y-80062180D02*
X170561000Y-78867000D01*
X171756180Y-81480720D02*
X171756180Y-80062180D01*
X170561000Y-78867000D02*
X162266000Y-78867000D01*
D34*
X151198768Y-88640285D02*
X149856053Y-89983000D01*
D32*
X149856053Y-89983000D02*
X149064500Y-89983000D01*
X159132500Y-95683000D02*
X159132500Y-94680000D01*
X158013500Y-93561000D02*
X158013500Y-92837000D01*
X159132500Y-94680000D02*
X158013500Y-93561000D01*
X158013500Y-92837000D02*
X156706500Y-92837000D01*
D34*
X152163160Y-88383000D02*
X152852500Y-88383000D01*
X152852500Y-88383000D02*
X152952500Y-88483000D01*
D32*
X155052500Y-90583000D02*
X152952500Y-88483000D01*
X155052500Y-91183000D02*
X155052500Y-90583000D01*
D34*
X151552321Y-88993839D02*
X152163160Y-88383000D01*
D32*
X156302500Y-92433000D02*
X155052500Y-91183000D01*
X156579500Y-92710000D02*
X156302500Y-92433000D01*
X156706500Y-92837000D02*
X156579500Y-92710000D01*
X158051500Y-92837000D02*
X158040500Y-93271000D01*
X165925500Y-82105500D02*
X166925000Y-82105500D01*
X166925000Y-82105500D02*
X167250220Y-82430720D01*
X167250220Y-82430720D02*
X167250220Y-82981860D01*
D35*
X162252500Y-81733000D02*
X162625000Y-82105500D01*
X166878000Y-82105500D02*
X166878000Y-82058500D01*
D32*
X167252500Y-82433000D02*
X167252500Y-82979580D01*
D35*
X166925000Y-82105500D02*
X166878000Y-82105500D01*
X162625000Y-82105500D02*
X165925500Y-82105500D01*
D34*
X177352500Y-85902860D02*
X177352500Y-87379000D01*
X177352500Y-87379000D02*
X177165000Y-87566500D01*
D32*
X165452500Y-84783000D02*
X165452500Y-83833000D01*
X166303640Y-82981860D02*
X167250220Y-82981860D01*
X165452500Y-83833000D02*
X166303640Y-82981860D01*
D34*
X161802500Y-81733000D02*
X162252500Y-81733000D01*
X161027552Y-82347035D02*
X161641587Y-81733000D01*
X161641587Y-81733000D02*
X161802500Y-81733000D01*
D32*
X167252500Y-82979580D02*
X167250220Y-82981860D01*
D34*
X177352500Y-86833000D02*
X177352500Y-86733000D01*
X177352500Y-86733000D02*
X177352500Y-86933000D01*
X177352500Y-86833000D02*
X177352500Y-87133000D01*
X177352500Y-85902860D02*
X177352500Y-86833000D01*
X177352500Y-86833000D02*
X177352500Y-87133000D01*
D32*
X162306000Y-79502000D02*
X161988500Y-79502000D01*
D34*
X161203134Y-80050133D02*
X161751267Y-79502000D01*
X159966892Y-81286375D02*
X161203134Y-80050133D01*
X161751267Y-79502000D02*
X161988500Y-79502000D01*
X162306000Y-79502000D02*
X162321500Y-79502000D01*
D32*
X170751500Y-80264000D02*
X169989500Y-79502000D01*
X169989500Y-79502000D02*
X162321500Y-79502000D01*
D34*
X177863040Y-86383000D02*
X177863040Y-87143540D01*
X177863040Y-87143540D02*
X178252500Y-87533000D01*
X177863040Y-85902860D02*
X177863040Y-86383000D01*
D32*
X170755420Y-80357080D02*
X170751500Y-80514000D01*
X170751500Y-80514000D02*
X170751500Y-80264000D01*
X170755420Y-80783000D02*
X170755420Y-80357080D01*
X170755420Y-81480720D02*
X170755420Y-80783000D01*
X145602500Y-79533000D02*
X144502500Y-79533000D01*
X144502500Y-79533000D02*
X142302500Y-81733000D01*
D34*
X148684733Y-79833000D02*
X148384733Y-79533000D01*
X148384733Y-79533000D02*
X148027500Y-79533000D01*
D32*
X145602500Y-79533000D02*
X148027500Y-79533000D01*
D34*
X150138108Y-81286375D02*
X148684733Y-79833000D01*
D32*
X128152500Y-83833000D02*
X130102500Y-81883000D01*
X140902500Y-81733000D02*
X142302500Y-81733000D01*
X128152500Y-85471000D02*
X128152500Y-83833000D01*
X130252500Y-81733000D02*
X140902500Y-81733000D01*
X130202500Y-81783000D02*
X130252500Y-81733000D01*
X130102500Y-81883000D02*
X130202500Y-81783000D01*
D33*
X129007500Y-93133000D02*
X129007500Y-90604000D01*
D32*
X129007500Y-90604000D02*
X128998500Y-90595000D01*
D33*
X128998500Y-90595000D02*
X125002500Y-90595000D01*
D32*
X125877500Y-83758000D02*
X125501500Y-83382000D01*
X125501500Y-83382000D02*
X125501500Y-82740500D01*
D34*
X148723894Y-86165412D02*
X148056306Y-86833000D01*
X148056306Y-86833000D02*
X147602500Y-86833000D01*
D32*
X147202500Y-86433000D02*
X147602500Y-86833000D01*
X125891500Y-85217000D02*
X125891500Y-83772000D01*
X125891500Y-83772000D02*
X125877500Y-83758000D01*
X138752500Y-82383000D02*
X137152500Y-82383000D01*
X135752500Y-83783000D02*
X135752500Y-84383000D01*
X137152500Y-82383000D02*
X135752500Y-83783000D01*
D34*
X148615063Y-80470437D02*
X148327626Y-80183000D01*
X148327626Y-80183000D02*
X147852500Y-80183000D01*
D32*
X141952500Y-82383000D02*
X142602500Y-82383000D01*
X144802500Y-80183000D02*
X147852500Y-80183000D01*
X142602500Y-82383000D02*
X144802500Y-80183000D01*
D34*
X149784554Y-81639928D02*
X148615063Y-80470437D01*
D32*
X141952500Y-82383000D02*
X138752500Y-82383000D01*
X135752500Y-84383000D02*
X135752500Y-85471000D01*
D34*
X135752500Y-84383000D02*
X135752500Y-85471000D01*
D33*
X136602500Y-90599000D02*
X132656500Y-90599000D01*
D32*
X132656500Y-90599000D02*
X132652500Y-90595000D01*
D33*
X136602500Y-93128000D02*
X136607500Y-93133000D01*
X136602500Y-90599000D02*
X136602500Y-93128000D01*
D34*
X147952500Y-85633000D02*
X148191483Y-85633000D01*
X148191483Y-85633000D02*
X148370341Y-85811858D01*
D32*
X146452500Y-85633000D02*
X147952500Y-85633000D01*
X132314500Y-82983000D02*
X132877500Y-82983000D01*
X132877500Y-82983000D02*
X133527500Y-83633000D01*
X133541500Y-83647000D02*
X133527500Y-83633000D01*
X133541500Y-85267000D02*
X133541500Y-83647000D01*
X146852500Y-83233000D02*
X146602500Y-83483000D01*
X143402500Y-84233000D02*
X143402500Y-85471000D01*
X144152500Y-83483000D02*
X143402500Y-84233000D01*
X146602500Y-83483000D02*
X144152500Y-83483000D01*
D34*
X148723894Y-82700588D02*
X148156306Y-82133000D01*
X146852500Y-82733000D02*
X146852500Y-83233000D01*
X147452500Y-82133000D02*
X146852500Y-82733000D01*
X148156306Y-82133000D02*
X147452500Y-82133000D01*
D33*
X144302500Y-90599000D02*
X140256500Y-90599000D01*
D32*
X140256500Y-90599000D02*
X140252500Y-90595000D01*
D33*
X144257500Y-93133000D02*
X144257500Y-90644000D01*
D32*
X144257500Y-90644000D02*
X144302500Y-90599000D01*
X146102500Y-84583000D02*
X146841483Y-84583000D01*
X146841483Y-84583000D02*
X148052500Y-83371983D01*
D34*
X148370341Y-83054142D02*
X148052500Y-83371983D01*
D32*
X140064500Y-83433000D02*
X140902500Y-83433000D01*
X140902500Y-83433000D02*
X141141500Y-83672000D01*
X141141500Y-85267000D02*
X141968500Y-85267000D01*
X141968500Y-85267000D02*
X142502500Y-84733000D01*
X142502500Y-84733000D02*
X142502500Y-84433000D01*
X141141500Y-85267000D02*
X141141500Y-83672000D01*
D34*
X150138108Y-87579625D02*
X149152500Y-88565233D01*
X149152500Y-88565233D02*
X149152500Y-88683000D01*
X150622000Y-85979000D02*
X150622000Y-86388626D01*
X150622000Y-86388626D02*
X149784554Y-87226072D01*
X149431001Y-86872518D02*
X148302500Y-88001019D01*
X148302500Y-88001019D02*
X148302500Y-88251019D01*
D32*
X149340500Y-91933000D02*
X148314500Y-91933000D01*
X148302500Y-90533000D02*
X148302500Y-91921000D01*
X148302500Y-91921000D02*
X148314500Y-91933000D01*
X148302500Y-88251019D02*
X148302500Y-89433000D01*
X148302500Y-89433000D02*
X148302500Y-90533000D01*
X148302500Y-90533000D02*
X148302500Y-90833000D01*
D34*
X148302500Y-88251019D02*
X148302500Y-89433000D01*
D35*
X167392500Y-95683000D02*
X166549000Y-95683000D01*
X162202500Y-88669500D02*
X162202500Y-86986806D01*
X163004500Y-89471500D02*
X162202500Y-88669500D01*
X163004500Y-93091000D02*
X163004500Y-89471500D01*
X164401500Y-94488000D02*
X163004500Y-93091000D01*
X165354000Y-94488000D02*
X164401500Y-94488000D01*
X166549000Y-95683000D02*
X165354000Y-94488000D01*
D32*
X167392500Y-95683000D02*
X166739500Y-95683000D01*
D34*
X162202500Y-86986806D02*
X161381106Y-86165412D01*
D32*
X145478500Y-74993500D02*
X150963000Y-74993500D01*
X150963000Y-74993500D02*
X152952500Y-76983000D01*
D34*
X153673642Y-77750841D02*
X153102500Y-77179699D01*
X153102500Y-77179699D02*
X153102500Y-77133000D01*
X152952500Y-76983000D02*
X153102500Y-77133000D01*
D32*
X162183500Y-80264000D02*
X161925000Y-80264000D01*
D34*
X161334437Y-80625937D02*
X161696374Y-80264000D01*
X161696374Y-80264000D02*
X161925000Y-80264000D01*
D32*
X169735500Y-80264000D02*
X162183500Y-80264000D01*
X169754660Y-81480720D02*
X169735500Y-81461560D01*
X169735500Y-81461560D02*
X169735500Y-80264000D01*
X179702500Y-82233000D02*
X178052500Y-80583000D01*
X179702500Y-84733000D02*
X179702500Y-82233000D01*
D34*
X179452120Y-84983380D02*
X179702500Y-84733000D01*
X179452120Y-84983380D02*
X178772360Y-84983380D01*
D32*
X169754660Y-80562160D02*
X169754660Y-80562160D01*
X169754660Y-80633000D02*
X169754660Y-80562160D01*
D34*
X160320446Y-81639928D02*
X161334437Y-80625937D01*
X161334437Y-80625937D02*
X161539937Y-80420437D01*
D32*
X169754660Y-81480720D02*
X169754660Y-80633000D01*
D34*
X152342750Y-77273250D02*
X152552500Y-77483000D01*
D32*
X152342750Y-77273250D02*
X151015500Y-75946000D01*
X145542000Y-75946000D02*
X145478500Y-75882500D01*
X151015500Y-75946000D02*
X145542000Y-75946000D01*
D34*
X152552500Y-77483000D02*
X152698694Y-77483000D01*
X153320088Y-78104394D02*
X152698694Y-77483000D01*
X152698694Y-77483000D02*
X152552500Y-77483000D01*
X151638000Y-78543626D02*
X151638000Y-78041500D01*
X151638000Y-78041500D02*
X151828500Y-77851000D01*
X152259428Y-79165054D02*
X151638000Y-78543626D01*
X153543000Y-79741519D02*
X153543000Y-79756000D01*
X152612982Y-78811501D02*
X153543000Y-79741519D01*
X155384500Y-78041500D02*
X155702000Y-78359000D01*
X155702000Y-78359000D02*
X155823199Y-78359000D01*
X155823199Y-78359000D02*
X156431358Y-77750841D01*
X156431358Y-77750841D02*
X155823199Y-78359000D01*
X155702000Y-78359000D02*
X155638500Y-78295500D01*
X153566087Y-79057500D02*
X154368500Y-79057500D01*
X152966535Y-78457948D02*
X153566087Y-79057500D01*
D32*
X150405457Y-85190956D02*
X151929456Y-85190956D01*
X151929456Y-85190956D02*
X152019000Y-85280500D01*
D34*
X150405457Y-85190956D02*
X149077448Y-86518965D01*
D35*
X164852500Y-95683000D02*
X162433000Y-93263500D01*
X162433000Y-89662000D02*
X161652500Y-88881500D01*
X162433000Y-93263500D02*
X162433000Y-89662000D01*
X161652500Y-88881500D02*
X161652500Y-87675000D01*
D34*
X161652500Y-87249000D02*
X161652500Y-87675000D01*
X161652500Y-87143913D02*
X161027552Y-86518965D01*
X161652500Y-87249000D02*
X161652500Y-87143913D01*
X157845572Y-79165054D02*
X158527626Y-78483000D01*
X158527626Y-78483000D02*
X158902500Y-78483000D01*
X158877626Y-78483000D02*
X158902500Y-78483000D01*
X156781500Y-79946500D02*
X156781500Y-79522019D01*
X156781500Y-79522019D02*
X157492018Y-78811501D01*
D32*
X133350000Y-75628500D02*
X129349500Y-75628500D01*
X127825500Y-77152500D02*
X127825500Y-78422500D01*
X129349500Y-75628500D02*
X127825500Y-77152500D01*
X134429500Y-75628500D02*
X133350000Y-75628500D01*
X134874000Y-73342500D02*
X134874000Y-73723500D01*
X134874000Y-73723500D02*
X134429500Y-74168000D01*
X134429500Y-74168000D02*
X134429500Y-75628500D01*
X146790500Y-91933000D02*
X146790500Y-94745000D01*
X146790500Y-94745000D02*
X145852500Y-95683000D01*
X145852500Y-95683000D02*
X141252500Y-95683000D01*
D33*
X125197500Y-93133000D02*
X123702500Y-93133000D01*
X123702500Y-93133000D02*
X121302500Y-90733000D01*
X121302500Y-90733000D02*
X119252500Y-88683000D01*
X125197500Y-93133000D02*
X125197500Y-94628000D01*
X125197500Y-94628000D02*
X126252500Y-95683000D01*
X119252500Y-88683000D02*
X119252500Y-86333000D01*
X126252500Y-95683000D02*
X132052500Y-95683000D01*
X119252500Y-85583000D02*
X119252500Y-84733000D01*
X119252500Y-84733000D02*
X118232500Y-83713000D01*
X119252500Y-86333000D02*
X119252500Y-85583000D01*
X119252500Y-85583000D02*
X119252500Y-84083000D01*
X119252500Y-84083000D02*
X123952500Y-79383000D01*
X118232500Y-83713000D02*
X119637500Y-83713000D01*
X119252500Y-84883000D02*
X119252500Y-84683000D01*
X119252500Y-84683000D02*
X118582500Y-84013000D01*
X119252500Y-86333000D02*
X119252500Y-84883000D01*
X119252500Y-84883000D02*
X119252500Y-84033000D01*
X119252500Y-84033000D02*
X119252500Y-84013000D01*
X118582500Y-84013000D02*
X119252500Y-84013000D01*
X119252500Y-84013000D02*
X119337500Y-84013000D01*
X119337500Y-84013000D02*
X124942500Y-78408000D01*
X132797500Y-94938000D02*
X132052500Y-95683000D01*
X132052500Y-95683000D02*
X132802500Y-95683000D01*
X123952500Y-79383000D02*
X123952500Y-79398000D01*
X114032500Y-83713000D02*
X118232500Y-83713000D01*
X119637500Y-83713000D02*
X123952500Y-79398000D01*
X132797500Y-94533000D02*
X132797500Y-94938000D01*
X132797500Y-94483000D02*
X132797500Y-94533000D01*
X132797500Y-94533000D02*
X132797500Y-95028000D01*
X132797500Y-95028000D02*
X133452500Y-95683000D01*
X132797500Y-94483000D02*
X132797500Y-95683000D01*
X132797500Y-95683000D02*
X132802500Y-95683000D01*
X132802500Y-95683000D02*
X133452500Y-95683000D01*
X133452500Y-95683000D02*
X136052500Y-95683000D01*
X113502500Y-83183000D02*
X114032500Y-83713000D01*
X113502500Y-83133000D02*
X113502500Y-83183000D01*
X113502500Y-83233000D02*
X113502500Y-83133000D01*
X136052500Y-95683000D02*
X139702500Y-95683000D01*
X113022500Y-83713000D02*
X113502500Y-83233000D01*
X141252500Y-95683000D02*
X140802500Y-95683000D01*
X140802500Y-95683000D02*
X140752500Y-95633000D01*
X140752500Y-95633000D02*
X140752500Y-95333000D01*
X141102500Y-95683000D02*
X141252500Y-95683000D01*
X140447500Y-95028000D02*
X140752500Y-95333000D01*
X140752500Y-95333000D02*
X141102500Y-95683000D01*
X140447500Y-94938000D02*
X139702500Y-95683000D01*
X140447500Y-95328000D02*
X140802500Y-95683000D01*
X139702500Y-95683000D02*
X140802500Y-95683000D01*
X140447500Y-94383000D02*
X140447500Y-95028000D01*
X140447500Y-94383000D02*
X140447500Y-94938000D01*
X108852500Y-83713000D02*
X114032500Y-83713000D01*
X108852500Y-83713000D02*
X113022500Y-83713000D01*
X124942500Y-78408000D02*
X127800000Y-78408000D01*
X123952500Y-79398000D02*
X124942500Y-78408000D01*
X113502500Y-83133000D02*
X113502500Y-82284000D01*
X140447500Y-93133000D02*
X140447500Y-94383000D01*
X140447500Y-93133000D02*
X140447500Y-95328000D01*
X132797500Y-93133000D02*
X132797500Y-94483000D01*
D32*
X161353500Y-90995500D02*
X161353500Y-90380447D01*
X161353500Y-90380447D02*
X160063553Y-89090500D01*
D34*
X159259785Y-88286732D02*
X160063553Y-89090500D01*
D32*
X161188500Y-77279500D02*
X161188500Y-76555500D01*
X162453500Y-75925500D02*
X162453500Y-75222000D01*
X162052000Y-76327000D02*
X162453500Y-75925500D01*
X161417000Y-76327000D02*
X162052000Y-76327000D01*
X161188500Y-76555500D02*
X161417000Y-76327000D01*
X161188500Y-77279500D02*
X161188500Y-77889000D01*
D34*
X160448947Y-78628553D02*
X160448947Y-78683000D01*
D32*
X161188500Y-77889000D02*
X160448947Y-78628553D01*
D34*
X158906232Y-80225715D02*
X159475724Y-79656223D01*
X159475724Y-79656223D02*
X160448947Y-78683000D01*
D32*
X161188500Y-77279500D02*
X161188500Y-77689447D01*
X161188500Y-77279500D02*
X161217447Y-77660500D01*
X162453500Y-75222000D02*
X162395000Y-75280500D01*
X158908750Y-73310750D02*
X159220000Y-73622000D01*
X159220000Y-73622000D02*
X160253500Y-73622000D01*
X159067500Y-74231500D02*
X159067500Y-74041000D01*
X159067500Y-74041000D02*
X159486500Y-73622000D01*
X160253500Y-73622000D02*
X159486500Y-73622000D01*
X159486500Y-73622000D02*
X159067500Y-73622000D01*
X159067500Y-73622000D02*
X159105500Y-73660000D01*
X159105500Y-73660000D02*
X159194500Y-73660000D01*
X159194500Y-73660000D02*
X159067500Y-73660000D01*
X159067500Y-75247500D02*
X159067500Y-74231500D01*
X159067500Y-74231500D02*
X159067500Y-73660000D01*
X159067500Y-73660000D02*
X159067500Y-73469500D01*
X159067500Y-73469500D02*
X158908750Y-73310750D01*
X158908750Y-73310750D02*
X158902500Y-73304500D01*
X158902500Y-73304500D02*
X158178500Y-73304500D01*
D34*
X159503170Y-78921670D02*
X159639000Y-78785840D01*
D32*
X159067500Y-75247500D02*
X159067500Y-76898500D01*
X159067500Y-76898500D02*
X159639000Y-77470000D01*
X159639000Y-77470000D02*
X159639000Y-78486000D01*
D34*
X159639000Y-78486000D02*
X159639000Y-78785840D01*
D32*
X160027500Y-73619000D02*
X160253500Y-73622000D01*
X160241500Y-73610000D02*
X160253500Y-73622000D01*
D34*
X158552679Y-79872161D02*
X159503170Y-78921670D01*
X159503170Y-78921670D02*
X159547170Y-78877670D01*
D32*
X169754660Y-87480200D02*
X169743260Y-89080240D01*
X169743260Y-89080240D02*
X169602500Y-89221000D01*
X171744780Y-89063280D02*
X171902500Y-89221000D01*
X171756180Y-87480200D02*
X171744780Y-89063280D01*
X136906000Y-78740000D02*
X132894500Y-78740000D01*
X132894500Y-78740000D02*
X132562500Y-78408000D01*
X131252500Y-78408000D02*
X129705000Y-78408000D01*
X131252500Y-78408000D02*
X130276500Y-78408000D01*
X132562500Y-78408000D02*
X131252500Y-78408000D01*
X129311500Y-73279000D02*
X127762000Y-73279000D01*
X164973000Y-72453500D02*
X167449500Y-72453500D01*
X167449500Y-72453500D02*
X169799000Y-74803000D01*
X162496500Y-72453500D02*
X164973000Y-72453500D01*
X130911500Y-73279000D02*
X132143500Y-73279000D01*
X132143500Y-73279000D02*
X133223000Y-74358500D01*
X144589500Y-72453500D02*
X140716000Y-72453500D01*
X140779500Y-72453500D02*
X140716000Y-72453500D01*
X140398500Y-72453500D02*
X140779500Y-72453500D01*
X144589500Y-72453500D02*
X153035000Y-72453500D01*
X153352500Y-73304500D02*
X153352500Y-72771000D01*
X153352500Y-72771000D02*
X153670000Y-72453500D01*
X153352500Y-72771000D02*
X153035000Y-72453500D01*
X153670000Y-72453500D02*
X153035000Y-72453500D01*
X162496500Y-72453500D02*
X153670000Y-72453500D01*
X153670000Y-72453500D02*
X153606500Y-72453500D01*
X166640000Y-88820500D02*
X167894000Y-90074500D01*
X167894000Y-90074500D02*
X167894000Y-90824500D01*
D35*
X160752500Y-84133000D02*
X161952500Y-84133000D01*
D32*
X161952500Y-84133000D02*
X163152500Y-85333000D01*
X166640000Y-88820500D02*
X163152500Y-85333000D01*
X167894000Y-90824500D02*
X168752500Y-91683000D01*
X171022500Y-91683000D02*
X172452500Y-93113000D01*
X168752500Y-91683000D02*
X171022500Y-91683000D01*
D35*
X160602500Y-84133000D02*
X160752500Y-84133000D01*
D34*
X160320446Y-87226072D02*
X159452500Y-86358126D01*
X159452500Y-86358126D02*
X159452500Y-85283000D01*
D35*
X159452500Y-85283000D02*
X160602500Y-84133000D01*
D32*
X166450750Y-89581250D02*
X167259000Y-90389500D01*
X167259000Y-90389500D02*
X167259000Y-91139500D01*
X169902500Y-93113000D02*
X169232500Y-93113000D01*
X169232500Y-93113000D02*
X167259000Y-91139500D01*
X161727500Y-84858000D02*
X166450750Y-89581250D01*
D35*
X161102500Y-84733000D02*
X161602500Y-84733000D01*
X161602500Y-84733000D02*
X161727500Y-84858000D01*
X161002500Y-84733000D02*
X161102500Y-84733000D01*
X160952500Y-84733000D02*
X161002500Y-84733000D01*
D34*
X160673999Y-86872518D02*
X160002500Y-86201019D01*
D35*
X160952500Y-84733000D02*
X160002500Y-85683000D01*
D34*
X160002500Y-86201019D02*
X160002500Y-85683000D01*
D35*
X131763500Y-85833000D02*
X131763500Y-85872000D01*
X131763500Y-85872000D02*
X131402500Y-86233000D01*
X131763500Y-85833000D02*
X131763500Y-85844000D01*
X131763500Y-85844000D02*
X132152500Y-86233000D01*
X131763500Y-85267000D02*
X131763500Y-85833000D01*
X131763500Y-85833000D02*
X131763500Y-86233000D01*
X131763500Y-86233000D02*
X131852500Y-86233000D01*
X131402500Y-86233000D02*
X124302500Y-86233000D01*
X124302500Y-86233000D02*
X124113500Y-86044000D01*
X124113500Y-85217000D02*
X124113500Y-86044000D01*
X139352500Y-85883000D02*
X139002500Y-86233000D01*
X139002500Y-86233000D02*
X138802500Y-86233000D01*
X139352500Y-85883000D02*
X139702500Y-86233000D01*
X139363500Y-85267000D02*
X139352500Y-85278000D01*
X139352500Y-85278000D02*
X139352500Y-85883000D01*
X139352500Y-85883000D02*
X139352500Y-86233000D01*
X145977500Y-86308000D02*
X145902500Y-86233000D01*
X145902500Y-86233000D02*
X139702500Y-86233000D01*
D32*
X147540500Y-89983000D02*
X147540500Y-87871000D01*
X147540500Y-87871000D02*
X145977500Y-86308000D01*
D35*
X139702500Y-86233000D02*
X139352500Y-86233000D01*
X139352500Y-86233000D02*
X138802500Y-86233000D01*
X138802500Y-86233000D02*
X132152500Y-86233000D01*
X132152500Y-86233000D02*
X131852500Y-86233000D01*
X131852500Y-86233000D02*
X131402500Y-86233000D01*
D32*
X125002500Y-89071000D02*
X125002500Y-87249000D01*
X132652500Y-89071000D02*
X132652500Y-87349000D01*
X128113500Y-88567000D02*
X128113500Y-87034000D01*
X128113500Y-87034000D02*
X128152500Y-86995000D01*
X128152500Y-86995000D02*
X129802500Y-86995000D01*
X135713500Y-88567000D02*
X135727740Y-87070240D01*
X135727740Y-87070240D02*
X135702500Y-87045000D01*
X135702500Y-87045000D02*
X137352500Y-87045000D01*
X143413500Y-88567000D02*
X143413500Y-87056000D01*
X143413500Y-87056000D02*
X143402500Y-87045000D01*
X143402500Y-87045000D02*
X145052500Y-87045000D01*
X140252500Y-89071000D02*
X140252500Y-87299000D01*
D34*
X161734659Y-85811858D02*
X162977500Y-87054699D01*
X162977500Y-87054699D02*
X162977500Y-87208000D01*
X162977500Y-87054699D02*
X162977500Y-87208000D01*
D32*
X156464000Y-76581000D02*
X155511500Y-76581000D01*
D34*
X156900500Y-76581000D02*
X156464000Y-76581000D01*
X157126750Y-76807250D02*
X156900500Y-76581000D01*
D32*
X154686000Y-75755500D02*
X154686000Y-74904500D01*
X155511500Y-76581000D02*
X154686000Y-75755500D01*
X153352500Y-74904500D02*
X154686000Y-74904500D01*
D34*
X157352500Y-77033000D02*
X157352500Y-77536806D01*
X157352500Y-77536806D02*
X156784912Y-78104394D01*
X157126750Y-76807250D02*
X157352500Y-77033000D01*
D32*
X137414000Y-74930000D02*
X137414000Y-75184000D01*
X137414000Y-75184000D02*
X137096500Y-75501500D01*
X137096500Y-75501500D02*
X136969500Y-75501500D01*
X137414000Y-75184000D02*
X137731500Y-75501500D01*
X137414000Y-73342500D02*
X137414000Y-74930000D01*
X137414000Y-74930000D02*
X137414000Y-75501500D01*
X137414000Y-75501500D02*
X137414000Y-75374500D01*
X137414000Y-75374500D02*
X137414000Y-75501500D01*
X138366500Y-75501500D02*
X137731500Y-75501500D01*
X137731500Y-75501500D02*
X137414000Y-75501500D01*
X137414000Y-75501500D02*
X136969500Y-75501500D01*
X136969500Y-75501500D02*
X136461500Y-75501500D01*
X136461500Y-75501500D02*
X136334500Y-75628500D01*
X141287500Y-77343000D02*
X141287500Y-74866500D01*
X141033500Y-74612500D02*
X140398500Y-74612500D01*
X141287500Y-74866500D02*
X141033500Y-74612500D01*
X140487500Y-77978000D02*
X141097000Y-77978000D01*
X141287500Y-77787500D02*
X141287500Y-77343000D01*
X141287500Y-77343000D02*
X141287500Y-77279500D01*
X141097000Y-77978000D02*
X141287500Y-77787500D01*
X140487500Y-77978000D02*
X139763500Y-77978000D01*
X139636500Y-77851000D02*
X138938000Y-77851000D01*
X139763500Y-77978000D02*
X139636500Y-77851000D01*
X138961000Y-77828000D02*
X138938000Y-77851000D01*
D37*
G36*
X117275500Y-90296525D02*
X113372176Y-90296525D01*
X113372176Y-90681000D01*
X108016600Y-90681000D01*
X108016600Y-87217543D01*
X108079886Y-87406854D01*
X108595586Y-87591749D01*
X109142788Y-87565220D01*
X109525114Y-87406854D01*
X109602103Y-87176552D01*
X108802500Y-86376948D01*
X108788358Y-86391091D01*
X108614409Y-86217142D01*
X108628552Y-86203000D01*
X108614409Y-86188858D01*
X108788358Y-86014910D01*
X108802500Y-86029052D01*
X108816643Y-86014910D01*
X108990591Y-86188858D01*
X108976448Y-86203000D01*
X109776052Y-87002603D01*
X110006354Y-86925614D01*
X110191249Y-86409914D01*
X110164720Y-85862712D01*
X110122175Y-85760000D01*
X117275500Y-85760000D01*
X117275500Y-90296525D01*
X117275500Y-90296525D01*
G37*
X117275500Y-90296525D02*
X113372176Y-90296525D01*
X113372176Y-90681000D01*
X108016600Y-90681000D01*
X108016600Y-87217543D01*
X108079886Y-87406854D01*
X108595586Y-87591749D01*
X109142788Y-87565220D01*
X109525114Y-87406854D01*
X109602103Y-87176552D01*
X108802500Y-86376948D01*
X108788358Y-86391091D01*
X108614409Y-86217142D01*
X108628552Y-86203000D01*
X108614409Y-86188858D01*
X108788358Y-86014910D01*
X108802500Y-86029052D01*
X108816643Y-86014910D01*
X108990591Y-86188858D01*
X108976448Y-86203000D01*
X109776052Y-87002603D01*
X110006354Y-86925614D01*
X110191249Y-86409914D01*
X110164720Y-85862712D01*
X110122175Y-85760000D01*
X117275500Y-85760000D01*
X117275500Y-90296525D01*
G36*
X127968300Y-90331750D02*
X128112550Y-90476000D01*
X128879500Y-90476000D01*
X128879500Y-90456000D01*
X129125500Y-90456000D01*
X129125500Y-90476000D01*
X129892450Y-90476000D01*
X130036700Y-90331750D01*
X130036700Y-90060000D01*
X130525500Y-90060000D01*
X130525500Y-94656000D01*
X127479500Y-94656000D01*
X127479500Y-94106552D01*
X128207897Y-94106552D01*
X128284886Y-94336854D01*
X128800586Y-94521749D01*
X129347788Y-94495220D01*
X129730114Y-94336854D01*
X129807103Y-94106552D01*
X129007500Y-93306948D01*
X128207897Y-94106552D01*
X127479500Y-94106552D01*
X127479500Y-92926086D01*
X127618751Y-92926086D01*
X127645280Y-93473288D01*
X127803646Y-93855614D01*
X128033948Y-93932603D01*
X128833552Y-93133000D01*
X129181448Y-93133000D01*
X129981052Y-93932603D01*
X130211354Y-93855614D01*
X130396249Y-93339914D01*
X130369720Y-92792712D01*
X130211354Y-92410386D01*
X129981052Y-92333397D01*
X129181448Y-93133000D01*
X128833552Y-93133000D01*
X128033948Y-92333397D01*
X127803646Y-92410386D01*
X127618751Y-92926086D01*
X127479500Y-92926086D01*
X127479500Y-92159448D01*
X128207897Y-92159448D01*
X129007500Y-92959052D01*
X129807103Y-92159448D01*
X129730114Y-91929146D01*
X129214414Y-91744251D01*
X128667212Y-91770780D01*
X128284886Y-91929146D01*
X128207897Y-92159448D01*
X127479500Y-92159448D01*
X127479500Y-90866250D01*
X127968300Y-90866250D01*
X127968300Y-91170973D01*
X128056143Y-91383045D01*
X128218456Y-91545357D01*
X128430528Y-91633200D01*
X128735250Y-91633200D01*
X128879500Y-91488950D01*
X128879500Y-90722000D01*
X129125500Y-90722000D01*
X129125500Y-91488950D01*
X129269750Y-91633200D01*
X129574472Y-91633200D01*
X129786544Y-91545357D01*
X129948857Y-91383045D01*
X130036700Y-91170973D01*
X130036700Y-90866250D01*
X129892450Y-90722000D01*
X129125500Y-90722000D01*
X128879500Y-90722000D01*
X128112550Y-90722000D01*
X127968300Y-90866250D01*
X127479500Y-90866250D01*
X127479500Y-90060000D01*
X127968300Y-90060000D01*
X127968300Y-90331750D01*
X127968300Y-90331750D01*
G37*
X127968300Y-90331750D02*
X128112550Y-90476000D01*
X128879500Y-90476000D01*
X128879500Y-90456000D01*
X129125500Y-90456000D01*
X129125500Y-90476000D01*
X129892450Y-90476000D01*
X130036700Y-90331750D01*
X130036700Y-90060000D01*
X130525500Y-90060000D01*
X130525500Y-94656000D01*
X127479500Y-94656000D01*
X127479500Y-94106552D01*
X128207897Y-94106552D01*
X128284886Y-94336854D01*
X128800586Y-94521749D01*
X129347788Y-94495220D01*
X129730114Y-94336854D01*
X129807103Y-94106552D01*
X129007500Y-93306948D01*
X128207897Y-94106552D01*
X127479500Y-94106552D01*
X127479500Y-92926086D01*
X127618751Y-92926086D01*
X127645280Y-93473288D01*
X127803646Y-93855614D01*
X128033948Y-93932603D01*
X128833552Y-93133000D01*
X129181448Y-93133000D01*
X129981052Y-93932603D01*
X130211354Y-93855614D01*
X130396249Y-93339914D01*
X130369720Y-92792712D01*
X130211354Y-92410386D01*
X129981052Y-92333397D01*
X129181448Y-93133000D01*
X128833552Y-93133000D01*
X128033948Y-92333397D01*
X127803646Y-92410386D01*
X127618751Y-92926086D01*
X127479500Y-92926086D01*
X127479500Y-92159448D01*
X128207897Y-92159448D01*
X129007500Y-92959052D01*
X129807103Y-92159448D01*
X129730114Y-91929146D01*
X129214414Y-91744251D01*
X128667212Y-91770780D01*
X128284886Y-91929146D01*
X128207897Y-92159448D01*
X127479500Y-92159448D01*
X127479500Y-90866250D01*
X127968300Y-90866250D01*
X127968300Y-91170973D01*
X128056143Y-91383045D01*
X128218456Y-91545357D01*
X128430528Y-91633200D01*
X128735250Y-91633200D01*
X128879500Y-91488950D01*
X128879500Y-90722000D01*
X129125500Y-90722000D01*
X129125500Y-91488950D01*
X129269750Y-91633200D01*
X129574472Y-91633200D01*
X129786544Y-91545357D01*
X129948857Y-91383045D01*
X130036700Y-91170973D01*
X130036700Y-90866250D01*
X129892450Y-90722000D01*
X129125500Y-90722000D01*
X128879500Y-90722000D01*
X128112550Y-90722000D01*
X127968300Y-90866250D01*
X127479500Y-90866250D01*
X127479500Y-90060000D01*
X127968300Y-90060000D01*
X127968300Y-90331750D01*
G36*
X135568300Y-90331750D02*
X135712550Y-90476000D01*
X136479500Y-90476000D01*
X136479500Y-90456000D01*
X136725500Y-90456000D01*
X136725500Y-90476000D01*
X137492450Y-90476000D01*
X137636700Y-90331750D01*
X137636700Y-90060000D01*
X138125500Y-90060000D01*
X138125500Y-94656000D01*
X135079500Y-94656000D01*
X135079500Y-94106552D01*
X135807897Y-94106552D01*
X135884886Y-94336854D01*
X136400586Y-94521749D01*
X136947788Y-94495220D01*
X137330114Y-94336854D01*
X137407103Y-94106552D01*
X136607500Y-93306948D01*
X135807897Y-94106552D01*
X135079500Y-94106552D01*
X135079500Y-92926086D01*
X135218751Y-92926086D01*
X135245280Y-93473288D01*
X135403646Y-93855614D01*
X135633948Y-93932603D01*
X136433552Y-93133000D01*
X136781448Y-93133000D01*
X137581052Y-93932603D01*
X137811354Y-93855614D01*
X137996249Y-93339914D01*
X137969720Y-92792712D01*
X137811354Y-92410386D01*
X137581052Y-92333397D01*
X136781448Y-93133000D01*
X136433552Y-93133000D01*
X135633948Y-92333397D01*
X135403646Y-92410386D01*
X135218751Y-92926086D01*
X135079500Y-92926086D01*
X135079500Y-92159448D01*
X135807897Y-92159448D01*
X136607500Y-92959052D01*
X137407103Y-92159448D01*
X137330114Y-91929146D01*
X136814414Y-91744251D01*
X136267212Y-91770780D01*
X135884886Y-91929146D01*
X135807897Y-92159448D01*
X135079500Y-92159448D01*
X135079500Y-90866250D01*
X135568300Y-90866250D01*
X135568300Y-91170973D01*
X135656143Y-91383045D01*
X135818456Y-91545357D01*
X136030528Y-91633200D01*
X136335250Y-91633200D01*
X136479500Y-91488950D01*
X136479500Y-90722000D01*
X136725500Y-90722000D01*
X136725500Y-91488950D01*
X136869750Y-91633200D01*
X137174472Y-91633200D01*
X137386544Y-91545357D01*
X137548857Y-91383045D01*
X137636700Y-91170973D01*
X137636700Y-90866250D01*
X137492450Y-90722000D01*
X136725500Y-90722000D01*
X136479500Y-90722000D01*
X135712550Y-90722000D01*
X135568300Y-90866250D01*
X135079500Y-90866250D01*
X135079500Y-90060000D01*
X135568300Y-90060000D01*
X135568300Y-90331750D01*
X135568300Y-90331750D01*
G37*
X135568300Y-90331750D02*
X135712550Y-90476000D01*
X136479500Y-90476000D01*
X136479500Y-90456000D01*
X136725500Y-90456000D01*
X136725500Y-90476000D01*
X137492450Y-90476000D01*
X137636700Y-90331750D01*
X137636700Y-90060000D01*
X138125500Y-90060000D01*
X138125500Y-94656000D01*
X135079500Y-94656000D01*
X135079500Y-94106552D01*
X135807897Y-94106552D01*
X135884886Y-94336854D01*
X136400586Y-94521749D01*
X136947788Y-94495220D01*
X137330114Y-94336854D01*
X137407103Y-94106552D01*
X136607500Y-93306948D01*
X135807897Y-94106552D01*
X135079500Y-94106552D01*
X135079500Y-92926086D01*
X135218751Y-92926086D01*
X135245280Y-93473288D01*
X135403646Y-93855614D01*
X135633948Y-93932603D01*
X136433552Y-93133000D01*
X136781448Y-93133000D01*
X137581052Y-93932603D01*
X137811354Y-93855614D01*
X137996249Y-93339914D01*
X137969720Y-92792712D01*
X137811354Y-92410386D01*
X137581052Y-92333397D01*
X136781448Y-93133000D01*
X136433552Y-93133000D01*
X135633948Y-92333397D01*
X135403646Y-92410386D01*
X135218751Y-92926086D01*
X135079500Y-92926086D01*
X135079500Y-92159448D01*
X135807897Y-92159448D01*
X136607500Y-92959052D01*
X137407103Y-92159448D01*
X137330114Y-91929146D01*
X136814414Y-91744251D01*
X136267212Y-91770780D01*
X135884886Y-91929146D01*
X135807897Y-92159448D01*
X135079500Y-92159448D01*
X135079500Y-90866250D01*
X135568300Y-90866250D01*
X135568300Y-91170973D01*
X135656143Y-91383045D01*
X135818456Y-91545357D01*
X136030528Y-91633200D01*
X136335250Y-91633200D01*
X136479500Y-91488950D01*
X136479500Y-90722000D01*
X136725500Y-90722000D01*
X136725500Y-91488950D01*
X136869750Y-91633200D01*
X137174472Y-91633200D01*
X137386544Y-91545357D01*
X137548857Y-91383045D01*
X137636700Y-91170973D01*
X137636700Y-90866250D01*
X137492450Y-90722000D01*
X136725500Y-90722000D01*
X136479500Y-90722000D01*
X135712550Y-90722000D01*
X135568300Y-90866250D01*
X135079500Y-90866250D01*
X135079500Y-90060000D01*
X135568300Y-90060000D01*
X135568300Y-90331750D01*
G36*
X143268300Y-90331750D02*
X143412550Y-90476000D01*
X144179500Y-90476000D01*
X144179500Y-90456000D01*
X144425500Y-90456000D01*
X144425500Y-90476000D01*
X145192450Y-90476000D01*
X145336700Y-90331750D01*
X145336700Y-90060000D01*
X145825500Y-90060000D01*
X145825500Y-91303726D01*
X145789196Y-91483000D01*
X145789196Y-92383000D01*
X145825500Y-92575937D01*
X145825500Y-94624591D01*
X145534592Y-94915500D01*
X142729500Y-94915500D01*
X142729500Y-94106552D01*
X143457897Y-94106552D01*
X143534886Y-94336854D01*
X144050586Y-94521749D01*
X144597788Y-94495220D01*
X144980114Y-94336854D01*
X145057103Y-94106552D01*
X144257500Y-93306948D01*
X143457897Y-94106552D01*
X142729500Y-94106552D01*
X142729500Y-92926086D01*
X142868751Y-92926086D01*
X142895280Y-93473288D01*
X143053646Y-93855614D01*
X143283948Y-93932603D01*
X144083552Y-93133000D01*
X144431448Y-93133000D01*
X145231052Y-93932603D01*
X145461354Y-93855614D01*
X145646249Y-93339914D01*
X145619720Y-92792712D01*
X145461354Y-92410386D01*
X145231052Y-92333397D01*
X144431448Y-93133000D01*
X144083552Y-93133000D01*
X143283948Y-92333397D01*
X143053646Y-92410386D01*
X142868751Y-92926086D01*
X142729500Y-92926086D01*
X142729500Y-92159448D01*
X143457897Y-92159448D01*
X144257500Y-92959052D01*
X145057103Y-92159448D01*
X144980114Y-91929146D01*
X144464414Y-91744251D01*
X143917212Y-91770780D01*
X143534886Y-91929146D01*
X143457897Y-92159448D01*
X142729500Y-92159448D01*
X142729500Y-90866250D01*
X143268300Y-90866250D01*
X143268300Y-91170973D01*
X143356143Y-91383045D01*
X143518456Y-91545357D01*
X143730528Y-91633200D01*
X144035250Y-91633200D01*
X144179500Y-91488950D01*
X144179500Y-90722000D01*
X144425500Y-90722000D01*
X144425500Y-91488950D01*
X144569750Y-91633200D01*
X144874472Y-91633200D01*
X145086544Y-91545357D01*
X145248857Y-91383045D01*
X145336700Y-91170973D01*
X145336700Y-90866250D01*
X145192450Y-90722000D01*
X144425500Y-90722000D01*
X144179500Y-90722000D01*
X143412550Y-90722000D01*
X143268300Y-90866250D01*
X142729500Y-90866250D01*
X142729500Y-90060000D01*
X143268300Y-90060000D01*
X143268300Y-90331750D01*
X143268300Y-90331750D01*
G37*
X143268300Y-90331750D02*
X143412550Y-90476000D01*
X144179500Y-90476000D01*
X144179500Y-90456000D01*
X144425500Y-90456000D01*
X144425500Y-90476000D01*
X145192450Y-90476000D01*
X145336700Y-90331750D01*
X145336700Y-90060000D01*
X145825500Y-90060000D01*
X145825500Y-91303726D01*
X145789196Y-91483000D01*
X145789196Y-92383000D01*
X145825500Y-92575937D01*
X145825500Y-94624591D01*
X145534592Y-94915500D01*
X142729500Y-94915500D01*
X142729500Y-94106552D01*
X143457897Y-94106552D01*
X143534886Y-94336854D01*
X144050586Y-94521749D01*
X144597788Y-94495220D01*
X144980114Y-94336854D01*
X145057103Y-94106552D01*
X144257500Y-93306948D01*
X143457897Y-94106552D01*
X142729500Y-94106552D01*
X142729500Y-92926086D01*
X142868751Y-92926086D01*
X142895280Y-93473288D01*
X143053646Y-93855614D01*
X143283948Y-93932603D01*
X144083552Y-93133000D01*
X144431448Y-93133000D01*
X145231052Y-93932603D01*
X145461354Y-93855614D01*
X145646249Y-93339914D01*
X145619720Y-92792712D01*
X145461354Y-92410386D01*
X145231052Y-92333397D01*
X144431448Y-93133000D01*
X144083552Y-93133000D01*
X143283948Y-92333397D01*
X143053646Y-92410386D01*
X142868751Y-92926086D01*
X142729500Y-92926086D01*
X142729500Y-92159448D01*
X143457897Y-92159448D01*
X144257500Y-92959052D01*
X145057103Y-92159448D01*
X144980114Y-91929146D01*
X144464414Y-91744251D01*
X143917212Y-91770780D01*
X143534886Y-91929146D01*
X143457897Y-92159448D01*
X142729500Y-92159448D01*
X142729500Y-90866250D01*
X143268300Y-90866250D01*
X143268300Y-91170973D01*
X143356143Y-91383045D01*
X143518456Y-91545357D01*
X143730528Y-91633200D01*
X144035250Y-91633200D01*
X144179500Y-91488950D01*
X144179500Y-90722000D01*
X144425500Y-90722000D01*
X144425500Y-91488950D01*
X144569750Y-91633200D01*
X144874472Y-91633200D01*
X145086544Y-91545357D01*
X145248857Y-91383045D01*
X145336700Y-91170973D01*
X145336700Y-90866250D01*
X145192450Y-90722000D01*
X144425500Y-90722000D01*
X144179500Y-90722000D01*
X143412550Y-90722000D01*
X143268300Y-90866250D01*
X142729500Y-90866250D01*
X142729500Y-90060000D01*
X143268300Y-90060000D01*
X143268300Y-90331750D01*
G36*
X111075500Y-80483000D02*
X111089445Y-80551863D01*
X111129083Y-80609875D01*
X111188168Y-80647895D01*
X111252500Y-80660000D01*
X114802500Y-80660000D01*
X114871363Y-80646055D01*
X114927658Y-80608158D01*
X115675816Y-79860000D01*
X120112994Y-79860000D01*
X120154000Y-79868304D01*
X121551000Y-79868304D01*
X121595131Y-79860000D01*
X123325500Y-79860000D01*
X123325500Y-84287002D01*
X123246093Y-84338099D01*
X123114346Y-84530917D01*
X123067996Y-84759800D01*
X123067996Y-85674200D01*
X123108230Y-85888023D01*
X123234599Y-86084407D01*
X123325500Y-86146517D01*
X123325500Y-91183000D01*
X123339445Y-91251863D01*
X123379083Y-91309875D01*
X123438168Y-91347895D01*
X123502500Y-91360000D01*
X124093344Y-91360000D01*
X124130799Y-91418207D01*
X124323617Y-91549954D01*
X124552500Y-91596304D01*
X125452500Y-91596304D01*
X125666323Y-91556070D01*
X125862707Y-91429701D01*
X125865236Y-91426000D01*
X126725500Y-91426000D01*
X126725500Y-95233000D01*
X126739445Y-95301863D01*
X126779083Y-95359875D01*
X126838168Y-95397895D01*
X126902500Y-95410000D01*
X131102500Y-95410000D01*
X131171363Y-95396055D01*
X131229375Y-95356417D01*
X131267395Y-95297332D01*
X131279500Y-95233000D01*
X131279500Y-94106552D01*
X131997897Y-94106552D01*
X132074886Y-94336854D01*
X132590586Y-94521749D01*
X133137788Y-94495220D01*
X133520114Y-94336854D01*
X133597103Y-94106552D01*
X132797500Y-93306948D01*
X131997897Y-94106552D01*
X131279500Y-94106552D01*
X131279500Y-92926086D01*
X131408751Y-92926086D01*
X131435280Y-93473288D01*
X131593646Y-93855614D01*
X131823948Y-93932603D01*
X132623552Y-93133000D01*
X132971448Y-93133000D01*
X133771052Y-93932603D01*
X134001354Y-93855614D01*
X134186249Y-93339914D01*
X134159720Y-92792712D01*
X134001354Y-92410386D01*
X133771052Y-92333397D01*
X132971448Y-93133000D01*
X132623552Y-93133000D01*
X131823948Y-92333397D01*
X131593646Y-92410386D01*
X131408751Y-92926086D01*
X131279500Y-92926086D01*
X131279500Y-92159448D01*
X131997897Y-92159448D01*
X132797500Y-92959052D01*
X133597103Y-92159448D01*
X133520114Y-91929146D01*
X133004414Y-91744251D01*
X132457212Y-91770780D01*
X132074886Y-91929146D01*
X131997897Y-92159448D01*
X131279500Y-92159448D01*
X131279500Y-91360000D01*
X131743344Y-91360000D01*
X131780799Y-91418207D01*
X131973617Y-91549954D01*
X132202500Y-91596304D01*
X133102500Y-91596304D01*
X133316323Y-91556070D01*
X133512242Y-91430000D01*
X134325500Y-91430000D01*
X134325500Y-95233000D01*
X134339445Y-95301863D01*
X134379083Y-95359875D01*
X134438168Y-95397895D01*
X134502500Y-95410000D01*
X138752500Y-95410000D01*
X138821363Y-95396055D01*
X138879375Y-95356417D01*
X138917395Y-95297332D01*
X138929500Y-95233000D01*
X138929500Y-94106552D01*
X139647897Y-94106552D01*
X139724886Y-94336854D01*
X140240586Y-94521749D01*
X140787788Y-94495220D01*
X141170114Y-94336854D01*
X141247103Y-94106552D01*
X140447500Y-93306948D01*
X139647897Y-94106552D01*
X138929500Y-94106552D01*
X138929500Y-92926086D01*
X139058751Y-92926086D01*
X139085280Y-93473288D01*
X139243646Y-93855614D01*
X139473948Y-93932603D01*
X140273552Y-93133000D01*
X140621448Y-93133000D01*
X141421052Y-93932603D01*
X141651354Y-93855614D01*
X141836249Y-93339914D01*
X141809720Y-92792712D01*
X141651354Y-92410386D01*
X141421052Y-92333397D01*
X140621448Y-93133000D01*
X140273552Y-93133000D01*
X139473948Y-92333397D01*
X139243646Y-92410386D01*
X139058751Y-92926086D01*
X138929500Y-92926086D01*
X138929500Y-92159448D01*
X139647897Y-92159448D01*
X140447500Y-92959052D01*
X141247103Y-92159448D01*
X141170114Y-91929146D01*
X140654414Y-91744251D01*
X140107212Y-91770780D01*
X139724886Y-91929146D01*
X139647897Y-92159448D01*
X138929500Y-92159448D01*
X138929500Y-91360000D01*
X139343344Y-91360000D01*
X139380799Y-91418207D01*
X139573617Y-91549954D01*
X139802500Y-91596304D01*
X140702500Y-91596304D01*
X140916323Y-91556070D01*
X141112242Y-91430000D01*
X141975500Y-91430000D01*
X141975500Y-96213460D01*
X122593824Y-96213460D01*
X122593824Y-94106552D01*
X124397897Y-94106552D01*
X124474886Y-94336854D01*
X124990586Y-94521749D01*
X125537788Y-94495220D01*
X125920114Y-94336854D01*
X125997103Y-94106552D01*
X125197500Y-93306948D01*
X124397897Y-94106552D01*
X122593824Y-94106552D01*
X122593824Y-92926086D01*
X123808751Y-92926086D01*
X123835280Y-93473288D01*
X123993646Y-93855614D01*
X124223948Y-93932603D01*
X125023552Y-93133000D01*
X125371448Y-93133000D01*
X126171052Y-93932603D01*
X126401354Y-93855614D01*
X126586249Y-93339914D01*
X126559720Y-92792712D01*
X126401354Y-92410386D01*
X126171052Y-92333397D01*
X125371448Y-93133000D01*
X125023552Y-93133000D01*
X124223948Y-92333397D01*
X123993646Y-92410386D01*
X123808751Y-92926086D01*
X122593824Y-92926086D01*
X122593824Y-92159448D01*
X124397897Y-92159448D01*
X125197500Y-92959052D01*
X125997103Y-92159448D01*
X125920114Y-91929146D01*
X125404414Y-91744251D01*
X124857212Y-91770780D01*
X124474886Y-91929146D01*
X124397897Y-92159448D01*
X122593824Y-92159448D01*
X122593824Y-90296525D01*
X118029500Y-90296525D01*
X118029500Y-85183000D01*
X118015555Y-85114137D01*
X117975917Y-85056125D01*
X117916832Y-85018105D01*
X117852500Y-85006000D01*
X109510776Y-85006000D01*
X109350180Y-84939315D01*
X109525114Y-84866854D01*
X109602103Y-84636552D01*
X108802500Y-83836948D01*
X108788358Y-83851091D01*
X108614409Y-83677142D01*
X108628552Y-83663000D01*
X108976448Y-83663000D01*
X109776052Y-84462603D01*
X110006354Y-84385614D01*
X110191249Y-83869914D01*
X110164720Y-83322712D01*
X110006354Y-82940386D01*
X109776052Y-82863397D01*
X108976448Y-83663000D01*
X108628552Y-83663000D01*
X108614409Y-83648858D01*
X108788358Y-83474909D01*
X108802500Y-83489052D01*
X109602103Y-82689448D01*
X109555904Y-82551250D01*
X111909500Y-82551250D01*
X111909500Y-83160772D01*
X111997343Y-83372844D01*
X112159655Y-83535157D01*
X112371727Y-83623000D01*
X113235250Y-83623000D01*
X113379500Y-83478750D01*
X113379500Y-82407000D01*
X113625500Y-82407000D01*
X113625500Y-83478750D01*
X113769750Y-83623000D01*
X114633273Y-83623000D01*
X114845345Y-83535157D01*
X115007657Y-83372844D01*
X115095500Y-83160772D01*
X115095500Y-82551250D01*
X114951250Y-82407000D01*
X113625500Y-82407000D01*
X113379500Y-82407000D01*
X112053750Y-82407000D01*
X111909500Y-82551250D01*
X109555904Y-82551250D01*
X109525114Y-82459146D01*
X109009414Y-82274251D01*
X108462212Y-82300780D01*
X108079886Y-82459146D01*
X108016600Y-82648457D01*
X108016600Y-81407228D01*
X111909500Y-81407228D01*
X111909500Y-82016750D01*
X112053750Y-82161000D01*
X113379500Y-82161000D01*
X113379500Y-81089250D01*
X113625500Y-81089250D01*
X113625500Y-82161000D01*
X114951250Y-82161000D01*
X115095500Y-82016750D01*
X115095500Y-81407228D01*
X115007657Y-81195156D01*
X114845345Y-81032843D01*
X114633273Y-80945000D01*
X113769750Y-80945000D01*
X113625500Y-81089250D01*
X113379500Y-81089250D01*
X113235250Y-80945000D01*
X112371727Y-80945000D01*
X112159655Y-81032843D01*
X111997343Y-81195156D01*
X111909500Y-81407228D01*
X108016600Y-81407228D01*
X108016600Y-79860000D01*
X111075500Y-79860000D01*
X111075500Y-80483000D01*
X111075500Y-80483000D01*
G37*
X111075500Y-80483000D02*
X111089445Y-80551863D01*
X111129083Y-80609875D01*
X111188168Y-80647895D01*
X111252500Y-80660000D01*
X114802500Y-80660000D01*
X114871363Y-80646055D01*
X114927658Y-80608158D01*
X115675816Y-79860000D01*
X120112994Y-79860000D01*
X120154000Y-79868304D01*
X121551000Y-79868304D01*
X121595131Y-79860000D01*
X123325500Y-79860000D01*
X123325500Y-84287002D01*
X123246093Y-84338099D01*
X123114346Y-84530917D01*
X123067996Y-84759800D01*
X123067996Y-85674200D01*
X123108230Y-85888023D01*
X123234599Y-86084407D01*
X123325500Y-86146517D01*
X123325500Y-91183000D01*
X123339445Y-91251863D01*
X123379083Y-91309875D01*
X123438168Y-91347895D01*
X123502500Y-91360000D01*
X124093344Y-91360000D01*
X124130799Y-91418207D01*
X124323617Y-91549954D01*
X124552500Y-91596304D01*
X125452500Y-91596304D01*
X125666323Y-91556070D01*
X125862707Y-91429701D01*
X125865236Y-91426000D01*
X126725500Y-91426000D01*
X126725500Y-95233000D01*
X126739445Y-95301863D01*
X126779083Y-95359875D01*
X126838168Y-95397895D01*
X126902500Y-95410000D01*
X131102500Y-95410000D01*
X131171363Y-95396055D01*
X131229375Y-95356417D01*
X131267395Y-95297332D01*
X131279500Y-95233000D01*
X131279500Y-94106552D01*
X131997897Y-94106552D01*
X132074886Y-94336854D01*
X132590586Y-94521749D01*
X133137788Y-94495220D01*
X133520114Y-94336854D01*
X133597103Y-94106552D01*
X132797500Y-93306948D01*
X131997897Y-94106552D01*
X131279500Y-94106552D01*
X131279500Y-92926086D01*
X131408751Y-92926086D01*
X131435280Y-93473288D01*
X131593646Y-93855614D01*
X131823948Y-93932603D01*
X132623552Y-93133000D01*
X132971448Y-93133000D01*
X133771052Y-93932603D01*
X134001354Y-93855614D01*
X134186249Y-93339914D01*
X134159720Y-92792712D01*
X134001354Y-92410386D01*
X133771052Y-92333397D01*
X132971448Y-93133000D01*
X132623552Y-93133000D01*
X131823948Y-92333397D01*
X131593646Y-92410386D01*
X131408751Y-92926086D01*
X131279500Y-92926086D01*
X131279500Y-92159448D01*
X131997897Y-92159448D01*
X132797500Y-92959052D01*
X133597103Y-92159448D01*
X133520114Y-91929146D01*
X133004414Y-91744251D01*
X132457212Y-91770780D01*
X132074886Y-91929146D01*
X131997897Y-92159448D01*
X131279500Y-92159448D01*
X131279500Y-91360000D01*
X131743344Y-91360000D01*
X131780799Y-91418207D01*
X131973617Y-91549954D01*
X132202500Y-91596304D01*
X133102500Y-91596304D01*
X133316323Y-91556070D01*
X133512242Y-91430000D01*
X134325500Y-91430000D01*
X134325500Y-95233000D01*
X134339445Y-95301863D01*
X134379083Y-95359875D01*
X134438168Y-95397895D01*
X134502500Y-95410000D01*
X138752500Y-95410000D01*
X138821363Y-95396055D01*
X138879375Y-95356417D01*
X138917395Y-95297332D01*
X138929500Y-95233000D01*
X138929500Y-94106552D01*
X139647897Y-94106552D01*
X139724886Y-94336854D01*
X140240586Y-94521749D01*
X140787788Y-94495220D01*
X141170114Y-94336854D01*
X141247103Y-94106552D01*
X140447500Y-93306948D01*
X139647897Y-94106552D01*
X138929500Y-94106552D01*
X138929500Y-92926086D01*
X139058751Y-92926086D01*
X139085280Y-93473288D01*
X139243646Y-93855614D01*
X139473948Y-93932603D01*
X140273552Y-93133000D01*
X140621448Y-93133000D01*
X141421052Y-93932603D01*
X141651354Y-93855614D01*
X141836249Y-93339914D01*
X141809720Y-92792712D01*
X141651354Y-92410386D01*
X141421052Y-92333397D01*
X140621448Y-93133000D01*
X140273552Y-93133000D01*
X139473948Y-92333397D01*
X139243646Y-92410386D01*
X139058751Y-92926086D01*
X138929500Y-92926086D01*
X138929500Y-92159448D01*
X139647897Y-92159448D01*
X140447500Y-92959052D01*
X141247103Y-92159448D01*
X141170114Y-91929146D01*
X140654414Y-91744251D01*
X140107212Y-91770780D01*
X139724886Y-91929146D01*
X139647897Y-92159448D01*
X138929500Y-92159448D01*
X138929500Y-91360000D01*
X139343344Y-91360000D01*
X139380799Y-91418207D01*
X139573617Y-91549954D01*
X139802500Y-91596304D01*
X140702500Y-91596304D01*
X140916323Y-91556070D01*
X141112242Y-91430000D01*
X141975500Y-91430000D01*
X141975500Y-96213460D01*
X122593824Y-96213460D01*
X122593824Y-94106552D01*
X124397897Y-94106552D01*
X124474886Y-94336854D01*
X124990586Y-94521749D01*
X125537788Y-94495220D01*
X125920114Y-94336854D01*
X125997103Y-94106552D01*
X125197500Y-93306948D01*
X124397897Y-94106552D01*
X122593824Y-94106552D01*
X122593824Y-92926086D01*
X123808751Y-92926086D01*
X123835280Y-93473288D01*
X123993646Y-93855614D01*
X124223948Y-93932603D01*
X125023552Y-93133000D01*
X125371448Y-93133000D01*
X126171052Y-93932603D01*
X126401354Y-93855614D01*
X126586249Y-93339914D01*
X126559720Y-92792712D01*
X126401354Y-92410386D01*
X126171052Y-92333397D01*
X125371448Y-93133000D01*
X125023552Y-93133000D01*
X124223948Y-92333397D01*
X123993646Y-92410386D01*
X123808751Y-92926086D01*
X122593824Y-92926086D01*
X122593824Y-92159448D01*
X124397897Y-92159448D01*
X125197500Y-92959052D01*
X125997103Y-92159448D01*
X125920114Y-91929146D01*
X125404414Y-91744251D01*
X124857212Y-91770780D01*
X124474886Y-91929146D01*
X124397897Y-92159448D01*
X122593824Y-92159448D01*
X122593824Y-90296525D01*
X118029500Y-90296525D01*
X118029500Y-85183000D01*
X118015555Y-85114137D01*
X117975917Y-85056125D01*
X117916832Y-85018105D01*
X117852500Y-85006000D01*
X109510776Y-85006000D01*
X109350180Y-84939315D01*
X109525114Y-84866854D01*
X109602103Y-84636552D01*
X108802500Y-83836948D01*
X108788358Y-83851091D01*
X108614409Y-83677142D01*
X108628552Y-83663000D01*
X108976448Y-83663000D01*
X109776052Y-84462603D01*
X110006354Y-84385614D01*
X110191249Y-83869914D01*
X110164720Y-83322712D01*
X110006354Y-82940386D01*
X109776052Y-82863397D01*
X108976448Y-83663000D01*
X108628552Y-83663000D01*
X108614409Y-83648858D01*
X108788358Y-83474909D01*
X108802500Y-83489052D01*
X109602103Y-82689448D01*
X109555904Y-82551250D01*
X111909500Y-82551250D01*
X111909500Y-83160772D01*
X111997343Y-83372844D01*
X112159655Y-83535157D01*
X112371727Y-83623000D01*
X113235250Y-83623000D01*
X113379500Y-83478750D01*
X113379500Y-82407000D01*
X113625500Y-82407000D01*
X113625500Y-83478750D01*
X113769750Y-83623000D01*
X114633273Y-83623000D01*
X114845345Y-83535157D01*
X115007657Y-83372844D01*
X115095500Y-83160772D01*
X115095500Y-82551250D01*
X114951250Y-82407000D01*
X113625500Y-82407000D01*
X113379500Y-82407000D01*
X112053750Y-82407000D01*
X111909500Y-82551250D01*
X109555904Y-82551250D01*
X109525114Y-82459146D01*
X109009414Y-82274251D01*
X108462212Y-82300780D01*
X108079886Y-82459146D01*
X108016600Y-82648457D01*
X108016600Y-81407228D01*
X111909500Y-81407228D01*
X111909500Y-82016750D01*
X112053750Y-82161000D01*
X113379500Y-82161000D01*
X113379500Y-81089250D01*
X113625500Y-81089250D01*
X113625500Y-82161000D01*
X114951250Y-82161000D01*
X115095500Y-82016750D01*
X115095500Y-81407228D01*
X115007657Y-81195156D01*
X114845345Y-81032843D01*
X114633273Y-80945000D01*
X113769750Y-80945000D01*
X113625500Y-81089250D01*
X113379500Y-81089250D01*
X113235250Y-80945000D01*
X112371727Y-80945000D01*
X112159655Y-81032843D01*
X111997343Y-81195156D01*
X111909500Y-81407228D01*
X108016600Y-81407228D01*
X108016600Y-79860000D01*
X111075500Y-79860000D01*
X111075500Y-80483000D01*
G36*
X115124501Y-72761728D02*
X115124501Y-72863252D01*
X115268750Y-73007501D01*
X115959501Y-73007501D01*
X115959501Y-72987501D01*
X116205499Y-72987501D01*
X116205499Y-73007501D01*
X116896250Y-73007501D01*
X117040499Y-72863252D01*
X117040499Y-72761728D01*
X117000830Y-72665959D01*
X117075500Y-72665959D01*
X117075500Y-73315501D01*
X116958252Y-73315501D01*
X116896250Y-73253499D01*
X116526718Y-73253499D01*
X116463500Y-73240697D01*
X115701500Y-73240697D01*
X115633464Y-73253499D01*
X115268750Y-73253499D01*
X115124501Y-73397748D01*
X115124501Y-73499272D01*
X115163734Y-73593989D01*
X115159547Y-73600117D01*
X115113197Y-73829000D01*
X115113197Y-74337000D01*
X115153431Y-74550823D01*
X115165039Y-74568862D01*
X115124501Y-74666728D01*
X115124501Y-74768252D01*
X115268750Y-74912501D01*
X115638282Y-74912501D01*
X115701500Y-74925303D01*
X116225499Y-74925303D01*
X116225499Y-75158499D01*
X116205499Y-75158499D01*
X116205499Y-75722250D01*
X116349748Y-75866499D01*
X116578272Y-75866499D01*
X116585001Y-75863712D01*
X116585001Y-76102288D01*
X116578272Y-76099501D01*
X116349748Y-76099501D01*
X116205499Y-76243750D01*
X116205499Y-76807501D01*
X116225499Y-76807501D01*
X116225499Y-77040697D01*
X115701500Y-77040697D01*
X115633464Y-77053499D01*
X115268750Y-77053499D01*
X115124501Y-77197748D01*
X115124501Y-77299272D01*
X115163734Y-77393989D01*
X115159547Y-77400117D01*
X115113197Y-77629000D01*
X115113197Y-78137000D01*
X115153431Y-78350823D01*
X115165039Y-78368862D01*
X115124501Y-78466728D01*
X115124501Y-78568252D01*
X115268750Y-78712501D01*
X115638282Y-78712501D01*
X115701500Y-78725303D01*
X116463500Y-78725303D01*
X116531536Y-78712501D01*
X116896250Y-78712501D01*
X116958252Y-78650499D01*
X117075500Y-78650499D01*
X117075500Y-79106000D01*
X117040499Y-79106000D01*
X117040499Y-79102748D01*
X116896250Y-78958499D01*
X116205499Y-78958499D01*
X116205499Y-78978499D01*
X115959501Y-78978499D01*
X115959501Y-78958499D01*
X115268750Y-78958499D01*
X115124501Y-79102748D01*
X115124501Y-79204272D01*
X115155668Y-79279516D01*
X115095499Y-79339685D01*
X115095499Y-79249248D01*
X114951250Y-79104999D01*
X113625499Y-79104999D01*
X113625499Y-79124999D01*
X113379501Y-79124999D01*
X113379501Y-79104999D01*
X113359501Y-79104999D01*
X113359501Y-78859001D01*
X113379501Y-78859001D01*
X113379501Y-78056221D01*
X113417395Y-77997332D01*
X113429500Y-77933000D01*
X113429500Y-77787250D01*
X113625499Y-77787250D01*
X113625499Y-78859001D01*
X114951250Y-78859001D01*
X115095499Y-78714752D01*
X115095499Y-78105228D01*
X115007656Y-77893157D01*
X114845344Y-77730844D01*
X114633272Y-77643001D01*
X113769748Y-77643001D01*
X113625499Y-77787250D01*
X113429500Y-77787250D01*
X113429500Y-76561728D01*
X115124501Y-76561728D01*
X115124501Y-76663252D01*
X115268750Y-76807501D01*
X115959501Y-76807501D01*
X115959501Y-76243750D01*
X115815252Y-76099501D01*
X115586728Y-76099501D01*
X115374656Y-76187344D01*
X115212344Y-76349657D01*
X115124501Y-76561728D01*
X113429500Y-76561728D01*
X113429500Y-75302748D01*
X115124501Y-75302748D01*
X115124501Y-75404272D01*
X115212344Y-75616343D01*
X115374656Y-75778656D01*
X115586728Y-75866499D01*
X115815252Y-75866499D01*
X115959501Y-75722250D01*
X115959501Y-75158499D01*
X115268750Y-75158499D01*
X115124501Y-75302748D01*
X113429500Y-75302748D01*
X113429500Y-72665959D01*
X115164170Y-72665959D01*
X115124501Y-72761728D01*
X115124501Y-72761728D01*
G37*
X115124501Y-72761728D02*
X115124501Y-72863252D01*
X115268750Y-73007501D01*
X115959501Y-73007501D01*
X115959501Y-72987501D01*
X116205499Y-72987501D01*
X116205499Y-73007501D01*
X116896250Y-73007501D01*
X117040499Y-72863252D01*
X117040499Y-72761728D01*
X117000830Y-72665959D01*
X117075500Y-72665959D01*
X117075500Y-73315501D01*
X116958252Y-73315501D01*
X116896250Y-73253499D01*
X116526718Y-73253499D01*
X116463500Y-73240697D01*
X115701500Y-73240697D01*
X115633464Y-73253499D01*
X115268750Y-73253499D01*
X115124501Y-73397748D01*
X115124501Y-73499272D01*
X115163734Y-73593989D01*
X115159547Y-73600117D01*
X115113197Y-73829000D01*
X115113197Y-74337000D01*
X115153431Y-74550823D01*
X115165039Y-74568862D01*
X115124501Y-74666728D01*
X115124501Y-74768252D01*
X115268750Y-74912501D01*
X115638282Y-74912501D01*
X115701500Y-74925303D01*
X116225499Y-74925303D01*
X116225499Y-75158499D01*
X116205499Y-75158499D01*
X116205499Y-75722250D01*
X116349748Y-75866499D01*
X116578272Y-75866499D01*
X116585001Y-75863712D01*
X116585001Y-76102288D01*
X116578272Y-76099501D01*
X116349748Y-76099501D01*
X116205499Y-76243750D01*
X116205499Y-76807501D01*
X116225499Y-76807501D01*
X116225499Y-77040697D01*
X115701500Y-77040697D01*
X115633464Y-77053499D01*
X115268750Y-77053499D01*
X115124501Y-77197748D01*
X115124501Y-77299272D01*
X115163734Y-77393989D01*
X115159547Y-77400117D01*
X115113197Y-77629000D01*
X115113197Y-78137000D01*
X115153431Y-78350823D01*
X115165039Y-78368862D01*
X115124501Y-78466728D01*
X115124501Y-78568252D01*
X115268750Y-78712501D01*
X115638282Y-78712501D01*
X115701500Y-78725303D01*
X116463500Y-78725303D01*
X116531536Y-78712501D01*
X116896250Y-78712501D01*
X116958252Y-78650499D01*
X117075500Y-78650499D01*
X117075500Y-79106000D01*
X117040499Y-79106000D01*
X117040499Y-79102748D01*
X116896250Y-78958499D01*
X116205499Y-78958499D01*
X116205499Y-78978499D01*
X115959501Y-78978499D01*
X115959501Y-78958499D01*
X115268750Y-78958499D01*
X115124501Y-79102748D01*
X115124501Y-79204272D01*
X115155668Y-79279516D01*
X115095499Y-79339685D01*
X115095499Y-79249248D01*
X114951250Y-79104999D01*
X113625499Y-79104999D01*
X113625499Y-79124999D01*
X113379501Y-79124999D01*
X113379501Y-79104999D01*
X113359501Y-79104999D01*
X113359501Y-78859001D01*
X113379501Y-78859001D01*
X113379501Y-78056221D01*
X113417395Y-77997332D01*
X113429500Y-77933000D01*
X113429500Y-77787250D01*
X113625499Y-77787250D01*
X113625499Y-78859001D01*
X114951250Y-78859001D01*
X115095499Y-78714752D01*
X115095499Y-78105228D01*
X115007656Y-77893157D01*
X114845344Y-77730844D01*
X114633272Y-77643001D01*
X113769748Y-77643001D01*
X113625499Y-77787250D01*
X113429500Y-77787250D01*
X113429500Y-76561728D01*
X115124501Y-76561728D01*
X115124501Y-76663252D01*
X115268750Y-76807501D01*
X115959501Y-76807501D01*
X115959501Y-76243750D01*
X115815252Y-76099501D01*
X115586728Y-76099501D01*
X115374656Y-76187344D01*
X115212344Y-76349657D01*
X115124501Y-76561728D01*
X113429500Y-76561728D01*
X113429500Y-75302748D01*
X115124501Y-75302748D01*
X115124501Y-75404272D01*
X115212344Y-75616343D01*
X115374656Y-75778656D01*
X115586728Y-75866499D01*
X115815252Y-75866499D01*
X115959501Y-75722250D01*
X115959501Y-75158499D01*
X115268750Y-75158499D01*
X115124501Y-75302748D01*
X113429500Y-75302748D01*
X113429500Y-72665959D01*
X115164170Y-72665959D01*
X115124501Y-72761728D01*
G36*
X150873974Y-90032232D02*
X150941874Y-90134616D01*
X151118651Y-90311393D01*
X151227525Y-90385783D01*
X151295427Y-90488170D01*
X151472204Y-90664947D01*
X151581081Y-90739339D01*
X151648981Y-90841723D01*
X151825758Y-91018500D01*
X151934633Y-91092891D01*
X152002534Y-91195276D01*
X152179311Y-91372053D01*
X152288185Y-91446443D01*
X152356087Y-91548830D01*
X152532864Y-91725607D01*
X152641741Y-91799999D01*
X152709641Y-91902383D01*
X152886418Y-92079160D01*
X153066063Y-92201906D01*
X153294284Y-92251414D01*
X153523785Y-92208230D01*
X153718404Y-92079160D01*
X154339679Y-91457885D01*
X154343423Y-91476710D01*
X154509796Y-91725704D01*
X156163796Y-93379704D01*
X156412790Y-93546077D01*
X156706500Y-93604499D01*
X157157144Y-93604499D01*
X157216800Y-93697207D01*
X157281948Y-93741721D01*
X157304423Y-93854710D01*
X157470796Y-94103704D01*
X158117504Y-94750412D01*
X157965733Y-94901918D01*
X157862506Y-95150517D01*
X157760628Y-94903955D01*
X157373582Y-94516233D01*
X156867624Y-94306141D01*
X156319780Y-94305662D01*
X155813455Y-94514872D01*
X155425733Y-94901918D01*
X155328815Y-95135323D01*
X155256353Y-94960384D01*
X155026051Y-94883396D01*
X154226447Y-95683000D01*
X154240589Y-95697142D01*
X154066642Y-95871089D01*
X154052500Y-95856947D01*
X154038358Y-95871089D01*
X153864411Y-95697142D01*
X153878553Y-95683000D01*
X153078949Y-94883396D01*
X152848647Y-94960384D01*
X152781420Y-95147890D01*
X152680628Y-94903955D01*
X152486462Y-94709449D01*
X153252896Y-94709449D01*
X154052500Y-95509053D01*
X154852104Y-94709449D01*
X154775116Y-94479147D01*
X154259415Y-94294252D01*
X153712213Y-94320781D01*
X153329884Y-94479147D01*
X153252896Y-94709449D01*
X152486462Y-94709449D01*
X152293582Y-94516233D01*
X151787624Y-94306141D01*
X151239780Y-94305662D01*
X150733455Y-94514872D01*
X150345733Y-94901918D01*
X150242506Y-95150517D01*
X150140628Y-94903955D01*
X149753582Y-94516233D01*
X149247624Y-94306141D01*
X148699780Y-94305662D01*
X148193455Y-94514872D01*
X147805733Y-94901918D01*
X147595641Y-95407876D01*
X147595162Y-95955720D01*
X147701659Y-96213461D01*
X146579500Y-96213461D01*
X146579500Y-96041408D01*
X147333204Y-95287704D01*
X147499577Y-95038710D01*
X147557999Y-94745000D01*
X147557999Y-92794710D01*
X147748617Y-92924953D01*
X147977500Y-92971303D01*
X148727500Y-92971303D01*
X148831171Y-92951796D01*
X148927500Y-92971303D01*
X149677500Y-92971303D01*
X149891323Y-92931069D01*
X150087707Y-92804700D01*
X150106174Y-92777673D01*
X150200657Y-92872156D01*
X150412728Y-92959999D01*
X150635252Y-92959999D01*
X150779501Y-92815750D01*
X150779501Y-92055999D01*
X151025499Y-92055999D01*
X151025499Y-92815750D01*
X151169748Y-92959999D01*
X151392272Y-92959999D01*
X151604343Y-92872156D01*
X151766656Y-92709844D01*
X151854499Y-92497772D01*
X151854499Y-92200248D01*
X151710250Y-92055999D01*
X151025499Y-92055999D01*
X150779501Y-92055999D01*
X150759501Y-92055999D01*
X150759501Y-91810001D01*
X150779501Y-91810001D01*
X150779501Y-91050250D01*
X151025499Y-91050250D01*
X151025499Y-91810001D01*
X151710250Y-91810001D01*
X151854499Y-91665752D01*
X151854499Y-91368228D01*
X151766656Y-91156156D01*
X151604343Y-90993844D01*
X151392272Y-90906001D01*
X151169748Y-90906001D01*
X151025499Y-91050250D01*
X150779501Y-91050250D01*
X150635252Y-90906001D01*
X150412728Y-90906001D01*
X150200657Y-90993844D01*
X150108012Y-91086488D01*
X150099200Y-91072793D01*
X149906383Y-90941047D01*
X149790111Y-90917501D01*
X149887707Y-90854700D01*
X149975082Y-90726823D01*
X150149762Y-90692077D01*
X150398757Y-90525704D01*
X150565130Y-90276709D01*
X150566913Y-90267744D01*
X150831468Y-90003189D01*
X150873974Y-90032232D01*
X150873974Y-90032232D01*
G37*
X150873974Y-90032232D02*
X150941874Y-90134616D01*
X151118651Y-90311393D01*
X151227525Y-90385783D01*
X151295427Y-90488170D01*
X151472204Y-90664947D01*
X151581081Y-90739339D01*
X151648981Y-90841723D01*
X151825758Y-91018500D01*
X151934633Y-91092891D01*
X152002534Y-91195276D01*
X152179311Y-91372053D01*
X152288185Y-91446443D01*
X152356087Y-91548830D01*
X152532864Y-91725607D01*
X152641741Y-91799999D01*
X152709641Y-91902383D01*
X152886418Y-92079160D01*
X153066063Y-92201906D01*
X153294284Y-92251414D01*
X153523785Y-92208230D01*
X153718404Y-92079160D01*
X154339679Y-91457885D01*
X154343423Y-91476710D01*
X154509796Y-91725704D01*
X156163796Y-93379704D01*
X156412790Y-93546077D01*
X156706500Y-93604499D01*
X157157144Y-93604499D01*
X157216800Y-93697207D01*
X157281948Y-93741721D01*
X157304423Y-93854710D01*
X157470796Y-94103704D01*
X158117504Y-94750412D01*
X157965733Y-94901918D01*
X157862506Y-95150517D01*
X157760628Y-94903955D01*
X157373582Y-94516233D01*
X156867624Y-94306141D01*
X156319780Y-94305662D01*
X155813455Y-94514872D01*
X155425733Y-94901918D01*
X155328815Y-95135323D01*
X155256353Y-94960384D01*
X155026051Y-94883396D01*
X154226447Y-95683000D01*
X154240589Y-95697142D01*
X154066642Y-95871089D01*
X154052500Y-95856947D01*
X154038358Y-95871089D01*
X153864411Y-95697142D01*
X153878553Y-95683000D01*
X153078949Y-94883396D01*
X152848647Y-94960384D01*
X152781420Y-95147890D01*
X152680628Y-94903955D01*
X152486462Y-94709449D01*
X153252896Y-94709449D01*
X154052500Y-95509053D01*
X154852104Y-94709449D01*
X154775116Y-94479147D01*
X154259415Y-94294252D01*
X153712213Y-94320781D01*
X153329884Y-94479147D01*
X153252896Y-94709449D01*
X152486462Y-94709449D01*
X152293582Y-94516233D01*
X151787624Y-94306141D01*
X151239780Y-94305662D01*
X150733455Y-94514872D01*
X150345733Y-94901918D01*
X150242506Y-95150517D01*
X150140628Y-94903955D01*
X149753582Y-94516233D01*
X149247624Y-94306141D01*
X148699780Y-94305662D01*
X148193455Y-94514872D01*
X147805733Y-94901918D01*
X147595641Y-95407876D01*
X147595162Y-95955720D01*
X147701659Y-96213461D01*
X146579500Y-96213461D01*
X146579500Y-96041408D01*
X147333204Y-95287704D01*
X147499577Y-95038710D01*
X147557999Y-94745000D01*
X147557999Y-92794710D01*
X147748617Y-92924953D01*
X147977500Y-92971303D01*
X148727500Y-92971303D01*
X148831171Y-92951796D01*
X148927500Y-92971303D01*
X149677500Y-92971303D01*
X149891323Y-92931069D01*
X150087707Y-92804700D01*
X150106174Y-92777673D01*
X150200657Y-92872156D01*
X150412728Y-92959999D01*
X150635252Y-92959999D01*
X150779501Y-92815750D01*
X150779501Y-92055999D01*
X151025499Y-92055999D01*
X151025499Y-92815750D01*
X151169748Y-92959999D01*
X151392272Y-92959999D01*
X151604343Y-92872156D01*
X151766656Y-92709844D01*
X151854499Y-92497772D01*
X151854499Y-92200248D01*
X151710250Y-92055999D01*
X151025499Y-92055999D01*
X150779501Y-92055999D01*
X150759501Y-92055999D01*
X150759501Y-91810001D01*
X150779501Y-91810001D01*
X150779501Y-91050250D01*
X151025499Y-91050250D01*
X151025499Y-91810001D01*
X151710250Y-91810001D01*
X151854499Y-91665752D01*
X151854499Y-91368228D01*
X151766656Y-91156156D01*
X151604343Y-90993844D01*
X151392272Y-90906001D01*
X151169748Y-90906001D01*
X151025499Y-91050250D01*
X150779501Y-91050250D01*
X150635252Y-90906001D01*
X150412728Y-90906001D01*
X150200657Y-90993844D01*
X150108012Y-91086488D01*
X150099200Y-91072793D01*
X149906383Y-90941047D01*
X149790111Y-90917501D01*
X149887707Y-90854700D01*
X149975082Y-90726823D01*
X150149762Y-90692077D01*
X150398757Y-90525704D01*
X150565130Y-90276709D01*
X150566913Y-90267744D01*
X150831468Y-90003189D01*
X150873974Y-90032232D01*
G36*
X175125500Y-77933000D02*
X175139445Y-78001863D01*
X175179083Y-78059875D01*
X175238168Y-78097895D01*
X175302500Y-78110000D01*
X180563241Y-78110000D01*
X180563241Y-90756000D01*
X175302500Y-90756000D01*
X175233637Y-90769945D01*
X175175625Y-90809583D01*
X175137605Y-90868668D01*
X175125500Y-90933000D01*
X175125500Y-96213461D01*
X173714491Y-96213461D01*
X173841248Y-95859915D01*
X173814719Y-95312713D01*
X173656353Y-94930384D01*
X173426051Y-94853396D01*
X172626447Y-95653000D01*
X172640589Y-95667142D01*
X172466642Y-95841089D01*
X172452500Y-95826947D01*
X172438358Y-95841089D01*
X172264411Y-95667142D01*
X172278553Y-95653000D01*
X171478949Y-94853396D01*
X171248647Y-94930384D01*
X171182627Y-95114525D01*
X171106353Y-94930384D01*
X170876051Y-94853396D01*
X170076447Y-95653000D01*
X170090589Y-95667142D01*
X169916642Y-95841089D01*
X169902500Y-95826947D01*
X169888358Y-95841089D01*
X169714411Y-95667142D01*
X169728553Y-95653000D01*
X169714411Y-95638858D01*
X169888358Y-95464911D01*
X169902500Y-95479053D01*
X170702104Y-94679449D01*
X170625116Y-94449147D01*
X170437610Y-94381920D01*
X170681545Y-94281128D01*
X171069267Y-93894082D01*
X171177507Y-93633412D01*
X171284372Y-93892045D01*
X171671418Y-94279767D01*
X171904823Y-94376685D01*
X171729884Y-94449147D01*
X171652896Y-94679449D01*
X172452500Y-95479053D01*
X173252104Y-94679449D01*
X173175116Y-94449147D01*
X172987610Y-94381920D01*
X173231545Y-94281128D01*
X173619267Y-93894082D01*
X173829359Y-93388124D01*
X173829838Y-92840280D01*
X173620628Y-92333955D01*
X173233582Y-91946233D01*
X172727624Y-91736141D01*
X172179780Y-91735662D01*
X172166186Y-91741279D01*
X172025501Y-91600594D01*
X172025501Y-91590752D01*
X172169748Y-91734999D01*
X172467272Y-91734999D01*
X172679344Y-91647156D01*
X172841656Y-91484843D01*
X172929499Y-91272772D01*
X172929499Y-91050248D01*
X172785250Y-90905999D01*
X172025499Y-90905999D01*
X172025499Y-90925999D01*
X171779501Y-90925999D01*
X171779501Y-90905999D01*
X171019750Y-90905999D01*
X171010248Y-90915501D01*
X170494752Y-90915501D01*
X170485250Y-90905999D01*
X169725499Y-90905999D01*
X169725499Y-90915501D01*
X169479501Y-90915501D01*
X169479501Y-90905999D01*
X169459501Y-90905999D01*
X169459501Y-90660001D01*
X169479501Y-90660001D01*
X169479501Y-90640001D01*
X169725499Y-90640001D01*
X169725499Y-90660001D01*
X170485250Y-90660001D01*
X170629499Y-90515752D01*
X170629499Y-90293228D01*
X170541656Y-90081157D01*
X170449012Y-89988512D01*
X170462707Y-89979700D01*
X170594453Y-89786883D01*
X170640803Y-89558000D01*
X170640803Y-88808000D01*
X170600569Y-88594177D01*
X170581018Y-88563793D01*
X170632421Y-88512390D01*
X170632421Y-88130315D01*
X170642683Y-88079640D01*
X170642683Y-87337201D01*
X170868157Y-87337201D01*
X170868157Y-88079640D01*
X170878419Y-88134177D01*
X170878419Y-88512390D01*
X170924591Y-88558562D01*
X170910547Y-88579117D01*
X170864197Y-88808000D01*
X170864197Y-89558000D01*
X170904431Y-89771823D01*
X171030800Y-89968207D01*
X171057827Y-89986674D01*
X170963344Y-90081157D01*
X170875501Y-90293228D01*
X170875501Y-90515752D01*
X171019750Y-90660001D01*
X171779501Y-90660001D01*
X171779501Y-90640001D01*
X172025499Y-90640001D01*
X172025499Y-90660001D01*
X172785250Y-90660001D01*
X172929499Y-90515752D01*
X172929499Y-90293228D01*
X172841656Y-90081157D01*
X172749012Y-89988512D01*
X172762707Y-89979700D01*
X172894453Y-89786883D01*
X172940803Y-89558000D01*
X172940803Y-88808000D01*
X172900569Y-88594177D01*
X172774200Y-88397793D01*
X172603407Y-88281095D01*
X172644203Y-88079640D01*
X172644203Y-87115304D01*
X172783607Y-87025600D01*
X172896170Y-86860859D01*
X172984992Y-86860859D01*
X173129241Y-86716610D01*
X173129241Y-86107139D01*
X173375239Y-86107139D01*
X173375239Y-86716610D01*
X173519488Y-86860859D01*
X173966452Y-86860859D01*
X174178524Y-86773016D01*
X174340836Y-86610703D01*
X174428679Y-86398632D01*
X174428679Y-86251388D01*
X174284430Y-86107139D01*
X173375239Y-86107139D01*
X173129241Y-86107139D01*
X173109241Y-86107139D01*
X173109241Y-85871403D01*
X173851680Y-85871403D01*
X173906217Y-85861141D01*
X174284430Y-85861141D01*
X174428679Y-85716892D01*
X174428679Y-85569648D01*
X174397298Y-85493887D01*
X174439983Y-85283100D01*
X174439983Y-84683660D01*
X174400840Y-84475634D01*
X174439983Y-84282340D01*
X174439983Y-83682900D01*
X174399749Y-83469077D01*
X174399023Y-83467948D01*
X174428679Y-83396352D01*
X174428679Y-83249108D01*
X174284430Y-83104859D01*
X173902355Y-83104859D01*
X173851680Y-83094597D01*
X173109241Y-83094597D01*
X173109241Y-82858861D01*
X173129241Y-82858861D01*
X173129241Y-82249390D01*
X173375239Y-82249390D01*
X173375239Y-82858861D01*
X174284430Y-82858861D01*
X174428679Y-82714612D01*
X174428679Y-82567368D01*
X174372164Y-82430930D01*
X174675649Y-82431194D01*
X174989536Y-82301499D01*
X176107977Y-82301499D01*
X176132883Y-82426709D01*
X176137961Y-82434309D01*
X176137961Y-82851598D01*
X176055639Y-82933920D01*
X176055639Y-83424455D01*
X176065484Y-83424455D01*
X176055639Y-83434300D01*
X176055639Y-83597810D01*
X175809641Y-83597810D01*
X175809641Y-83434300D01*
X175799796Y-83424455D01*
X175809641Y-83424455D01*
X175809641Y-82933920D01*
X175665392Y-82789671D01*
X175417868Y-82789671D01*
X175205796Y-82877514D01*
X175043484Y-83039827D01*
X174955641Y-83251898D01*
X174955641Y-83280206D01*
X175099890Y-83424455D01*
X175159235Y-83424455D01*
X175043484Y-83540207D01*
X175003727Y-83636188D01*
X174955641Y-83684274D01*
X174955641Y-83712582D01*
X174963862Y-83732430D01*
X174955641Y-83752278D01*
X174955641Y-83780586D01*
X175003727Y-83828672D01*
X175043484Y-83924653D01*
X175098942Y-83980111D01*
X174990687Y-84138547D01*
X174987878Y-84152417D01*
X174955641Y-84184654D01*
X174955641Y-84212962D01*
X174969058Y-84245354D01*
X174944337Y-84367430D01*
X174944337Y-84598570D01*
X174967854Y-84723553D01*
X174955641Y-84753038D01*
X174955641Y-84781346D01*
X174984080Y-84809785D01*
X174984571Y-84812393D01*
X175099240Y-84990594D01*
X174990687Y-85149467D01*
X174990458Y-85150597D01*
X174955641Y-85185414D01*
X174955641Y-85213722D01*
X174970440Y-85249450D01*
X174944337Y-85378350D01*
X174944337Y-85609490D01*
X174984571Y-85823313D01*
X175110940Y-86019697D01*
X175303757Y-86151443D01*
X175532640Y-86197793D01*
X176137961Y-86197793D01*
X176137961Y-86391434D01*
X175874408Y-86654988D01*
X175756715Y-86606117D01*
X175399851Y-86605806D01*
X175070032Y-86742084D01*
X174817471Y-86994205D01*
X174680617Y-87323785D01*
X174680306Y-87680649D01*
X174816584Y-88010468D01*
X175068705Y-88263029D01*
X175398285Y-88399883D01*
X175755149Y-88400194D01*
X176084968Y-88263916D01*
X176171842Y-88177193D01*
X176291409Y-88153410D01*
X176406572Y-88076460D01*
X176656205Y-88326529D01*
X176985785Y-88463383D01*
X177342649Y-88463694D01*
X177672468Y-88327416D01*
X177725342Y-88274634D01*
X177743705Y-88293029D01*
X178073285Y-88429883D01*
X178430149Y-88430194D01*
X178759968Y-88293916D01*
X179012529Y-88041795D01*
X179149383Y-87712215D01*
X179149694Y-87355351D01*
X179013416Y-87025532D01*
X178761295Y-86772971D01*
X178567039Y-86692309D01*
X178567039Y-86124562D01*
X178649361Y-86042240D01*
X178649361Y-85687253D01*
X178771727Y-85687253D01*
X178772360Y-85687379D01*
X178895359Y-85687379D01*
X178895359Y-86042240D01*
X179039608Y-86186489D01*
X179287132Y-86186489D01*
X179499204Y-86098646D01*
X179661516Y-85936333D01*
X179749359Y-85724262D01*
X179749359Y-85695954D01*
X179692891Y-85639486D01*
X179721529Y-85633790D01*
X179746775Y-85616921D01*
X179749359Y-85616921D01*
X179749359Y-85615195D01*
X179949922Y-85481182D01*
X179987244Y-85443860D01*
X179996209Y-85442077D01*
X180245204Y-85275704D01*
X180411577Y-85026709D01*
X180469999Y-84733000D01*
X180469999Y-82233000D01*
X180466518Y-82215501D01*
X180411577Y-81939290D01*
X180333676Y-81822704D01*
X180245204Y-81690296D01*
X180245201Y-81690294D01*
X178942255Y-80387347D01*
X178813416Y-80075532D01*
X178561295Y-79822971D01*
X178231715Y-79686117D01*
X177874851Y-79685806D01*
X177780468Y-79724804D01*
X177745069Y-79536677D01*
X177618700Y-79340293D01*
X177425883Y-79208547D01*
X177197000Y-79162197D01*
X176447000Y-79162197D01*
X176233177Y-79202431D01*
X176036793Y-79328800D01*
X176018326Y-79355827D01*
X175923843Y-79261344D01*
X175711772Y-79173501D01*
X175489248Y-79173501D01*
X175344999Y-79317750D01*
X175344999Y-80077501D01*
X175364999Y-80077501D01*
X175364999Y-80323499D01*
X175344999Y-80323499D01*
X175344999Y-80343499D01*
X175099001Y-80343499D01*
X175099001Y-80323499D01*
X174414250Y-80323499D01*
X174270001Y-80467748D01*
X174270001Y-80657610D01*
X173990532Y-80773084D01*
X173737971Y-81025205D01*
X173601117Y-81354785D01*
X173600806Y-81711649D01*
X173737084Y-82041468D01*
X173800646Y-82105141D01*
X173519488Y-82105141D01*
X173375239Y-82249390D01*
X173129241Y-82249390D01*
X172984992Y-82105141D01*
X172893712Y-82105141D01*
X172795100Y-81951893D01*
X172644203Y-81848790D01*
X172644203Y-80881280D01*
X172603969Y-80667457D01*
X172523679Y-80542682D01*
X172523679Y-80062185D01*
X172523680Y-80062180D01*
X172465257Y-79768471D01*
X172376562Y-79635728D01*
X174270001Y-79635728D01*
X174270001Y-79933252D01*
X174414250Y-80077501D01*
X175099001Y-80077501D01*
X175099001Y-79317750D01*
X174954752Y-79173501D01*
X174732228Y-79173501D01*
X174520157Y-79261344D01*
X174357844Y-79423656D01*
X174270001Y-79635728D01*
X172376562Y-79635728D01*
X172298884Y-79519476D01*
X171103704Y-78324296D01*
X171013475Y-78264007D01*
X171263347Y-78264225D01*
X171742060Y-78066425D01*
X172108638Y-77700486D01*
X172307273Y-77222120D01*
X172307725Y-76704153D01*
X172109925Y-76225440D01*
X171743986Y-75858862D01*
X171265620Y-75660227D01*
X170747653Y-75659775D01*
X170268940Y-75857575D01*
X169902362Y-76223514D01*
X169703727Y-76701880D01*
X169703275Y-77219847D01*
X169901075Y-77698560D01*
X170267014Y-78065138D01*
X170349769Y-78099501D01*
X166662010Y-78099501D01*
X166742060Y-78066425D01*
X167108638Y-77700486D01*
X167307273Y-77222120D01*
X167307725Y-76704153D01*
X167109925Y-76225440D01*
X166743986Y-75858862D01*
X166265620Y-75660227D01*
X165747653Y-75659775D01*
X165268940Y-75857575D01*
X164902362Y-76223514D01*
X164703727Y-76701880D01*
X164703275Y-77219847D01*
X164901075Y-77698560D01*
X165267014Y-78065138D01*
X165349769Y-78099501D01*
X163609499Y-78099501D01*
X163652656Y-78056344D01*
X163740499Y-77844272D01*
X163740499Y-77546748D01*
X163596250Y-77402499D01*
X162911499Y-77402499D01*
X162911499Y-77422499D01*
X162665501Y-77422499D01*
X162665501Y-77402499D01*
X162645501Y-77402499D01*
X162645501Y-77156501D01*
X162665501Y-77156501D01*
X162665501Y-77136501D01*
X162911499Y-77136501D01*
X162911499Y-77156501D01*
X163596250Y-77156501D01*
X163740499Y-77012252D01*
X163740499Y-76714728D01*
X163652656Y-76502656D01*
X163490343Y-76340344D01*
X163419967Y-76311193D01*
X163563707Y-76218700D01*
X163695453Y-76025883D01*
X163741803Y-75797000D01*
X163741803Y-74647000D01*
X163701569Y-74433177D01*
X163695793Y-74424202D01*
X163741803Y-74197000D01*
X163741803Y-73220999D01*
X164058858Y-73220999D01*
X163918095Y-73431666D01*
X163828501Y-73882084D01*
X163828501Y-74641916D01*
X163918095Y-75092334D01*
X164173236Y-75474180D01*
X164555082Y-75729321D01*
X165005500Y-75818915D01*
X165455918Y-75729321D01*
X165837764Y-75474180D01*
X166092905Y-75092334D01*
X166182499Y-74641916D01*
X166182499Y-73882084D01*
X166092905Y-73431666D01*
X165952142Y-73220999D01*
X167131591Y-73220999D01*
X168909245Y-74998653D01*
X169038084Y-75310468D01*
X169290205Y-75563029D01*
X169619785Y-75699883D01*
X169976649Y-75700194D01*
X170306468Y-75563916D01*
X170559029Y-75311795D01*
X170695883Y-74982215D01*
X170696194Y-74625351D01*
X170559916Y-74295532D01*
X170307795Y-74042971D01*
X169994136Y-73912728D01*
X169963492Y-73882084D01*
X170828501Y-73882084D01*
X170828501Y-74641916D01*
X170918095Y-75092334D01*
X171173236Y-75474180D01*
X171555082Y-75729321D01*
X172005500Y-75818915D01*
X172455918Y-75729321D01*
X172837764Y-75474180D01*
X173092905Y-75092334D01*
X173182499Y-74641916D01*
X173182499Y-73882084D01*
X173092905Y-73431666D01*
X172837764Y-73049820D01*
X172455918Y-72794679D01*
X172005500Y-72705085D01*
X171555082Y-72794679D01*
X171173236Y-73049820D01*
X170918095Y-73431666D01*
X170828501Y-73882084D01*
X169963492Y-73882084D01*
X168747367Y-72665959D01*
X175125500Y-72665959D01*
X175125500Y-77933000D01*
X175125500Y-77933000D01*
G37*
X175125500Y-77933000D02*
X175139445Y-78001863D01*
X175179083Y-78059875D01*
X175238168Y-78097895D01*
X175302500Y-78110000D01*
X180563241Y-78110000D01*
X180563241Y-90756000D01*
X175302500Y-90756000D01*
X175233637Y-90769945D01*
X175175625Y-90809583D01*
X175137605Y-90868668D01*
X175125500Y-90933000D01*
X175125500Y-96213461D01*
X173714491Y-96213461D01*
X173841248Y-95859915D01*
X173814719Y-95312713D01*
X173656353Y-94930384D01*
X173426051Y-94853396D01*
X172626447Y-95653000D01*
X172640589Y-95667142D01*
X172466642Y-95841089D01*
X172452500Y-95826947D01*
X172438358Y-95841089D01*
X172264411Y-95667142D01*
X172278553Y-95653000D01*
X171478949Y-94853396D01*
X171248647Y-94930384D01*
X171182627Y-95114525D01*
X171106353Y-94930384D01*
X170876051Y-94853396D01*
X170076447Y-95653000D01*
X170090589Y-95667142D01*
X169916642Y-95841089D01*
X169902500Y-95826947D01*
X169888358Y-95841089D01*
X169714411Y-95667142D01*
X169728553Y-95653000D01*
X169714411Y-95638858D01*
X169888358Y-95464911D01*
X169902500Y-95479053D01*
X170702104Y-94679449D01*
X170625116Y-94449147D01*
X170437610Y-94381920D01*
X170681545Y-94281128D01*
X171069267Y-93894082D01*
X171177507Y-93633412D01*
X171284372Y-93892045D01*
X171671418Y-94279767D01*
X171904823Y-94376685D01*
X171729884Y-94449147D01*
X171652896Y-94679449D01*
X172452500Y-95479053D01*
X173252104Y-94679449D01*
X173175116Y-94449147D01*
X172987610Y-94381920D01*
X173231545Y-94281128D01*
X173619267Y-93894082D01*
X173829359Y-93388124D01*
X173829838Y-92840280D01*
X173620628Y-92333955D01*
X173233582Y-91946233D01*
X172727624Y-91736141D01*
X172179780Y-91735662D01*
X172166186Y-91741279D01*
X172025501Y-91600594D01*
X172025501Y-91590752D01*
X172169748Y-91734999D01*
X172467272Y-91734999D01*
X172679344Y-91647156D01*
X172841656Y-91484843D01*
X172929499Y-91272772D01*
X172929499Y-91050248D01*
X172785250Y-90905999D01*
X172025499Y-90905999D01*
X172025499Y-90925999D01*
X171779501Y-90925999D01*
X171779501Y-90905999D01*
X171019750Y-90905999D01*
X171010248Y-90915501D01*
X170494752Y-90915501D01*
X170485250Y-90905999D01*
X169725499Y-90905999D01*
X169725499Y-90915501D01*
X169479501Y-90915501D01*
X169479501Y-90905999D01*
X169459501Y-90905999D01*
X169459501Y-90660001D01*
X169479501Y-90660001D01*
X169479501Y-90640001D01*
X169725499Y-90640001D01*
X169725499Y-90660001D01*
X170485250Y-90660001D01*
X170629499Y-90515752D01*
X170629499Y-90293228D01*
X170541656Y-90081157D01*
X170449012Y-89988512D01*
X170462707Y-89979700D01*
X170594453Y-89786883D01*
X170640803Y-89558000D01*
X170640803Y-88808000D01*
X170600569Y-88594177D01*
X170581018Y-88563793D01*
X170632421Y-88512390D01*
X170632421Y-88130315D01*
X170642683Y-88079640D01*
X170642683Y-87337201D01*
X170868157Y-87337201D01*
X170868157Y-88079640D01*
X170878419Y-88134177D01*
X170878419Y-88512390D01*
X170924591Y-88558562D01*
X170910547Y-88579117D01*
X170864197Y-88808000D01*
X170864197Y-89558000D01*
X170904431Y-89771823D01*
X171030800Y-89968207D01*
X171057827Y-89986674D01*
X170963344Y-90081157D01*
X170875501Y-90293228D01*
X170875501Y-90515752D01*
X171019750Y-90660001D01*
X171779501Y-90660001D01*
X171779501Y-90640001D01*
X172025499Y-90640001D01*
X172025499Y-90660001D01*
X172785250Y-90660001D01*
X172929499Y-90515752D01*
X172929499Y-90293228D01*
X172841656Y-90081157D01*
X172749012Y-89988512D01*
X172762707Y-89979700D01*
X172894453Y-89786883D01*
X172940803Y-89558000D01*
X172940803Y-88808000D01*
X172900569Y-88594177D01*
X172774200Y-88397793D01*
X172603407Y-88281095D01*
X172644203Y-88079640D01*
X172644203Y-87115304D01*
X172783607Y-87025600D01*
X172896170Y-86860859D01*
X172984992Y-86860859D01*
X173129241Y-86716610D01*
X173129241Y-86107139D01*
X173375239Y-86107139D01*
X173375239Y-86716610D01*
X173519488Y-86860859D01*
X173966452Y-86860859D01*
X174178524Y-86773016D01*
X174340836Y-86610703D01*
X174428679Y-86398632D01*
X174428679Y-86251388D01*
X174284430Y-86107139D01*
X173375239Y-86107139D01*
X173129241Y-86107139D01*
X173109241Y-86107139D01*
X173109241Y-85871403D01*
X173851680Y-85871403D01*
X173906217Y-85861141D01*
X174284430Y-85861141D01*
X174428679Y-85716892D01*
X174428679Y-85569648D01*
X174397298Y-85493887D01*
X174439983Y-85283100D01*
X174439983Y-84683660D01*
X174400840Y-84475634D01*
X174439983Y-84282340D01*
X174439983Y-83682900D01*
X174399749Y-83469077D01*
X174399023Y-83467948D01*
X174428679Y-83396352D01*
X174428679Y-83249108D01*
X174284430Y-83104859D01*
X173902355Y-83104859D01*
X173851680Y-83094597D01*
X173109241Y-83094597D01*
X173109241Y-82858861D01*
X173129241Y-82858861D01*
X173129241Y-82249390D01*
X173375239Y-82249390D01*
X173375239Y-82858861D01*
X174284430Y-82858861D01*
X174428679Y-82714612D01*
X174428679Y-82567368D01*
X174372164Y-82430930D01*
X174675649Y-82431194D01*
X174989536Y-82301499D01*
X176107977Y-82301499D01*
X176132883Y-82426709D01*
X176137961Y-82434309D01*
X176137961Y-82851598D01*
X176055639Y-82933920D01*
X176055639Y-83424455D01*
X176065484Y-83424455D01*
X176055639Y-83434300D01*
X176055639Y-83597810D01*
X175809641Y-83597810D01*
X175809641Y-83434300D01*
X175799796Y-83424455D01*
X175809641Y-83424455D01*
X175809641Y-82933920D01*
X175665392Y-82789671D01*
X175417868Y-82789671D01*
X175205796Y-82877514D01*
X175043484Y-83039827D01*
X174955641Y-83251898D01*
X174955641Y-83280206D01*
X175099890Y-83424455D01*
X175159235Y-83424455D01*
X175043484Y-83540207D01*
X175003727Y-83636188D01*
X174955641Y-83684274D01*
X174955641Y-83712582D01*
X174963862Y-83732430D01*
X174955641Y-83752278D01*
X174955641Y-83780586D01*
X175003727Y-83828672D01*
X175043484Y-83924653D01*
X175098942Y-83980111D01*
X174990687Y-84138547D01*
X174987878Y-84152417D01*
X174955641Y-84184654D01*
X174955641Y-84212962D01*
X174969058Y-84245354D01*
X174944337Y-84367430D01*
X174944337Y-84598570D01*
X174967854Y-84723553D01*
X174955641Y-84753038D01*
X174955641Y-84781346D01*
X174984080Y-84809785D01*
X174984571Y-84812393D01*
X175099240Y-84990594D01*
X174990687Y-85149467D01*
X174990458Y-85150597D01*
X174955641Y-85185414D01*
X174955641Y-85213722D01*
X174970440Y-85249450D01*
X174944337Y-85378350D01*
X174944337Y-85609490D01*
X174984571Y-85823313D01*
X175110940Y-86019697D01*
X175303757Y-86151443D01*
X175532640Y-86197793D01*
X176137961Y-86197793D01*
X176137961Y-86391434D01*
X175874408Y-86654988D01*
X175756715Y-86606117D01*
X175399851Y-86605806D01*
X175070032Y-86742084D01*
X174817471Y-86994205D01*
X174680617Y-87323785D01*
X174680306Y-87680649D01*
X174816584Y-88010468D01*
X175068705Y-88263029D01*
X175398285Y-88399883D01*
X175755149Y-88400194D01*
X176084968Y-88263916D01*
X176171842Y-88177193D01*
X176291409Y-88153410D01*
X176406572Y-88076460D01*
X176656205Y-88326529D01*
X176985785Y-88463383D01*
X177342649Y-88463694D01*
X177672468Y-88327416D01*
X177725342Y-88274634D01*
X177743705Y-88293029D01*
X178073285Y-88429883D01*
X178430149Y-88430194D01*
X178759968Y-88293916D01*
X179012529Y-88041795D01*
X179149383Y-87712215D01*
X179149694Y-87355351D01*
X179013416Y-87025532D01*
X178761295Y-86772971D01*
X178567039Y-86692309D01*
X178567039Y-86124562D01*
X178649361Y-86042240D01*
X178649361Y-85687253D01*
X178771727Y-85687253D01*
X178772360Y-85687379D01*
X178895359Y-85687379D01*
X178895359Y-86042240D01*
X179039608Y-86186489D01*
X179287132Y-86186489D01*
X179499204Y-86098646D01*
X179661516Y-85936333D01*
X179749359Y-85724262D01*
X179749359Y-85695954D01*
X179692891Y-85639486D01*
X179721529Y-85633790D01*
X179746775Y-85616921D01*
X179749359Y-85616921D01*
X179749359Y-85615195D01*
X179949922Y-85481182D01*
X179987244Y-85443860D01*
X179996209Y-85442077D01*
X180245204Y-85275704D01*
X180411577Y-85026709D01*
X180469999Y-84733000D01*
X180469999Y-82233000D01*
X180466518Y-82215501D01*
X180411577Y-81939290D01*
X180333676Y-81822704D01*
X180245204Y-81690296D01*
X180245201Y-81690294D01*
X178942255Y-80387347D01*
X178813416Y-80075532D01*
X178561295Y-79822971D01*
X178231715Y-79686117D01*
X177874851Y-79685806D01*
X177780468Y-79724804D01*
X177745069Y-79536677D01*
X177618700Y-79340293D01*
X177425883Y-79208547D01*
X177197000Y-79162197D01*
X176447000Y-79162197D01*
X176233177Y-79202431D01*
X176036793Y-79328800D01*
X176018326Y-79355827D01*
X175923843Y-79261344D01*
X175711772Y-79173501D01*
X175489248Y-79173501D01*
X175344999Y-79317750D01*
X175344999Y-80077501D01*
X175364999Y-80077501D01*
X175364999Y-80323499D01*
X175344999Y-80323499D01*
X175344999Y-80343499D01*
X175099001Y-80343499D01*
X175099001Y-80323499D01*
X174414250Y-80323499D01*
X174270001Y-80467748D01*
X174270001Y-80657610D01*
X173990532Y-80773084D01*
X173737971Y-81025205D01*
X173601117Y-81354785D01*
X173600806Y-81711649D01*
X173737084Y-82041468D01*
X173800646Y-82105141D01*
X173519488Y-82105141D01*
X173375239Y-82249390D01*
X173129241Y-82249390D01*
X172984992Y-82105141D01*
X172893712Y-82105141D01*
X172795100Y-81951893D01*
X172644203Y-81848790D01*
X172644203Y-80881280D01*
X172603969Y-80667457D01*
X172523679Y-80542682D01*
X172523679Y-80062185D01*
X172523680Y-80062180D01*
X172465257Y-79768471D01*
X172376562Y-79635728D01*
X174270001Y-79635728D01*
X174270001Y-79933252D01*
X174414250Y-80077501D01*
X175099001Y-80077501D01*
X175099001Y-79317750D01*
X174954752Y-79173501D01*
X174732228Y-79173501D01*
X174520157Y-79261344D01*
X174357844Y-79423656D01*
X174270001Y-79635728D01*
X172376562Y-79635728D01*
X172298884Y-79519476D01*
X171103704Y-78324296D01*
X171013475Y-78264007D01*
X171263347Y-78264225D01*
X171742060Y-78066425D01*
X172108638Y-77700486D01*
X172307273Y-77222120D01*
X172307725Y-76704153D01*
X172109925Y-76225440D01*
X171743986Y-75858862D01*
X171265620Y-75660227D01*
X170747653Y-75659775D01*
X170268940Y-75857575D01*
X169902362Y-76223514D01*
X169703727Y-76701880D01*
X169703275Y-77219847D01*
X169901075Y-77698560D01*
X170267014Y-78065138D01*
X170349769Y-78099501D01*
X166662010Y-78099501D01*
X166742060Y-78066425D01*
X167108638Y-77700486D01*
X167307273Y-77222120D01*
X167307725Y-76704153D01*
X167109925Y-76225440D01*
X166743986Y-75858862D01*
X166265620Y-75660227D01*
X165747653Y-75659775D01*
X165268940Y-75857575D01*
X164902362Y-76223514D01*
X164703727Y-76701880D01*
X164703275Y-77219847D01*
X164901075Y-77698560D01*
X165267014Y-78065138D01*
X165349769Y-78099501D01*
X163609499Y-78099501D01*
X163652656Y-78056344D01*
X163740499Y-77844272D01*
X163740499Y-77546748D01*
X163596250Y-77402499D01*
X162911499Y-77402499D01*
X162911499Y-77422499D01*
X162665501Y-77422499D01*
X162665501Y-77402499D01*
X162645501Y-77402499D01*
X162645501Y-77156501D01*
X162665501Y-77156501D01*
X162665501Y-77136501D01*
X162911499Y-77136501D01*
X162911499Y-77156501D01*
X163596250Y-77156501D01*
X163740499Y-77012252D01*
X163740499Y-76714728D01*
X163652656Y-76502656D01*
X163490343Y-76340344D01*
X163419967Y-76311193D01*
X163563707Y-76218700D01*
X163695453Y-76025883D01*
X163741803Y-75797000D01*
X163741803Y-74647000D01*
X163701569Y-74433177D01*
X163695793Y-74424202D01*
X163741803Y-74197000D01*
X163741803Y-73220999D01*
X164058858Y-73220999D01*
X163918095Y-73431666D01*
X163828501Y-73882084D01*
X163828501Y-74641916D01*
X163918095Y-75092334D01*
X164173236Y-75474180D01*
X164555082Y-75729321D01*
X165005500Y-75818915D01*
X165455918Y-75729321D01*
X165837764Y-75474180D01*
X166092905Y-75092334D01*
X166182499Y-74641916D01*
X166182499Y-73882084D01*
X166092905Y-73431666D01*
X165952142Y-73220999D01*
X167131591Y-73220999D01*
X168909245Y-74998653D01*
X169038084Y-75310468D01*
X169290205Y-75563029D01*
X169619785Y-75699883D01*
X169976649Y-75700194D01*
X170306468Y-75563916D01*
X170559029Y-75311795D01*
X170695883Y-74982215D01*
X170696194Y-74625351D01*
X170559916Y-74295532D01*
X170307795Y-74042971D01*
X169994136Y-73912728D01*
X169963492Y-73882084D01*
X170828501Y-73882084D01*
X170828501Y-74641916D01*
X170918095Y-75092334D01*
X171173236Y-75474180D01*
X171555082Y-75729321D01*
X172005500Y-75818915D01*
X172455918Y-75729321D01*
X172837764Y-75474180D01*
X173092905Y-75092334D01*
X173182499Y-74641916D01*
X173182499Y-73882084D01*
X173092905Y-73431666D01*
X172837764Y-73049820D01*
X172455918Y-72794679D01*
X172005500Y-72705085D01*
X171555082Y-72794679D01*
X171173236Y-73049820D01*
X170918095Y-73431666D01*
X170828501Y-73882084D01*
X169963492Y-73882084D01*
X168747367Y-72665959D01*
X175125500Y-72665959D01*
X175125500Y-77933000D01*
G36*
X156533020Y-87352481D02*
X156951816Y-87771276D01*
X155569847Y-89153245D01*
X155258032Y-89282084D01*
X155047328Y-89492421D01*
X153495204Y-87940296D01*
X153246210Y-87773923D01*
X153157301Y-87756238D01*
X153121909Y-87732590D01*
X152852500Y-87679001D01*
X152163160Y-87679001D01*
X152017652Y-87707944D01*
X151985992Y-87676284D01*
X151892103Y-87612132D01*
X151882379Y-87588657D01*
X151859028Y-87565306D01*
X151855138Y-87565306D01*
X152206914Y-87213530D01*
X152215880Y-87211747D01*
X152464874Y-87045374D01*
X152659749Y-86850499D01*
X156031038Y-86850499D01*
X156533020Y-87352481D01*
X156533020Y-87352481D01*
G37*
X156533020Y-87352481D02*
X156951816Y-87771276D01*
X155569847Y-89153245D01*
X155258032Y-89282084D01*
X155047328Y-89492421D01*
X153495204Y-87940296D01*
X153246210Y-87773923D01*
X153157301Y-87756238D01*
X153121909Y-87732590D01*
X152852500Y-87679001D01*
X152163160Y-87679001D01*
X152017652Y-87707944D01*
X151985992Y-87676284D01*
X151892103Y-87612132D01*
X151882379Y-87588657D01*
X151859028Y-87565306D01*
X151855138Y-87565306D01*
X152206914Y-87213530D01*
X152215880Y-87211747D01*
X152464874Y-87045374D01*
X152659749Y-86850499D01*
X156031038Y-86850499D01*
X156533020Y-87352481D01*
G36*
X146773001Y-88188909D02*
X146773001Y-89075453D01*
X146717293Y-89111300D01*
X146585547Y-89304117D01*
X146563790Y-89411554D01*
X146525917Y-89356125D01*
X146466832Y-89318105D01*
X146402500Y-89306000D01*
X146156514Y-89306000D01*
X146225699Y-89138972D01*
X146225699Y-88834248D01*
X146081450Y-88689999D01*
X145314499Y-88689999D01*
X145314499Y-88709999D01*
X145068501Y-88709999D01*
X145068501Y-88689999D01*
X145048501Y-88689999D01*
X145048501Y-88444001D01*
X145068501Y-88444001D01*
X145068501Y-88424001D01*
X145314499Y-88424001D01*
X145314499Y-88444001D01*
X146081450Y-88444001D01*
X146225699Y-88299752D01*
X146225699Y-87995028D01*
X146137856Y-87782956D01*
X146052777Y-87697878D01*
X146094453Y-87636883D01*
X146115760Y-87531668D01*
X146773001Y-88188909D01*
X146773001Y-88188909D01*
G37*
X146773001Y-88188909D02*
X146773001Y-89075453D01*
X146717293Y-89111300D01*
X146585547Y-89304117D01*
X146563790Y-89411554D01*
X146525917Y-89356125D01*
X146466832Y-89318105D01*
X146402500Y-89306000D01*
X146156514Y-89306000D01*
X146225699Y-89138972D01*
X146225699Y-88834248D01*
X146081450Y-88689999D01*
X145314499Y-88689999D01*
X145314499Y-88709999D01*
X145068501Y-88709999D01*
X145068501Y-88689999D01*
X145048501Y-88689999D01*
X145048501Y-88444001D01*
X145068501Y-88444001D01*
X145068501Y-88424001D01*
X145314499Y-88424001D01*
X145314499Y-88444001D01*
X146081450Y-88444001D01*
X146225699Y-88299752D01*
X146225699Y-87995028D01*
X146137856Y-87782956D01*
X146052777Y-87697878D01*
X146094453Y-87636883D01*
X146115760Y-87531668D01*
X146773001Y-88188909D01*
G36*
X139206997Y-87756200D02*
X139247231Y-87970023D01*
X139373600Y-88166407D01*
X139435346Y-88208596D01*
X139392293Y-88236300D01*
X139260547Y-88429117D01*
X139214197Y-88658000D01*
X139214197Y-89306000D01*
X138456514Y-89306000D01*
X138525699Y-89138972D01*
X138525699Y-88834248D01*
X138381450Y-88689999D01*
X137614499Y-88689999D01*
X137614499Y-88709999D01*
X137368501Y-88709999D01*
X137368501Y-88689999D01*
X137348501Y-88689999D01*
X137348501Y-88444001D01*
X137368501Y-88444001D01*
X137368501Y-88424001D01*
X137614499Y-88424001D01*
X137614499Y-88444001D01*
X138381450Y-88444001D01*
X138525699Y-88299752D01*
X138525699Y-87995028D01*
X138437856Y-87782956D01*
X138323073Y-87668174D01*
X138344453Y-87636883D01*
X138390803Y-87408000D01*
X138390803Y-86962399D01*
X139206997Y-86962399D01*
X139206997Y-87756200D01*
X139206997Y-87756200D01*
G37*
X139206997Y-87756200D02*
X139247231Y-87970023D01*
X139373600Y-88166407D01*
X139435346Y-88208596D01*
X139392293Y-88236300D01*
X139260547Y-88429117D01*
X139214197Y-88658000D01*
X139214197Y-89306000D01*
X138456514Y-89306000D01*
X138525699Y-89138972D01*
X138525699Y-88834248D01*
X138381450Y-88689999D01*
X137614499Y-88689999D01*
X137614499Y-88709999D01*
X137368501Y-88709999D01*
X137368501Y-88689999D01*
X137348501Y-88689999D01*
X137348501Y-88444001D01*
X137368501Y-88444001D01*
X137368501Y-88424001D01*
X137614499Y-88424001D01*
X137614499Y-88444001D01*
X138381450Y-88444001D01*
X138525699Y-88299752D01*
X138525699Y-87995028D01*
X138437856Y-87782956D01*
X138323073Y-87668174D01*
X138344453Y-87636883D01*
X138390803Y-87408000D01*
X138390803Y-86962399D01*
X139206997Y-86962399D01*
X139206997Y-87756200D01*
G36*
X131606997Y-87756200D02*
X131647231Y-87970023D01*
X131773600Y-88166407D01*
X131835346Y-88208596D01*
X131792293Y-88236300D01*
X131660547Y-88429117D01*
X131614197Y-88658000D01*
X131614197Y-89306000D01*
X130856514Y-89306000D01*
X130925699Y-89138972D01*
X130925699Y-88834248D01*
X130781450Y-88689999D01*
X130014499Y-88689999D01*
X130014499Y-88709999D01*
X129768501Y-88709999D01*
X129768501Y-88689999D01*
X129748501Y-88689999D01*
X129748501Y-88444001D01*
X129768501Y-88444001D01*
X129768501Y-88424001D01*
X130014499Y-88424001D01*
X130014499Y-88444001D01*
X130781450Y-88444001D01*
X130925699Y-88299752D01*
X130925699Y-87995028D01*
X130837856Y-87782956D01*
X130752777Y-87697878D01*
X130794453Y-87636883D01*
X130840803Y-87408000D01*
X130840803Y-86962399D01*
X131606997Y-86962399D01*
X131606997Y-87756200D01*
X131606997Y-87756200D01*
G37*
X131606997Y-87756200D02*
X131647231Y-87970023D01*
X131773600Y-88166407D01*
X131835346Y-88208596D01*
X131792293Y-88236300D01*
X131660547Y-88429117D01*
X131614197Y-88658000D01*
X131614197Y-89306000D01*
X130856514Y-89306000D01*
X130925699Y-89138972D01*
X130925699Y-88834248D01*
X130781450Y-88689999D01*
X130014499Y-88689999D01*
X130014499Y-88709999D01*
X129768501Y-88709999D01*
X129768501Y-88689999D01*
X129748501Y-88689999D01*
X129748501Y-88444001D01*
X129768501Y-88444001D01*
X129768501Y-88424001D01*
X130014499Y-88424001D01*
X130014499Y-88444001D01*
X130781450Y-88444001D01*
X130925699Y-88299752D01*
X130925699Y-87995028D01*
X130837856Y-87782956D01*
X130752777Y-87697878D01*
X130794453Y-87636883D01*
X130840803Y-87408000D01*
X130840803Y-86962399D01*
X131606997Y-86962399D01*
X131606997Y-87756200D01*
G36*
X164691584Y-85290468D02*
X164943705Y-85543029D01*
X165273285Y-85679883D01*
X165630149Y-85680194D01*
X165959968Y-85543916D01*
X166087583Y-85416524D01*
X166101620Y-85491126D01*
X166062477Y-85684420D01*
X166062477Y-86283860D01*
X166102711Y-86497683D01*
X166229080Y-86694067D01*
X166421897Y-86825813D01*
X166650780Y-86872163D01*
X167618562Y-86872163D01*
X167709900Y-87014107D01*
X167877181Y-87128405D01*
X167877181Y-87212952D01*
X168021430Y-87357201D01*
X168630901Y-87357201D01*
X168630901Y-87337201D01*
X168866637Y-87337201D01*
X168866637Y-87623199D01*
X168630901Y-87623199D01*
X168630901Y-87603199D01*
X168021430Y-87603199D01*
X167877181Y-87747448D01*
X167877181Y-88088000D01*
X166992908Y-88088000D01*
X164404435Y-85499527D01*
X164612529Y-85291795D01*
X164652429Y-85195705D01*
X164691584Y-85290468D01*
X164691584Y-85290468D01*
G37*
X164691584Y-85290468D02*
X164943705Y-85543029D01*
X165273285Y-85679883D01*
X165630149Y-85680194D01*
X165959968Y-85543916D01*
X166087583Y-85416524D01*
X166101620Y-85491126D01*
X166062477Y-85684420D01*
X166062477Y-86283860D01*
X166102711Y-86497683D01*
X166229080Y-86694067D01*
X166421897Y-86825813D01*
X166650780Y-86872163D01*
X167618562Y-86872163D01*
X167709900Y-87014107D01*
X167877181Y-87128405D01*
X167877181Y-87212952D01*
X168021430Y-87357201D01*
X168630901Y-87357201D01*
X168630901Y-87337201D01*
X168866637Y-87337201D01*
X168866637Y-87623199D01*
X168630901Y-87623199D01*
X168630901Y-87603199D01*
X168021430Y-87603199D01*
X167877181Y-87747448D01*
X167877181Y-88088000D01*
X166992908Y-88088000D01*
X164404435Y-85499527D01*
X164612529Y-85291795D01*
X164652429Y-85195705D01*
X164691584Y-85290468D01*
G36*
X157874329Y-80910552D02*
X157942231Y-81012939D01*
X158119008Y-81189716D01*
X158212897Y-81253868D01*
X158222621Y-81277343D01*
X158245972Y-81300694D01*
X158281430Y-81300694D01*
X158298653Y-81312462D01*
X158487921Y-81353520D01*
X158520268Y-81525426D01*
X158538359Y-81552705D01*
X158538359Y-81593081D01*
X158561710Y-81616432D01*
X158587786Y-81627233D01*
X158649338Y-81720045D01*
X158826115Y-81896822D01*
X158934989Y-81971212D01*
X159002891Y-82073599D01*
X159179668Y-82250376D01*
X159288545Y-82324768D01*
X159356445Y-82427152D01*
X159533222Y-82603929D01*
X159642096Y-82678319D01*
X159709998Y-82780706D01*
X159886775Y-82957483D01*
X159995650Y-83031874D01*
X160063551Y-83134259D01*
X160240328Y-83311036D01*
X160349205Y-83385428D01*
X160389372Y-83445995D01*
X160323371Y-83459123D01*
X160086737Y-83617237D01*
X158936737Y-84767237D01*
X158778623Y-85003871D01*
X158723101Y-85283000D01*
X158748501Y-85410695D01*
X158748501Y-86358126D01*
X158802090Y-86627535D01*
X158921059Y-86805584D01*
X158954698Y-86855928D01*
X158957542Y-86858772D01*
X158928499Y-86901278D01*
X158826115Y-86969178D01*
X158649338Y-87145955D01*
X158588114Y-87235559D01*
X158584494Y-87233139D01*
X158262428Y-86911073D01*
X158262425Y-86911071D01*
X157618428Y-86267073D01*
X156891651Y-85540296D01*
X156642657Y-85373923D01*
X156348947Y-85315501D01*
X153611999Y-85315501D01*
X153611999Y-81800499D01*
X156220195Y-81800499D01*
X156531785Y-81929883D01*
X156888649Y-81930194D01*
X157218468Y-81793916D01*
X157471029Y-81541795D01*
X157601272Y-81228136D01*
X157768704Y-81060704D01*
X157870693Y-80908068D01*
X157874329Y-80910552D01*
X157874329Y-80910552D01*
G37*
X157874329Y-80910552D02*
X157942231Y-81012939D01*
X158119008Y-81189716D01*
X158212897Y-81253868D01*
X158222621Y-81277343D01*
X158245972Y-81300694D01*
X158281430Y-81300694D01*
X158298653Y-81312462D01*
X158487921Y-81353520D01*
X158520268Y-81525426D01*
X158538359Y-81552705D01*
X158538359Y-81593081D01*
X158561710Y-81616432D01*
X158587786Y-81627233D01*
X158649338Y-81720045D01*
X158826115Y-81896822D01*
X158934989Y-81971212D01*
X159002891Y-82073599D01*
X159179668Y-82250376D01*
X159288545Y-82324768D01*
X159356445Y-82427152D01*
X159533222Y-82603929D01*
X159642096Y-82678319D01*
X159709998Y-82780706D01*
X159886775Y-82957483D01*
X159995650Y-83031874D01*
X160063551Y-83134259D01*
X160240328Y-83311036D01*
X160349205Y-83385428D01*
X160389372Y-83445995D01*
X160323371Y-83459123D01*
X160086737Y-83617237D01*
X158936737Y-84767237D01*
X158778623Y-85003871D01*
X158723101Y-85283000D01*
X158748501Y-85410695D01*
X158748501Y-86358126D01*
X158802090Y-86627535D01*
X158921059Y-86805584D01*
X158954698Y-86855928D01*
X158957542Y-86858772D01*
X158928499Y-86901278D01*
X158826115Y-86969178D01*
X158649338Y-87145955D01*
X158588114Y-87235559D01*
X158584494Y-87233139D01*
X158262428Y-86911073D01*
X158262425Y-86911071D01*
X157618428Y-86267073D01*
X156891651Y-85540296D01*
X156642657Y-85373923D01*
X156348947Y-85315501D01*
X153611999Y-85315501D01*
X153611999Y-81800499D01*
X156220195Y-81800499D01*
X156531785Y-81929883D01*
X156888649Y-81930194D01*
X157218468Y-81793916D01*
X157471029Y-81541795D01*
X157601272Y-81228136D01*
X157768704Y-81060704D01*
X157870693Y-80908068D01*
X157874329Y-80910552D01*
G36*
X140610499Y-79188501D02*
X140630499Y-79188501D01*
X140630499Y-79434499D01*
X140610499Y-79434499D01*
X140610499Y-80194250D01*
X140754748Y-80338499D01*
X140977272Y-80338499D01*
X141189343Y-80250656D01*
X141281988Y-80158012D01*
X141290800Y-80171707D01*
X141483617Y-80303453D01*
X141712500Y-80349803D01*
X142462500Y-80349803D01*
X142632225Y-80317867D01*
X141984591Y-80965501D01*
X130252505Y-80965501D01*
X130252500Y-80965500D01*
X129958791Y-81023923D01*
X129709796Y-81190296D01*
X129659796Y-81240296D01*
X129659794Y-81240299D01*
X129559796Y-81340296D01*
X129559794Y-81340299D01*
X127972922Y-82927171D01*
X127909250Y-82863499D01*
X127224499Y-82863499D01*
X127224499Y-83623250D01*
X127368748Y-83767499D01*
X127398030Y-83767499D01*
X127385001Y-83833000D01*
X127385001Y-84576644D01*
X127292293Y-84636300D01*
X127160547Y-84829117D01*
X127114197Y-85058000D01*
X127114197Y-85503601D01*
X126937003Y-85503601D01*
X126937003Y-84759800D01*
X126896769Y-84545977D01*
X126770400Y-84349593D01*
X126658999Y-84273476D01*
X126658999Y-84215090D01*
X126774383Y-83937215D01*
X126774531Y-83767499D01*
X126834252Y-83767499D01*
X126978501Y-83623250D01*
X126978501Y-82863499D01*
X126958501Y-82863499D01*
X126958501Y-82617501D01*
X126978501Y-82617501D01*
X126978501Y-81857750D01*
X127224499Y-81857750D01*
X127224499Y-82617501D01*
X127909250Y-82617501D01*
X128053499Y-82473252D01*
X128053499Y-82175728D01*
X127965656Y-81963656D01*
X127803343Y-81801344D01*
X127591272Y-81713501D01*
X127368748Y-81713501D01*
X127224499Y-81857750D01*
X126978501Y-81857750D01*
X126834252Y-81713501D01*
X126611728Y-81713501D01*
X126399657Y-81801344D01*
X126307012Y-81893988D01*
X126298200Y-81880293D01*
X126105383Y-81748547D01*
X125876500Y-81702197D01*
X125126500Y-81702197D01*
X124912677Y-81742431D01*
X124716293Y-81868800D01*
X124584547Y-82061617D01*
X124538197Y-82290500D01*
X124538197Y-83190500D01*
X124578431Y-83404323D01*
X124704800Y-83600707D01*
X124788939Y-83658197D01*
X124792423Y-83675710D01*
X124958796Y-83924704D01*
X124987745Y-83953653D01*
X125116584Y-84265468D01*
X125124001Y-84272898D01*
X125124001Y-84273811D01*
X125024093Y-84338100D01*
X125003963Y-84367562D01*
X124992400Y-84349593D01*
X124799583Y-84217847D01*
X124570700Y-84171497D01*
X124079500Y-84171497D01*
X124079500Y-80446210D01*
X124566741Y-79958969D01*
X124627541Y-79984215D01*
X125254707Y-79984762D01*
X125834343Y-79745261D01*
X126278203Y-79302175D01*
X126304436Y-79238999D01*
X126814900Y-79238999D01*
X126832931Y-79334823D01*
X126959300Y-79531207D01*
X127152117Y-79662953D01*
X127381000Y-79709303D01*
X128270000Y-79709303D01*
X128483823Y-79669069D01*
X128680207Y-79542700D01*
X128778823Y-79398371D01*
X128864300Y-79531207D01*
X129057117Y-79662953D01*
X129286000Y-79709303D01*
X130175000Y-79709303D01*
X130388823Y-79669069D01*
X130585207Y-79542700D01*
X130716953Y-79349883D01*
X130752267Y-79175499D01*
X131173861Y-79175499D01*
X131225239Y-79299843D01*
X131668325Y-79743703D01*
X132247541Y-79984215D01*
X132874707Y-79984762D01*
X133088926Y-79896248D01*
X137903801Y-79896248D01*
X137903801Y-80200972D01*
X137991644Y-80413043D01*
X138153956Y-80575356D01*
X138366028Y-80663199D01*
X138670752Y-80663199D01*
X138815001Y-80518950D01*
X138815001Y-79751999D01*
X138048050Y-79751999D01*
X137903801Y-79896248D01*
X133088926Y-79896248D01*
X133454343Y-79745261D01*
X133692520Y-79507499D01*
X135962811Y-79507499D01*
X136027100Y-79607407D01*
X136219917Y-79739153D01*
X136448800Y-79785503D01*
X137363200Y-79785503D01*
X137577023Y-79745269D01*
X137773407Y-79618900D01*
X137905153Y-79426083D01*
X137915759Y-79373710D01*
X138048050Y-79506001D01*
X138815001Y-79506001D01*
X138815001Y-79486001D01*
X139060999Y-79486001D01*
X139060999Y-79506001D01*
X139080999Y-79506001D01*
X139080999Y-79751999D01*
X139060999Y-79751999D01*
X139060999Y-80518950D01*
X139205248Y-80663199D01*
X139509972Y-80663199D01*
X139722044Y-80575356D01*
X139884356Y-80413043D01*
X139927314Y-80309333D01*
X139997728Y-80338499D01*
X140220252Y-80338499D01*
X140364501Y-80194250D01*
X140364501Y-79434499D01*
X140344501Y-79434499D01*
X140344501Y-79188501D01*
X140364501Y-79188501D01*
X140364501Y-79168501D01*
X140610499Y-79168501D01*
X140610499Y-79188501D01*
X140610499Y-79188501D01*
G37*
X140610499Y-79188501D02*
X140630499Y-79188501D01*
X140630499Y-79434499D01*
X140610499Y-79434499D01*
X140610499Y-80194250D01*
X140754748Y-80338499D01*
X140977272Y-80338499D01*
X141189343Y-80250656D01*
X141281988Y-80158012D01*
X141290800Y-80171707D01*
X141483617Y-80303453D01*
X141712500Y-80349803D01*
X142462500Y-80349803D01*
X142632225Y-80317867D01*
X141984591Y-80965501D01*
X130252505Y-80965501D01*
X130252500Y-80965500D01*
X129958791Y-81023923D01*
X129709796Y-81190296D01*
X129659796Y-81240296D01*
X129659794Y-81240299D01*
X129559796Y-81340296D01*
X129559794Y-81340299D01*
X127972922Y-82927171D01*
X127909250Y-82863499D01*
X127224499Y-82863499D01*
X127224499Y-83623250D01*
X127368748Y-83767499D01*
X127398030Y-83767499D01*
X127385001Y-83833000D01*
X127385001Y-84576644D01*
X127292293Y-84636300D01*
X127160547Y-84829117D01*
X127114197Y-85058000D01*
X127114197Y-85503601D01*
X126937003Y-85503601D01*
X126937003Y-84759800D01*
X126896769Y-84545977D01*
X126770400Y-84349593D01*
X126658999Y-84273476D01*
X126658999Y-84215090D01*
X126774383Y-83937215D01*
X126774531Y-83767499D01*
X126834252Y-83767499D01*
X126978501Y-83623250D01*
X126978501Y-82863499D01*
X126958501Y-82863499D01*
X126958501Y-82617501D01*
X126978501Y-82617501D01*
X126978501Y-81857750D01*
X127224499Y-81857750D01*
X127224499Y-82617501D01*
X127909250Y-82617501D01*
X128053499Y-82473252D01*
X128053499Y-82175728D01*
X127965656Y-81963656D01*
X127803343Y-81801344D01*
X127591272Y-81713501D01*
X127368748Y-81713501D01*
X127224499Y-81857750D01*
X126978501Y-81857750D01*
X126834252Y-81713501D01*
X126611728Y-81713501D01*
X126399657Y-81801344D01*
X126307012Y-81893988D01*
X126298200Y-81880293D01*
X126105383Y-81748547D01*
X125876500Y-81702197D01*
X125126500Y-81702197D01*
X124912677Y-81742431D01*
X124716293Y-81868800D01*
X124584547Y-82061617D01*
X124538197Y-82290500D01*
X124538197Y-83190500D01*
X124578431Y-83404323D01*
X124704800Y-83600707D01*
X124788939Y-83658197D01*
X124792423Y-83675710D01*
X124958796Y-83924704D01*
X124987745Y-83953653D01*
X125116584Y-84265468D01*
X125124001Y-84272898D01*
X125124001Y-84273811D01*
X125024093Y-84338100D01*
X125003963Y-84367562D01*
X124992400Y-84349593D01*
X124799583Y-84217847D01*
X124570700Y-84171497D01*
X124079500Y-84171497D01*
X124079500Y-80446210D01*
X124566741Y-79958969D01*
X124627541Y-79984215D01*
X125254707Y-79984762D01*
X125834343Y-79745261D01*
X126278203Y-79302175D01*
X126304436Y-79238999D01*
X126814900Y-79238999D01*
X126832931Y-79334823D01*
X126959300Y-79531207D01*
X127152117Y-79662953D01*
X127381000Y-79709303D01*
X128270000Y-79709303D01*
X128483823Y-79669069D01*
X128680207Y-79542700D01*
X128778823Y-79398371D01*
X128864300Y-79531207D01*
X129057117Y-79662953D01*
X129286000Y-79709303D01*
X130175000Y-79709303D01*
X130388823Y-79669069D01*
X130585207Y-79542700D01*
X130716953Y-79349883D01*
X130752267Y-79175499D01*
X131173861Y-79175499D01*
X131225239Y-79299843D01*
X131668325Y-79743703D01*
X132247541Y-79984215D01*
X132874707Y-79984762D01*
X133088926Y-79896248D01*
X137903801Y-79896248D01*
X137903801Y-80200972D01*
X137991644Y-80413043D01*
X138153956Y-80575356D01*
X138366028Y-80663199D01*
X138670752Y-80663199D01*
X138815001Y-80518950D01*
X138815001Y-79751999D01*
X138048050Y-79751999D01*
X137903801Y-79896248D01*
X133088926Y-79896248D01*
X133454343Y-79745261D01*
X133692520Y-79507499D01*
X135962811Y-79507499D01*
X136027100Y-79607407D01*
X136219917Y-79739153D01*
X136448800Y-79785503D01*
X137363200Y-79785503D01*
X137577023Y-79745269D01*
X137773407Y-79618900D01*
X137905153Y-79426083D01*
X137915759Y-79373710D01*
X138048050Y-79506001D01*
X138815001Y-79506001D01*
X138815001Y-79486001D01*
X139060999Y-79486001D01*
X139060999Y-79506001D01*
X139080999Y-79506001D01*
X139080999Y-79751999D01*
X139060999Y-79751999D01*
X139060999Y-80518950D01*
X139205248Y-80663199D01*
X139509972Y-80663199D01*
X139722044Y-80575356D01*
X139884356Y-80413043D01*
X139927314Y-80309333D01*
X139997728Y-80338499D01*
X140220252Y-80338499D01*
X140364501Y-80194250D01*
X140364501Y-79434499D01*
X140344501Y-79434499D01*
X140344501Y-79188501D01*
X140364501Y-79188501D01*
X140364501Y-79168501D01*
X140610499Y-79168501D01*
X140610499Y-79188501D01*
G36*
X145205617Y-84403785D02*
X145205306Y-84760649D01*
X145225499Y-84809520D01*
X145225499Y-85310001D01*
X145245499Y-85310001D01*
X145245499Y-85503601D01*
X144959501Y-85503601D01*
X144959501Y-85310001D01*
X144979501Y-85310001D01*
X144979501Y-84625250D01*
X144835252Y-84481001D01*
X144537728Y-84481001D01*
X144325656Y-84568844D01*
X144257867Y-84636633D01*
X144169999Y-84576596D01*
X144169999Y-84550909D01*
X144470409Y-84250499D01*
X145269267Y-84250499D01*
X145205617Y-84403785D01*
X145205617Y-84403785D01*
G37*
X145205617Y-84403785D02*
X145205306Y-84760649D01*
X145225499Y-84809520D01*
X145225499Y-85310001D01*
X145245499Y-85310001D01*
X145245499Y-85503601D01*
X144959501Y-85503601D01*
X144959501Y-85310001D01*
X144979501Y-85310001D01*
X144979501Y-84625250D01*
X144835252Y-84481001D01*
X144537728Y-84481001D01*
X144325656Y-84568844D01*
X144257867Y-84636633D01*
X144169999Y-84576596D01*
X144169999Y-84550909D01*
X144470409Y-84250499D01*
X145269267Y-84250499D01*
X145205617Y-84403785D01*
G36*
X137550501Y-83165752D02*
X137694750Y-83310001D01*
X138379501Y-83310001D01*
X138379501Y-83290001D01*
X138625499Y-83290001D01*
X138625499Y-83310001D01*
X138645499Y-83310001D01*
X138645499Y-83555999D01*
X138625499Y-83555999D01*
X138625499Y-83575999D01*
X138379501Y-83575999D01*
X138379501Y-83555999D01*
X137694750Y-83555999D01*
X137550501Y-83700248D01*
X137550501Y-83997772D01*
X137638344Y-84209844D01*
X137800657Y-84372156D01*
X138012728Y-84459999D01*
X138235252Y-84459999D01*
X138379499Y-84315752D01*
X138379499Y-84459999D01*
X138446967Y-84459999D01*
X138364347Y-84580917D01*
X138320044Y-84799692D01*
X138291656Y-84731157D01*
X138129344Y-84568844D01*
X137917272Y-84481001D01*
X137619748Y-84481001D01*
X137475499Y-84625250D01*
X137475499Y-85310001D01*
X137495499Y-85310001D01*
X137495499Y-85503601D01*
X137209501Y-85503601D01*
X137209501Y-85310001D01*
X137229501Y-85310001D01*
X137229501Y-84625250D01*
X137085252Y-84481001D01*
X136787728Y-84481001D01*
X136575656Y-84568844D01*
X136548459Y-84596041D01*
X136519999Y-84576596D01*
X136519999Y-84100909D01*
X137470409Y-83150499D01*
X137550501Y-83150499D01*
X137550501Y-83165752D01*
X137550501Y-83165752D01*
G37*
X137550501Y-83165752D02*
X137694750Y-83310001D01*
X138379501Y-83310001D01*
X138379501Y-83290001D01*
X138625499Y-83290001D01*
X138625499Y-83310001D01*
X138645499Y-83310001D01*
X138645499Y-83555999D01*
X138625499Y-83555999D01*
X138625499Y-83575999D01*
X138379501Y-83575999D01*
X138379501Y-83555999D01*
X137694750Y-83555999D01*
X137550501Y-83700248D01*
X137550501Y-83997772D01*
X137638344Y-84209844D01*
X137800657Y-84372156D01*
X138012728Y-84459999D01*
X138235252Y-84459999D01*
X138379499Y-84315752D01*
X138379499Y-84459999D01*
X138446967Y-84459999D01*
X138364347Y-84580917D01*
X138320044Y-84799692D01*
X138291656Y-84731157D01*
X138129344Y-84568844D01*
X137917272Y-84481001D01*
X137619748Y-84481001D01*
X137475499Y-84625250D01*
X137475499Y-85310001D01*
X137495499Y-85310001D01*
X137495499Y-85503601D01*
X137209501Y-85503601D01*
X137209501Y-85310001D01*
X137229501Y-85310001D01*
X137229501Y-84625250D01*
X137085252Y-84481001D01*
X136787728Y-84481001D01*
X136575656Y-84568844D01*
X136548459Y-84596041D01*
X136519999Y-84576596D01*
X136519999Y-84100909D01*
X137470409Y-83150499D01*
X137550501Y-83150499D01*
X137550501Y-83165752D01*
G36*
X130875499Y-82860001D02*
X130895499Y-82860001D01*
X130895499Y-83105999D01*
X130875499Y-83105999D01*
X130875499Y-83865750D01*
X131019748Y-84009999D01*
X131242272Y-84009999D01*
X131454343Y-83922156D01*
X131546988Y-83829512D01*
X131555800Y-83843207D01*
X131748617Y-83974953D01*
X131977500Y-84021303D01*
X132717346Y-84021303D01*
X132766584Y-84140468D01*
X132774001Y-84147898D01*
X132774001Y-84323811D01*
X132674093Y-84388100D01*
X132653963Y-84417562D01*
X132642400Y-84399593D01*
X132449583Y-84267847D01*
X132220700Y-84221497D01*
X131306300Y-84221497D01*
X131092477Y-84261731D01*
X130896093Y-84388100D01*
X130764347Y-84580917D01*
X130735225Y-84724726D01*
X130579344Y-84568844D01*
X130367272Y-84481001D01*
X130069748Y-84481001D01*
X129925499Y-84625250D01*
X129925499Y-85310001D01*
X129945499Y-85310001D01*
X129945499Y-85503601D01*
X129659501Y-85503601D01*
X129659501Y-85310001D01*
X129679501Y-85310001D01*
X129679501Y-84625250D01*
X129535252Y-84481001D01*
X129237728Y-84481001D01*
X129025656Y-84568844D01*
X128978163Y-84616337D01*
X128919999Y-84576596D01*
X128919999Y-84150909D01*
X129800501Y-83270406D01*
X129800501Y-83547772D01*
X129888344Y-83759844D01*
X130050657Y-83922156D01*
X130262728Y-84009999D01*
X130485252Y-84009999D01*
X130629501Y-83865750D01*
X130629501Y-83105999D01*
X130609501Y-83105999D01*
X130609501Y-82860001D01*
X130629501Y-82860001D01*
X130629501Y-82840001D01*
X130875499Y-82840001D01*
X130875499Y-82860001D01*
X130875499Y-82860001D01*
G37*
X130875499Y-82860001D02*
X130895499Y-82860001D01*
X130895499Y-83105999D01*
X130875499Y-83105999D01*
X130875499Y-83865750D01*
X131019748Y-84009999D01*
X131242272Y-84009999D01*
X131454343Y-83922156D01*
X131546988Y-83829512D01*
X131555800Y-83843207D01*
X131748617Y-83974953D01*
X131977500Y-84021303D01*
X132717346Y-84021303D01*
X132766584Y-84140468D01*
X132774001Y-84147898D01*
X132774001Y-84323811D01*
X132674093Y-84388100D01*
X132653963Y-84417562D01*
X132642400Y-84399593D01*
X132449583Y-84267847D01*
X132220700Y-84221497D01*
X131306300Y-84221497D01*
X131092477Y-84261731D01*
X130896093Y-84388100D01*
X130764347Y-84580917D01*
X130735225Y-84724726D01*
X130579344Y-84568844D01*
X130367272Y-84481001D01*
X130069748Y-84481001D01*
X129925499Y-84625250D01*
X129925499Y-85310001D01*
X129945499Y-85310001D01*
X129945499Y-85503601D01*
X129659501Y-85503601D01*
X129659501Y-85310001D01*
X129679501Y-85310001D01*
X129679501Y-84625250D01*
X129535252Y-84481001D01*
X129237728Y-84481001D01*
X129025656Y-84568844D01*
X128978163Y-84616337D01*
X128919999Y-84576596D01*
X128919999Y-84150909D01*
X129800501Y-83270406D01*
X129800501Y-83547772D01*
X129888344Y-83759844D01*
X130050657Y-83922156D01*
X130262728Y-84009999D01*
X130485252Y-84009999D01*
X130629501Y-83865750D01*
X130629501Y-83105999D01*
X130609501Y-83105999D01*
X130609501Y-82860001D01*
X130629501Y-82860001D01*
X130629501Y-82840001D01*
X130875499Y-82840001D01*
X130875499Y-82860001D01*
G36*
X164925499Y-83028499D02*
X164905499Y-83028499D01*
X164905499Y-83048499D01*
X164659501Y-83048499D01*
X164659501Y-83028499D01*
X163899750Y-83028499D01*
X163755501Y-83172748D01*
X163755501Y-83395272D01*
X163843344Y-83607343D01*
X164005656Y-83769656D01*
X164217728Y-83857499D01*
X164515252Y-83857499D01*
X164659499Y-83713252D01*
X164659499Y-83857499D01*
X164685001Y-83857499D01*
X164685001Y-84292195D01*
X164652571Y-84370295D01*
X164613416Y-84275532D01*
X164361295Y-84022971D01*
X164031715Y-83886117D01*
X163674851Y-83885806D01*
X163620363Y-83908320D01*
X162744239Y-83032196D01*
X162821406Y-82919259D01*
X162839706Y-82834899D01*
X164925499Y-82834899D01*
X164925499Y-83028499D01*
X164925499Y-83028499D01*
G37*
X164925499Y-83028499D02*
X164905499Y-83028499D01*
X164905499Y-83048499D01*
X164659501Y-83048499D01*
X164659501Y-83028499D01*
X163899750Y-83028499D01*
X163755501Y-83172748D01*
X163755501Y-83395272D01*
X163843344Y-83607343D01*
X164005656Y-83769656D01*
X164217728Y-83857499D01*
X164515252Y-83857499D01*
X164659499Y-83713252D01*
X164659499Y-83857499D01*
X164685001Y-83857499D01*
X164685001Y-84292195D01*
X164652571Y-84370295D01*
X164613416Y-84275532D01*
X164361295Y-84022971D01*
X164031715Y-83886117D01*
X163674851Y-83885806D01*
X163620363Y-83908320D01*
X162744239Y-83032196D01*
X162821406Y-82919259D01*
X162839706Y-82834899D01*
X164925499Y-82834899D01*
X164925499Y-83028499D01*
G36*
X167393219Y-84095357D02*
X167107221Y-84095357D01*
X167107221Y-83869883D01*
X167393219Y-83869883D01*
X167393219Y-84095357D01*
X167393219Y-84095357D01*
G37*
X167393219Y-84095357D02*
X167107221Y-84095357D01*
X167107221Y-83869883D01*
X167393219Y-83869883D01*
X167393219Y-84095357D01*
G36*
X152015126Y-81420374D02*
X152077001Y-81482249D01*
X152077001Y-83615501D01*
X151431321Y-83615501D01*
X150956117Y-83140296D01*
X150707123Y-82973923D01*
X150698158Y-82972140D01*
X150440926Y-82714908D01*
X150444814Y-82714908D01*
X150468165Y-82691557D01*
X150478966Y-82665481D01*
X150571778Y-82603929D01*
X150748555Y-82427152D01*
X150822945Y-82318278D01*
X150925332Y-82250376D01*
X151102109Y-82073599D01*
X151176501Y-81964722D01*
X151278885Y-81896822D01*
X151455662Y-81720045D01*
X151530052Y-81611171D01*
X151632439Y-81543269D01*
X151809216Y-81366492D01*
X151873368Y-81272603D01*
X151896843Y-81262879D01*
X151904665Y-81255057D01*
X152015126Y-81420374D01*
X152015126Y-81420374D01*
G37*
X152015126Y-81420374D02*
X152077001Y-81482249D01*
X152077001Y-83615501D01*
X151431321Y-83615501D01*
X150956117Y-83140296D01*
X150707123Y-82973923D01*
X150698158Y-82972140D01*
X150440926Y-82714908D01*
X150444814Y-82714908D01*
X150468165Y-82691557D01*
X150478966Y-82665481D01*
X150571778Y-82603929D01*
X150748555Y-82427152D01*
X150822945Y-82318278D01*
X150925332Y-82250376D01*
X151102109Y-82073599D01*
X151176501Y-81964722D01*
X151278885Y-81896822D01*
X151455662Y-81720045D01*
X151530052Y-81611171D01*
X151632439Y-81543269D01*
X151809216Y-81366492D01*
X151873368Y-81272603D01*
X151896843Y-81262879D01*
X151904665Y-81255057D01*
X152015126Y-81420374D01*
G36*
X145895499Y-81105999D02*
X145875499Y-81105999D01*
X145875499Y-81118917D01*
X145839896Y-81125999D01*
X145629501Y-81125999D01*
X145629501Y-81105999D01*
X145609501Y-81105999D01*
X145609501Y-80950499D01*
X145895499Y-80950499D01*
X145895499Y-81105999D01*
X145895499Y-81105999D01*
G37*
X145895499Y-81105999D02*
X145875499Y-81105999D01*
X145875499Y-81118917D01*
X145839896Y-81125999D01*
X145629501Y-81125999D01*
X145629501Y-81105999D01*
X145609501Y-81105999D01*
X145609501Y-80950499D01*
X145895499Y-80950499D01*
X145895499Y-81105999D01*
G36*
X119627001Y-72863252D02*
X119771250Y-73007501D01*
X120779501Y-73007501D01*
X120779501Y-72987501D01*
X121025499Y-72987501D01*
X121025499Y-73007501D01*
X122033750Y-73007501D01*
X122177999Y-72863252D01*
X122177999Y-72665959D01*
X123169399Y-72665959D01*
X123064971Y-72770205D01*
X122928117Y-73099785D01*
X122927806Y-73456649D01*
X123064084Y-73786468D01*
X123316205Y-74039029D01*
X123645785Y-74175883D01*
X124002649Y-74176194D01*
X124316536Y-74046499D01*
X124837180Y-74046499D01*
X124864431Y-74191323D01*
X124990800Y-74387707D01*
X125183617Y-74519453D01*
X125412500Y-74565803D01*
X126301500Y-74565803D01*
X126515323Y-74525569D01*
X126711707Y-74399200D01*
X126810323Y-74254871D01*
X126895800Y-74387707D01*
X127088617Y-74519453D01*
X127317500Y-74565803D01*
X128206500Y-74565803D01*
X128420323Y-74525569D01*
X128616707Y-74399200D01*
X128705379Y-74269424D01*
X128707617Y-74270953D01*
X128936500Y-74317303D01*
X129686500Y-74317303D01*
X129900323Y-74277069D01*
X130096707Y-74150700D01*
X130109833Y-74131489D01*
X130114800Y-74139207D01*
X130307617Y-74270953D01*
X130536500Y-74317303D01*
X131286500Y-74317303D01*
X131500323Y-74277069D01*
X131696707Y-74150700D01*
X131767904Y-74046499D01*
X131825591Y-74046499D01*
X132333245Y-74554152D01*
X132460032Y-74861001D01*
X129349500Y-74861001D01*
X129055791Y-74919423D01*
X128806796Y-75085796D01*
X128806794Y-75085799D01*
X127282796Y-76609796D01*
X127116423Y-76858790D01*
X127078530Y-77049291D01*
X127058001Y-77152500D01*
X127058001Y-77246183D01*
X126970793Y-77302300D01*
X126839047Y-77495117D01*
X126822465Y-77577001D01*
X126304901Y-77577001D01*
X126279761Y-77516157D01*
X125836675Y-77072297D01*
X125257459Y-76831785D01*
X124630293Y-76831238D01*
X124050657Y-77070739D01*
X123606797Y-77513825D01*
X123366285Y-78093041D01*
X123365738Y-78720207D01*
X123389901Y-78778686D01*
X123364895Y-78795395D01*
X123054290Y-79106000D01*
X122956190Y-79106000D01*
X123007383Y-78982715D01*
X123007694Y-78625851D01*
X122871416Y-78296032D01*
X122619295Y-78043471D01*
X122289715Y-77906617D01*
X121932851Y-77906306D01*
X121889749Y-77924115D01*
X121830623Y-77883716D01*
X121877844Y-77864156D01*
X122040156Y-77701843D01*
X122127999Y-77489772D01*
X122127999Y-77197748D01*
X121983750Y-77053499D01*
X120975499Y-77053499D01*
X120975499Y-77073499D01*
X120729501Y-77073499D01*
X120729501Y-77053499D01*
X120709501Y-77053499D01*
X120709501Y-76807501D01*
X120729501Y-76807501D01*
X120729501Y-76787501D01*
X120975499Y-76787501D01*
X120975499Y-76807501D01*
X121983750Y-76807501D01*
X122127999Y-76663252D01*
X122127999Y-76371228D01*
X122040156Y-76159157D01*
X121877844Y-75996844D01*
X121869025Y-75993191D01*
X122008935Y-75903162D01*
X122073285Y-75929883D01*
X122430149Y-75930194D01*
X122759968Y-75793916D01*
X123012529Y-75541795D01*
X123149383Y-75212215D01*
X123149694Y-74855351D01*
X123013416Y-74525532D01*
X122761295Y-74272971D01*
X122431715Y-74136117D01*
X122074851Y-74135806D01*
X122001323Y-74166187D01*
X121880623Y-74083716D01*
X121927844Y-74064156D01*
X122090156Y-73901843D01*
X122177999Y-73689772D01*
X122177999Y-73397748D01*
X122033750Y-73253499D01*
X121025499Y-73253499D01*
X121025499Y-73273499D01*
X120779501Y-73273499D01*
X120779501Y-73253499D01*
X119771250Y-73253499D01*
X119627001Y-73397748D01*
X119627001Y-73689772D01*
X119714844Y-73901843D01*
X119877156Y-74064156D01*
X119925848Y-74084325D01*
X119793793Y-74169300D01*
X119726354Y-74268001D01*
X119274027Y-74268001D01*
X119232383Y-74239547D01*
X119003500Y-74193197D01*
X118241500Y-74193197D01*
X118027677Y-74233431D01*
X117831293Y-74359800D01*
X117829500Y-74362424D01*
X117829500Y-73801335D01*
X118012617Y-73926453D01*
X118241500Y-73972803D01*
X119003500Y-73972803D01*
X119217323Y-73932569D01*
X119413707Y-73806200D01*
X119545453Y-73613383D01*
X119591803Y-73384500D01*
X119591803Y-72876500D01*
X119552187Y-72665959D01*
X119627001Y-72665959D01*
X119627001Y-72863252D01*
X119627001Y-72863252D01*
G37*
X119627001Y-72863252D02*
X119771250Y-73007501D01*
X120779501Y-73007501D01*
X120779501Y-72987501D01*
X121025499Y-72987501D01*
X121025499Y-73007501D01*
X122033750Y-73007501D01*
X122177999Y-72863252D01*
X122177999Y-72665959D01*
X123169399Y-72665959D01*
X123064971Y-72770205D01*
X122928117Y-73099785D01*
X122927806Y-73456649D01*
X123064084Y-73786468D01*
X123316205Y-74039029D01*
X123645785Y-74175883D01*
X124002649Y-74176194D01*
X124316536Y-74046499D01*
X124837180Y-74046499D01*
X124864431Y-74191323D01*
X124990800Y-74387707D01*
X125183617Y-74519453D01*
X125412500Y-74565803D01*
X126301500Y-74565803D01*
X126515323Y-74525569D01*
X126711707Y-74399200D01*
X126810323Y-74254871D01*
X126895800Y-74387707D01*
X127088617Y-74519453D01*
X127317500Y-74565803D01*
X128206500Y-74565803D01*
X128420323Y-74525569D01*
X128616707Y-74399200D01*
X128705379Y-74269424D01*
X128707617Y-74270953D01*
X128936500Y-74317303D01*
X129686500Y-74317303D01*
X129900323Y-74277069D01*
X130096707Y-74150700D01*
X130109833Y-74131489D01*
X130114800Y-74139207D01*
X130307617Y-74270953D01*
X130536500Y-74317303D01*
X131286500Y-74317303D01*
X131500323Y-74277069D01*
X131696707Y-74150700D01*
X131767904Y-74046499D01*
X131825591Y-74046499D01*
X132333245Y-74554152D01*
X132460032Y-74861001D01*
X129349500Y-74861001D01*
X129055791Y-74919423D01*
X128806796Y-75085796D01*
X128806794Y-75085799D01*
X127282796Y-76609796D01*
X127116423Y-76858790D01*
X127078530Y-77049291D01*
X127058001Y-77152500D01*
X127058001Y-77246183D01*
X126970793Y-77302300D01*
X126839047Y-77495117D01*
X126822465Y-77577001D01*
X126304901Y-77577001D01*
X126279761Y-77516157D01*
X125836675Y-77072297D01*
X125257459Y-76831785D01*
X124630293Y-76831238D01*
X124050657Y-77070739D01*
X123606797Y-77513825D01*
X123366285Y-78093041D01*
X123365738Y-78720207D01*
X123389901Y-78778686D01*
X123364895Y-78795395D01*
X123054290Y-79106000D01*
X122956190Y-79106000D01*
X123007383Y-78982715D01*
X123007694Y-78625851D01*
X122871416Y-78296032D01*
X122619295Y-78043471D01*
X122289715Y-77906617D01*
X121932851Y-77906306D01*
X121889749Y-77924115D01*
X121830623Y-77883716D01*
X121877844Y-77864156D01*
X122040156Y-77701843D01*
X122127999Y-77489772D01*
X122127999Y-77197748D01*
X121983750Y-77053499D01*
X120975499Y-77053499D01*
X120975499Y-77073499D01*
X120729501Y-77073499D01*
X120729501Y-77053499D01*
X120709501Y-77053499D01*
X120709501Y-76807501D01*
X120729501Y-76807501D01*
X120729501Y-76787501D01*
X120975499Y-76787501D01*
X120975499Y-76807501D01*
X121983750Y-76807501D01*
X122127999Y-76663252D01*
X122127999Y-76371228D01*
X122040156Y-76159157D01*
X121877844Y-75996844D01*
X121869025Y-75993191D01*
X122008935Y-75903162D01*
X122073285Y-75929883D01*
X122430149Y-75930194D01*
X122759968Y-75793916D01*
X123012529Y-75541795D01*
X123149383Y-75212215D01*
X123149694Y-74855351D01*
X123013416Y-74525532D01*
X122761295Y-74272971D01*
X122431715Y-74136117D01*
X122074851Y-74135806D01*
X122001323Y-74166187D01*
X121880623Y-74083716D01*
X121927844Y-74064156D01*
X122090156Y-73901843D01*
X122177999Y-73689772D01*
X122177999Y-73397748D01*
X122033750Y-73253499D01*
X121025499Y-73253499D01*
X121025499Y-73273499D01*
X120779501Y-73273499D01*
X120779501Y-73253499D01*
X119771250Y-73253499D01*
X119627001Y-73397748D01*
X119627001Y-73689772D01*
X119714844Y-73901843D01*
X119877156Y-74064156D01*
X119925848Y-74084325D01*
X119793793Y-74169300D01*
X119726354Y-74268001D01*
X119274027Y-74268001D01*
X119232383Y-74239547D01*
X119003500Y-74193197D01*
X118241500Y-74193197D01*
X118027677Y-74233431D01*
X117831293Y-74359800D01*
X117829500Y-74362424D01*
X117829500Y-73801335D01*
X118012617Y-73926453D01*
X118241500Y-73972803D01*
X119003500Y-73972803D01*
X119217323Y-73932569D01*
X119413707Y-73806200D01*
X119545453Y-73613383D01*
X119591803Y-73384500D01*
X119591803Y-72876500D01*
X119552187Y-72665959D01*
X119627001Y-72665959D01*
X119627001Y-72863252D01*
G36*
X139637584Y-72960968D02*
X139889705Y-73213529D01*
X140219285Y-73350383D01*
X140576149Y-73350694D01*
X140890036Y-73220999D01*
X145267711Y-73220999D01*
X144971032Y-73343584D01*
X144718471Y-73595705D01*
X144581617Y-73925285D01*
X144581306Y-74282149D01*
X144691670Y-74549250D01*
X144581617Y-74814285D01*
X144581306Y-75171149D01*
X144691670Y-75438250D01*
X144581617Y-75703285D01*
X144581306Y-76060149D01*
X144717584Y-76389968D01*
X144969705Y-76642529D01*
X145299285Y-76779383D01*
X145656149Y-76779694D01*
X145816354Y-76713499D01*
X150697591Y-76713499D01*
X151128789Y-77144697D01*
X150427500Y-77144697D01*
X150213677Y-77184931D01*
X150017293Y-77311300D01*
X149998826Y-77338327D01*
X149904343Y-77243844D01*
X149692272Y-77156001D01*
X149469748Y-77156001D01*
X149325499Y-77300250D01*
X149325499Y-78060001D01*
X149345499Y-78060001D01*
X149345499Y-78305999D01*
X149325499Y-78305999D01*
X149325499Y-78325999D01*
X149079501Y-78325999D01*
X149079501Y-78305999D01*
X149059501Y-78305999D01*
X149059501Y-78060001D01*
X149079501Y-78060001D01*
X149079501Y-77300250D01*
X148935252Y-77156001D01*
X148712728Y-77156001D01*
X148500657Y-77243844D01*
X148338344Y-77406156D01*
X148250501Y-77618228D01*
X148250501Y-77915752D01*
X148359668Y-78024919D01*
X148349170Y-78022831D01*
X144068739Y-78022831D01*
X143481204Y-77435296D01*
X143232210Y-77268923D01*
X142944642Y-77211723D01*
X142884200Y-77117793D01*
X142691383Y-76986047D01*
X142462500Y-76939697D01*
X142054999Y-76939697D01*
X142054999Y-74866500D01*
X142029696Y-74739290D01*
X141996577Y-74572790D01*
X141830204Y-74323796D01*
X141576204Y-74069796D01*
X141406589Y-73956462D01*
X141403769Y-73941477D01*
X141277400Y-73745093D01*
X141084583Y-73613347D01*
X140855700Y-73566997D01*
X139941300Y-73566997D01*
X139727477Y-73607231D01*
X139531093Y-73733600D01*
X139399347Y-73926417D01*
X139352997Y-74155300D01*
X139352997Y-74801304D01*
X139245400Y-74634093D01*
X139052583Y-74502347D01*
X138823700Y-74455997D01*
X138247771Y-74455997D01*
X138580767Y-74123582D01*
X138790859Y-73617624D01*
X138791338Y-73069780D01*
X138624482Y-72665959D01*
X139515689Y-72665959D01*
X139637584Y-72960968D01*
X139637584Y-72960968D01*
G37*
X139637584Y-72960968D02*
X139889705Y-73213529D01*
X140219285Y-73350383D01*
X140576149Y-73350694D01*
X140890036Y-73220999D01*
X145267711Y-73220999D01*
X144971032Y-73343584D01*
X144718471Y-73595705D01*
X144581617Y-73925285D01*
X144581306Y-74282149D01*
X144691670Y-74549250D01*
X144581617Y-74814285D01*
X144581306Y-75171149D01*
X144691670Y-75438250D01*
X144581617Y-75703285D01*
X144581306Y-76060149D01*
X144717584Y-76389968D01*
X144969705Y-76642529D01*
X145299285Y-76779383D01*
X145656149Y-76779694D01*
X145816354Y-76713499D01*
X150697591Y-76713499D01*
X151128789Y-77144697D01*
X150427500Y-77144697D01*
X150213677Y-77184931D01*
X150017293Y-77311300D01*
X149998826Y-77338327D01*
X149904343Y-77243844D01*
X149692272Y-77156001D01*
X149469748Y-77156001D01*
X149325499Y-77300250D01*
X149325499Y-78060001D01*
X149345499Y-78060001D01*
X149345499Y-78305999D01*
X149325499Y-78305999D01*
X149325499Y-78325999D01*
X149079501Y-78325999D01*
X149079501Y-78305999D01*
X149059501Y-78305999D01*
X149059501Y-78060001D01*
X149079501Y-78060001D01*
X149079501Y-77300250D01*
X148935252Y-77156001D01*
X148712728Y-77156001D01*
X148500657Y-77243844D01*
X148338344Y-77406156D01*
X148250501Y-77618228D01*
X148250501Y-77915752D01*
X148359668Y-78024919D01*
X148349170Y-78022831D01*
X144068739Y-78022831D01*
X143481204Y-77435296D01*
X143232210Y-77268923D01*
X142944642Y-77211723D01*
X142884200Y-77117793D01*
X142691383Y-76986047D01*
X142462500Y-76939697D01*
X142054999Y-76939697D01*
X142054999Y-74866500D01*
X142029696Y-74739290D01*
X141996577Y-74572790D01*
X141830204Y-74323796D01*
X141576204Y-74069796D01*
X141406589Y-73956462D01*
X141403769Y-73941477D01*
X141277400Y-73745093D01*
X141084583Y-73613347D01*
X140855700Y-73566997D01*
X139941300Y-73566997D01*
X139727477Y-73607231D01*
X139531093Y-73733600D01*
X139399347Y-73926417D01*
X139352997Y-74155300D01*
X139352997Y-74801304D01*
X139245400Y-74634093D01*
X139052583Y-74502347D01*
X138823700Y-74455997D01*
X138247771Y-74455997D01*
X138580767Y-74123582D01*
X138790859Y-73617624D01*
X138791338Y-73069780D01*
X138624482Y-72665959D01*
X139515689Y-72665959D01*
X139637584Y-72960968D01*
G36*
X119577001Y-77489772D02*
X119664844Y-77701843D01*
X119827156Y-77864156D01*
X119875848Y-77884325D01*
X119743793Y-77969300D01*
X119719741Y-78004501D01*
X119059321Y-78004501D01*
X119003500Y-77993197D01*
X118241500Y-77993197D01*
X118027677Y-78033431D01*
X117831293Y-78159800D01*
X117829500Y-78162424D01*
X117829500Y-77601335D01*
X118012617Y-77726453D01*
X118241500Y-77772803D01*
X119003500Y-77772803D01*
X119217323Y-77732569D01*
X119413707Y-77606200D01*
X119545453Y-77413383D01*
X119577001Y-77257594D01*
X119577001Y-77489772D01*
X119577001Y-77489772D01*
G37*
X119577001Y-77489772D02*
X119664844Y-77701843D01*
X119827156Y-77864156D01*
X119875848Y-77884325D01*
X119743793Y-77969300D01*
X119719741Y-78004501D01*
X119059321Y-78004501D01*
X119003500Y-77993197D01*
X118241500Y-77993197D01*
X118027677Y-78033431D01*
X117831293Y-78159800D01*
X117829500Y-78162424D01*
X117829500Y-77601335D01*
X118012617Y-77726453D01*
X118241500Y-77772803D01*
X119003500Y-77772803D01*
X119217323Y-77732569D01*
X119413707Y-77606200D01*
X119545453Y-77413383D01*
X119577001Y-77257594D01*
X119577001Y-77489772D01*
G36*
X139508550Y-76267501D02*
X140275501Y-76267501D01*
X140275501Y-76247501D01*
X140520001Y-76247501D01*
X140520001Y-76533499D01*
X140275501Y-76533499D01*
X140275501Y-76513499D01*
X139508550Y-76513499D01*
X139364301Y-76657748D01*
X139364301Y-76805497D01*
X138480800Y-76805497D01*
X138266977Y-76845731D01*
X138070593Y-76972100D01*
X137938847Y-77164917D01*
X137892497Y-77393800D01*
X137892497Y-78039804D01*
X137784900Y-77872593D01*
X137592083Y-77740847D01*
X137363200Y-77694497D01*
X136448800Y-77694497D01*
X136234977Y-77734731D01*
X136038593Y-77861100D01*
X135962476Y-77972501D01*
X134088319Y-77972501D01*
X133899761Y-77516157D01*
X133456675Y-77072297D01*
X132877459Y-76831785D01*
X132250293Y-76831238D01*
X131670657Y-77070739D01*
X131226797Y-77513825D01*
X131174196Y-77640501D01*
X130747591Y-77640501D01*
X130723069Y-77510177D01*
X130596700Y-77313793D01*
X130403883Y-77182047D01*
X130175000Y-77135697D01*
X129286000Y-77135697D01*
X129072177Y-77175931D01*
X128875793Y-77302300D01*
X128777177Y-77446629D01*
X128714376Y-77349032D01*
X129667408Y-76395999D01*
X133409680Y-76395999D01*
X133436931Y-76540823D01*
X133563300Y-76737207D01*
X133756117Y-76868953D01*
X133985000Y-76915303D01*
X134874000Y-76915303D01*
X135087823Y-76875069D01*
X135284207Y-76748700D01*
X135382823Y-76604371D01*
X135468300Y-76737207D01*
X135661117Y-76868953D01*
X135890000Y-76915303D01*
X136779000Y-76915303D01*
X136992823Y-76875069D01*
X137189207Y-76748700D01*
X137320953Y-76555883D01*
X137367303Y-76327000D01*
X137367303Y-76268999D01*
X137423311Y-76268999D01*
X137487600Y-76368907D01*
X137680417Y-76500653D01*
X137909300Y-76547003D01*
X138823700Y-76547003D01*
X139037523Y-76506769D01*
X139233907Y-76380400D01*
X139365653Y-76187583D01*
X139376259Y-76135210D01*
X139508550Y-76267501D01*
X139508550Y-76267501D01*
G37*
X139508550Y-76267501D02*
X140275501Y-76267501D01*
X140275501Y-76247501D01*
X140520001Y-76247501D01*
X140520001Y-76533499D01*
X140275501Y-76533499D01*
X140275501Y-76513499D01*
X139508550Y-76513499D01*
X139364301Y-76657748D01*
X139364301Y-76805497D01*
X138480800Y-76805497D01*
X138266977Y-76845731D01*
X138070593Y-76972100D01*
X137938847Y-77164917D01*
X137892497Y-77393800D01*
X137892497Y-78039804D01*
X137784900Y-77872593D01*
X137592083Y-77740847D01*
X137363200Y-77694497D01*
X136448800Y-77694497D01*
X136234977Y-77734731D01*
X136038593Y-77861100D01*
X135962476Y-77972501D01*
X134088319Y-77972501D01*
X133899761Y-77516157D01*
X133456675Y-77072297D01*
X132877459Y-76831785D01*
X132250293Y-76831238D01*
X131670657Y-77070739D01*
X131226797Y-77513825D01*
X131174196Y-77640501D01*
X130747591Y-77640501D01*
X130723069Y-77510177D01*
X130596700Y-77313793D01*
X130403883Y-77182047D01*
X130175000Y-77135697D01*
X129286000Y-77135697D01*
X129072177Y-77175931D01*
X128875793Y-77302300D01*
X128777177Y-77446629D01*
X128714376Y-77349032D01*
X129667408Y-76395999D01*
X133409680Y-76395999D01*
X133436931Y-76540823D01*
X133563300Y-76737207D01*
X133756117Y-76868953D01*
X133985000Y-76915303D01*
X134874000Y-76915303D01*
X135087823Y-76875069D01*
X135284207Y-76748700D01*
X135382823Y-76604371D01*
X135468300Y-76737207D01*
X135661117Y-76868953D01*
X135890000Y-76915303D01*
X136779000Y-76915303D01*
X136992823Y-76875069D01*
X137189207Y-76748700D01*
X137320953Y-76555883D01*
X137367303Y-76327000D01*
X137367303Y-76268999D01*
X137423311Y-76268999D01*
X137487600Y-76368907D01*
X137680417Y-76500653D01*
X137909300Y-76547003D01*
X138823700Y-76547003D01*
X139037523Y-76506769D01*
X139233907Y-76380400D01*
X139365653Y-76187583D01*
X139376259Y-76135210D01*
X139508550Y-76267501D01*
G36*
X118012617Y-75831453D02*
X118241500Y-75877803D01*
X119003500Y-75877803D01*
X119217323Y-75837569D01*
X119271047Y-75802999D01*
X119726183Y-75802999D01*
X119782300Y-75890207D01*
X119896395Y-75968164D01*
X119827156Y-75996844D01*
X119664844Y-76159157D01*
X119577001Y-76371228D01*
X119577001Y-76597835D01*
X119551569Y-76462677D01*
X119425200Y-76266293D01*
X119232383Y-76134547D01*
X119003500Y-76088197D01*
X118241500Y-76088197D01*
X118027677Y-76128431D01*
X117831293Y-76254800D01*
X117829500Y-76257424D01*
X117829500Y-75706335D01*
X118012617Y-75831453D01*
X118012617Y-75831453D01*
G37*
X118012617Y-75831453D02*
X118241500Y-75877803D01*
X119003500Y-75877803D01*
X119217323Y-75837569D01*
X119271047Y-75802999D01*
X119726183Y-75802999D01*
X119782300Y-75890207D01*
X119896395Y-75968164D01*
X119827156Y-75996844D01*
X119664844Y-76159157D01*
X119577001Y-76371228D01*
X119577001Y-76597835D01*
X119551569Y-76462677D01*
X119425200Y-76266293D01*
X119232383Y-76134547D01*
X119003500Y-76088197D01*
X118241500Y-76088197D01*
X118027677Y-76128431D01*
X117831293Y-76254800D01*
X117829500Y-76257424D01*
X117829500Y-75706335D01*
X118012617Y-75831453D01*
G36*
X157140197Y-73679500D02*
X157180431Y-73893323D01*
X157306800Y-74089707D01*
X157333827Y-74108174D01*
X157239344Y-74202657D01*
X157151501Y-74414728D01*
X157151501Y-74637252D01*
X157295750Y-74781501D01*
X158055501Y-74781501D01*
X158055501Y-74761501D01*
X158300001Y-74761501D01*
X158300001Y-76145094D01*
X157961329Y-75806422D01*
X158055501Y-75712250D01*
X158055501Y-75027499D01*
X157295750Y-75027499D01*
X157200863Y-75122386D01*
X157182210Y-75109923D01*
X157057803Y-75085177D01*
X157057803Y-74529500D01*
X157017569Y-74315677D01*
X156891200Y-74119293D01*
X156864173Y-74100826D01*
X156958656Y-74006343D01*
X157046499Y-73794272D01*
X157046499Y-73571748D01*
X156902250Y-73427499D01*
X156170715Y-73427499D01*
X156122710Y-73395423D01*
X155829000Y-73337001D01*
X154543001Y-73337001D01*
X154543001Y-73220999D01*
X157140197Y-73220999D01*
X157140197Y-73679500D01*
X157140197Y-73679500D01*
G37*
X157140197Y-73679500D02*
X157180431Y-73893323D01*
X157306800Y-74089707D01*
X157333827Y-74108174D01*
X157239344Y-74202657D01*
X157151501Y-74414728D01*
X157151501Y-74637252D01*
X157295750Y-74781501D01*
X158055501Y-74781501D01*
X158055501Y-74761501D01*
X158300001Y-74761501D01*
X158300001Y-76145094D01*
X157961329Y-75806422D01*
X158055501Y-75712250D01*
X158055501Y-75027499D01*
X157295750Y-75027499D01*
X157200863Y-75122386D01*
X157182210Y-75109923D01*
X157057803Y-75085177D01*
X157057803Y-74529500D01*
X157017569Y-74315677D01*
X156891200Y-74119293D01*
X156864173Y-74100826D01*
X156958656Y-74006343D01*
X157046499Y-73794272D01*
X157046499Y-73571748D01*
X156902250Y-73427499D01*
X156170715Y-73427499D01*
X156122710Y-73395423D01*
X155829000Y-73337001D01*
X154543001Y-73337001D01*
X154543001Y-73220999D01*
X157140197Y-73220999D01*
X157140197Y-73679500D01*
M02*
