G04 #@! TF.FileFunction,Legend,Top*
%FSLAX46Y46*%
G04 Gerber Fmt 4.6, Leading zero omitted, Abs format (unit mm)*
G04 Created by KiCad (PCBNEW 4.0.0-rc2-stable) date 2016-03-30 14:05:51*
%MOMM*%
G01*
G04 APERTURE LIST*
%ADD10C,0.150000*%
%ADD11C,0.499745*%
%ADD12C,0.500380*%
%ADD13C,0.250190*%
%ADD14C,0.251460*%
%ADD15C,0.200660*%
%ADD16C,0.237490*%
%ADD17C,0.238760*%
%ADD18C,0.325120*%
%ADD19C,0.304800*%
%ADD20C,0.300000*%
%ADD21C,0.100000*%
%ADD22C,0.127000*%
%ADD23C,0.200000*%
%ADD24C,0.129540*%
%ADD25C,0.101600*%
%ADD26C,0.152400*%
%ADD27C,0.119380*%
%ADD28C,0.099060*%
%ADD29C,0.149860*%
%ADD30C,0.109220*%
%ADD31C,0.200025*%
%ADD32C,0.130810*%
%ADD33C,0.132080*%
%ADD34C,0.250000*%
%ADD35C,0.175260*%
%ADD36C,4.114800*%
%ADD37R,1.258000X1.408000*%
%ADD38R,1.408000X1.258000*%
%ADD39R,1.778000X3.048000*%
%ADD40R,3.048000X1.778000*%
%ADD41C,2.108200*%
%ADD42R,1.308100X0.807720*%
%ADD43R,4.508000X5.508000*%
%ADD44C,2.506980*%
%ADD45R,1.905000X1.397000*%
%ADD46R,1.808480X1.107440*%
%ADD47C,1.958000*%
%ADD48R,0.908000X1.858000*%
%ADD49O,1.708000X2.408000*%
%ADD50R,1.208000X2.008000*%
%ADD51R,2.008000X2.508000*%
%ADD52R,2.308000X1.908000*%
G04 APERTURE END LIST*
D10*
D11*
X109537016Y-89995284D02*
X108013984Y-89995284D01*
D12*
D11*
X109464016Y-80525784D02*
X107940984Y-80525784D01*
X108702500Y-81287300D02*
X108702500Y-79764268D01*
D12*
D13*
X158845432Y-93861225D02*
X158273569Y-93861225D01*
X158559500Y-93861225D02*
X158559500Y-92860465D01*
X158464190Y-93003430D01*
X158368879Y-93098741D01*
X158273569Y-93146396D01*
D14*
D15*
X178640460Y-90087400D02*
X178640460Y-90788440D01*
X180489580Y-90437920D02*
X179590420Y-89538760D01*
X179590420Y-89538760D02*
X179590420Y-90087400D01*
X180489580Y-90437920D02*
X179590420Y-91337080D01*
X179590420Y-91337080D02*
X179590420Y-90788440D01*
X178640460Y-90087400D02*
X179590420Y-90087400D01*
X178640460Y-90788440D02*
X179590420Y-90788440D01*
X178640460Y-78738680D02*
X179590420Y-78738680D01*
X178640460Y-78037640D02*
X179590420Y-78037640D01*
X179590420Y-79287320D02*
X179590420Y-78738680D01*
X180489580Y-78388160D02*
X179590420Y-79287320D01*
X179590420Y-77489000D02*
X179590420Y-78037640D01*
X180489580Y-78388160D02*
X179590420Y-77489000D01*
X178640460Y-78037640D02*
X178640460Y-78738680D01*
D16*
X180168915Y-79605818D02*
X180168915Y-80148653D01*
X178769375Y-79877236D02*
X180168915Y-79877236D01*
X178769375Y-80465306D02*
X180168915Y-80465306D01*
X179502467Y-80465306D02*
X179502467Y-81008140D01*
X178769375Y-81008140D02*
X180168915Y-81008140D01*
X178769375Y-81460502D02*
X180168915Y-81460502D01*
X178836020Y-81867628D02*
X178769375Y-82003336D01*
X178769375Y-82229517D01*
X178836020Y-82319990D01*
X178902664Y-82365226D01*
X179035954Y-82410462D01*
X179169243Y-82410462D01*
X179302533Y-82365226D01*
X179369178Y-82319990D01*
X179435822Y-82229517D01*
X179502467Y-82048573D01*
X179569112Y-81958100D01*
X179635757Y-81912864D01*
X179769046Y-81867628D01*
X179902336Y-81867628D01*
X180035625Y-81912864D01*
X180102270Y-81958100D01*
X180168915Y-82048573D01*
X180168915Y-82274753D01*
X180102270Y-82410462D01*
X178836020Y-83496131D02*
X178769375Y-83631839D01*
X178769375Y-83858020D01*
X178836020Y-83948493D01*
X178902664Y-83993729D01*
X179035954Y-84038965D01*
X179169243Y-84038965D01*
X179302533Y-83993729D01*
X179369178Y-83948493D01*
X179435822Y-83858020D01*
X179502467Y-83677076D01*
X179569112Y-83586603D01*
X179635757Y-83541367D01*
X179769046Y-83496131D01*
X179902336Y-83496131D01*
X180035625Y-83541367D01*
X180102270Y-83586603D01*
X180168915Y-83677076D01*
X180168915Y-83903256D01*
X180102270Y-84038965D01*
X178769375Y-84446091D02*
X180168915Y-84446091D01*
X178769375Y-84898453D02*
X180168915Y-84898453D01*
X180168915Y-85124634D01*
X180102270Y-85260342D01*
X179968980Y-85350815D01*
X179835691Y-85396051D01*
X179569112Y-85441287D01*
X179369178Y-85441287D01*
X179102599Y-85396051D01*
X178969309Y-85350815D01*
X178836020Y-85260342D01*
X178769375Y-85124634D01*
X178769375Y-84898453D01*
X179502467Y-85848413D02*
X179502467Y-86165066D01*
X178769375Y-86300775D02*
X178769375Y-85848413D01*
X180168915Y-85848413D01*
X180168915Y-86300775D01*
X180168915Y-87431680D02*
X179035954Y-87431680D01*
X178902664Y-87476916D01*
X178836020Y-87522152D01*
X178769375Y-87612625D01*
X178769375Y-87793569D01*
X178836020Y-87884042D01*
X178902664Y-87929278D01*
X179035954Y-87974514D01*
X180168915Y-87974514D01*
X178769375Y-88426876D02*
X180168915Y-88426876D01*
X180168915Y-88788765D01*
X180102270Y-88879238D01*
X180035625Y-88924474D01*
X179902336Y-88969710D01*
X179702401Y-88969710D01*
X179569112Y-88924474D01*
X179502467Y-88879238D01*
X179435822Y-88788765D01*
X179435822Y-88426876D01*
D17*
D18*
X162510834Y-89387257D02*
X163153091Y-89387257D01*
X162382382Y-89787125D02*
X162831962Y-88387585D01*
X163281542Y-89787125D01*
X163731123Y-89787125D02*
X163731123Y-88854099D01*
X163731123Y-89120678D02*
X163795348Y-88987388D01*
X163859574Y-88920743D01*
X163988025Y-88854099D01*
X164116477Y-88854099D01*
X165079862Y-89720480D02*
X164951411Y-89787125D01*
X164694508Y-89787125D01*
X164566057Y-89720480D01*
X164501831Y-89587191D01*
X164501831Y-89054033D01*
X164566057Y-88920743D01*
X164694508Y-88854099D01*
X164951411Y-88854099D01*
X165079862Y-88920743D01*
X165144088Y-89054033D01*
X165144088Y-89187322D01*
X164501831Y-89320612D01*
X166300151Y-89720480D02*
X166171700Y-89787125D01*
X165914797Y-89787125D01*
X165786345Y-89720480D01*
X165722120Y-89653836D01*
X165657894Y-89520546D01*
X165657894Y-89120678D01*
X165722120Y-88987388D01*
X165786345Y-88920743D01*
X165914797Y-88854099D01*
X166171700Y-88854099D01*
X166300151Y-88920743D01*
X167070860Y-89787125D02*
X166942408Y-89720480D01*
X166878183Y-89653836D01*
X166813957Y-89520546D01*
X166813957Y-89120678D01*
X166878183Y-88987388D01*
X166942408Y-88920743D01*
X167070860Y-88854099D01*
X167263537Y-88854099D01*
X167391988Y-88920743D01*
X167456214Y-88987388D01*
X167520440Y-89120678D01*
X167520440Y-89520546D01*
X167456214Y-89653836D01*
X167391988Y-89720480D01*
X167263537Y-89787125D01*
X167070860Y-89787125D01*
X168098472Y-89787125D02*
X168098472Y-88854099D01*
X168098472Y-89120678D02*
X168162697Y-88987388D01*
X168226923Y-88920743D01*
X168355374Y-88854099D01*
X168483826Y-88854099D01*
X169511437Y-89787125D02*
X169511437Y-88387585D01*
X169511437Y-89720480D02*
X169382986Y-89787125D01*
X169126083Y-89787125D01*
X168997631Y-89720480D01*
X168933406Y-89653836D01*
X168869180Y-89520546D01*
X168869180Y-89120678D01*
X168933406Y-88987388D01*
X168997631Y-88920743D01*
X169126083Y-88854099D01*
X169382986Y-88854099D01*
X169511437Y-88920743D01*
X170667500Y-89720480D02*
X170539049Y-89787125D01*
X170282146Y-89787125D01*
X170153695Y-89720480D01*
X170089469Y-89587191D01*
X170089469Y-89054033D01*
X170153695Y-88920743D01*
X170282146Y-88854099D01*
X170539049Y-88854099D01*
X170667500Y-88920743D01*
X170731726Y-89054033D01*
X170731726Y-89187322D01*
X170089469Y-89320612D01*
X171309758Y-89787125D02*
X171309758Y-88854099D01*
X171309758Y-89120678D02*
X171373983Y-88987388D01*
X171438209Y-88920743D01*
X171566660Y-88854099D01*
X171695112Y-88854099D01*
X173043851Y-88854099D02*
X173364980Y-89787125D01*
X173686108Y-88854099D01*
X174135688Y-88520875D02*
X174199914Y-88454230D01*
X174328365Y-88387585D01*
X174649494Y-88387585D01*
X174777945Y-88454230D01*
X174842171Y-88520875D01*
X174906396Y-88654164D01*
X174906396Y-88787454D01*
X174842171Y-88987388D01*
X174071462Y-89787125D01*
X174906396Y-89787125D01*
X175484428Y-89653836D02*
X175548653Y-89720480D01*
X175484428Y-89787125D01*
X175420202Y-89720480D01*
X175484428Y-89653836D01*
X175484428Y-89787125D01*
X176062459Y-88520875D02*
X176126685Y-88454230D01*
X176255136Y-88387585D01*
X176576265Y-88387585D01*
X176704716Y-88454230D01*
X176768942Y-88520875D01*
X176833167Y-88654164D01*
X176833167Y-88787454D01*
X176768942Y-88987388D01*
X175998233Y-89787125D01*
X176833167Y-89787125D01*
X143684238Y-84696497D02*
X143605619Y-84882280D01*
X143605619Y-85191918D01*
X143684238Y-85315774D01*
X143762857Y-85377701D01*
X143920095Y-85439629D01*
X144077333Y-85439629D01*
X144234571Y-85377701D01*
X144313190Y-85315774D01*
X144391810Y-85191918D01*
X144470429Y-84944208D01*
X144549048Y-84820353D01*
X144627667Y-84758425D01*
X144784905Y-84696497D01*
X144942143Y-84696497D01*
X145099381Y-84758425D01*
X145178000Y-84820353D01*
X145256619Y-84944208D01*
X145256619Y-85253846D01*
X145178000Y-85439629D01*
X145256619Y-85811194D02*
X145256619Y-86554326D01*
X143605619Y-86182760D02*
X145256619Y-86182760D01*
X145178000Y-87669023D02*
X145256619Y-87545168D01*
X145256619Y-87359385D01*
X145178000Y-87173602D01*
X145020762Y-87049747D01*
X144863524Y-86987819D01*
X144549048Y-86925891D01*
X144313190Y-86925891D01*
X143998714Y-86987819D01*
X143841476Y-87049747D01*
X143684238Y-87173602D01*
X143605619Y-87359385D01*
X143605619Y-87483240D01*
X143684238Y-87669023D01*
X143762857Y-87730951D01*
X144313190Y-87730951D01*
X144313190Y-87483240D01*
X145099381Y-88226371D02*
X145178000Y-88288299D01*
X145256619Y-88412154D01*
X145256619Y-88721792D01*
X145178000Y-88845648D01*
X145099381Y-88907575D01*
X144942143Y-88969503D01*
X144784905Y-88969503D01*
X144549048Y-88907575D01*
X143605619Y-88164444D01*
X143605619Y-88969503D01*
D19*
X136223413Y-84515534D02*
X137724553Y-84515534D01*
X137724553Y-85010955D01*
X137653070Y-85134810D01*
X137581587Y-85196738D01*
X137438621Y-85258666D01*
X137224173Y-85258666D01*
X137081207Y-85196738D01*
X137009724Y-85134810D01*
X136938241Y-85010955D01*
X136938241Y-84515534D01*
X136652310Y-85754086D02*
X136652310Y-86373363D01*
X136223413Y-85630231D02*
X137724553Y-86063725D01*
X136223413Y-86497218D01*
X136223413Y-87673843D02*
X136938241Y-87240349D01*
X136223413Y-86930711D02*
X137724553Y-86930711D01*
X137724553Y-87426132D01*
X137653070Y-87549987D01*
X137581587Y-87611915D01*
X137438621Y-87673843D01*
X137224173Y-87673843D01*
X137081207Y-87611915D01*
X137009724Y-87549987D01*
X136938241Y-87426132D01*
X136938241Y-86930711D01*
X137581587Y-88169263D02*
X137653070Y-88231191D01*
X137724553Y-88355046D01*
X137724553Y-88664684D01*
X137653070Y-88788540D01*
X137581587Y-88850467D01*
X137438621Y-88912395D01*
X137295656Y-88912395D01*
X137081207Y-88850467D01*
X136223413Y-88107336D01*
X136223413Y-88912395D01*
X128623413Y-84665534D02*
X130124553Y-84665534D01*
X130124553Y-85160955D01*
X130053070Y-85284810D01*
X129981587Y-85346738D01*
X129838621Y-85408666D01*
X129624173Y-85408666D01*
X129481207Y-85346738D01*
X129409724Y-85284810D01*
X129338241Y-85160955D01*
X129338241Y-84665534D01*
X129052310Y-85904086D02*
X129052310Y-86523363D01*
X128623413Y-85780231D02*
X130124553Y-86213725D01*
X128623413Y-86647218D01*
X128623413Y-87823843D02*
X129338241Y-87390349D01*
X128623413Y-87080711D02*
X130124553Y-87080711D01*
X130124553Y-87576132D01*
X130053070Y-87699987D01*
X129981587Y-87761915D01*
X129838621Y-87823843D01*
X129624173Y-87823843D01*
X129481207Y-87761915D01*
X129409724Y-87699987D01*
X129338241Y-87576132D01*
X129338241Y-87080711D01*
X128623413Y-89062395D02*
X128623413Y-88319263D01*
X128623413Y-88690829D02*
X130124553Y-88690829D01*
X129910104Y-88566974D01*
X129767139Y-88443119D01*
X129695656Y-88319263D01*
D20*
X110988214Y-83242524D02*
X110931071Y-83471095D01*
X110873929Y-83547286D01*
X110759643Y-83623476D01*
X110588214Y-83623476D01*
X110473929Y-83547286D01*
X110416786Y-83471095D01*
X110359643Y-83318714D01*
X110359643Y-82709190D01*
X111559643Y-82709190D01*
X111559643Y-83242524D01*
X111502500Y-83394905D01*
X111445357Y-83471095D01*
X111331071Y-83547286D01*
X111216786Y-83547286D01*
X111102500Y-83471095D01*
X111045357Y-83394905D01*
X110988214Y-83242524D01*
X110988214Y-82709190D01*
X110702500Y-84233000D02*
X110702500Y-84994905D01*
X110359643Y-84080619D02*
X111559643Y-84613952D01*
X110359643Y-85147286D01*
X111559643Y-85452048D02*
X111559643Y-86366334D01*
X110359643Y-85909191D02*
X111559643Y-85909191D01*
X111559643Y-86671096D02*
X111559643Y-87585382D01*
X110359643Y-87128239D02*
X111559643Y-87128239D01*
D21*
X153747000Y-90311500D02*
X154572500Y-90311500D01*
X154572500Y-90311500D02*
X154572500Y-91454500D01*
X154572500Y-91454500D02*
X153747000Y-91454500D01*
X152858000Y-90311500D02*
X152032500Y-90311500D01*
X152032500Y-90311500D02*
X152032500Y-91454500D01*
X152032500Y-91454500D02*
X152858000Y-91454500D01*
X137247000Y-78461500D02*
X138072500Y-78461500D01*
X138072500Y-78461500D02*
X138072500Y-79604500D01*
X138072500Y-79604500D02*
X137247000Y-79604500D01*
X136358000Y-78461500D02*
X135532500Y-78461500D01*
X135532500Y-78461500D02*
X135532500Y-79604500D01*
X135532500Y-79604500D02*
X136358000Y-79604500D01*
X137247000Y-76711500D02*
X138072500Y-76711500D01*
X138072500Y-76711500D02*
X138072500Y-77854500D01*
X138072500Y-77854500D02*
X137247000Y-77854500D01*
X136358000Y-76711500D02*
X135532500Y-76711500D01*
X135532500Y-76711500D02*
X135532500Y-77854500D01*
X135532500Y-77854500D02*
X136358000Y-77854500D01*
X160718500Y-92011500D02*
X160718500Y-92837000D01*
X160718500Y-92837000D02*
X159575500Y-92837000D01*
X159575500Y-92837000D02*
X159575500Y-92011500D01*
X160718500Y-91122500D02*
X160718500Y-90297000D01*
X160718500Y-90297000D02*
X159575500Y-90297000D01*
X159575500Y-90297000D02*
X159575500Y-91122500D01*
D22*
X169164000Y-84264500D02*
X168910000Y-84264500D01*
X168910000Y-84264500D02*
X168910000Y-81470500D01*
X168910000Y-81470500D02*
X169164000Y-81470500D01*
D23*
X171069000Y-83502500D02*
X171069000Y-82232500D01*
X171894500Y-83502500D02*
X171894500Y-82232500D01*
X171894500Y-82232500D02*
X171069000Y-82867500D01*
X171069000Y-82867500D02*
X171894500Y-83502500D01*
D22*
X170688000Y-81470500D02*
X169164000Y-81470500D01*
X169164000Y-81470500D02*
X169164000Y-84264500D01*
X169164000Y-84264500D02*
X170688000Y-84264500D01*
X172212000Y-84264500D02*
X173736000Y-84264500D01*
X173736000Y-84264500D02*
X173736000Y-81470500D01*
X173736000Y-81470500D02*
X172212000Y-81470500D01*
X123605500Y-84247000D02*
X123605500Y-83993000D01*
X123605500Y-83993000D02*
X126399500Y-83993000D01*
X126399500Y-83993000D02*
X126399500Y-84247000D01*
D23*
X124367500Y-86152000D02*
X125637500Y-86152000D01*
X124367500Y-86977500D02*
X125637500Y-86977500D01*
X125637500Y-86977500D02*
X125002500Y-86152000D01*
X125002500Y-86152000D02*
X124367500Y-86977500D01*
D22*
X126399500Y-85771000D02*
X126399500Y-84247000D01*
X126399500Y-84247000D02*
X123605500Y-84247000D01*
X123605500Y-84247000D02*
X123605500Y-85771000D01*
X123605500Y-87295000D02*
X123605500Y-88819000D01*
X123605500Y-88819000D02*
X126399500Y-88819000D01*
X126399500Y-88819000D02*
X126399500Y-87295000D01*
X131255500Y-84197000D02*
X131255500Y-83943000D01*
X131255500Y-83943000D02*
X134049500Y-83943000D01*
X134049500Y-83943000D02*
X134049500Y-84197000D01*
D23*
X132017500Y-86102000D02*
X133287500Y-86102000D01*
X132017500Y-86927500D02*
X133287500Y-86927500D01*
X133287500Y-86927500D02*
X132652500Y-86102000D01*
X132652500Y-86102000D02*
X132017500Y-86927500D01*
D22*
X134049500Y-85721000D02*
X134049500Y-84197000D01*
X134049500Y-84197000D02*
X131255500Y-84197000D01*
X131255500Y-84197000D02*
X131255500Y-85721000D01*
X131255500Y-87245000D02*
X131255500Y-88769000D01*
X131255500Y-88769000D02*
X134049500Y-88769000D01*
X134049500Y-88769000D02*
X134049500Y-87245000D01*
X138855500Y-84197000D02*
X138855500Y-83943000D01*
X138855500Y-83943000D02*
X141649500Y-83943000D01*
X141649500Y-83943000D02*
X141649500Y-84197000D01*
D23*
X139617500Y-86102000D02*
X140887500Y-86102000D01*
X139617500Y-86927500D02*
X140887500Y-86927500D01*
X140887500Y-86927500D02*
X140252500Y-86102000D01*
X140252500Y-86102000D02*
X139617500Y-86927500D01*
D22*
X141649500Y-85721000D02*
X141649500Y-84197000D01*
X141649500Y-84197000D02*
X138855500Y-84197000D01*
X138855500Y-84197000D02*
X138855500Y-85721000D01*
X138855500Y-87245000D02*
X138855500Y-88769000D01*
X138855500Y-88769000D02*
X141649500Y-88769000D01*
X141649500Y-88769000D02*
X141649500Y-87245000D01*
D24*
X147702500Y-94413000D02*
X160402500Y-94413000D01*
X160402500Y-96953000D02*
X147702500Y-96953000D01*
D22*
X160402500Y-94413000D02*
X160402500Y-96953000D01*
X147702500Y-96953000D02*
X147702500Y-94413000D01*
D15*
X161042500Y-94413000D02*
X161042500Y-96953000D01*
X161042500Y-96953000D02*
X168662500Y-96953000D01*
X168662500Y-96953000D02*
X168662500Y-94413000D01*
X168662500Y-94413000D02*
X161042500Y-94413000D01*
D25*
X130912500Y-93133000D02*
X130912500Y-96943000D01*
X130912500Y-93133000D02*
X130912500Y-89323000D01*
D26*
X123292500Y-93133000D02*
X123292500Y-89323000D01*
X123292500Y-89323000D02*
X130912500Y-89323000D01*
X130912500Y-96943000D02*
X123292500Y-96943000D01*
X123292500Y-96943000D02*
X123292500Y-93133000D01*
D25*
X138512500Y-93133000D02*
X138512500Y-96943000D01*
X138512500Y-93133000D02*
X138512500Y-89323000D01*
D26*
X130892500Y-93133000D02*
X130892500Y-89323000D01*
X130892500Y-89323000D02*
X138512500Y-89323000D01*
X138512500Y-96943000D02*
X130892500Y-96943000D01*
X130892500Y-96943000D02*
X130892500Y-93133000D01*
D25*
X146162500Y-93133000D02*
X146162500Y-96943000D01*
X146162500Y-93133000D02*
X146162500Y-89323000D01*
D26*
X138542500Y-93133000D02*
X138542500Y-89323000D01*
X138542500Y-89323000D02*
X146162500Y-89323000D01*
X146162500Y-96943000D02*
X138542500Y-96943000D01*
X138542500Y-96943000D02*
X138542500Y-93133000D01*
D21*
X143383000Y-74549000D02*
X143383000Y-73723500D01*
X143383000Y-73723500D02*
X144526000Y-73723500D01*
X144526000Y-73723500D02*
X144526000Y-74549000D01*
X143383000Y-75438000D02*
X143383000Y-76263500D01*
X143383000Y-76263500D02*
X144526000Y-76263500D01*
X144526000Y-76263500D02*
X144526000Y-75438000D01*
X140608000Y-75754500D02*
X139782500Y-75754500D01*
X139782500Y-75754500D02*
X139782500Y-74611500D01*
X139782500Y-74611500D02*
X140608000Y-74611500D01*
X141497000Y-75754500D02*
X142322500Y-75754500D01*
X142322500Y-75754500D02*
X142322500Y-74611500D01*
X142322500Y-74611500D02*
X141497000Y-74611500D01*
X167068500Y-82296000D02*
X167894000Y-82296000D01*
X167894000Y-82296000D02*
X167894000Y-83439000D01*
X167894000Y-83439000D02*
X167068500Y-83439000D01*
X166179500Y-82296000D02*
X165354000Y-82296000D01*
X165354000Y-82296000D02*
X165354000Y-83439000D01*
X165354000Y-83439000D02*
X166179500Y-83439000D01*
D15*
X164691060Y-90756740D02*
X165889940Y-90756740D01*
X165889940Y-90756740D02*
X165889940Y-92758260D01*
X165889940Y-92758260D02*
X164691060Y-92758260D01*
X164691060Y-92758260D02*
X164691060Y-90756740D01*
X122952500Y-88683000D02*
X122952500Y-80883000D01*
X112652500Y-80883000D02*
X112652500Y-88683000D01*
X120452500Y-78383000D02*
X115152500Y-78383000D01*
X120452500Y-78383000D02*
X122952500Y-80883000D01*
X115152500Y-78383000D02*
X112652500Y-80883000D01*
X122952500Y-88683000D02*
X112652500Y-88683000D01*
D27*
X134785000Y-78408000D02*
G75*
G03X134785000Y-78408000I-6032500J0D01*
G01*
D22*
X171172500Y-91843000D02*
X171172500Y-96923000D01*
X171172500Y-96923000D02*
X168632500Y-96923000D01*
X168632500Y-96923000D02*
X168632500Y-91843000D01*
X168632500Y-91843000D02*
X171172500Y-91843000D01*
X173722500Y-91843000D02*
X173722500Y-96923000D01*
X173722500Y-96923000D02*
X171182500Y-96923000D01*
X171182500Y-96923000D02*
X171182500Y-91843000D01*
X171182500Y-91843000D02*
X173722500Y-91843000D01*
X110072500Y-82393000D02*
X110072500Y-87473000D01*
X110072500Y-87473000D02*
X107532500Y-87473000D01*
X107532500Y-87473000D02*
X107532500Y-82393000D01*
X107532500Y-82393000D02*
X110072500Y-82393000D01*
D28*
X145351500Y-78549500D02*
X145351500Y-77533500D01*
X145351500Y-77533500D02*
X146875500Y-77533500D01*
X146875500Y-77533500D02*
X146875500Y-78549500D01*
X146875500Y-79565500D02*
X146875500Y-80581500D01*
X146875500Y-80581500D02*
X145351500Y-80581500D01*
X145351500Y-80581500D02*
X145351500Y-79565500D01*
D29*
X139103453Y-76489000D02*
G75*
G03X139103453Y-76489000I-228953J0D01*
G01*
X142176500Y-76743000D02*
X142176500Y-81823000D01*
X142176500Y-81823000D02*
X139128500Y-81823000D01*
X139128500Y-81823000D02*
X139128500Y-76743000D01*
X139128500Y-76743000D02*
X140652500Y-76743000D01*
X140652500Y-76743000D02*
X142176500Y-76743000D01*
D22*
X133604000Y-72072500D02*
X138684000Y-72072500D01*
X138684000Y-72072500D02*
X138684000Y-74612500D01*
X138684000Y-74612500D02*
X133604000Y-74612500D01*
X133604000Y-74612500D02*
X133604000Y-72072500D01*
X172529500Y-77787500D02*
X172529500Y-71945500D01*
X172529500Y-71945500D02*
X164465000Y-71945500D01*
X164465000Y-71945500D02*
X164465000Y-77787500D01*
D23*
X169545000Y-72898000D02*
X167513000Y-72898000D01*
X167513000Y-72898000D02*
X168529000Y-73660000D01*
X168529000Y-73660000D02*
X169545000Y-72898000D01*
D22*
X164465000Y-77787500D02*
X172529500Y-77787500D01*
D21*
X158242000Y-72898000D02*
X154749500Y-72898000D01*
X154749500Y-72898000D02*
X156527500Y-75184000D01*
X156527500Y-75184000D02*
X158242000Y-72898000D01*
X162052000Y-87503000D02*
X148018500Y-87503000D01*
X148018500Y-87503000D02*
X148018500Y-72263000D01*
X162052000Y-72263000D02*
X148018500Y-72263000D01*
X162052000Y-87503000D02*
X162052000Y-72263000D01*
D30*
X153205604Y-89967707D02*
X153181776Y-89991535D01*
X153110293Y-90015362D01*
X153062638Y-90015362D01*
X152991155Y-89991535D01*
X152943500Y-89943880D01*
X152919672Y-89896224D01*
X152895844Y-89800914D01*
X152895844Y-89729431D01*
X152919672Y-89634120D01*
X152943500Y-89586465D01*
X152991155Y-89538810D01*
X153062638Y-89514982D01*
X153110293Y-89514982D01*
X153181776Y-89538810D01*
X153205604Y-89562638D01*
X153682156Y-90015362D02*
X153396224Y-90015362D01*
X153539190Y-90015362D02*
X153539190Y-89514982D01*
X153491535Y-89586465D01*
X153443880Y-89634120D01*
X153396224Y-89657948D01*
X136520828Y-80315707D02*
X136497000Y-80339535D01*
X136425517Y-80363362D01*
X136377862Y-80363362D01*
X136306379Y-80339535D01*
X136258724Y-80291880D01*
X136234896Y-80244224D01*
X136211068Y-80148914D01*
X136211068Y-80077431D01*
X136234896Y-79982120D01*
X136258724Y-79934465D01*
X136306379Y-79886810D01*
X136377862Y-79862982D01*
X136425517Y-79862982D01*
X136497000Y-79886810D01*
X136520828Y-79910638D01*
X136997380Y-80363362D02*
X136711448Y-80363362D01*
X136854414Y-80363362D02*
X136854414Y-79862982D01*
X136806759Y-79934465D01*
X136759104Y-79982120D01*
X136711448Y-80005948D01*
X137188000Y-79910638D02*
X137211828Y-79886810D01*
X137259483Y-79862982D01*
X137378621Y-79862982D01*
X137426277Y-79886810D01*
X137450104Y-79910638D01*
X137473932Y-79958293D01*
X137473932Y-80005948D01*
X137450104Y-80077431D01*
X137164173Y-80363362D01*
X137473932Y-80363362D01*
X136393828Y-76442207D02*
X136370000Y-76466035D01*
X136298517Y-76489862D01*
X136250862Y-76489862D01*
X136179379Y-76466035D01*
X136131724Y-76418380D01*
X136107896Y-76370724D01*
X136084068Y-76275414D01*
X136084068Y-76203931D01*
X136107896Y-76108620D01*
X136131724Y-76060965D01*
X136179379Y-76013310D01*
X136250862Y-75989482D01*
X136298517Y-75989482D01*
X136370000Y-76013310D01*
X136393828Y-76037138D01*
X136870380Y-76489862D02*
X136584448Y-76489862D01*
X136727414Y-76489862D02*
X136727414Y-75989482D01*
X136679759Y-76060965D01*
X136632104Y-76108620D01*
X136584448Y-76132448D01*
X137037173Y-75989482D02*
X137346932Y-75989482D01*
X137180139Y-76180103D01*
X137251621Y-76180103D01*
X137299277Y-76203931D01*
X137323104Y-76227759D01*
X137346932Y-76275414D01*
X137346932Y-76394552D01*
X137323104Y-76442207D01*
X137299277Y-76466035D01*
X137251621Y-76489862D01*
X137108656Y-76489862D01*
X137061000Y-76466035D01*
X137037173Y-76442207D01*
X159761828Y-89967707D02*
X159738000Y-89991535D01*
X159666517Y-90015362D01*
X159618862Y-90015362D01*
X159547379Y-89991535D01*
X159499724Y-89943880D01*
X159475896Y-89896224D01*
X159452068Y-89800914D01*
X159452068Y-89729431D01*
X159475896Y-89634120D01*
X159499724Y-89586465D01*
X159547379Y-89538810D01*
X159618862Y-89514982D01*
X159666517Y-89514982D01*
X159738000Y-89538810D01*
X159761828Y-89562638D01*
X160238380Y-90015362D02*
X159952448Y-90015362D01*
X160095414Y-90015362D02*
X160095414Y-89514982D01*
X160047759Y-89586465D01*
X160000104Y-89634120D01*
X159952448Y-89657948D01*
X160524311Y-89729431D02*
X160476656Y-89705603D01*
X160452828Y-89681776D01*
X160429000Y-89634120D01*
X160429000Y-89610293D01*
X160452828Y-89562638D01*
X160476656Y-89538810D01*
X160524311Y-89514982D01*
X160619621Y-89514982D01*
X160667277Y-89538810D01*
X160691104Y-89562638D01*
X160714932Y-89610293D01*
X160714932Y-89634120D01*
X160691104Y-89681776D01*
X160667277Y-89705603D01*
X160619621Y-89729431D01*
X160524311Y-89729431D01*
X160476656Y-89753259D01*
X160452828Y-89777086D01*
X160429000Y-89824741D01*
X160429000Y-89920052D01*
X160452828Y-89967707D01*
X160476656Y-89991535D01*
X160524311Y-90015362D01*
X160619621Y-90015362D01*
X160667277Y-89991535D01*
X160691104Y-89967707D01*
X160714932Y-89920052D01*
X160714932Y-89824741D01*
X160691104Y-89777086D01*
X160667277Y-89753259D01*
X160619621Y-89729431D01*
D22*
X171141572Y-81180214D02*
X171141572Y-80418214D01*
X171323000Y-80418214D01*
X171431857Y-80454500D01*
X171504429Y-80527071D01*
X171540714Y-80599643D01*
X171577000Y-80744786D01*
X171577000Y-80853643D01*
X171540714Y-80998786D01*
X171504429Y-81071357D01*
X171431857Y-81143929D01*
X171323000Y-81180214D01*
X171141572Y-81180214D01*
X172302714Y-81180214D02*
X171867286Y-81180214D01*
X172085000Y-81180214D02*
X172085000Y-80418214D01*
X172012429Y-80527071D01*
X171939857Y-80599643D01*
X171867286Y-80635929D01*
X127598714Y-87112928D02*
X126836714Y-87112928D01*
X126836714Y-86931500D01*
X126873000Y-86822643D01*
X126945571Y-86750071D01*
X127018143Y-86713786D01*
X127163286Y-86677500D01*
X127272143Y-86677500D01*
X127417286Y-86713786D01*
X127489857Y-86750071D01*
X127562429Y-86822643D01*
X127598714Y-86931500D01*
X127598714Y-87112928D01*
X126909286Y-86387214D02*
X126873000Y-86350928D01*
X126836714Y-86278357D01*
X126836714Y-86096928D01*
X126873000Y-86024357D01*
X126909286Y-85988071D01*
X126981857Y-85951786D01*
X127054429Y-85951786D01*
X127163286Y-85988071D01*
X127598714Y-86423500D01*
X127598714Y-85951786D01*
X135409214Y-87112928D02*
X134647214Y-87112928D01*
X134647214Y-86931500D01*
X134683500Y-86822643D01*
X134756071Y-86750071D01*
X134828643Y-86713786D01*
X134973786Y-86677500D01*
X135082643Y-86677500D01*
X135227786Y-86713786D01*
X135300357Y-86750071D01*
X135372929Y-86822643D01*
X135409214Y-86931500D01*
X135409214Y-87112928D01*
X134647214Y-86423500D02*
X134647214Y-85951786D01*
X134937500Y-86205786D01*
X134937500Y-86096928D01*
X134973786Y-86024357D01*
X135010071Y-85988071D01*
X135082643Y-85951786D01*
X135264071Y-85951786D01*
X135336643Y-85988071D01*
X135372929Y-86024357D01*
X135409214Y-86096928D01*
X135409214Y-86314643D01*
X135372929Y-86387214D01*
X135336643Y-86423500D01*
X142711714Y-87049428D02*
X141949714Y-87049428D01*
X141949714Y-86868000D01*
X141986000Y-86759143D01*
X142058571Y-86686571D01*
X142131143Y-86650286D01*
X142276286Y-86614000D01*
X142385143Y-86614000D01*
X142530286Y-86650286D01*
X142602857Y-86686571D01*
X142675429Y-86759143D01*
X142711714Y-86868000D01*
X142711714Y-87049428D01*
X142203714Y-85960857D02*
X142711714Y-85960857D01*
X141913429Y-86142286D02*
X142457714Y-86323714D01*
X142457714Y-85852000D01*
D13*
X148867344Y-93924725D02*
X148867344Y-92923965D01*
X149248586Y-92923965D01*
X149343897Y-92971620D01*
X149391552Y-93019275D01*
X149439207Y-93114586D01*
X149439207Y-93257551D01*
X149391552Y-93352862D01*
X149343897Y-93400517D01*
X149248586Y-93448172D01*
X148867344Y-93448172D01*
X150392312Y-93924725D02*
X149820449Y-93924725D01*
X150106380Y-93924725D02*
X150106380Y-92923965D01*
X150011070Y-93066930D01*
X149915759Y-93162241D01*
X149820449Y-93209896D01*
D14*
D31*
X166731950Y-94151450D02*
X166731950Y-93351350D01*
X167036750Y-93351350D01*
X167112950Y-93389450D01*
X167151050Y-93427550D01*
X167189150Y-93503750D01*
X167189150Y-93618050D01*
X167151050Y-93694250D01*
X167112950Y-93732350D01*
X167036750Y-93770450D01*
X166731950Y-93770450D01*
X167493950Y-93427550D02*
X167532050Y-93389450D01*
X167608250Y-93351350D01*
X167798750Y-93351350D01*
X167874950Y-93389450D01*
X167913050Y-93427550D01*
X167951150Y-93503750D01*
X167951150Y-93579950D01*
X167913050Y-93694250D01*
X167455850Y-94151450D01*
X167951150Y-94151450D01*
D15*
D31*
X161347150Y-93224350D02*
X161347150Y-93872050D01*
X161385250Y-93948250D01*
X161423350Y-93986350D01*
X161499550Y-94024450D01*
X161651950Y-94024450D01*
X161728150Y-93986350D01*
X161766250Y-93948250D01*
X161804350Y-93872050D01*
X161804350Y-93224350D01*
X162147250Y-93795850D02*
X162528250Y-93795850D01*
X162071050Y-94024450D02*
X162337750Y-93224350D01*
X162604450Y-94024450D01*
X163328350Y-94024450D02*
X163061650Y-93643450D01*
X162871150Y-94024450D02*
X162871150Y-93224350D01*
X163175950Y-93224350D01*
X163252150Y-93262450D01*
X163290250Y-93300550D01*
X163328350Y-93376750D01*
X163328350Y-93491050D01*
X163290250Y-93567250D01*
X163252150Y-93605350D01*
X163175950Y-93643450D01*
X162871150Y-93643450D01*
X163556950Y-93224350D02*
X164014150Y-93224350D01*
X163785550Y-94024450D02*
X163785550Y-93224350D01*
D15*
D32*
X126994799Y-88946204D02*
X126994799Y-88422964D01*
X127194128Y-88422964D01*
X127243961Y-88447880D01*
X127268877Y-88472796D01*
X127293793Y-88522629D01*
X127293793Y-88597377D01*
X127268877Y-88647210D01*
X127243961Y-88672126D01*
X127194128Y-88697042D01*
X126994799Y-88697042D01*
X127468207Y-88422964D02*
X127792117Y-88422964D01*
X127617704Y-88622293D01*
X127692452Y-88622293D01*
X127742285Y-88647210D01*
X127767201Y-88672126D01*
X127792117Y-88721958D01*
X127792117Y-88846539D01*
X127767201Y-88896371D01*
X127742285Y-88921288D01*
X127692452Y-88946204D01*
X127542955Y-88946204D01*
X127493123Y-88921288D01*
X127468207Y-88896371D01*
D33*
D32*
X134614799Y-88946204D02*
X134614799Y-88422964D01*
X134814128Y-88422964D01*
X134863961Y-88447880D01*
X134888877Y-88472796D01*
X134913793Y-88522629D01*
X134913793Y-88597377D01*
X134888877Y-88647210D01*
X134863961Y-88672126D01*
X134814128Y-88697042D01*
X134614799Y-88697042D01*
X135362285Y-88597377D02*
X135362285Y-88946204D01*
X135237704Y-88398048D02*
X135113123Y-88771790D01*
X135437033Y-88771790D01*
D33*
D32*
X142107799Y-88882704D02*
X142107799Y-88359464D01*
X142307128Y-88359464D01*
X142356961Y-88384380D01*
X142381877Y-88409296D01*
X142406793Y-88459129D01*
X142406793Y-88533877D01*
X142381877Y-88583710D01*
X142356961Y-88608626D01*
X142307128Y-88633542D01*
X142107799Y-88633542D01*
X142880201Y-88359464D02*
X142631039Y-88359464D01*
X142606123Y-88608626D01*
X142631039Y-88583710D01*
X142680871Y-88558793D01*
X142805452Y-88558793D01*
X142855285Y-88583710D01*
X142880201Y-88608626D01*
X142905117Y-88658458D01*
X142905117Y-88783039D01*
X142880201Y-88832871D01*
X142855285Y-88857788D01*
X142805452Y-88882704D01*
X142680871Y-88882704D01*
X142631039Y-88857788D01*
X142606123Y-88832871D01*
D33*
D30*
X143961604Y-77150862D02*
X143794810Y-76912586D01*
X143675672Y-77150862D02*
X143675672Y-76650482D01*
X143866293Y-76650482D01*
X143913948Y-76674310D01*
X143937776Y-76698138D01*
X143961604Y-76745793D01*
X143961604Y-76817276D01*
X143937776Y-76864931D01*
X143913948Y-76888759D01*
X143866293Y-76912586D01*
X143675672Y-76912586D01*
X144438156Y-77150862D02*
X144152224Y-77150862D01*
X144295190Y-77150862D02*
X144295190Y-76650482D01*
X144247535Y-76721965D01*
X144199880Y-76769620D01*
X144152224Y-76793448D01*
X140969104Y-74456862D02*
X140802310Y-74218586D01*
X140683172Y-74456862D02*
X140683172Y-73956482D01*
X140873793Y-73956482D01*
X140921448Y-73980310D01*
X140945276Y-74004138D01*
X140969104Y-74051793D01*
X140969104Y-74123276D01*
X140945276Y-74170931D01*
X140921448Y-74194759D01*
X140873793Y-74218586D01*
X140683172Y-74218586D01*
X141159724Y-74004138D02*
X141183552Y-73980310D01*
X141231207Y-73956482D01*
X141350345Y-73956482D01*
X141398001Y-73980310D01*
X141421828Y-74004138D01*
X141445656Y-74051793D01*
X141445656Y-74099448D01*
X141421828Y-74170931D01*
X141135897Y-74456862D01*
X141445656Y-74456862D01*
X166540604Y-82014362D02*
X166373810Y-81776086D01*
X166254672Y-82014362D02*
X166254672Y-81513982D01*
X166445293Y-81513982D01*
X166492948Y-81537810D01*
X166516776Y-81561638D01*
X166540604Y-81609293D01*
X166540604Y-81680776D01*
X166516776Y-81728431D01*
X166492948Y-81752259D01*
X166445293Y-81776086D01*
X166254672Y-81776086D01*
X166969501Y-81680776D02*
X166969501Y-82014362D01*
X166850363Y-81490155D02*
X166731224Y-81847569D01*
X167040984Y-81847569D01*
D31*
X162077400Y-91192350D02*
X162077400Y-91840050D01*
X162115500Y-91916250D01*
X162153600Y-91954350D01*
X162229800Y-91992450D01*
X162382200Y-91992450D01*
X162458400Y-91954350D01*
X162496500Y-91916250D01*
X162534600Y-91840050D01*
X162534600Y-91192350D01*
X163258500Y-91459050D02*
X163258500Y-91992450D01*
X163068000Y-91154250D02*
X162877500Y-91725750D01*
X163372800Y-91725750D01*
D15*
D34*
X120896143Y-90336643D02*
X120848524Y-90384262D01*
X120705667Y-90431881D01*
X120610429Y-90431881D01*
X120467571Y-90384262D01*
X120372333Y-90289024D01*
X120324714Y-90193786D01*
X120277095Y-90003310D01*
X120277095Y-89860452D01*
X120324714Y-89669976D01*
X120372333Y-89574738D01*
X120467571Y-89479500D01*
X120610429Y-89431881D01*
X120705667Y-89431881D01*
X120848524Y-89479500D01*
X120896143Y-89527119D01*
X121848524Y-90431881D02*
X121277095Y-90431881D01*
X121562809Y-90431881D02*
X121562809Y-89431881D01*
X121467571Y-89574738D01*
X121372333Y-89669976D01*
X121277095Y-89717595D01*
X122705667Y-89431881D02*
X122515190Y-89431881D01*
X122419952Y-89479500D01*
X122372333Y-89527119D01*
X122277095Y-89669976D01*
X122229476Y-89860452D01*
X122229476Y-90241405D01*
X122277095Y-90336643D01*
X122324714Y-90384262D01*
X122419952Y-90431881D01*
X122610429Y-90431881D01*
X122705667Y-90384262D01*
X122753286Y-90336643D01*
X122800905Y-90241405D01*
X122800905Y-90003310D01*
X122753286Y-89908071D01*
X122705667Y-89860452D01*
X122610429Y-89812833D01*
X122419952Y-89812833D01*
X122324714Y-89860452D01*
X122277095Y-89908071D01*
X122229476Y-90003310D01*
D35*
X122813354Y-73245254D02*
X122913503Y-73278637D01*
X123080417Y-73278637D01*
X123147183Y-73245254D01*
X123180566Y-73211871D01*
X123213949Y-73145106D01*
X123213949Y-73078340D01*
X123180566Y-73011574D01*
X123147183Y-72978191D01*
X123080417Y-72944809D01*
X122946886Y-72911426D01*
X122880120Y-72878043D01*
X122846737Y-72844660D01*
X122813354Y-72777894D01*
X122813354Y-72711129D01*
X122846737Y-72644363D01*
X122880120Y-72610980D01*
X122946886Y-72577597D01*
X123113800Y-72577597D01*
X123213949Y-72610980D01*
X123514394Y-73278637D02*
X123514394Y-72577597D01*
X123781457Y-72577597D01*
X123848223Y-72610980D01*
X123881606Y-72644363D01*
X123914989Y-72711129D01*
X123914989Y-72811277D01*
X123881606Y-72878043D01*
X123848223Y-72911426D01*
X123781457Y-72944809D01*
X123514394Y-72944809D01*
X124582646Y-73278637D02*
X124182051Y-73278637D01*
X124382349Y-73278637D02*
X124382349Y-72577597D01*
X124315583Y-72677746D01*
X124248817Y-72744511D01*
X124182051Y-72777894D01*
D19*
X125870689Y-76817597D02*
X127031832Y-76817597D01*
X126451261Y-77398169D02*
X126451261Y-76237026D01*
D32*
X169452799Y-91635204D02*
X169452799Y-91111964D01*
X169652128Y-91111964D01*
X169701961Y-91136880D01*
X169726877Y-91161796D01*
X169751793Y-91211629D01*
X169751793Y-91286377D01*
X169726877Y-91336210D01*
X169701961Y-91361126D01*
X169652128Y-91386042D01*
X169452799Y-91386042D01*
X170000955Y-91635204D02*
X170100620Y-91635204D01*
X170150452Y-91610288D01*
X170175368Y-91585371D01*
X170225201Y-91510623D01*
X170250117Y-91410958D01*
X170250117Y-91211629D01*
X170225201Y-91161796D01*
X170200285Y-91136880D01*
X170150452Y-91111964D01*
X170050788Y-91111964D01*
X170000955Y-91136880D01*
X169976039Y-91161796D01*
X169951123Y-91211629D01*
X169951123Y-91336210D01*
X169976039Y-91386042D01*
X170000955Y-91410958D01*
X170050788Y-91435874D01*
X170150452Y-91435874D01*
X170200285Y-91410958D01*
X170225201Y-91386042D01*
X170250117Y-91336210D01*
D33*
D32*
X168169409Y-98611871D02*
X168144493Y-98636788D01*
X168069744Y-98661704D01*
X168019912Y-98661704D01*
X167945164Y-98636788D01*
X167895331Y-98586955D01*
X167870415Y-98537123D01*
X167845499Y-98437458D01*
X167845499Y-98362710D01*
X167870415Y-98263045D01*
X167895331Y-98213212D01*
X167945164Y-98163380D01*
X168019912Y-98138464D01*
X168069744Y-98138464D01*
X168144493Y-98163380D01*
X168169409Y-98188296D01*
X168493320Y-98138464D02*
X168592984Y-98138464D01*
X168642817Y-98163380D01*
X168692649Y-98213212D01*
X168717565Y-98312877D01*
X168717565Y-98487290D01*
X168692649Y-98586955D01*
X168642817Y-98636788D01*
X168592984Y-98661704D01*
X168493320Y-98661704D01*
X168443487Y-98636788D01*
X168393655Y-98586955D01*
X168368739Y-98487290D01*
X168368739Y-98312877D01*
X168393655Y-98213212D01*
X168443487Y-98163380D01*
X168493320Y-98138464D01*
X168941811Y-98661704D02*
X168941811Y-98138464D01*
X169240805Y-98661704D01*
X169240805Y-98138464D01*
X169664380Y-98387626D02*
X169489967Y-98387626D01*
X169489967Y-98661704D02*
X169489967Y-98138464D01*
X169739129Y-98138464D01*
X169813877Y-98711536D02*
X170212536Y-98711536D01*
X170312201Y-98636788D02*
X170386949Y-98661704D01*
X170511530Y-98661704D01*
X170561363Y-98636788D01*
X170586279Y-98611871D01*
X170611195Y-98562039D01*
X170611195Y-98512207D01*
X170586279Y-98462374D01*
X170561363Y-98437458D01*
X170511530Y-98412542D01*
X170411866Y-98387626D01*
X170362033Y-98362710D01*
X170337117Y-98337793D01*
X170312201Y-98287961D01*
X170312201Y-98238129D01*
X170337117Y-98188296D01*
X170362033Y-98163380D01*
X170411866Y-98138464D01*
X170536446Y-98138464D01*
X170611195Y-98163380D01*
X170835441Y-98387626D02*
X171009854Y-98387626D01*
X171084603Y-98661704D02*
X170835441Y-98661704D01*
X170835441Y-98138464D01*
X171084603Y-98138464D01*
X171558011Y-98661704D02*
X171308849Y-98661704D01*
X171308849Y-98138464D01*
X171707508Y-98188296D02*
X171732424Y-98163380D01*
X171782256Y-98138464D01*
X171906837Y-98138464D01*
X171956670Y-98163380D01*
X171981586Y-98188296D01*
X172006502Y-98238129D01*
X172006502Y-98287961D01*
X171981586Y-98362710D01*
X171682592Y-98661704D01*
X172006502Y-98661704D01*
D33*
D32*
X172002799Y-91635204D02*
X172002799Y-91111964D01*
X172202128Y-91111964D01*
X172251961Y-91136880D01*
X172276877Y-91161796D01*
X172301793Y-91211629D01*
X172301793Y-91286377D01*
X172276877Y-91336210D01*
X172251961Y-91361126D01*
X172202128Y-91386042D01*
X172002799Y-91386042D01*
X172600788Y-91336210D02*
X172550955Y-91311293D01*
X172526039Y-91286377D01*
X172501123Y-91236545D01*
X172501123Y-91211629D01*
X172526039Y-91161796D01*
X172550955Y-91136880D01*
X172600788Y-91111964D01*
X172700452Y-91111964D01*
X172750285Y-91136880D01*
X172775201Y-91161796D01*
X172800117Y-91211629D01*
X172800117Y-91236545D01*
X172775201Y-91286377D01*
X172750285Y-91311293D01*
X172700452Y-91336210D01*
X172600788Y-91336210D01*
X172550955Y-91361126D01*
X172526039Y-91386042D01*
X172501123Y-91435874D01*
X172501123Y-91535539D01*
X172526039Y-91585371D01*
X172550955Y-91610288D01*
X172600788Y-91635204D01*
X172700452Y-91635204D01*
X172750285Y-91610288D01*
X172775201Y-91585371D01*
X172800117Y-91535539D01*
X172800117Y-91435874D01*
X172775201Y-91386042D01*
X172750285Y-91361126D01*
X172700452Y-91336210D01*
D33*
D32*
X170886409Y-98379871D02*
X170861493Y-98404788D01*
X170786744Y-98429704D01*
X170736912Y-98429704D01*
X170662164Y-98404788D01*
X170612331Y-98354955D01*
X170587415Y-98305123D01*
X170562499Y-98205458D01*
X170562499Y-98130710D01*
X170587415Y-98031045D01*
X170612331Y-97981212D01*
X170662164Y-97931380D01*
X170736912Y-97906464D01*
X170786744Y-97906464D01*
X170861493Y-97931380D01*
X170886409Y-97956296D01*
X171210320Y-97906464D02*
X171309984Y-97906464D01*
X171359817Y-97931380D01*
X171409649Y-97981212D01*
X171434565Y-98080877D01*
X171434565Y-98255290D01*
X171409649Y-98354955D01*
X171359817Y-98404788D01*
X171309984Y-98429704D01*
X171210320Y-98429704D01*
X171160487Y-98404788D01*
X171110655Y-98354955D01*
X171085739Y-98255290D01*
X171085739Y-98080877D01*
X171110655Y-97981212D01*
X171160487Y-97931380D01*
X171210320Y-97906464D01*
X171658811Y-98429704D02*
X171658811Y-97906464D01*
X171957805Y-98429704D01*
X171957805Y-97906464D01*
X172381380Y-98155626D02*
X172206967Y-98155626D01*
X172206967Y-98429704D02*
X172206967Y-97906464D01*
X172456129Y-97906464D01*
X172530877Y-98479536D02*
X172929536Y-98479536D01*
X173029201Y-98404788D02*
X173103949Y-98429704D01*
X173228530Y-98429704D01*
X173278363Y-98404788D01*
X173303279Y-98379871D01*
X173328195Y-98330039D01*
X173328195Y-98280207D01*
X173303279Y-98230374D01*
X173278363Y-98205458D01*
X173228530Y-98180542D01*
X173128866Y-98155626D01*
X173079033Y-98130710D01*
X173054117Y-98105793D01*
X173029201Y-98055961D01*
X173029201Y-98006129D01*
X173054117Y-97956296D01*
X173079033Y-97931380D01*
X173128866Y-97906464D01*
X173253446Y-97906464D01*
X173328195Y-97931380D01*
X173552441Y-98155626D02*
X173726854Y-98155626D01*
X173801603Y-98429704D02*
X173552441Y-98429704D01*
X173552441Y-97906464D01*
X173801603Y-97906464D01*
X174275011Y-98429704D02*
X174025849Y-98429704D01*
X174025849Y-97906464D01*
X174723502Y-98429704D02*
X174424508Y-98429704D01*
X174574005Y-98429704D02*
X174574005Y-97906464D01*
X174524173Y-97981212D01*
X174474340Y-98031045D01*
X174424508Y-98055961D01*
D33*
D32*
X108352799Y-82185204D02*
X108352799Y-81661964D01*
X108552128Y-81661964D01*
X108601961Y-81686880D01*
X108626877Y-81711796D01*
X108651793Y-81761629D01*
X108651793Y-81836377D01*
X108626877Y-81886210D01*
X108601961Y-81911126D01*
X108552128Y-81936042D01*
X108352799Y-81936042D01*
X108826207Y-81661964D02*
X109175033Y-81661964D01*
X108950788Y-82185204D01*
D33*
D32*
X107757565Y-89263704D02*
X107757565Y-88740464D01*
X107956894Y-88740464D01*
X108006727Y-88765380D01*
X108031643Y-88790296D01*
X108056559Y-88840129D01*
X108056559Y-88914877D01*
X108031643Y-88964710D01*
X108006727Y-88989626D01*
X107956894Y-89014542D01*
X107757565Y-89014542D01*
X108380470Y-88740464D02*
X108480134Y-88740464D01*
X108529967Y-88765380D01*
X108579799Y-88815212D01*
X108604715Y-88914877D01*
X108604715Y-89089290D01*
X108579799Y-89188955D01*
X108529967Y-89238788D01*
X108480134Y-89263704D01*
X108380470Y-89263704D01*
X108330637Y-89238788D01*
X108280805Y-89188955D01*
X108255889Y-89089290D01*
X108255889Y-88914877D01*
X108280805Y-88815212D01*
X108330637Y-88765380D01*
X108380470Y-88740464D01*
X108779129Y-88740464D02*
X108903710Y-89263704D01*
X109003374Y-88889961D01*
X109103039Y-89263704D01*
X109227620Y-88740464D01*
X109426950Y-88989626D02*
X109601363Y-88989626D01*
X109676112Y-89263704D02*
X109426950Y-89263704D01*
X109426950Y-88740464D01*
X109676112Y-88740464D01*
X110199352Y-89263704D02*
X110024939Y-89014542D01*
X109900358Y-89263704D02*
X109900358Y-88740464D01*
X110099687Y-88740464D01*
X110149520Y-88765380D01*
X110174436Y-88790296D01*
X110199352Y-88840129D01*
X110199352Y-88914877D01*
X110174436Y-88964710D01*
X110149520Y-88989626D01*
X110099687Y-89014542D01*
X109900358Y-89014542D01*
D33*
D30*
X146030104Y-81331707D02*
X146006276Y-81355535D01*
X145934793Y-81379362D01*
X145887138Y-81379362D01*
X145815655Y-81355535D01*
X145768000Y-81307880D01*
X145744172Y-81260224D01*
X145720344Y-81164914D01*
X145720344Y-81093431D01*
X145744172Y-80998120D01*
X145768000Y-80950465D01*
X145815655Y-80902810D01*
X145887138Y-80878982D01*
X145934793Y-80878982D01*
X146006276Y-80902810D01*
X146030104Y-80926638D01*
X146482828Y-80878982D02*
X146244552Y-80878982D01*
X146220724Y-81117259D01*
X146244552Y-81093431D01*
X146292207Y-81069603D01*
X146411345Y-81069603D01*
X146459001Y-81093431D01*
X146482828Y-81117259D01*
X146506656Y-81164914D01*
X146506656Y-81284052D01*
X146482828Y-81331707D01*
X146459001Y-81355535D01*
X146411345Y-81379362D01*
X146292207Y-81379362D01*
X146244552Y-81355535D01*
X146220724Y-81331707D01*
D29*
X140259284Y-82221735D02*
X140259284Y-82706996D01*
X140287829Y-82764086D01*
X140316373Y-82792630D01*
X140373463Y-82821175D01*
X140487642Y-82821175D01*
X140544731Y-82792630D01*
X140573276Y-82764086D01*
X140601821Y-82706996D01*
X140601821Y-82221735D01*
X141144172Y-82221735D02*
X141029993Y-82221735D01*
X140972903Y-82250280D01*
X140944358Y-82278825D01*
X140887269Y-82364459D01*
X140858724Y-82478638D01*
X140858724Y-82706996D01*
X140887269Y-82764086D01*
X140915814Y-82792630D01*
X140972903Y-82821175D01*
X141087082Y-82821175D01*
X141144172Y-82792630D01*
X141172716Y-82764086D01*
X141201261Y-82706996D01*
X141201261Y-82564272D01*
X141172716Y-82507183D01*
X141144172Y-82478638D01*
X141087082Y-82450093D01*
X140972903Y-82450093D01*
X140915814Y-82478638D01*
X140887269Y-82507183D01*
X140858724Y-82564272D01*
D32*
X133396204Y-73093701D02*
X132872964Y-73093701D01*
X132872964Y-72894372D01*
X132897880Y-72844539D01*
X132922796Y-72819623D01*
X132972629Y-72794707D01*
X133047377Y-72794707D01*
X133097210Y-72819623D01*
X133122126Y-72844539D01*
X133147042Y-72894372D01*
X133147042Y-73093701D01*
X132872964Y-72346215D02*
X132872964Y-72445880D01*
X132897880Y-72495712D01*
X132922796Y-72520629D01*
X132997545Y-72570461D01*
X133097210Y-72595377D01*
X133296539Y-72595377D01*
X133346371Y-72570461D01*
X133371288Y-72545545D01*
X133396204Y-72495712D01*
X133396204Y-72396048D01*
X133371288Y-72346215D01*
X133346371Y-72321299D01*
X133296539Y-72296383D01*
X133171958Y-72296383D01*
X133122126Y-72321299D01*
X133097210Y-72346215D01*
X133072293Y-72396048D01*
X133072293Y-72495712D01*
X133097210Y-72545545D01*
X133122126Y-72570461D01*
X133171958Y-72595377D01*
D33*
D32*
X134105710Y-75146626D02*
X134280123Y-75146626D01*
X134354872Y-75420704D02*
X134105710Y-75420704D01*
X134105710Y-74897464D01*
X134354872Y-74897464D01*
X134529286Y-74897464D02*
X134878112Y-75420704D01*
X134878112Y-74897464D02*
X134529286Y-75420704D01*
X135002693Y-74897464D02*
X135301688Y-74897464D01*
X135152191Y-75420704D02*
X135152191Y-74897464D01*
X135351520Y-75470536D02*
X135750179Y-75470536D01*
X136049173Y-75146626D02*
X136123922Y-75171542D01*
X136148838Y-75196458D01*
X136173754Y-75246290D01*
X136173754Y-75321039D01*
X136148838Y-75370871D01*
X136123922Y-75395788D01*
X136074089Y-75420704D01*
X135874760Y-75420704D01*
X135874760Y-74897464D01*
X136049173Y-74897464D01*
X136099006Y-74922380D01*
X136123922Y-74947296D01*
X136148838Y-74997129D01*
X136148838Y-75046961D01*
X136123922Y-75096793D01*
X136099006Y-75121710D01*
X136049173Y-75146626D01*
X135874760Y-75146626D01*
X136398000Y-74897464D02*
X136398000Y-75321039D01*
X136422916Y-75370871D01*
X136447832Y-75395788D01*
X136497665Y-75420704D01*
X136597329Y-75420704D01*
X136647162Y-75395788D01*
X136672078Y-75370871D01*
X136696994Y-75321039D01*
X136696994Y-74897464D01*
X136896324Y-74897464D02*
X137245150Y-74897464D01*
X136896324Y-75420704D01*
X137245150Y-75420704D01*
X137394648Y-74897464D02*
X137743474Y-74897464D01*
X137394648Y-75420704D01*
X137743474Y-75420704D01*
X137942804Y-75146626D02*
X138117217Y-75146626D01*
X138191966Y-75420704D02*
X137942804Y-75420704D01*
X137942804Y-74897464D01*
X138191966Y-74897464D01*
X138715206Y-75420704D02*
X138540793Y-75171542D01*
X138416212Y-75420704D02*
X138416212Y-74897464D01*
X138615541Y-74897464D01*
X138665374Y-74922380D01*
X138690290Y-74947296D01*
X138715206Y-74997129D01*
X138715206Y-75071877D01*
X138690290Y-75121710D01*
X138665374Y-75146626D01*
X138615541Y-75171542D01*
X138416212Y-75171542D01*
D33*
D10*
X170735667Y-78509881D02*
X170735667Y-79224167D01*
X170688047Y-79367024D01*
X170592809Y-79462262D01*
X170449952Y-79509881D01*
X170354714Y-79509881D01*
X171735667Y-79509881D02*
X171164238Y-79509881D01*
X171449952Y-79509881D02*
X171449952Y-78509881D01*
X171354714Y-78652738D01*
X171259476Y-78747976D01*
X171164238Y-78795595D01*
X162623595Y-79589381D02*
X162623595Y-80398905D01*
X162671214Y-80494143D01*
X162718833Y-80541762D01*
X162814071Y-80589381D01*
X163004548Y-80589381D01*
X163099786Y-80541762D01*
X163147405Y-80494143D01*
X163195024Y-80398905D01*
X163195024Y-79589381D01*
X164195024Y-80589381D02*
X163623595Y-80589381D01*
X163909309Y-80589381D02*
X163909309Y-79589381D01*
X163814071Y-79732238D01*
X163718833Y-79827476D01*
X163623595Y-79875095D01*
%LPC*%
D36*
X110261400Y-74930000D03*
X110261400Y-93929200D03*
X178282600Y-74930000D03*
X178282600Y-93929200D03*
D37*
X154102500Y-90883000D03*
X152502500Y-90883000D03*
X137602500Y-79033000D03*
X136002500Y-79033000D03*
X137602500Y-77283000D03*
X136002500Y-77283000D03*
D38*
X160147000Y-92367000D03*
X160147000Y-90767000D03*
D39*
X169926000Y-82867500D03*
X172974000Y-82867500D03*
D40*
X125002500Y-85009000D03*
X125002500Y-88057000D03*
X132652500Y-84959000D03*
X132652500Y-88007000D03*
X140252500Y-84959000D03*
X140252500Y-88007000D03*
D41*
X159132500Y-95683000D03*
X156592500Y-95683000D03*
X154052500Y-95683000D03*
X151512500Y-95683000D03*
X148972500Y-95683000D03*
X167392500Y-95683000D03*
X164852500Y-95683000D03*
X162312500Y-95683000D03*
X125197500Y-93133000D03*
X129007500Y-93133000D03*
X132797500Y-93133000D03*
X136607500Y-93133000D03*
X140447500Y-93133000D03*
X144257500Y-93133000D03*
D38*
X143954500Y-74193500D03*
X143954500Y-75793500D03*
D37*
X140252500Y-75183000D03*
X141852500Y-75183000D03*
X167424000Y-82867500D03*
X165824000Y-82867500D03*
D42*
X164289740Y-91757500D03*
X164289740Y-91107260D03*
X164289740Y-92407740D03*
X166291260Y-92407740D03*
X166291260Y-91107260D03*
D43*
X117802500Y-87683000D03*
X117802500Y-79383000D03*
D44*
X132562500Y-78408000D03*
X124942500Y-78408000D03*
D41*
X169902500Y-93113000D03*
X169902500Y-95653000D03*
X172452500Y-93113000D03*
X172452500Y-95653000D03*
X108802500Y-83663000D03*
X108802500Y-86203000D03*
D45*
X146113500Y-78105000D03*
X146113500Y-80010000D03*
D46*
X139453620Y-81157520D03*
X139453620Y-79907840D03*
X139453620Y-78658160D03*
X139453620Y-77408480D03*
X141851380Y-77408480D03*
X141851380Y-78658160D03*
X141851380Y-79907840D03*
X141851380Y-81157520D03*
D41*
X134874000Y-73342500D03*
X137414000Y-73342500D03*
D47*
X171005500Y-76962000D03*
X166005500Y-76962000D03*
D48*
X169805500Y-76962000D03*
X169155500Y-76962000D03*
X168505500Y-76962000D03*
X167855500Y-76962000D03*
X167205500Y-76962000D03*
D49*
X172005500Y-74262000D03*
X165005500Y-74262000D03*
D50*
X153132000Y-76603000D03*
X154232000Y-76603000D03*
X155332000Y-76603000D03*
X156432000Y-76603000D03*
X157532000Y-76603000D03*
X158632000Y-76603000D03*
X159732000Y-76603000D03*
X160832000Y-76603000D03*
D51*
X161713000Y-73953000D03*
X148313000Y-72964000D03*
D52*
X160002000Y-87414000D03*
X157152000Y-87414000D03*
X154302000Y-87414000D03*
X151452000Y-87414000D03*
M02*
