M48
;DRILL file {KiCad 4.0.0-rc2-stable} date 2016-03-30 14:06:13
;FORMAT={-:-/ absolute / inch / decimal}
FMAT,2
INCH,TZ
T1C0.012
T2C0.028
T3C0.037
T4C0.039
T5C0.043
T6C0.122
%
G90
G05
M72
T1
X4.2855Y-3.4777
X4.3584Y-3.4796
X4.3662Y-3.4088
X4.4469Y-3.521
X4.4903Y-3.0308
X4.8075Y-3.1025
X4.8131Y-2.9541
X4.8219Y-2.9048
X4.825Y-3.03
X4.855Y-3.1025
X4.875Y-2.885
X4.9558Y-3.2976
X4.9775Y-3.035
X5.0532Y-3.2493
X5.1103Y-3.2867
X5.1556Y-3.4718
X5.1575Y-3.035
X5.1576Y-3.5092
X5.1975Y-2.9275
X5.245Y-2.9275
X5.257Y-3.2926
X5.3062Y-3.1745
X5.31Y-3.0425
X5.4076Y-3.3005
X5.4529Y-3.4678
X5.4548Y-3.5072
X5.5275Y-2.8525
X5.6103Y-3.3241
X5.6399Y-3.1391
X5.7127Y-3.3182
X5.7265Y-3.023
X5.7275Y-2.9175
X5.7275Y-2.9525
X5.7275Y-2.9875
X5.7422Y-3.4619
X5.7521Y-3.33
X5.758Y-3.4954
X5.7658Y-3.3714
X5.7954Y-3.4029
X5.819Y-3.7119
X5.8721Y-3.4915
X5.875Y-3.0225
X5.93Y-3.385
X5.9775Y-3.065
X5.9824Y-3.2611
X5.985Y-3.3575
X6.045Y-3.14
X6.075Y-3.485
X6.0775Y-3.1125
X6.0788Y-3.6391
X6.1175Y-3.0725
X6.1325Y-3.545
X6.145Y-3.265
X6.1697Y-3.1903
X6.1725Y-3.1475
X6.185Y-2.9425
X6.2166Y-3.7237
X6.256Y-3.0899
X6.4164Y-3.4334
X6.4275Y-3.265
X6.45Y-3.06
X6.4509Y-3.3379
X6.5139Y-3.3379
X6.54Y-3.2
X6.6825Y-3.16
X6.685Y-2.945
X6.7225Y-3.16
X6.8275Y-3.0325
X6.8425Y-3.5725
X6.87Y-3.21
X6.8761Y-3.3458
X6.9125Y-3.445
X6.975Y-3.4475
X7.0099Y-3.1726
X7.0178Y-3.4462
T3
X6.5356Y-3.03
X6.7325Y-3.03
T4
X6.3903Y-3.767
X6.4903Y-3.767
X6.5903Y-3.767
T5
X4.2836Y-3.2938
X4.2836Y-3.3938
X4.919Y-3.0869
X4.929Y-3.6667
X5.079Y-3.6667
X5.219Y-3.0869
X5.2282Y-3.6667
X5.31Y-2.8875
X5.3782Y-3.6667
X5.41Y-2.8875
X5.5294Y-3.6667
X5.6794Y-3.6667
X5.8651Y-3.767
X5.9651Y-3.767
X6.0651Y-3.767
X6.1651Y-3.767
X6.2651Y-3.767
X6.6891Y-3.6659
X6.6891Y-3.7659
X6.7895Y-3.6659
X6.7895Y-3.7659
T6
X4.341Y-2.95
X4.341Y-3.698
X7.019Y-2.95
X7.019Y-3.698
T2
X6.4963Y-2.9375G85X6.4963Y-2.9099
G05
X6.7719Y-2.9375G85X6.7719Y-2.9099
G05
T0
M30
